<?xml version="1.0" encoding="utf-8"?>
<!-- Generator: Adobe Illustrator 16.0.0, SVG Export Plug-In . SVG Version: 6.00 Build 0)  -->
<!DOCTYPE svg PUBLIC "-//W3C//DTD SVG 1.1//EN" "http://www.w3.org/Graphics/SVG/1.1/DTD/svg11.dtd">
<svg version="1.1" id="Layer_1" xmlns="http://www.w3.org/2000/svg" xmlns:xlink="http://www.w3.org/1999/xlink" x="0px" y="0px"
	 width="256px" height="256px" viewBox="0 0 256 256" enable-background="new 0 0 256 256" xml:space="preserve">
<g>
	<path fill="#2878C8" d="M75.074,73.391c-10.715,0-19.402-8.684-19.402-19.398c0-10.719,8.688-19.402,19.402-19.402
		c10.707,0,19.398,8.684,19.398,19.402C94.473,64.707,85.781,73.391,75.074,73.391z"/>
	<path fill="#2878C8" d="M75.074,148.746c-10.715,0-19.402-8.684-19.402-19.398s8.688-19.398,19.402-19.398
		c10.707,0,19.398,8.684,19.398,19.398S85.781,148.746,75.074,148.746z"/>
	<path fill="#2878C8" d="M75.074,221.422c-10.715,0-19.402-8.699-19.402-19.398c0-10.719,8.688-19.402,19.402-19.402
		c10.707,0,19.398,8.684,19.398,19.402C94.473,212.723,85.781,221.422,75.074,221.422z"/>
	<path fill="#2878C8" d="M161.523,53.992c0-10.719,8.684-19.402,19.402-19.402c10.707,0,19.398,8.684,19.398,19.402
		c0,10.715-8.691,19.398-19.398,19.398C170.207,73.391,161.523,64.707,161.523,53.992z"/>
	<path fill="#2878C8" d="M161.523,129.348c0-10.715,8.684-19.398,19.402-19.398c10.707,0,19.398,8.684,19.398,19.398
		s-8.691,19.398-19.398,19.398C170.207,148.746,161.523,140.063,161.523,129.348z"/>
	<path fill="#2878C8" d="M161.523,202.023c0-10.719,8.684-19.402,19.402-19.402c10.707,0,19.398,8.684,19.398,19.402
		c0,10.699-8.691,19.398-19.398,19.398C170.207,221.422,161.523,212.723,161.523,202.023z"/>
	<path fill="#374150" d="M211.223,3.84H44.777c-10.754,0-19.477,8.715-19.477,19.473v209.371c0,10.762,8.723,19.477,19.477,19.477
		h166.445c10.754,0,19.477-8.715,19.477-19.477V23.313C230.699,12.555,221.977,3.84,211.223,3.84z M75.074,229.758
		c-15.324,0-27.754-12.43-27.754-27.734c0-15.324,12.43-27.754,27.754-27.754c15.313,0,27.742,12.43,27.742,27.754
		C102.816,217.328,90.387,229.758,75.074,229.758z M75.074,157.098c-15.324,0-27.754-12.426-27.754-27.75s12.43-27.75,27.754-27.75
		c15.313,0,27.742,12.426,27.742,27.75S90.387,157.098,75.074,157.098z M75.074,81.742c-15.324,0-27.754-12.43-27.754-27.75
		c0-15.324,12.43-27.754,27.754-27.754c15.313,0,27.742,12.43,27.742,27.754C102.816,69.313,90.387,81.742,75.074,81.742z
		 M133.477,224.285c0,3.031-2.453,5.473-5.477,5.473s-5.473-2.441-5.473-5.473v-24.672c0-3.031,2.449-5.473,5.473-5.473
		s5.477,2.441,5.477,5.473V224.285z M133.477,168.313c0,3.031-2.453,5.488-5.477,5.488s-5.473-2.457-5.473-5.488v-24.672
		c0-3.016,2.449-5.473,5.473-5.473s5.477,2.457,5.477,5.473V168.313z M133.477,112.355c0,3.031-2.453,5.473-5.477,5.473
		s-5.473-2.441-5.473-5.473V87.684c0-3.031,2.449-5.473,5.473-5.473s5.477,2.441,5.477,5.473V112.355z M133.477,56.387
		c0,3.031-2.453,5.484-5.477,5.484s-5.473-2.453-5.473-5.484V31.711c0-3.016,2.449-5.473,5.473-5.473s5.477,2.457,5.477,5.473
		V56.387z M180.926,229.758c-15.316,0-27.746-12.43-27.746-27.734c0-15.324,12.43-27.754,27.746-27.754
		c15.32,0,27.75,12.43,27.75,27.754C208.676,217.328,196.246,229.758,180.926,229.758z M180.926,157.098
		c-15.316,0-27.746-12.426-27.746-27.75s12.43-27.75,27.746-27.75c15.32,0,27.75,12.426,27.75,27.75
		S196.246,157.098,180.926,157.098z M180.926,81.742c-15.316,0-27.746-12.43-27.746-27.75c0-15.324,12.43-27.754,27.746-27.754
		c15.32,0,27.75,12.43,27.75,27.754C208.676,69.313,196.246,81.742,180.926,81.742z"/>
</g>
</svg>
