<?xml version="1.0" encoding="utf-8"?>
<!-- Generator: Adobe Illustrator 16.0.0, SVG Export Plug-In . SVG Version: 6.00 Build 0)  -->
<!DOCTYPE svg PUBLIC "-//W3C//DTD SVG 1.1//EN" "http://www.w3.org/Graphics/SVG/1.1/DTD/svg11.dtd">
<svg version="1.1" id="Layer_1" xmlns="http://www.w3.org/2000/svg" xmlns:xlink="http://www.w3.org/1999/xlink" x="0px" y="0px"
	 width="256px" height="256px" viewBox="0 0 256 256" enable-background="new 0 0 256 256" xml:space="preserve">
<g>
	<g>
		<g>
			<path fill="#2878C8" d="M163.049,160.145c-15.84-17.836-54.258-17.836-70.098,0c-5.352,6.031-14.141-2.82-8.82-8.805
				c20.121-22.672,67.617-22.672,87.738,0C177.189,157.324,168.4,166.176,163.049,160.145L163.049,160.145z"/>
		</g>
	</g>
	<path fill="#374150" d="M239.604,166.676c-2.23-27.172-36.883-39.375-49.184-42.875c-0.422-3.133-0.664-6.758-0.938-10.984
		c-0.895-13.539-2.117-32.07-10.656-61.281c-4.184-14.273-5.594-29.445-6.063-38.719c-0.273-5.383-1.895-8.977-6.379-8.977
		c-4.488,0-6.746,3.352-6.535,8.242c0.426,9.813,1.859,26.742,6.641,43.063c8.145,27.844,9.313,45.578,10.168,58.516
		c0.41,6.32,0.773,11.797,1.863,16.719l0.895,3.984l3.988,0.898c11.531,2.578,41.832,13.43,43.391,32.461
		c1.242,15.234,2.957,36.07-9.305,47.563c-8.406,7.883-22.926,10.93-43.227,9.063c5.262-9.078,12.594-11.484,18.348-11.688
		c4.484-0.133,9.926,0.258,11.191-5.047c1.563-6.547-4.41-7.563-8.578-7.758c-10.867-0.469-24.781,3.531-33.254,20.07
		c-7.211,14.109-9.926,19.383-33.973,19.383c-24.043,0-26.758-5.273-33.973-19.383c-8.469-16.539-22.383-20.539-33.25-20.07
		c-4.168,0.195-10.141,1.211-8.578,7.758c1.266,5.305,6.707,4.914,11.191,5.047c5.75,0.203,13.086,2.609,18.348,11.688
		c-20.301,1.867-34.824-1.18-43.227-9.063c-12.262-11.492-10.547-32.328-9.305-47.563c1.559-19.031,31.855-29.883,43.391-32.461
		l3.988-0.898l0.891-3.984c1.094-4.922,1.457-10.398,1.867-16.719c0.855-12.938,2.023-30.672,10.168-58.516
		c4.781-16.32,6.215-33.25,6.641-43.063c0.211-4.891-2.047-8.242-6.535-8.242c-4.484,0-6.105,3.594-6.379,8.977
		c-0.469,9.273-1.879,24.445-6.063,38.719c-8.539,29.211-9.762,47.742-10.656,61.281c-0.273,4.227-0.516,7.852-0.938,10.984
		c-12.301,3.5-46.957,15.703-49.184,42.875c-1.379,16.828-3.461,42.258,13.332,57.992c9.328,8.742,22.809,13.078,40.914,13.063
		c5.531,0,11.609-0.5,18.02-1.305c6.887,10.141,16.082,15.734,39.336,15.734c23.258,0,32.453-5.594,39.34-15.734
		c6.41,0.805,12.488,1.305,18.02,1.305c18.105,0.016,31.586-4.32,40.914-13.063C243.064,208.934,240.982,183.504,239.604,166.676z"
		/>
</g>
</svg>
