<?xml version="1.0" encoding="utf-8"?>
<!-- Generator: Adobe Illustrator 16.0.0, SVG Export Plug-In . SVG Version: 6.00 Build 0)  -->
<!DOCTYPE svg PUBLIC "-//W3C//DTD SVG 1.1//EN" "http://www.w3.org/Graphics/SVG/1.1/DTD/svg11.dtd">
<svg version="1.1" id="Layer_1" xmlns="http://www.w3.org/2000/svg" xmlns:xlink="http://www.w3.org/1999/xlink" x="0px" y="0px"
	 width="256px" height="256px" viewBox="0 0 256 256" enable-background="new 0 0 256 256" xml:space="preserve">
<g>
	<g>
		<path fill="#2878C8" d="M147.209,138.757c0,14.195-11.52,25.719-25.736,25.719c-14.201,0-25.727-11.523-25.727-25.719
			c0-14.219,11.525-25.742,25.727-25.742C135.689,113.015,147.209,124.539,147.209,138.757z"/>
	</g>
	<path fill="#374150" d="M240.859,191.101c-6.578-6.758-16.99-7.375-24.357-1.938l-36.436-21.609
		c4.289-8.703,6.76-18.445,6.76-28.797c0-7.07-1.15-13.859-3.229-20.219l17.324-7.883c4.91,3.148,11.443,3.227,16.498-0.383
		c6.615-4.711,8.146-13.898,3.432-20.516c-4.713-6.609-13.904-8.156-20.521-3.43c-3.971,2.82-6.068,7.273-6.123,11.805
		l-16.467,7.492c-7.965-13.508-20.611-23.891-35.746-28.891l8.078-35.953c6.238-1.039,11.793-5.18,14.277-11.5
		c3.76-9.578-0.955-20.383-10.533-24.148c-9.578-3.758-20.393,0.961-24.158,10.539c-3.191,8.141-0.221,17.125,6.592,21.961
		l-8.107,36.102c-2.199-0.227-4.418-0.336-6.67-0.336c-12.125,0-23.439,3.352-33.17,9.109L69.465,57.398
		c2.113-4.688,1.781-10.328-1.479-14.766c-4.813-6.547-14.02-7.953-20.574-3.148c-6.541,4.813-7.957,14.016-3.145,20.578
		c3.289,4.484,8.668,6.484,13.83,5.789L76.959,91c-11.17,10.406-18.703,24.641-20.438,40.664H41.318
		c-2.508-4.531-7.281-7.625-12.814-7.625c-8.131,0-14.717,6.578-14.717,14.719c0,8.102,6.586,14.695,14.717,14.695
		c5.533,0,10.307-3.102,12.814-7.617h15.203c1.197,11.078,5.168,21.305,11.191,30.023l-30.668,26.398
		c-5.297-2.727-11.814-2.875-17.445,0.18c-9.041,4.93-12.383,16.234-7.463,25.266c4.91,9.055,16.225,12.383,25.264,7.477
		c8.012-4.352,11.52-13.734,8.799-22.102l30.82-26.523c10.943,10.172,25.357,16.617,41.293,17.383l1.061,21.406
		c-4.676,3.211-7.26,9-6.1,14.93c1.561,7.969,9.291,13.172,17.264,11.609c7.971-1.563,13.17-9.297,11.609-17.266
		c-0.963-4.953-4.328-8.836-8.654-10.703l-1.031-20.805c16.127-2.742,30.223-11.336,40.027-23.57l36.664,21.75
		c-0.842,5.578,0.773,11.461,5.002,15.805c7.176,7.367,18.975,7.539,26.348,0.352C247.869,210.273,248.027,198.468,240.859,191.101z
		 M121.473,172.796c-18.809,0-34.057-15.25-34.057-34.039c0-18.813,15.248-34.063,34.057-34.063s34.057,15.25,34.057,34.063
		C155.529,157.546,140.281,172.796,121.473,172.796z"/>
</g>
</svg>
