<?xml version="1.0" encoding="utf-8"?>
<!-- Generator: Adobe Illustrator 16.0.0, SVG Export Plug-In . SVG Version: 6.00 Build 0)  -->
<!DOCTYPE svg PUBLIC "-//W3C//DTD SVG 1.1//EN" "http://www.w3.org/Graphics/SVG/1.1/DTD/svg11.dtd">
<svg version="1.1" id="Layer_1" xmlns="http://www.w3.org/2000/svg" xmlns:xlink="http://www.w3.org/1999/xlink" x="0px" y="0px"
	 width="256px" height="256px" viewBox="0 0 256 256" enable-background="new 0 0 256 256" xml:space="preserve">
<g>
	<path fill="#2878C8" d="M86.297,60.297c2.637-18.906,41.695-17.867,41.695-17.867s39.074-1.039,41.695,17.867
		c1.895,13.566-12.535,36.852-34.633,61.703c10.168,10.828,21.598,21.793,33.602,32.242c25.066-34.41,42.875-73.164,34.117-108.047
		c-5.52-22.016-24.219-34.852-41.348-38.98c-4.105-0.996-15.945-3.375-33.434-3.375c-17.477,0-29.313,2.379-33.422,3.375
		c-17.125,4.129-35.828,16.965-41.359,38.98C30.614,136.207,184.766,252.16,184.766,252.16l56.035-36.344
		C176.719,186.836,81.629,93.848,86.297,60.297z"/>
	<path fill="#2878C8" d="M15.2,215.816l56.031,36.344c0,0,22.418-16.914,48.879-42.754c-11.73-11.746-23.977-25.129-35.297-39.453
		C61.379,189.293,36.586,206.148,15.2,215.816z"/>
</g>
</svg>
