<?xml version="1.0" encoding="utf-8"?>
<!-- Generator: Adobe Illustrator 16.0.0, SVG Export Plug-In . SVG Version: 6.00 Build 0)  -->
<!DOCTYPE svg PUBLIC "-//W3C//DTD SVG 1.1//EN" "http://www.w3.org/Graphics/SVG/1.1/DTD/svg11.dtd">
<svg version="1.1" id="Layer_1" xmlns="http://www.w3.org/2000/svg" xmlns:xlink="http://www.w3.org/1999/xlink" x="0px" y="0px"
	 width="256px" height="256px" viewBox="0 0 256 256" enable-background="new 0 0 256 256" xml:space="preserve">
<g>
	<path fill="#2878C8" d="M128.002,20.102c-10.512,0-19.035,8.535-19.035,19.039c0,10.516,8.523,19.035,19.035,19.035
		c10.508,0,19.031-8.52,19.031-19.035C147.033,28.637,138.51,20.102,128.002,20.102z M128.002,46.301
		c-3.949,0-7.156-3.207-7.156-7.16c0-3.949,3.207-7.156,7.156-7.156c3.945,0,7.152,3.207,7.152,7.156
		C135.154,43.094,131.947,46.301,128.002,46.301z"/>
	<g>
		<path fill="#2878C8" d="M102.604,38.578c0.301-13.793,11.531-24.895,25.398-24.895c13.863,0,25.094,11.102,25.398,24.895
			c9.652-0.5,19.234-1.805,28.645-3.969l-1.871-16.598c-0.262-2.336-2.266-4.926-4.449-5.773c0,0-21.684-8.398-47.723-8.398
			c-26.043,0-47.723,8.398-47.723,8.398c-2.184,0.848-4.188,3.438-4.449,5.773l-1.871,16.598
			C83.365,36.773,92.947,38.078,102.604,38.578z"/>
		<path fill="#2878C8" d="M182.881,42.035c-10.023,2.258-20.23,3.605-30.508,4.063c-3.043,10.66-12.742,18.504-24.371,18.504
			s-21.328-7.844-24.371-18.504c-10.281-0.457-20.484-1.805-30.512-4.063l-2.254,20.02c-0.262,2.32,1.32,4.895,3.512,5.715
			c0,0,17.938,6.676,53.625,6.676c35.684,0,53.621-6.676,53.621-6.676c2.195-0.82,3.773-3.395,3.512-5.715L182.881,42.035z"/>
	</g>
	<g>
		<path fill="#2878C8" d="M156.025,156.039c0,0-10.633,12.059-28.02,12.059s-28.027-12.059-28.027-12.059v-44.227
			c0,0,22.289-9.516,28.027-9.516c5.734,0,28.02,9.516,28.02,9.516V156.039z"/>
	</g>
	<path fill="#374150" d="M189.947,83.016c-3.172-5.984-9.133-9.281-16.809-9.281v8.508c4.492,0,7.613,1.609,9.285,4.762
		c2.098,3.953,1.582,10-1.188,14.086c-1.289,1.902-3.551,4.07-7.02,3.691l-4.059-0.441l-1.219,8.051
		c-0.246,2.301-1.75,13.73-7.766,24.406v14.5c13.133-14.188,15.855-34.559,16.215-37.906l0.035-0.242
		c4.273-0.684,8.098-3.215,10.852-7.277C192.834,99.164,193.525,89.762,189.947,83.016z"/>
	<path fill="#374150" d="M94.826,136.777c-6.027-10.719-7.535-22.215-7.797-24.66l-1.188-7.777l-4.055,0.441
		c-3.41,0.395-5.73-1.789-7.023-3.691c-2.773-4.086-3.285-10.133-1.184-14.086c1.668-3.152,4.793-4.762,9.281-4.762v-8.508
		c-7.672,0-13.637,3.297-16.809,9.281c-3.578,6.746-2.887,16.148,1.672,22.855c2.754,4.063,6.582,6.594,10.852,7.285l0.023,0.129
		c0.359,3.418,3.094,23.809,16.227,38.012V136.777z"/>
	<path fill="#374150" d="M229.709,206.766c-5.383-40.496-56.297-46.848-56.297-46.848c-17.734,18.453-39.113,19.871-45.41,19.871
		s-27.676-1.418-45.414-19.871c0,0-50.914,6.352-56.297,46.848c-3.984,30.004-3.301,45.395-3.301,45.395h105.012H233.01
		C233.01,252.16,233.697,236.77,229.709,206.766z M198.877,222.082c0,1.613-1.32,2.941-2.941,2.941h-38.473
		c-1.621,0-2.941-1.328-2.941-2.941V212.02c0-1.613,1.32-2.941,2.941-2.941h38.473c1.621,0,2.941,1.328,2.941,2.941V222.082z"/>
</g>
</svg>
