<?xml version="1.0" encoding="utf-8"?>
<!-- Generator: Adobe Illustrator 16.0.0, SVG Export Plug-In . SVG Version: 6.00 Build 0)  -->
<!DOCTYPE svg PUBLIC "-//W3C//DTD SVG 1.1//EN" "http://www.w3.org/Graphics/SVG/1.1/DTD/svg11.dtd">
<svg version="1.1" id="Layer_1" xmlns="http://www.w3.org/2000/svg" xmlns:xlink="http://www.w3.org/1999/xlink" x="0px" y="0px"
	 width="256px" height="256px" viewBox="0 0 256 256" enable-background="new 0 0 256 256" xml:space="preserve">
<g>
	<g>
		<path fill="#374150" d="M131.424,58.781c15.172,0,27.473-12.289,27.473-27.461c0-15.188-12.301-27.48-27.473-27.48
			c-15.168,0-27.477,12.293-27.477,27.48C103.947,46.492,116.256,58.781,131.424,58.781z"/>
		<path fill="#374150" d="M170.787,129.152c0,0-2.836-1.164-4.617-2.016c-3.281-1.559-6.461-3.316-9.637-5.078
			c-8.922-4.926-19.469-10.078-25.668-18.414c-2.902-3.91-5.258-8.305-7.16-12.957c0.727-2.863,1.492-5.82,2.324-8.973
			c5.684-21.324-29.977-32.027-51.91-9.777c-21.93,22.25-24.918,51.773-26.145,79.922c-0.371,8.727,1.699,15.215,3.32,19.23
			c1.348,3.32,4.281,12.609,5.023,14.566c2.25,5.926-0.395,8.016-1.469,9.078c-1.844,1.82-3.746,3.668-5.652,5.516
			c-8.809,8.52-17.945,17.035-23.508,22.508c-13.754,13.566,7.402,34.707,21.148,21.16c12.504-12.34,33.285-25.828,39.453-42.879
			c2-5.5,1.879-11.563,0.688-17.719c1.957,1.73,3.859,3.52,5.691,5.352c1.473,1.484,2.125,2.91,2.125,6.699
			c0,14.109-0.109,28.223-0.117,42.332c-0.008,19.277,29.891,19.277,29.914,0c0.008-11.324,0.059-22.645,0.09-33.98
			c0.016-8.184,1.016-17.035-2.484-24.66c-2.352-5.137-6.051-9.684-10.285-13.852c2.063-3.32,3.113-7.668,3.113-13.352
			c0-7.324,0.297-13.992,0.957-20.719c12.184,11.199,28.324,19.383,43.074,25.324C176.955,163.695,188.443,136.277,170.787,129.152z
			"/>
	</g>
	<path fill="#2878C8" d="M219.287,212.863c-1.199-8.566-2.879-20.645-5.289-37.832c-2.652-18.914-15.566-29.738-28.707-35.406
		c0.953,4.898-0.16,10.203-2.902,14.535c7.965,4.004,15.695,10.914,17.375,22.871c0.102,0.727,0.199,1.41,0.297,2.137h-36.715
		l2.848-15.184c-2.184-0.078-4.441-0.395-6.836-1.367c-2.281-0.906-4.637-2.016-6.957-3.031l-15.434,82.707
		c0,0-2.723,8.488,5.434,9.746c8.152,1.273,8.852-8.047,8.852-8.047l9.395-50.441h41.422c1.242,8.914,2.23,15.93,3,21.449
		c-6.016,3.422-10.121,9.82-10.121,17.246c0,11.004,8.926,19.914,19.914,19.914c11.004,0,19.914-8.91,19.914-19.914
		C234.775,222.757,228.146,214.878,219.287,212.863z M214.861,239.156c-3.813,0-6.898-3.09-6.898-6.91s3.086-6.91,6.898-6.91
		c3.82,0,6.91,3.09,6.91,6.91S218.682,239.156,214.861,239.156z"/>
</g>
</svg>
