<?xml version="1.0" encoding="utf-8"?>
<!-- Generator: Adobe Illustrator 16.0.0, SVG Export Plug-In . SVG Version: 6.00 Build 0)  -->
<!DOCTYPE svg PUBLIC "-//W3C//DTD SVG 1.1//EN" "http://www.w3.org/Graphics/SVG/1.1/DTD/svg11.dtd">
<svg version="1.1" id="Layer_1" xmlns="http://www.w3.org/2000/svg" xmlns:xlink="http://www.w3.org/1999/xlink" x="0px" y="0px"
	 width="256px" height="256px" viewBox="0 0 256 256" enable-background="new 0 0 256 256" xml:space="preserve">
<g>
	<path fill="#374150" d="M132.983,106.625c23.605,0,40.055-26.434,40.055-50.152c0-16.703-8.371-30.047-21.301-36.633
		c0.023-0.266,0.098-0.516,0.098-0.781c0-8.398-8.426-15.219-18.844-15.219c-10.406,0-18.84,6.82-18.84,15.219
		c0,0.266,0.082,0.508,0.098,0.781c-12.922,6.578-21.301,19.93-21.301,36.633C92.948,80.191,109.39,106.625,132.983,106.625z
		 M146.272,42.602c2.715,5.563,8.445,11.098,15.285,14.766c0.113,0.059,0.191,0.066,0.297,0.129
		c-0.461,19.664-14.262,37.988-28.871,37.988c-13.34,0-25.988-15.301-28.441-32.949C125.784,60.152,138.62,49.703,146.272,42.602z"
		/>
	<path fill="#374150" d="M175.706,116.02c-4.547-6.707-9.941-9.547-15.223-8.191c-1.727,0.441-3.207,1.09-4.586,1.855
		c-22.719,11.824-34.199,7.777-39.641,4.457c-5.805-3.523-9.004-7.516-9.004-7.516l-2.816,2.219
		c-0.836,0.652-20.281,16.109-22.16,37.578c-0.816,9.398,1.789,18.371,7.77,26.754c-6.844,5.305-18.379,16.328-22.594,32.895
		c-3.871,15.27-0.648,26.699,9.582,43.422l1.621,2.668h106.223c0,0-8.828-32.289-8.828-46.68h-0.055
		c5.078-4.766,9.141-10.012,11.383-15.68C194.53,171.703,186.749,132.254,175.706,116.02z M177.026,185.707
		c-7.191,18.18-43.406,33.715-59.996,36.605c-0.273,0.035-6.23,1.879-8.383-4.789c-1.801-5.563,2.336-7.656,2.578-7.777
		c3.227-1.613,5.152-2.539,8.07-3.969c18.613-9.117,28.539-12.469,34.715-23.988c3.129-5.84,2.063-15.383,0.707-27.461
		c-1.676-15.051-5.656-33.156,8.242-35.688c0.016,0,2.168,0.645,5.488,6.914C176.542,140.824,182.155,172.727,177.026,185.707z"/>
</g>
</svg>
