<?xml version="1.0" encoding="utf-8"?>
<!-- Generator: Adobe Illustrator 16.0.0, SVG Export Plug-In . SVG Version: 6.00 Build 0)  -->
<!DOCTYPE svg PUBLIC "-//W3C//DTD SVG 1.1//EN" "http://www.w3.org/Graphics/SVG/1.1/DTD/svg11.dtd">
<svg version="1.1" id="Layer_1" xmlns="http://www.w3.org/2000/svg" xmlns:xlink="http://www.w3.org/1999/xlink" x="0px" y="0px"
	 width="256px" height="256px" viewBox="0 0 256 256" enable-background="new 0 0 256 256" xml:space="preserve">
<g>
	<path fill="#2878C8" d="M114.04,192.929c-33.059,1.5-42.613,13.695-51.055,24.477c-0.371,0.484-0.758,0.969-1.129,1.453
		c7.707,4.18,19.559,6.883,32.852-3.336c11.82-9.078,17.078-16.305,19.52-22.594H114.04z"/>
	<path fill="#2878C8" d="M150.224,44.015c0-3.211-2.598-6.289-5.746-6.852l-21.52-3.805c-3.152-0.547-5.746,1.609-5.746,4.836
		v24.961c10.504,1.203,21.598,2.477,33.012,3.805V44.015z"/>
	<path fill="#2878C8" d="M186.825,46.773c0-3.031-2.453-5.031-5.426-4.438l-16.793,3.344c-2.969,0.609-5.41,3.578-5.41,6.625v15.703
		c9.141,1.078,18.398,2.18,27.629,3.289V46.773z"/>
	<path fill="#374150" d="M220.231,86.093c-11.73-3.766-21.508-5.914-29.723-6.594l0.008-0.016
		C151.724,74.312,93.009,67.89,84.278,67.89c-17.535,0-34.299,3.68-48.461,10.633c-32.125,15.813-36.049,59.07-29.01,94.273
		c3.615,18.055,13.875,48.898,29.441,49.867c0.697,0.047,1.363,0.063,2.016,0.063c12.459,0,18.49-7.719,23.818-14.523
		c7.359-9.398,15.695-20.055,44.527-21.352l0.789-0.016c1.629,0,4.66-0.141,4.66-0.141c1.336-0.063,39.996-2.547,65.543-11.984
		c8.934-3.305,18.5-8.766,27.547-18.586c12.582-13.609,23.797-22.703,33.375-27.055c6.594-3,14.109-9.594,13.609-18.289
		C251.552,100.718,241.403,92.867,220.231,86.093z M156.005,122.734c0.5,9.328-0.781,16.734-1.91,23.281
		c-1.266,7.414-2.484,14.961,1.07,21.008c-4.426,1-8.707,1.852-12.77,2.578c1.234-2.758,1.863-5.469,2.176-7.773l0.68-5.008
		c3.004-21.578,7.328-52.875-3.832-70.047c6.605,0.773,13.457,1.578,20.262,2.391C155.333,97.671,155.31,109.867,156.005,122.734z
		 M107.345,173.601l-1.316,0.031c-34.93,1.594-46.152,15.945-54.367,26.414c-5.121,6.547-7.629,9.461-13.396,9.461
		c-0.379,0-0.773-0.016-1.061-0.031c-4.457-1.164-16.438-22.445-19.506-53.094c-1.547-15.531-2.32-53.063,23.945-65.992
		c12.361-6.07,27.115-9.273,42.635-9.273c22.484,0,39.391,6.367,43.438,9.789c11.961,10.07,7.063,45.211,4.441,64.102l-0.695,5.063
		C130.255,169.117,122.368,173.539,107.345,173.601z M233.052,117.023c-11.336,5.156-23.645,15.023-37.617,30.133
		c-12.551,13.609-23.582,16.656-26.992,14.773c-2.836-1.563-3.199-2.711-1.305-13.656c1.184-6.875,2.652-15.445,2.07-26.266
		c-0.586-10.922-0.75-21.109,3.688-25.813c2.391-2.516,6.441-3.742,12.391-3.742c7.586,0,17.984,2.094,30.914,6.234
		c22.141,7.094,22.734,12.789,22.734,12.852C239.009,112.781,236.396,115.507,233.052,117.023z"/>
</g>
</svg>
