<?xml version="1.0" encoding="utf-8"?>
<!-- Generator: Adobe Illustrator 16.0.0, SVG Export Plug-In . SVG Version: 6.00 Build 0)  -->
<!DOCTYPE svg PUBLIC "-//W3C//DTD SVG 1.1//EN" "http://www.w3.org/Graphics/SVG/1.1/DTD/svg11.dtd">
<svg version="1.1" id="Layer_1" xmlns="http://www.w3.org/2000/svg" xmlns:xlink="http://www.w3.org/1999/xlink" x="0px" y="0px"
	 width="256px" height="256px" viewBox="0 0 256 256" enable-background="new 0 0 256 256" xml:space="preserve">
<g>
	<path fill="#374150" d="M70.77,217.665v12.563c0,4.957,4.031,8.988,8.988,8.988h96.484c4.973,0,8.988-4.031,8.988-8.988v-12.563"/>
	<path fill="#2878C8" d="M252.16,93.653h-0.031c-0.195-4.789-4.121-8.621-8.957-8.621H12.828c-4.836,0-8.746,3.832-8.941,8.621H3.84
		c0,0.094,0.016,0.199,0.016,0.289c0,0.031-0.016,0.063-0.016,0.078v1.121c0,0.152,0.047,0.301,0.047,0.453
		c0.668,51.547,27.629,92.469,66.883,112.582H185.23c39.254-20.113,66.219-61.035,66.883-112.582
		c0.016-0.152,0.047-0.301,0.047-0.453v-1.121c0-0.016,0-0.047,0-0.078C252.16,93.853,252.16,93.747,252.16,93.653z M94.855,168.298
		c-8.551,5.656-13.898,14.355-13.898,14.355s-3.199,1.832-7.125,0c-3.941-1.852-3.684-4.988-3.684-4.988
		c5.32-8.668,13.156-13.762,19.414-16.672c11.477-0.285,26.602-1.742,41.41-6.441c33.992-10.758,46.211-27.992,46.211-27.992
		c-31.328,17.625-67.281,26.855-86.484,26.855c2.383-14.504,10.914-37.176,41.059-41.254c20.176-2.727,35.422,3.984,65.035-2.684
		C207.57,107.052,168.68,204.841,94.855,168.298z"/>
	<path fill="#374150" d="M218.816,75.544l15.477-23.613c6.684-10.777,5.305-22.355-4.199-30.023
		c-9.52-7.672-21.113-6.563-30.238,2.227l-50.438,51.41H218.816z"/>
</g>
</svg>
