<?xml version="1.0" encoding="utf-8"?>
<!-- Generator: Adobe Illustrator 16.0.0, SVG Export Plug-In . SVG Version: 6.00 Build 0)  -->
<!DOCTYPE svg PUBLIC "-//W3C//DTD SVG 1.1//EN" "http://www.w3.org/Graphics/SVG/1.1/DTD/svg11.dtd">
<svg version="1.1" id="Layer_1" xmlns="http://www.w3.org/2000/svg" xmlns:xlink="http://www.w3.org/1999/xlink" x="0px" y="0px"
	 width="256px" height="256px" viewBox="0 0 256 256" enable-background="new 0 0 256 256" xml:space="preserve">
<g>
	<path fill="#374150" d="M252.159,56.311c0-16.473-13.402-29.871-29.871-29.871c-16.477,0-29.879,13.398-29.879,29.871
		c0,13.246,8.707,24.355,20.656,28.281c-1.66,81.801-29.109,126.844-77.852,126.844c-19.945,0-31.25-3.867-37.691-7.926
		c25.566-6.73,44.398-29.07,54.07-64.656h-18.848c-7.344,23.762-22.203,48.711-52.359,48.711c-0.125,0-0.254,0-0.371,0
		c-30.098,0-44.953-24.949-52.301-48.711H8.874c11.094,40.828,34.238,64.23,65.715,66.609c5.641,9.836,20.66,24.098,60.625,24.098
		c28.336,0,93.453-14.398,96.016-144.891C243.315,80.834,252.159,69.662,252.159,56.311z M222.288,68.072
		c-6.488,0-11.754-5.273-11.754-11.762c0-6.473,5.266-11.746,11.754-11.746c6.473,0,11.746,5.273,11.746,11.746
		C234.034,62.799,228.761,68.072,222.288,68.072z"/>
	<path fill="#2878C8" d="M156.632,86.076c0.121-33.16-5.125-42.254-9.078-46.227c-2.516-2.531-5.609-3.848-8.957-3.848h-16.234
		c-2.711-5.652-8.426-9.563-15.102-9.563c-9.285,0-16.809,7.516-16.809,16.793c0,9.289,7.523,16.809,16.809,16.809
		c6.668,0,12.383-3.91,15.094-9.551h15.242c1.098,1.684,4.629,9.184,4.531,35.543c-0.031,13.336-1.547,27.082-4.16,39.512h14.859
		C155.827,110.025,156.601,95.869,156.632,86.076z"/>
	<path fill="#2878C8" d="M18.339,86.018c-0.098-26.344,3.434-33.828,4.539-35.527h15.238c2.715,5.641,8.426,9.551,15.098,9.551
		c9.281,0,16.801-7.52,16.801-16.809c0-9.277-7.52-16.793-16.801-16.793c-6.676,0-12.391,3.91-15.105,9.563h-16.23
		c-3.352,0-6.441,1.316-8.957,3.848c-3.957,3.973-9.199,13.066-9.078,46.227c0.027,9.793,0.793,23.949,3.801,39.469h14.855
		C19.89,113.1,18.374,99.354,18.339,86.018z"/>
</g>
</svg>
