<?xml version="1.0" encoding="utf-8"?>
<!-- Generator: Adobe Illustrator 16.0.0, SVG Export Plug-In . SVG Version: 6.00 Build 0)  -->
<!DOCTYPE svg PUBLIC "-//W3C//DTD SVG 1.1//EN" "http://www.w3.org/Graphics/SVG/1.1/DTD/svg11.dtd">
<svg version="1.1" id="Layer_1" xmlns="http://www.w3.org/2000/svg" xmlns:xlink="http://www.w3.org/1999/xlink" x="0px" y="0px"
	 width="256px" height="256px" viewBox="0 0 256 256" enable-background="new 0 0 256 256" xml:space="preserve">
<path fill="#2878C8" d="M128,3.84C59.418,3.84,3.84,59.434,3.84,128.008C3.84,196.566,59.418,252.16,128,252.16
	c68.574,0,124.16-55.594,124.16-124.152C252.16,59.434,196.574,3.84,128,3.84z M128,100.902c14.957,0,27.098,12.133,27.098,27.098
	c0,14.969-12.141,27.102-27.098,27.102c-14.977,0-27.102-12.133-27.102-27.102C100.898,113.035,113.023,100.902,128,100.902z
	 M22.844,128c0-38.914,21.203-72.809,52.625-90.988L95.43,71.598l12.125,21.004C95.285,99.695,86.941,112.813,86.941,128
	c0,0,0,0,0,0.008H62.855L22.844,128z M128,233.148c-19.16,0-37.066-5.199-52.531-14.156l19.961-34.586l12.125-21.008
	c6.047,3.5,12.957,5.652,20.445,5.652c7.473,0,14.398-2.152,20.445-5.652l12.117,21.008l19.969,34.586
	C165.07,227.949,147.156,233.148,128,233.148z M193.133,128h-24.09c0-15.188-8.336-28.305-20.598-35.398l12.117-21.004
	l19.969-34.586c31.418,18.188,52.605,52.074,52.605,90.988H193.133z"/>
</svg>
