<?xml version="1.0" encoding="utf-8"?>
<!-- Generator: Adobe Illustrator 16.0.0, SVG Export Plug-In . SVG Version: 6.00 Build 0)  -->
<!DOCTYPE svg PUBLIC "-//W3C//DTD SVG 1.1//EN" "http://www.w3.org/Graphics/SVG/1.1/DTD/svg11.dtd">
<svg version="1.1" id="Layer_1" xmlns="http://www.w3.org/2000/svg" xmlns:xlink="http://www.w3.org/1999/xlink" x="0px" y="0px"
	 width="256px" height="256px" viewBox="0 0 256 256" enable-background="new 0 0 256 256" xml:space="preserve">
<g>
	<g>
		<path fill="#2878C8" d="M101.015,128.004c0-15.219,12.324-27.555,27.539-27.555c15.219,0,27.555,12.336,27.555,27.555
			c0,15.211-12.336,27.555-27.555,27.555C113.339,155.559,101.015,143.215,101.015,128.004z"/>
	</g>
	<g>
		<path fill="#2878C8" d="M226.859,139.668c-7.465,0-13.512,6.055-13.512,13.508c0,7.469,6.047,13.523,13.512,13.523
			s13.512-6.055,13.512-13.523C240.371,145.723,234.324,139.668,226.859,139.668z"/>
	</g>
	<g>
		<path fill="#2878C8" d="M86.3,38.246c3.863,6.367,12.18,8.43,18.559,4.547c6.379-3.867,8.426-12.172,4.563-18.555
			c-3.867-6.375-12.18-8.422-18.551-4.555C84.48,23.543,82.441,31.848,86.3,38.246z"/>
	</g>
	<g>
		<path fill="#2878C8" d="M67.015,207.145c3.879-6.359,1.871-14.68-4.504-18.563c-6.363-3.898-14.676-1.883-18.566,4.484
			c-3.895,6.367-1.879,14.688,4.488,18.586C54.796,215.527,63.117,213.527,67.015,207.145z"/>
	</g>
	<path fill="#374150" d="M140.542,221.27c20.887,16.266,39.273,21.07,51.762,13.508c6.348-3.852,13.926-12.688,13.926-32.906
		c0-9.422-1.656-20.219-4.742-31.797c4.098-1.195,8.078-2.469,11.762-3.867c-2.676-2.789-4.449-6.406-5.012-10.422
		c-3.129,1.148-6.531,2.227-10.039,3.258c-3.227-9.805-7.352-20.008-12.316-30.375c5.051-10.43,9.246-20.703,12.52-30.57
		c26.523,7.805,42.43,19.508,42.43,30.461c0,2.977-1.172,5.992-3.402,8.977c3.273,2.211,5.754,5.453,7.117,9.242
		c4.926-5.602,7.609-11.727,7.609-18.219c0-17.516-19.461-32.414-50.434-41.492c3.105-11.594,4.789-22.406,4.789-31.828
		c0-20.008-7.5-28.797-13.809-32.648c-12.457-7.609-30.855-2.883-51.801,13.305c-4.199,3.242-8.422,6.945-12.625,10.93
		c-4.109-3.922-8.195-7.547-12.219-10.703c-1.008,3.75-3.188,7.141-6.348,9.703c3.379,2.695,6.871,5.805,10.395,9.156
		c-6.773,7.164-13.441,15.188-19.875,23.867c-12.469,1.078-24.121,2.883-34.723,5.305c-2.844-10.656-4.406-20.508-4.406-28.914
		c0-8.25,1.473-18.961,8.465-23.203c2.523-1.531,5.754-1.992,9.438-1.641c0.188-3.984,1.68-7.82,4.227-10.969
		c-7.352-1.32-13.98-0.445-19.535,2.922c-6.352,3.852-13.922,12.672-13.922,32.891c0,9.406,1.66,20.203,4.73,31.766
		c-31.109,9.063-50.66,24.008-50.66,41.555c0,17.523,19.484,32.438,50.492,41.516c-1.063,3.953-2.008,7.867-2.719,11.609
		c3.719-0.789,7.652-0.406,11.32,1.172c0.637-3.203,1.461-6.539,2.379-9.93c10.609,2.438,22.297,4.258,34.793,5.352
		c6.387,8.664,13.012,16.688,19.746,23.867c-21.504,20.266-40.914,28.664-50.66,22.719c-2.758-1.68-4.621-4.406-5.902-7.578
		c-3.586,1.641-7.625,2.063-11.547,1.273c2.703,8.703,7.387,13.43,11.555,15.977c15.574,9.5,39.738-0.469,64.703-24.203
		C132.187,214.316,136.375,218.027,140.542,221.27z M194.902,201.871c0,8.25-1.469,18.977-8.473,23.203
		c-8.063,4.898-22.25,0.242-38.922-12.742c-3.832-2.969-7.684-6.383-11.523-10.031c6.703-7.125,13.398-15.172,19.945-24.07
		c12.418-1.078,24-2.898,34.555-5.305C193.339,183.598,194.902,193.465,194.902,201.871z M187.156,161.902
		c-6.984,1.594-14.52,2.945-22.566,3.977c2.32-3.5,4.609-7.094,6.867-10.781c2.742-4.5,5.363-9.031,7.82-13.563
		C182.324,148.465,184.96,155.301,187.156,161.902z M128.003,168.152c-7.563,0-14.855-0.289-21.855-0.789
		c-4.137-5.836-8.164-11.945-12.004-18.313c-4.125-6.789-7.914-13.68-11.352-20.563c3.469-6.867,7.281-13.75,11.426-20.555
		c3.867-6.305,7.891-12.367,12.027-18.172c6.973-0.5,14.223-0.789,21.758-0.789c7.555,0,14.836,0.289,21.84,0.789
		c4.07,5.742,8.094,11.82,12.02,18.297c4.121,6.82,7.91,13.711,11.359,20.594c-3.48,6.867-7.285,13.75-11.438,20.539
		c-3.926,6.438-7.957,12.453-12.02,18.156C142.781,167.848,135.535,168.152,128.003,168.152z M179.328,115.785
		c-2.445-4.531-5.039-9.078-7.781-13.594c-2.273-3.758-4.594-7.414-6.941-10.961c8.117,1.031,15.73,2.383,22.766,3.984
		C185.125,101.902,182.437,108.785,179.328,115.785z M186.808,32.262c6.926,4.227,8.375,14.836,8.375,22.977
		c0,8.422-1.586,18.289-4.465,28.961c-10.602-2.438-22.266-4.242-34.754-5.336c-6.469-8.852-13.086-16.898-19.719-23.992
		c3.867-3.633,7.73-7.047,11.582-10.016C164.542,31.941,178.753,27.348,186.808,32.262z M128.109,62.996
		c4.25,4.531,8.547,9.5,12.828,14.914c-4.234-0.164-8.555-0.258-12.934-0.258c-4.336,0-8.594,0.094-12.777,0.242
		C119.453,72.59,123.757,67.605,128.109,62.996z M91.476,91.215c-2.348,3.531-4.668,7.141-6.926,10.82
		c-2.758,4.539-5.32,9.07-7.797,13.617c-3.063-6.977-5.707-13.828-7.93-20.477C75.835,93.582,83.406,92.23,91.476,91.215z
		 M15.164,128.559c0-10.984,15.992-22.703,42.637-30.523c3.227,9.836,7.363,20.086,12.352,30.484
		c-5.031,10.406-9.23,20.672-12.496,30.523C31.093,151.238,15.164,139.535,15.164,128.559z M68.679,161.918
		c2.246-6.664,4.926-13.531,8.02-20.531c2.441,4.516,5.031,9.047,7.746,13.531c2.273,3.742,4.605,7.398,6.977,10.992
		C83.324,164.879,75.714,163.527,68.679,161.918z M140.808,179.215c-4.316,5.414-8.645,10.414-12.926,14.945
		c-4.328-4.625-8.609-9.625-12.824-14.945c4.246,0.164,8.559,0.258,12.945,0.258C132.335,179.473,136.613,179.379,140.808,179.215z"
		/>
</g>
</svg>
