<?xml version="1.0" encoding="utf-8"?>
<!-- Generator: Adobe Illustrator 16.0.0, SVG Export Plug-In . SVG Version: 6.00 Build 0)  -->
<!DOCTYPE svg PUBLIC "-//W3C//DTD SVG 1.1//EN" "http://www.w3.org/Graphics/SVG/1.1/DTD/svg11.dtd">
<svg version="1.1" id="Layer_1" xmlns="http://www.w3.org/2000/svg" xmlns:xlink="http://www.w3.org/1999/xlink" x="0px" y="0px"
	 width="256px" height="256px" viewBox="0 0 256 256" enable-background="new 0 0 256 256" xml:space="preserve">
<g>
	<g>
		<g>
			<path fill="#374150" d="M69.38,117.281c0.752-1.953,4.809-8.625,7.424-11.805c7.449-9.078,17.535-14.75,28.898-17.336
				c6.127-1.414,3.527-10.797-2.592-9.398c-18.842,4.305-36.07,17.594-43.127,35.945C57.726,120.57,67.149,123.086,69.38,117.281
				L69.38,117.281z"/>
		</g>
	</g>
	<g>
		<g>
			<path fill="#374150" d="M48.72,129.695c-2.627-15.945,8.373-34.781,23.635-44.305c5.32-3.305,0.434-11.742-4.918-8.406
				c-18.717,11.664-31.85,32.625-28.115,55.305C40.345,138.469,49.735,135.836,48.72,129.695L48.72,129.695z"/>
		</g>
	</g>
	<g>
		<g>
			<path fill="#374150" d="M154.976,143.289c0.109-1.117-0.295,1.641-0.5,2.563c-0.613,2.805-1.527,5.563-2.68,8.188
				c-4.172,9.484-11.533,16.367-20.844,20.742c-5.68,2.672-0.73,11.086,4.92,8.414c15.523-7.32,27.178-22.594,28.85-39.906
				C165.323,137.031,155.575,137.094,154.976,143.289L154.976,143.289z"/>
		</g>
	</g>
	<g>
		<g>
			<path fill="#374150" d="M167.177,164.219c0.859-2.102-1.432,2.703-1.861,3.445c-1.996,3.484-4.463,6.648-7.143,9.641
				c-10.078,11.258-23.941,17.227-38.602,19.727c-6.184,1.047-3.555,10.445,2.592,9.398c22.631-3.859,45.422-17.547,54.41-39.617
				C178.944,160.992,169.515,158.477,167.177,164.219L167.177,164.219z"/>
		</g>
	</g>
	<g>
		<g>
			<path fill="#374150" d="M46.327,162.813c4.199,23.094,27.736,34.844,49.088,36.039c6.283,0.367,6.248-9.383,0-9.727
				c-17.338-0.984-36.287-10.172-39.689-28.906C54.603,154.039,45.214,156.656,46.327,162.813L46.327,162.813z"/>
		</g>
	</g>
	<g>
		<g>
			<path fill="#374150" d="M35.915,185.563c7.518,12.805,21.307,22.367,35.883,24.766c6.146,1,8.783-8.383,2.592-9.398
				c-12.209-2-23.719-9.484-30.059-20.281C41.151,175.242,32.726,180.133,35.915,185.563L35.915,185.563z"/>
		</g>
	</g>
	<g>
		<path fill="#374150" d="M183.087,239.609c-8.92,0-18.275-1.289-28.176-2.656c-11.33-1.547-23.045-3.148-35.811-3.148
			c-10.256,0-19.805,1.063-29.188,3.211c-7.277,1.68-14.375,2.547-21.086,2.547h-0.004c-26.527,0-42.941-12.977-52.039-23.859
			c-20.244-24.188-12.158-52.773-6.256-73.641c2.328-8.211,4.525-15.992,4.547-21.641c0.012-3.219-0.299-7.156-0.629-11.32
			c-1.459-18.406-3.656-46.227,18.691-67.117c17.67-16.5,44.311-25.594,75.027-25.594c45.73,0,91.521,20.063,113.949,49.938
			c22.896,30.492,38.857,88.297,24.709,128.477c-7.824,22.203-24.092,37.047-47.045,42.891
			C194.749,238.969,189.29,239.609,183.087,239.609z M119.101,218.211c13.826,0,26.629,1.758,37.93,3.305
			c15.174,2.07,29.107,3.555,38.895,1.07c17.918-4.563,30.096-15.656,36.193-32.961c12.045-34.211-1.895-86.531-22.475-113.945
			c-19.627-26.133-60.408-43.695-101.479-43.695c-26.746,0-49.613,7.594-64.379,21.398c-16.861,15.766-15.16,37.227-13.797,54.484
			c0.357,4.508,0.693,8.75,0.678,12.609c-0.029,7.797-2.512,16.555-5.133,25.828c-5.775,20.414-11.746,41.531,3.213,59.398
			c6.961,8.336,19.57,18.266,40.076,18.266h0.004c5.533,0,11.447-0.711,17.582-2.141
			C96.954,219.391,107.647,218.211,119.101,218.211z"/>
	</g>
	<g>
		<path fill="#2878C8" d="M76.167,170.008c-13.322-13.273-10.924-37.281,5.361-53.617c16.285-16.359,40.285-18.844,53.607-5.578
			c13.322,13.289,10.92,37.297-5.365,53.633C113.489,180.789,89.485,183.273,76.167,170.008z"/>
	</g>
	<g>
		<path fill="#2878C8" d="M167.382,80.859c8.143-5.32,21.4,0.531,29.629,13.094c8.215,12.57,8.275,27.055,0.125,32.391
			c-8.143,5.336-21.4-0.531-29.629-13.094C159.288,100.703,159.235,86.195,167.382,80.859z"/>
	</g>
	<g>
		<path fill="#2878C8" d="M179.278,206.43c-5.709-5.547-3.418-17.188,5.135-26.008c8.549-8.805,20.119-11.453,25.838-5.906
			c5.713,5.547,3.414,17.188-5.135,25.992C196.562,209.328,185.001,211.977,179.278,206.43z"/>
	</g>
	<g>
		<path fill="#2878C8" d="M81.032,58.219c-0.576-7.945,8.873-15.094,21.131-15.992c12.25-0.891,22.648,4.82,23.229,12.781
			c0.57,7.922-8.887,15.094-21.137,15.984C92.005,71.875,81.612,66.164,81.032,58.219z"/>
	</g>
</g>
</svg>
