<?xml version="1.0" encoding="utf-8"?>
<!-- Generator: Adobe Illustrator 16.0.0, SVG Export Plug-In . SVG Version: 6.00 Build 0)  -->
<!DOCTYPE svg PUBLIC "-//W3C//DTD SVG 1.1//EN" "http://www.w3.org/Graphics/SVG/1.1/DTD/svg11.dtd">
<svg version="1.1" id="Layer_1" xmlns="http://www.w3.org/2000/svg" xmlns:xlink="http://www.w3.org/1999/xlink" x="0px" y="0px"
	 width="256px" height="256px" viewBox="0 0 256 256" enable-background="new 0 0 256 256" xml:space="preserve">
<g>
	<g>
		<path fill="#374150" d="M198.22,252.16H57.782c-17.402,0-24.629-8.414-27.402-13.414c-4.762-8.625-3.652-19.656,3.031-30.254
			l53.969-85.602V92.184c-7.484-1-13.289-7.441-13.289-15.199V65.223c0-8.457,6.879-15.355,15.352-15.355h77.113
			c8.473,0,15.355,6.898,15.355,15.355v11.762c0,7.758-5.805,14.199-13.293,15.199v30.707l53.973,85.602
			c6.684,10.598,7.789,21.629,3.031,30.254C222.849,243.746,215.618,252.16,198.22,252.16z M89.442,64.602
			c-0.348,0-0.621,0.273-0.621,0.621v11.762c0,0.332,0.273,0.605,0.621,0.605h12.672v49.559l-56.246,89.195
			c-3.668,5.852-4.652,11.551-2.59,15.277c2.059,3.746,7.211,5.805,14.504,5.805H198.22c7.289,0,12.441-2.059,14.504-5.805
			c2.063-3.727,1.09-9.441-2.594-15.277l-56.242-89.195V77.59h12.668c0.352,0,0.625-0.273,0.625-0.605V65.223
			c0-0.348-0.273-0.621-0.625-0.621H89.442z"/>
	</g>
	<g>
		<path fill="#2878C8" d="M129.669,123.848c0,5.316-4.32,9.637-9.641,9.637s-9.641-4.32-9.641-9.637c0-5.32,4.32-9.641,9.641-9.641
			S129.669,118.527,129.669,123.848z"/>
	</g>
	<g>
		<path fill="#2878C8" d="M159.782,13.477c0,5.32-4.32,9.641-9.641,9.641c-5.316,0-9.637-4.32-9.637-9.641
			c0-5.332,4.32-9.637,9.637-9.637C155.462,3.84,159.782,8.145,159.782,13.477z"/>
	</g>
	<g>
		<path fill="#2878C8" d="M145.626,89.441c0,7.078-5.727,12.793-12.805,12.793c-7.063,0-12.793-5.715-12.793-12.793
			c0-7.063,5.73-12.793,12.793-12.793C139.899,76.648,145.626,82.379,145.626,89.441z"/>
	</g>
	<g>
		<path fill="#2878C8" d="M123.181,29.09c0,7.078-5.73,12.805-12.793,12.805S97.583,36.168,97.583,29.09
			c0-7.063,5.742-12.793,12.805-12.793S123.181,22.027,123.181,29.09z"/>
	</g>
	<g>
		<path fill="#2878C8" d="M195.72,212.117c-21.023-33.344-40.816-64.398-44.137-69.691h-23.582h-23.586
			c-3.316,5.293-23.113,36.348-44.133,69.691c-7.336,11.641-2.516,15.262,8.762,15.262h58.957h58.957
			C198.235,227.379,203.056,223.758,195.72,212.117z M106.056,193.672c-5.32,0-9.641-4.32-9.641-9.641
			c0-5.336,4.32-9.641,9.641-9.641c5.316,0,9.637,4.305,9.637,9.641C115.692,189.352,111.372,193.672,106.056,193.672z
			 M157.435,217.602c-7.078,0-12.809-5.727-12.809-12.805c0-7.063,5.73-12.793,12.809-12.793c7.063,0,12.789,5.73,12.789,12.793
			C170.224,211.875,164.497,217.602,157.435,217.602z"/>
	</g>
</g>
</svg>
