<?xml version="1.0" encoding="utf-8"?>
<!-- Generator: Adobe Illustrator 16.0.0, SVG Export Plug-In . SVG Version: 6.00 Build 0)  -->
<!DOCTYPE svg PUBLIC "-//W3C//DTD SVG 1.1//EN" "http://www.w3.org/Graphics/SVG/1.1/DTD/svg11.dtd">
<svg version="1.1" id="Layer_1" xmlns="http://www.w3.org/2000/svg" xmlns:xlink="http://www.w3.org/1999/xlink" x="0px" y="0px"
	 width="256px" height="256px" viewBox="0 0 256 256" enable-background="new 0 0 256 256" xml:space="preserve">
<g>
	<polygon fill="#2878C8" points="164.666,83.289 141.779,83.289 141.779,105.871 114.213,105.871 114.213,83.289 91.326,83.289 
		91.326,56.766 114.213,56.766 114.213,34.273 141.779,34.273 141.779,56.766 164.666,56.766 	"/>
	<path fill="#374150" d="M180.521,3.84H43.115c-7.785,0-14.121,6.32-14.121,14.109v220.082c0,7.793,6.336,14.129,14.121,14.129
		h169.77c7.785,0,14.121-6.336,14.121-14.129V50.324L180.521,3.84z M215.182,238.031c0,1.273-1.031,2.305-2.297,2.305H43.115
		c-1.258,0-2.297-1.031-2.297-2.305V17.949c0-1.273,1.039-2.289,2.297-2.289h129.039v27.598c0,8.504,6.918,15.414,15.43,15.414
		h27.598V238.031z"/>
	<g>
		<path fill="#374150" d="M145.873,184.563c0,0.863-0.711,1.574-1.578,1.574H59.982c-0.879,0-1.59-0.711-1.59-1.574v-6.367
			c0-0.879,0.711-1.574,1.59-1.574h84.313c0.867,0,1.578,0.695,1.578,1.574V184.563z"/>
	</g>
	<g>
		<path fill="#374150" d="M145.873,210.66c0,0.879-0.711,1.578-1.578,1.578H59.982c-0.879,0-1.59-0.699-1.59-1.578v-6.367
			c0-0.863,0.711-1.59,1.59-1.59h84.313c0.867,0,1.578,0.727,1.578,1.59V210.66z"/>
	</g>
	<g>
		<path fill="#374150" d="M197.607,158.461c0,0.867-0.711,1.578-1.582,1.578H59.982c-0.879,0-1.59-0.711-1.59-1.578v-6.363
			c0-0.879,0.711-1.578,1.59-1.578h136.043c0.871,0,1.582,0.699,1.582,1.578V158.461z"/>
	</g>
	<g>
		<path fill="#374150" d="M197.607,132.363c0,0.863-0.711,1.578-1.582,1.578H59.982c-0.879,0-1.59-0.715-1.59-1.578v-6.367
			c0-0.879,0.711-1.574,1.59-1.574h136.043c0.871,0,1.582,0.695,1.582,1.574V132.363z"/>
	</g>
	<g>
		<path fill="#2878C8" d="M174.936,177.137v-5.988h6.723V177c7.531,0.832,12.441,4.41,14.754,10.746l-10.949,3.422
			c-1.133-2.969-3.41-4.438-6.852-4.438c-2.879,0-4.344,0.922-4.344,2.785c0,0.684,0.25,1.262,0.734,1.73
			c0.5,0.484,1.836,0.969,4.047,1.453c5.07,1.121,8.688,2.109,10.898,2.988c2.168,0.863,4,2.348,5.473,4.438
			c1.445,2.078,2.188,4.547,2.188,7.383c0,3.984-1.422,7.32-4.25,10.02c-2.848,2.68-6.73,4.32-11.699,4.879v6.047h-6.723v-6.047
			c-8.449-1.016-13.754-5.457-15.906-13.336l12.23-2.258c1.047,3.574,3.699,5.379,7.934,5.379c3.32,0,4.965-0.91,4.965-2.742
			c0-0.941-0.395-1.699-1.137-2.23c-0.773-0.543-2.129-1-4.094-1.395c-7.691-1.574-12.586-3.559-14.641-5.984
			c-2.059-2.426-3.105-5.215-3.105-8.367c0-3.473,1.129-6.547,3.395-9.246C166.834,179.543,170.299,177.832,174.936,177.137z"/>
	</g>
</g>
</svg>
