<?xml version="1.0" encoding="utf-8"?>
<!-- Generator: Adobe Illustrator 16.0.0, SVG Export Plug-In . SVG Version: 6.00 Build 0)  -->
<!DOCTYPE svg PUBLIC "-//W3C//DTD SVG 1.1//EN" "http://www.w3.org/Graphics/SVG/1.1/DTD/svg11.dtd">
<svg version="1.1" id="Layer_1" xmlns="http://www.w3.org/2000/svg" xmlns:xlink="http://www.w3.org/1999/xlink" x="0px" y="0px"
	 width="256px" height="256px" viewBox="0 0 256 256" enable-background="new 0 0 256 256" xml:space="preserve">
<g>
	<polygon fill="#2878C8" points="164.668,83.289 141.785,83.289 141.785,105.871 114.215,105.871 114.215,83.289 91.328,83.289 
		91.328,56.766 114.215,56.766 114.215,34.273 141.785,34.273 141.785,56.766 164.668,56.766 	"/>
	<path fill="#2878C8" d="M76.051,162.539c-1.98,0-3.82-0.938-5.09-2.605l-14.238-18.66l7.84-5.969l11.16,14.625l18.219-29.934
		l8.426,5.137l-20.859,34.254c-1.148,1.895-3.02,3.047-5.121,3.152C76.273,162.539,76.164,162.539,76.051,162.539z"/>
	<path fill="#374150" d="M197.563,157.871c0,1.59-1.293,2.863-2.871,2.863H165.16c-1.574,0-2.855-1.273-2.855-2.863v-29.523
		c0-1.578,1.281-2.867,2.855-2.867h29.531c1.578,0,2.871,1.289,2.871,2.867V157.871z"/>
	<path fill="#374150" d="M197.563,218.828c0,1.578-1.293,2.867-2.871,2.867H165.16c-1.574,0-2.855-1.289-2.855-2.867v-29.523
		c0-1.574,1.281-2.863,2.855-2.863h29.531c1.578,0,2.871,1.289,2.871,2.863V218.828z"/>
	<path fill="#374150" d="M145.625,157.871c0,1.59-1.293,2.863-2.871,2.863h-29.527c-1.578,0-2.859-1.273-2.859-2.863v-29.523
		c0-1.578,1.281-2.867,2.859-2.867h29.527c1.578,0,2.871,1.289,2.871,2.867V157.871z"/>
	<path fill="#2878C8" d="M127.988,223.527c-1.984,0-3.82-0.938-5.09-2.605l-14.238-18.656l7.84-5.973l11.156,14.625l18.223-29.934
		l8.422,5.137l-20.855,34.254c-1.148,1.895-3.023,3.047-5.121,3.152C128.211,223.527,128.102,223.527,127.988,223.527z"/>
	<path fill="#374150" d="M93.688,218.828c0,1.578-1.285,2.867-2.867,2.867H61.297c-1.582,0-2.863-1.289-2.863-2.867v-29.523
		c0-1.574,1.281-2.863,2.863-2.863H90.82c1.582,0,2.867,1.289,2.867,2.863V218.828z"/>
	<path fill="#374150" d="M180.516,3.84H43.113c-7.785,0-14.117,6.32-14.117,14.109v220.082c0,7.793,6.332,14.129,14.117,14.129
		h169.773c7.781,0,14.117-6.336,14.117-14.129V50.324L180.516,3.84z M215.18,238.031c0,1.273-1.031,2.305-2.293,2.305H43.113
		c-1.262,0-2.297-1.031-2.297-2.305V17.949c0-1.273,1.035-2.289,2.297-2.289h129.039v27.598c0,8.504,6.918,15.414,15.426,15.414
		h27.602V238.031z"/>
</g>
</svg>
