<?xml version="1.0" encoding="utf-8"?>
<!-- Generator: Adobe Illustrator 16.0.0, SVG Export Plug-In . SVG Version: 6.00 Build 0)  -->
<!DOCTYPE svg PUBLIC "-//W3C//DTD SVG 1.1//EN" "http://www.w3.org/Graphics/SVG/1.1/DTD/svg11.dtd">
<svg version="1.1" id="Layer_1" xmlns="http://www.w3.org/2000/svg" xmlns:xlink="http://www.w3.org/1999/xlink" x="0px" y="0px"
	 width="256px" height="256px" viewBox="0 0 256 256" enable-background="new 0 0 256 256" xml:space="preserve">
<g>
	<path fill="#374150" d="M98.066,176.574c0,22.398-11.215,25.375-58.746,34.328l-6.373,1.195c-0.963,0.188-1.871,0.273-2.736,0.273
		h-0.006c-2.555,0-5.844-0.68-8.662-6c-11.936-22.539,1.939-94.195,24.75-127.813c11.883-17.523,25.658-27.961,36.859-27.961
		c9.336,0,14.914,8.063,14.914,21.578v2.398c4.684-2.172,9.094-3.836,13.035-5.109c-0.971-19.281-11.883-32.102-27.949-32.102
		c-15.822,0-33.244,12.305-47.795,33.766c-24.105,35.531-41.119,111.93-25.5,141.43c5.713,10.773,14.217,13.031,20.34,13.031h0.014
		c1.639,0,3.365-0.148,5.199-0.5l6.365-1.195c46.273-8.734,69.508-13.109,69.508-47.32v-69.203
		c-4.018,1.953-8.525,4.578-13.217,8.016V176.574z"/>
	<path fill="#374150" d="M220.643,71.129c-14.551-21.461-31.973-33.766-47.795-33.766c-16.066,0-26.979,12.82-27.949,32.102
		c3.941,1.273,8.352,2.938,13.035,5.109v-2.398c0-13.516,5.578-21.578,14.914-21.578c11.199,0,24.977,10.438,36.859,27.961
		c22.811,33.617,36.693,105.289,24.75,127.813c-2.818,5.32-6.107,6-8.67,6c-0.863,0-1.771-0.086-2.742-0.273l-6.373-1.211
		c-47.523-8.938-58.738-11.914-58.738-34.313v-61.188c-4.699-3.438-9.199-6.063-13.217-8.016v69.203
		c0,34.211,23.234,38.586,69.508,47.32l6.365,1.195c1.826,0.352,3.561,0.5,5.197,0.5c6.139,0,14.643-2.258,20.355-13.031
		C261.762,183.074,244.748,106.66,220.643,71.129z"/>
	<path fill="#2878C8" d="M179.697,120.723c0,0.063-0.037,0.125-0.037,0.18c0.084,8.32-3.008,17.055-9.738,22.328
		c-4.66,3.656,1.887,10.094,6.486,6.484c5.047-3.938,8.465-9.664,10.436-15.82c4.699,11.141,7.42,23.383,11.299,35.008
		c-6.184,5.992-10.246,14.586-11.639,22.828c-0.986,5.789,7.865,8.273,8.85,2.438c0.941-5.516,3.092-11.016,6.457-15.594
		c2.758,6.352,6.154,12.352,10.928,17.609c3.971,4.414,10.443-2.102,6.486-6.469c-9.541-10.547-13.701-23.875-17.596-37.438
		c4.334,1.273,8.373,3.172,12.156,5.914c1.508,1.102,2.855,2.484,4.121,3.852c0.934,1,0.789,0.859,0.926,1.07
		c3.363,4.82,11.32,0.227,7.926-4.633c-6.35-9.109-17.361-14.523-28.076-16.328c-1.752-5.789-3.721-11.516-6.244-16.961
		c7.191-0.648,14.383-2.5,20.982-5.117c5.441-2.156,3.07-11.039-2.439-8.836c-7.426,2.938-15.506,4.836-23.537,4.938
		c-1.729-2.625-3.623-5.164-5.852-7.563c-1.705-1.82-3.531-3.578-5.387-5.305c6.418-6.914,10.799-16.156,10.889-25.602
		c0.061-5.922-9.115-5.906-9.176,0c-0.068,7.367-3.715,14.328-8.709,19.617c-5.334-4.156-11.078-7.836-17.201-10.641
		c-14.543-6.836-14.543-13.719-14.543-20.281c0-6.578,0-35.992,0-35.992H128h-9.465c0,0,0,29.414,0,35.992
		c0,6.563,0,13.445-14.543,20.281c-6.123,2.805-11.867,6.484-17.201,10.641c-4.994-5.289-8.641-12.25-8.709-19.617
		c-0.061-5.906-9.236-5.922-9.176,0c0.09,9.445,4.471,18.703,10.881,25.602c-1.848,1.727-3.682,3.484-5.379,5.305
		c-2.229,2.398-4.123,4.938-5.852,7.563c-8.033-0.102-16.111-2-23.537-4.938c-5.51-2.203-7.881,6.68-2.439,8.836
		c6.6,2.617,13.791,4.469,20.982,5.117c-2.523,5.461-4.494,11.172-6.244,16.961c-10.715,1.805-21.727,7.219-28.076,16.328
		c-3.395,4.859,4.563,9.453,7.926,4.633c0.145-0.211,0.008-0.055,0.926-1.07c1.242-1.398,2.637-2.703,4.121-3.852
		c3.668-2.82,7.799-4.688,12.156-5.945c-3.895,13.57-8.049,26.922-17.596,37.469c-3.957,4.367,2.516,10.883,6.486,6.469
		c4.773-5.258,8.168-11.258,10.928-17.609c3.363,4.578,5.516,10.078,6.457,15.594c0.984,5.836,9.836,3.352,8.85-2.438
		c-1.395-8.242-5.455-16.836-11.639-22.828c3.879-11.625,6.6-23.867,11.299-35.008c1.971,6.156,5.387,11.883,10.436,15.82
		c4.6,3.609,11.146-2.828,6.486-6.484c-6.73-5.273-9.822-14.008-9.738-22.328c0-0.055-0.037-0.117-0.037-0.18
		c7.41-10.609,18.43-19.734,30.479-25.266C116.725,90.59,128,86.621,128,86.621l0,0l0,0c0,0,11.275,3.969,21.219,8.836
		C161.26,100.988,172.287,110.113,179.697,120.723z"/>
</g>
</svg>
