<?xml version="1.0" encoding="utf-8"?>
<!-- Generator: Adobe Illustrator 16.0.0, SVG Export Plug-In . SVG Version: 6.00 Build 0)  -->
<!DOCTYPE svg PUBLIC "-//W3C//DTD SVG 1.1//EN" "http://www.w3.org/Graphics/SVG/1.1/DTD/svg11.dtd">
<svg version="1.1" id="Layer_1" xmlns="http://www.w3.org/2000/svg" xmlns:xlink="http://www.w3.org/1999/xlink" x="0px" y="0px"
	 width="256px" height="256px" viewBox="0 0 256 256" enable-background="new 0 0 256 256" xml:space="preserve">
<g>
	<g>
		<path fill="#374150" d="M127.795,88.293c-21.871,0-37.111-24.414-37.111-46.32c0-22.094,15.604-38.133,37.111-38.133
			c21.506,0,37.125,16.039,37.125,38.133C164.92,63.879,149.672,88.293,127.795,88.293z M127.795,15.207
			c-15.398,0-25.736,10.766-25.736,26.766c0,17.961,12.504,34.953,25.736,34.953c13.23,0,25.75-16.992,25.75-34.953
			C153.545,25.973,143.193,15.207,127.795,15.207z"/>
	</g>
	<path fill="#374150" d="M76.006,111.621v-2.141c0-4.18,0-16.93,19.566-16.93c1.016,0,1.924,0.047,2.66,0.094
		c3.918,4.375,14.375,14.172,29.76,14.172c15.398,0,25.855-9.797,29.766-14.172c0.729-0.047,1.637-0.094,2.652-0.094
		c19.574,0,19.574,12.75,19.574,16.93v2.141h11.375v-2.141c0-17.719-11.564-28.297-30.949-28.297c-3.652,0-6.199,0.398-6.479,0.438
		l-2.281,0.398l-1.379,1.844c-0.076,0.125-8.746,11.57-22.279,11.57c-13.527,0-22.197-11.461-22.266-11.555l-1.379-1.875
		l-2.289-0.383c-0.287-0.039-2.834-0.438-6.486-0.438c-19.377,0-30.941,10.578-30.941,28.297v2.141H76.006z"/>
	<g>
		<path fill="#2878C8" d="M131.234,216.637c-6.039,1.336-12.215-1.594-17.809-3.414c-8.715-2.813-21.945-2.633-14.156,8.461
			c1.289,1.836,4.365,12.031,2.063,13.188c14.148-7.063,27.092-12.07,42.527-5.219c3.652,1.625,7.146,3.609,10.799,5.219
			c-0.082-0.031-0.15-6.93-0.082-7.992c0.34-5.469,6.168-6.758,5.084-12.484C156,205.449,137.357,215.27,131.234,216.637z"/>
		<path fill="#2878C8" d="M190.238,115.723H65.752c-4.744,0-8.586,3.852-8.586,8.594v119.25c0,4.742,3.842,8.594,8.586,8.594
			h124.486c4.744,0,8.594-3.852,8.594-8.594v-119.25C198.832,119.574,194.982,115.723,190.238,115.723z M165.867,222.926
			c-3.76,4.805-2.881,9.352-2.986,14.961c-0.129,7.016-7.926,5.594-12.049,3.531c-8.912-4.445-18.732-10.109-29.086-7.078
			c-6.6,1.922-12.359,5.211-18.588,7.953c-3.994,1.773-9.951,1.211-10.057-4.406c-0.105-6.25-0.395-10.305-3.576-15.734
			c-1.568-2.68-1.676-6.93-0.5-9.773c3.66-8.961,11.078-10.945,20.232-8.336c6.828,1.938,15.338,6.836,22.508,4.711
			c6.002-1.773,11.822-4.031,17.967-5.367c7.67-1.648,13.164,0.984,16.422,7.32c0.379,0.43,0.682,0.945,0.818,1.672
			c0.236,0.586,0.311,1.133,0.273,1.617C167.777,217.121,167.973,220.246,165.867,222.926z M164.623,175.215
			c-8.881-6.547-20.574-9.992-32.531-10.672c0,3.984,0,7.977,0,11.961c10.32,0.648,20.377,3.633,27.971,9.227
			c3.879,2.867,0.105,9.461-3.836,6.547c-6.623-4.875-15.246-7.516-24.135-8.164c0,4.586,0,9.195,0,13.805
			c0,4.883-7.586,4.883-7.586,0c0-4.625,0-9.242,0-13.852c-9.094,0.563-17.977,3.211-24.75,8.211
			c-3.941,2.914-7.715-3.68-3.828-6.547c7.738-5.711,18.045-8.711,28.578-9.273c0-3.984,0-7.977,0-11.961
			c-12.172,0.594-24.1,4.063-33.133,10.719c-3.947,2.906-7.721-3.688-3.834-6.547c9.996-7.367,23.355-11.188,36.967-11.766
			c0-4,0-8,0-12c-9.98,0.484-19.75,2.742-27.463,7.016c-4.275,2.383-8.102-4.164-3.828-6.547c8.904-4.93,19.992-7.5,31.291-8
			c0-3.047,0-6.078,0-9.125c0-4.883,7.586-4.883,7.586,0c0,3.047,0,6.078,0,9.109c11.299,0.516,22.393,3.086,31.289,8.016
			c4.273,2.383,0.455,8.93-3.826,6.547c-7.723-4.273-17.482-6.531-27.463-7.016c0,4.016,0,8.031,0,12.031
			c13.391,0.68,26.516,4.469,36.359,11.734C172.338,171.527,168.564,178.121,164.623,175.215z"/>
	</g>
</g>
</svg>
