<?xml version="1.0" encoding="utf-8"?>
<!-- Generator: Adobe Illustrator 16.0.0, SVG Export Plug-In . SVG Version: 6.00 Build 0)  -->
<!DOCTYPE svg PUBLIC "-//W3C//DTD SVG 1.1//EN" "http://www.w3.org/Graphics/SVG/1.1/DTD/svg11.dtd">
<svg version="1.1" id="Layer_1" xmlns="http://www.w3.org/2000/svg" xmlns:xlink="http://www.w3.org/1999/xlink" x="0px" y="0px"
	 width="256px" height="256px" viewBox="0 0 256 256" enable-background="new 0 0 256 256" xml:space="preserve">
<g>
	<g>
		<path fill="#2878C8" d="M190.248,123.768c-6.918-20.504,2.273-28.402,3.637-41.027c1.352-12.625-14.367-25.203-32.078-20.492
			c-19.027,5.078-28.41,4.789-33.805,4.789s-14.777,0.289-33.805-4.789c-17.711-4.711-33.43,7.867-32.078,20.492
			c1.363,12.625,10.555,20.523,3.637,41.027c-15.398,45.727,3.129,84.148,6.305,84.18c5.668,0.059-17.293-100.336,55.941-100.336
			s50.273,100.395,55.941,100.336C187.119,207.916,205.646,169.494,190.248,123.768z"/>
	</g>
	<path fill="#374150" d="M229.709,44.26c-5.199-25.297-27.766-40.422-46.582-40.422c-3.738,0-7.352,0.559-10.746,1.668
		c-27.359,8.895-38.43,9.91-44.379,9.91s-17.02-1.016-44.379-9.91c-3.395-1.109-7.008-1.668-10.742-1.668
		c-18.816,0-41.387,15.125-46.594,40.422c-2.664,13.035,1.988,26.051,6.914,39.828c5.41,15.172,11.012,30.844,6.508,46.836
		c-11.465,40.77,3.387,70.867,16.484,97.406c6.684,13.566,13.941,25.723,25.414,23.586c11.672-2.152,11.961-16.234,12.656-50.246
		l0.078-3.422c1.227-58.914,25.613-58.914,33.676-58.914c8.016,0,32.418,0,33.648,58.914l0.074,3.422
		c0.695,34.012,0.984,48.094,12.664,50.246c0.84,0.164,1.688,0.242,2.508,0.242c10.305,0,16.715-11.277,22.902-23.813
		c13.094-26.555,27.945-56.652,16.48-97.422c-4.5-15.992,1.098-31.664,6.508-46.82C227.729,70.311,232.385,57.295,229.709,44.26z
		 M210.354,79.65c-5.828,16.32-12.434,34.813-6.781,54.863c10.094,35.875-2.988,62.352-15.621,87.984
		c-6.055,12.273-9.102,15.41-10.371,16.184c-1.957-4.805-2.289-21.293-2.625-37.281l-0.066-3.426
		c-0.992-47.699-16.77-71.871-46.918-71.871c-30.09,0-45.863,24.172-46.855,71.871l-0.066,3.426
		c-0.336,15.988-0.668,32.477-2.621,37.281c-1.273-0.773-4.32-3.91-10.375-16.199c-12.633-25.617-25.715-52.094-15.621-87.969
		c5.656-20.051-0.953-38.559-6.781-54.863c-4.281-12.004-8.336-23.328-6.402-32.723c4.461-21.719,26.555-33.27,40.293-28.844
		c21.461,6.973,33.699,9.41,41.625,10.215c-7.402,2.363-15.223,2.41-23.172,2.395c-8.504-0.031-8.504,13.156,0,13.188
		c8.168,0.027,16.688-0.016,24.645-2.047c12.531-3.184,22.004-12.23,33.863-16.777c3.789-1.742,16.098-5.715,19.953-6.973
		c13.777-4.473,35.84,7.125,40.301,28.844C218.689,56.322,214.643,67.658,210.354,79.65z"/>
</g>
</svg>
