<?xml version="1.0" encoding="utf-8"?>
<!-- Generator: Adobe Illustrator 16.0.0, SVG Export Plug-In . SVG Version: 6.00 Build 0)  -->
<!DOCTYPE svg PUBLIC "-//W3C//DTD SVG 1.1//EN" "http://www.w3.org/Graphics/SVG/1.1/DTD/svg11.dtd">
<svg version="1.1" id="Layer_1" xmlns="http://www.w3.org/2000/svg" xmlns:xlink="http://www.w3.org/1999/xlink" x="0px" y="0px"
	 width="256px" height="256px" viewBox="0 0 256 256" enable-background="new 0 0 256 256" xml:space="preserve">
<g>
	<path fill="#374150" d="M156.115,193.465c26.477,0,36.055-11,83.398-11c0,0,12.645-16.324,12.645-39.59
		s-12.645-39.816-12.645-39.816S227.775,103,205.979,89.375c-21.801-13.629-22.508-30.586-46.895-31.586
		c-25.316-1.047-49.969-6.141-65.238-17.793c-17.332-13.234-28.859,32.613,17.648,43.223c0.984,8.762-39.527,7.457-50.559,7.457
		c-26.828,0-53.32-1.637-54.809,14.02c-0.758,8.035,6.836,14.324,22.98,16.43c12.137,1.578,50.543,6.883,50.543,6.883
		s1.773,37.797,26.129,54.484C114.861,188.723,129.881,193.465,156.115,193.465z"/>
	<path fill="#2878C8" d="M56.326,192.148c0,14.488-11.746,26.234-26.234,26.234c-14.492,0-26.25-11.746-26.25-26.234
		s19.883-52.746,26.25-52.746C36.447,139.402,56.326,177.66,56.326,192.148z"/>
</g>
</svg>
