<?xml version="1.0" encoding="utf-8"?>
<!-- Generator: Adobe Illustrator 16.0.0, SVG Export Plug-In . SVG Version: 6.00 Build 0)  -->
<!DOCTYPE svg PUBLIC "-//W3C//DTD SVG 1.1//EN" "http://www.w3.org/Graphics/SVG/1.1/DTD/svg11.dtd">
<svg version="1.1" id="Layer_1" xmlns="http://www.w3.org/2000/svg" xmlns:xlink="http://www.w3.org/1999/xlink" x="0px" y="0px"
	 width="256px" height="256px" viewBox="0 0 256 256" enable-background="new 0 0 256 256" xml:space="preserve">
<g>
	<path fill="#374150" d="M127.998,91.982c22.785,0,38.668-25.504,38.668-48.387c0-23.031-16.262-39.758-38.668-39.758
		c-22.41,0-38.672,16.727-38.672,39.758C89.326,66.479,105.209,91.982,127.998,91.982z M118.303,16.6
		c-4.047,8.488-6.039,18.629,1.957,24.242c7.031,4.949,16.762,4.102,21.992-2.793c5.184-6.82-0.484-15.727-8.027-16.773
		c-5.844-0.809-8.371,8.133-2.461,8.953c3.645,0.504,4.016,3.219,0.285,4.379c-4.711,1.453-8.09-1.863-7.848-6.168
		c0.242-4.488,2.773-9.254,5.453-13.309c15.523,0.773,25.875,11.957,25.875,28.465c0,19.141-13.383,37.246-27.531,37.246
		s-27.531-18.105-27.531-37.246C100.467,30.135,107.377,20.252,118.303,16.6z"/>
	<path fill="#374150" d="M157.803,90.725c-10.23,5.902-20.887,7.949-29.801,7.949h-0.004c-8.914,0-19.574-2.047-29.805-7.949
		c-10.219-5.891-77.406,37.781-66.5,51.785c10.086,12.969,30.594-13.715,52.25-22.527c0,0-13.805,55.828,5.746,113.988
		c0,0-14.23,0.621-15.324,10.004c-1.09,9.375,13.922,8.133,33.305,8.133c9.848,0,10.711-8.27,11.074-17.195v-32.207
		c0,0-0.273-8.762,9.258-8.762c9.535,0,9.262,8.762,9.262,8.762v32.207c0.348,8.926,1.215,17.195,11.066,17.195
		c19.383,0,34.387,1.242,33.297-8.133c-1.09-9.383-15.309-10.004-15.309-10.004c19.535-58.16,5.746-113.988,5.746-113.988
		c21.641,8.813,42.164,35.496,52.242,22.527C235.213,128.506,168.033,84.834,157.803,90.725z M128.002,168.451
		c-5.547,0-10.039-4.477-10.039-10.027c0-5.555,4.492-10.039,10.039-10.039c5.535,0,10.035,4.484,10.035,10.039
		C138.037,163.975,133.537,168.451,128.002,168.451z M128.002,132.553c-5.547,0-10.039-4.477-10.039-10.023
		c0-5.555,4.492-10.043,10.039-10.043c5.535,0,10.035,4.488,10.035,10.043C138.037,128.076,133.537,132.553,128.002,132.553z"/>
</g>
</svg>
