<?xml version="1.0" encoding="utf-8"?>
<!-- Generator: Adobe Illustrator 16.0.0, SVG Export Plug-In . SVG Version: 6.00 Build 0)  -->
<!DOCTYPE svg PUBLIC "-//W3C//DTD SVG 1.1//EN" "http://www.w3.org/Graphics/SVG/1.1/DTD/svg11.dtd">
<svg version="1.1" id="Layer_1" xmlns="http://www.w3.org/2000/svg" xmlns:xlink="http://www.w3.org/1999/xlink" x="0px" y="0px"
	 width="256px" height="256px" viewBox="0 0 256 256" enable-background="new 0 0 256 256" xml:space="preserve">
<g>
	<path fill="#2878C8" d="M128.003,81.158c9.285,0,18.074,2.078,26.023,5.699c3.52-3.816,6.133-8.406,7.711-13.484
		c-10.234-4.906-21.648-7.734-33.734-7.734s-23.488,2.828-33.719,7.727c1.574,5.078,4.188,9.668,7.711,13.488
		C109.933,83.232,118.722,81.158,128.003,81.158z"/>
	<path fill="#2878C8" d="M73.503,175.556c-4.641-8.035-7.238-16.688-8.07-25.387c-5.07-1.137-10.348-1.109-15.543,0.059
		c0.871,11.324,4.129,22.629,10.176,33.086c6.043,10.473,14.191,18.93,23.551,25.344c3.609-3.91,6.277-8.457,7.824-13.414
		C84.335,190.181,78.144,183.587,73.503,175.556z"/>
	<path fill="#2878C8" d="M182.507,175.556c-4.637,8.031-10.832,14.609-17.949,19.688c1.551,4.957,4.219,9.504,7.824,13.426
		c9.367-6.426,17.523-14.883,23.566-25.355s9.301-21.762,10.172-33.07c-5.195-1.168-10.473-1.195-15.539-0.059
		C189.753,158.869,187.144,167.521,182.507,175.556z"/>
	<path fill="#374150" d="M119.854,120.494v-13.961c-20.59-3.82-36.184-21.848-36.184-43.543c0-20.297,13.652-37.367,32.266-42.629
		c0,0,3.805-0.949,3.805-4.656c0-4.246-3.805-3.586-3.805-3.586c-30.992,5.68-54.492,32.777-54.492,65.41
		c0,12.16,3.313,23.52,9.008,33.34c-11.34-0.031-22.84,2.781-33.371,8.867C8.823,136.041-2.896,169.947,7.683,199.623
		c0,0,1.336,3.621,5.012,1.5c3.207-1.848,2.133-5.621,2.133-5.621c-4.754-18.75,3.199-39.105,20.777-49.258
		c18.789-10.836,42.199-6.352,55.805,9.563l12.004-6.926c-0.297-1.555-0.48-3.152-0.48-4.789
		C102.933,133.111,110.034,123.888,119.854,120.494z"/>
	<path fill="#374150" d="M218.917,119.72c-10.535-6.078-22.031-8.883-33.375-8.859c5.695-9.813,9.012-21.176,9.012-33.332
		c0-32.633-23.504-59.73-54.496-65.41c0,0-3.805-0.66-3.805,3.586c0,3.707,3.805,4.656,3.805,4.656
		c18.613,5.262,32.27,22.332,32.27,42.629c0,21.691-15.598,39.715-36.18,43.543v13.961c9.82,3.395,16.922,12.617,16.922,23.598
		c0,1.637-0.18,3.219-0.48,4.773l12.012,6.926c13.609-15.906,37.012-20.398,55.793-9.547c17.582,10.152,25.535,30.508,20.781,49.258
		c0,0-1.07,3.773,2.137,5.621c3.676,2.121,5.008-1.5,5.008-1.5C258.894,169.947,247.179,136.041,218.917,119.72z"/>
	<path fill="#374150" d="M111.644,162.943l-12.086,6.973c6.98,19.75-0.836,42.258-19.625,53.109
		c-17.578,10.152-39.188,6.852-53.047-6.641c0,0-2.727-2.801-5.938-0.953c-3.676,2.121-1.203,5.078-1.203,5.078
		c20.41,24.008,55.633,30.813,83.891,14.488c10.535-6.078,18.719-14.625,24.367-24.461c5.648,9.836,13.832,18.383,24.363,24.461
		c28.258,16.324,63.477,9.52,83.891-14.488c0,0,2.473-2.957-1.203-5.078c-3.211-1.863-5.938,0.953-5.938,0.953
		c-13.859,13.492-35.469,16.781-53.047,6.641c-18.793-10.859-26.602-33.375-19.621-53.125l-12.074-6.969
		c-4.402,3.824-10.082,6.227-16.371,6.227S116.042,166.763,111.644,162.943z"/>
</g>
</svg>
