<?xml version="1.0" encoding="utf-8"?>
<!-- Generator: Adobe Illustrator 16.0.0, SVG Export Plug-In . SVG Version: 6.00 Build 0)  -->
<!DOCTYPE svg PUBLIC "-//W3C//DTD SVG 1.1//EN" "http://www.w3.org/Graphics/SVG/1.1/DTD/svg11.dtd">
<svg version="1.1" id="Layer_1" xmlns="http://www.w3.org/2000/svg" xmlns:xlink="http://www.w3.org/1999/xlink" x="0px" y="0px"
	 width="256px" height="256px" viewBox="0 0 256 256" enable-background="new 0 0 256 256" xml:space="preserve">
<g>
	<g>
		<path fill="#2878C8" d="M84.911,62.625c-2.098-0.609-4.234-1.383-6.387-2.125c6.516-8.758,18.672-10.969,29.047-8.984
			c5.781,1.102,8.252-7.75,2.439-8.852c-14.998-2.883-32.744,0.969-40.748,15.258c-3.66-0.633-7.32-0.633-10.941,0.805
			c-6.57,2.641-12.043,8.5-15.598,14.523c-3.031,5.102,4.912,9.727,7.928,4.633c2.637-4.453,6.623-8.891,11.488-10.852
			c5.146-2.047,15.354,2.984,20.34,4.445C88.171,73.141,90.589,64.273,84.911,62.625z"/>
		<path fill="#2878C8" d="M43.536,92.633c-13.793,6.594-15.861,22.086-9.27,34.633c2.76,5.242,10.686,0.602,7.928-4.641
			c-4.457-8.484-3.137-17.719,5.979-22.063C53.517,98.016,48.854,90.086,43.536,92.633z"/>
		<path fill="#2878C8" d="M178.827,121.539c2.881-10.477,1.623-22.148-9.244-27.164c-5.236-2.422-11.572-3.242-17.301-2.547
			c-5.799,0.711-5.873,9.898,0,9.188c3.842-0.469,7.691-0.188,11.336,0.859c8.223,2.352,8.313,10.094,6.357,17.219
			C168.399,124.813,177.267,127.234,178.827,121.539z"/>
		<path fill="#2878C8" d="M143.044,65.961c10.836-1.094,25.553,1.859,29.297,11c0.818,1.984,2.182,3.289,4.426,3.383
			c11.912,0.422,20.279,9.984,24.713,20.109c2.363,5.422,10.268,0.742,7.926-4.625c-5.418-12.398-16.127-22.641-29.857-24.336
			c-7.17-12.57-22.758-16.117-36.504-14.719C137.208,57.375,137.155,66.563,143.044,65.961z"/>
		<path fill="#2878C8" d="M101.606,88.117c-0.742,3.016-1.016,6.164-0.713,9.367c0.561,5.836,9.746,5.891,9.186,0
			c-0.363-3.805,0.258-7.383,1.668-10.578c0.689-0.641,1.105-1.477,1.279-2.398c2.523-4.227,6.42-7.656,11.193-9.836
			c5.373-2.469,0.705-10.383-4.639-7.945c-5.713,2.625-10.549,6.914-13.912,12.102c-14.801,0.242-30.965,6.164-36.77,20.914
			c-2.168,5.516,6.715,7.883,8.859,2.438c-0.705,1.789,0.689-1.18,1.023-1.742c1.211-2,2.818-3.664,4.531-5.242
			C88.315,90.555,94.938,88.664,101.606,88.117z"/>
		<path fill="#2878C8" d="M112.808,133.297c-8.352,3.547-18.445,4.289-27.236,1.836c-5.715-1.594-8.139,7.258-2.439,8.852
			c4.016,1.117,8.154,1.648,12.291,1.695c0.031,1.016,0.092,2.031,0.016,3.047c-0.318,4.547-2.623,8.141-6.699,10.141
			c-5.32,2.602-0.668,10.531,4.631,7.922c8.328-4.078,11.699-13.047,11.299-21.82c4.395-0.742,8.699-2,12.768-3.727
			C122.87,138.922,118.188,131.008,112.808,133.297z"/>
		<path fill="#2878C8" d="M168.81,137.234c-4.889,0.883-10.246,0.789-15.262-0.469c-0.35-0.164-0.697-0.273-1.076-0.328
			c-4.268-1.234-8.238-3.305-11.338-6.508c-4.123-4.273-10.609,2.227-6.494,6.492c2.053,2.102,4.389,3.813,6.873,5.258
			c-3.145,1.484-6.41,2.68-9.912,3.422c-1.6,0.352-3.213,0.453-4.85,0.484c-0.576,0-3.334-0.328-0.955,0.031
			c-5.789-0.875-8.283,7.961-2.439,8.852c10.275,1.563,20.9-3.109,29.434-8.563c6.084,1.258,12.488,1.258,18.459,0.18
			C177.077,145.055,174.599,136.188,168.81,137.234z"/>
		<path fill="#2878C8" d="M189.044,130.875c-5.928,0-5.928,9.18,0,9.18c14.488,0,26.258-10.578,29.297-24.398
			c1.271-5.773-7.578-8.234-8.852-2.445C207.231,123.445,198.925,130.875,189.044,130.875z"/>
		<path fill="#2878C8" d="M214.362,147.938c-9.148,5.578-21.029,6.383-30.807,1.695c-5.318-2.547-9.973,5.367-4.637,7.93
			c12.762,6.109,27.994,5.68,40.08-1.695C224.046,152.789,219.431,144.844,214.362,147.938z"/>
	</g>
	<path fill="#374150" d="M247.522,127.734c1.85-32.539-23.938-55.352-31.213-61.109c-12.551-37.07-54.723-40-67.545-40
		c-1.516,0-2.734,0.031-3.6,0.078c-16.656-5.641-32.154-8.484-46.045-8.484c-33.631,0-49.211,16.438-53.91,22.672
		C27.462,46.742,15.437,56.195,9.456,69.031c-6.85,14.703-3.486,29.359-1.592,35.258c-5.652,15.242-5.35,27.656,0.91,36.922
		c8.936,13.242,27.068,15.516,37.648,15.625c3.955,20.883,16.156,31.461,36.314,31.461c5.744,0,11.58-0.875,17.256-2.016
		c4.857,6.32,14.588,16.43,33.336,28.219c14.58,9.188,26.145,23.281,26.145,23.281h28.365c0,0-4.418-9.391-9.662-19.5
		c4.016-0.125,7.979-0.531,11.691-1.398c16.014-3.758,25.668-13.992,26.805-27.891c16.08-4.633,26.91-12.68,32.115-24.016
		C255.897,149.469,249.925,133.148,247.522,127.734z M186.853,204c-15.891,3.727-35.504,2.242-42.688-9.398
		c-8.473,0.867-20.461-5.758-21.098-13.367c0.357-0.063,0.789-0.164,1.121-0.211c5.881-0.789,12.209-1.18,18.795-1.18
		c26.031,0,50.516,6.164,60.352,8.984C202.335,196.547,196.849,201.648,186.853,204z M236.731,159.531
		c-3.803,8.219-12.701,14.109-26.447,17.555c-7.449-2.305-35.943-10.461-67.301-10.461c-7.17,0-14.08,0.422-20.537,1.289
		c-4.221,0.578-9.018,1.727-14.104,2.953c-8.176,1.969-17.436,4.219-25.605,4.219c-10.322,0-21.174-2.992-23.871-24.438
		c8.57-32.086,70.477-29.367,93.877-25.539l2.152-13.031c-3.826-0.641-91.164-14.43-107.76,31.539
		c-6.367-0.016-21.463-1-27.402-9.805c-3.973-5.883-3.533-14.945,1.318-26.961l1.016-2.531l-1.076-2.531
		c-0.055-0.141-5.67-14.039,0.453-27.18c4.578-9.82,14.611-17.141,29.836-21.766l2.5-0.773l1.313-2.258
		C55.19,49.633,66.065,31.43,99.12,31.43c12.77,0,27.229,2.758,42.984,8.203l1.311,0.438l1.379-0.109
		c0.129-0.016,1.584-0.117,3.971-0.117c13.77,0,46.758,3.18,55.533,32.664l0.652,2.18l1.855,1.32
		c0.303,0.211,30.107,21.789,27.418,52.391l-0.166,1.945l0.895,1.711C235.026,132.203,242.544,146.984,236.731,159.531z"/>
</g>
</svg>
