<?xml version="1.0" encoding="utf-8"?>
<!-- Generator: Adobe Illustrator 16.0.0, SVG Export Plug-In . SVG Version: 6.00 Build 0)  -->
<!DOCTYPE svg PUBLIC "-//W3C//DTD SVG 1.1//EN" "http://www.w3.org/Graphics/SVG/1.1/DTD/svg11.dtd">
<svg version="1.1" id="Layer_1" xmlns="http://www.w3.org/2000/svg" xmlns:xlink="http://www.w3.org/1999/xlink" x="0px" y="0px"
	 width="256px" height="256px" viewBox="0 0 256 256" enable-background="new 0 0 256 256" xml:space="preserve">
<g>
	<g>
		<path fill="#2878C8" d="M102.842,104.104c2.707-0.984,5.926-1.785,9.43-2.516c-9.891-2.5-18.324-6.199-21.176-13.125
			c-3.195-7.789,0.984-12.668,6.352-13.988c7.988-1.957,16.734-2.957,15.73-9.426c-0.832-5.383-10.418-8.133-18.594-6.32
			c-9.352,2.074-20.324,9.555-18.922,25.637c1.098,12.563,8.113,19.496,18.313,23.938
			C97.021,106.424,100.213,105.061,102.842,104.104z"/>
		<path fill="#2878C8" d="M161.408,58.729c-8.172-1.813-17.758,0.938-18.598,6.32c-0.992,6.469,7.746,7.469,15.746,9.426
			c5.352,1.32,9.543,6.199,6.336,13.988c-6.367,15.5-40.695,14.871-56.918,20.781c-7.543,2.742-19.781,8.715-19.789,21.324
			c0,9.594,5.547,16.004,12.609,20.34c3.914-2.863,8.898-4.852,14.398-6.23c0.055-0.016,0.137-0.031,0.191-0.043
			c-6.738-2.594-12.559-6.504-13.207-12.688c-0.668-6.352,5.258-11.414,17.672-13.832c29.461-5.734,58.16-7.191,60.488-33.75
			C181.748,68.283,170.771,60.803,161.408,58.729z"/>
		<path fill="#2878C8" d="M139.432,163.744c3.379,1.852,6.113,4.441,6.258,8.094c0.297,7.473-6.031,10.543-12.457,12.324
			c-10.891,3.008-24.629,7.137-27.57,17.238c-3.063,10.555,8.641,14.316,10.285,14.801c1.648,0.461,2.645,0.469,2.977,0.008
			c0.773-0.965-2.691-3.699-4.73-7.031c-2.031-3.328-1.5-10.469,14.43-14.137c12.73-2.938,31.027-8.305,29.965-23.855
			c-0.324-4.82-2.078-8.684-4.828-11.797C148.736,161.502,143.568,162.85,139.432,163.744z"/>
		<path fill="#2878C8" d="M160.393,115.928c-5.32,1.637-11.188,2.879-17.363,4.031c7.691,2.742,11.328,6.957,10.793,11.988
			c-1.402,13.215-26.289,16.066-33.496,17.867c-12.293,3.078-22.09,9.219-22.918,21.371c-0.523,7.672,3.676,12.855,9.578,16.492
			c3.012-2.23,6.699-3.965,10.574-5.383c-4.23-1.984-7.473-5.074-7.254-10.457c0.281-7.137,10.449-10.238,16.105-11.684
			c5.258-1.281,41.406-5.094,41.398-29.586C167.803,124.08,164.561,119.369,160.393,115.928z"/>
		<path fill="#2878C8" d="M147.447,196.119c-3.121,1.234-6.363,2.211-9.48,3.023c5.402,3.555,5.254,7.715,3.828,10.035
			c-2.031,3.332-5.504,6.066-4.715,7.031c0.32,0.461,1.32,0.453,2.973-0.008c1.637-0.484,13.352-4.246,10.273-14.801
			C149.752,199.424,148.752,197.674,147.447,196.119z"/>
	</g>
	<g>
		<path fill="#374150" d="M133.154,140.342V121.74c-2.695,0.484-5.426,0.977-8.168,1.508c-0.742,0.152-1.457,0.301-2.152,0.469
			v19.363C126.025,142.404,129.639,141.525,133.154,140.342z"/>
		<path fill="#374150" d="M128.092,179.021c1.746-0.484,3.473-1.059,5.063-1.797v-12.266c-0.672,0.121-1.227,0.234-1.613,0.324
			c-2.449,0.629-5.738,1.57-8.707,3.008v12.246C124.623,179.994,126.396,179.494,128.092,179.021z"/>
		<path fill="#374150" d="M122.834,204.486v14.289c0,2.852,2.32,5.172,5.168,5.172c2.852,0,5.152-2.32,5.152-5.172v-18.441
			C128.436,201.471,125.107,202.924,122.834,204.486z"/>
		<path fill="#374150" d="M143.021,47.072c0-8.289-6.73-15.02-15.02-15.02c-8.305,0-15.027,6.73-15.027,15.02
			c0,6.488,4.113,11.988,9.859,14.094v38.469c3.426-0.598,6.91-1.215,10.32-1.926V61.166
			C138.916,59.061,143.021,53.561,143.021,47.072z"/>
		<path fill="#374150" d="M78.646,131.924c-0.227-6.281,1.926-13.465,5.508-17.332c-10.004-6.652-16.609-15.078-17.883-29.66
			c-0.563-6.371,0.172-11.836,1.816-16.488c2.441-6.898,4.246-8.398,0.715-8.609c-3.531-0.219-13.203,2.855-22.691,7.988
			C2.584,91.338-3.236,115.549,10.314,115.307c6.363-0.113,14.707,0.027,19.863,0c-4.602,4.879-17.809,18.102,4.668,17.703h19.859
			c-4.59,4.887-17.809,18.094,4.676,17.699h28.352C82.717,146.686,78.963,140.799,78.646,131.924z"/>
		<path fill="#374150" d="M177.35,131.924c0.23-6.281-1.922-13.465-5.5-17.332c10.004-6.652,16.609-15.078,17.883-29.66
			c0.563-6.371-0.18-11.836-1.832-16.488c-2.441-6.898-4.238-8.398-0.715-8.609c3.535-0.219,13.219,2.855,22.707,7.988
			c43.527,23.516,49.34,47.727,35.797,47.484c-6.379-0.113-14.715,0.027-19.867,0c4.598,4.879,17.809,18.102-4.668,17.703h-19.871
			c4.605,4.887,17.809,18.094-4.668,17.699h-28.359C173.291,146.686,177.033,140.799,177.35,131.924z"/>
	</g>
</g>
</svg>
