<?xml version="1.0" encoding="utf-8"?>
<!-- Generator: Adobe Illustrator 16.0.0, SVG Export Plug-In . SVG Version: 6.00 Build 0)  -->
<!DOCTYPE svg PUBLIC "-//W3C//DTD SVG 1.1//EN" "http://www.w3.org/Graphics/SVG/1.1/DTD/svg11.dtd">
<svg version="1.1" id="Layer_1" xmlns="http://www.w3.org/2000/svg" xmlns:xlink="http://www.w3.org/1999/xlink" x="0px" y="0px"
	 width="256px" height="256px" viewBox="0 0 256 256" enable-background="new 0 0 256 256" xml:space="preserve">
<g>
	<path fill="#2878C8" d="M98.764,89.637c-4.926,2.742-0.516,10.305,4.418,7.547c5.738-3.195,12.971-5.047,20.443-5.578
		c0,2.383,0,4.758,0,7.141c-10.936,0.664-21.572,3.938-29.486,9.867c-4.461,3.336-0.104,10.945,4.418,7.563
		c6.805-5.094,15.795-7.969,25.068-8.625c0,2.398,0,4.789,0,7.188c-8.4,0.633-16.521,3.227-22.652,7.773
		c-4.475,3.32-0.121,10.93,4.418,7.563c5.014-3.727,11.5-5.883,18.234-6.5c0,3.32,0,6.633,0,9.969c0,5.641,8.752,5.641,8.752,0
		c0-3.305,0-6.617,0-9.922c6.555,0.695,12.846,2.813,17.736,6.453c4.539,3.367,8.896-4.242,4.418-7.563
		c-6.01-4.453-13.932-7.016-22.154-7.727c0-2.398,0-4.789,0-7.188c9.094,0.727,17.889,3.578,24.572,8.578
		c4.523,3.383,8.877-4.227,4.418-7.563c-7.795-5.836-18.229-9.125-28.99-9.852c0-2.383,0-4.758,0-7.156
		c7.473,0.531,14.705,2.383,20.441,5.578c4.934,2.758,9.344-4.805,4.418-7.547c-7.07-3.953-15.846-6.195-24.859-6.742
		c0-2.031,0-3.82,0-3.82c5.896-3.5,13.156-4.516,19.965-3.398c5.518,0.93,7.885-7.516,2.326-8.438
		c-9.082-1.5-18.574-0.438-26.621,4.148c-7.207-5.211-18.287-5.547-26.713-4.148c-5.559,0.922-3.191,9.367,2.326,8.438
		c6.781-1.117,14.08-0.102,19.965,3.367c0,0,0,1.836,0,3.852C114.609,83.441,105.834,85.684,98.764,89.637z"/>
	<path fill="#374150" d="M83.787,157.48c1.246-0.719,1.674-2.305,0.965-3.547l-2.83-4.945c-1.129-9.758-2.258-19.523-3.387-29.281
		c1.525-1.375,2.5-3.352,2.5-5.563c0-1.164-0.283-2.242-0.754-3.227c5.521-10.063,11.041-20.125,16.563-30.18
		c2.721-4.953-4.844-9.367-7.561-4.422c-5.559,10.141-11.119,20.266-16.682,30.398c-3.719,0.461-6.609,3.578-6.609,7.43
		c0,2.836,1.588,5.273,3.902,6.547c1.08,9.32,2.156,18.625,3.232,27.938c-0.014,0.055-0.045,0.102-0.061,0.164l-2.613,10.125
		c-0.619,2.391,0.826,4.836,3.221,5.453c2.402,0.625,4.846-0.82,5.467-3.211l1.174-4.547
		C81.059,157.762,82.578,158.16,83.787,157.48z"/>
	<path fill="#374150" d="M190.008,114.145c0-3.852-2.891-6.969-6.607-7.43c-5.563-10.133-11.125-20.258-16.684-30.398
		c-2.717-4.945-10.279-0.531-7.559,4.422c5.521,10.055,11.041,20.117,16.563,30.18c-0.471,0.984-0.754,2.063-0.754,3.227
		c0,2.211,0.973,4.188,2.5,5.563c-1.129,9.758-2.258,19.523-3.387,29.281l-2.83,4.945c-0.709,1.242-0.281,2.828,0.965,3.547
		c1.209,0.68,2.729,0.281,3.471-0.867l1.176,4.547c0.621,2.391,3.064,3.836,5.467,3.211c2.395-0.617,3.838-3.063,3.221-5.453
		l-2.615-10.125c-0.014-0.063-0.045-0.109-0.061-0.164c1.076-9.313,2.152-18.617,3.232-27.938
		C188.422,119.418,190.008,116.98,190.008,114.145z"/>
	<path fill="#374150" d="M171.855,243.184h-6.074c0-11.32,0-22.641,0-33.961c1.676-1.383,2.766-3.445,2.766-5.789
		c0-3.047-1.826-5.672-4.439-6.852l-7.078-28.922c0.576-1.953,0.279-4.211-0.152-6.289c-0.717-3.406-0.238-3.836,0.807-4.773
		c2.35-2.125,4.711-4.922,2.902-11.547c-1.504-5.5-5.527-8.531-11.336-8.531c-4.313,0-9.174,1.648-13.463,3.117
		c-3.1,1.063-6.301,2.156-8.033,2.156c-1.734,0-4.938-1.094-8.035-2.156c-4.291-1.469-9.152-3.117-13.463-3.117
		c-5.809,0-9.834,3.031-11.338,8.531c-1.807,6.625,0.553,9.422,2.902,11.547c1.047,0.938,1.523,1.367,0.807,4.773
		c-0.492,2.367-0.803,4.961,0.148,7.094l-6.881,28.117c-2.613,1.18-4.441,3.805-4.441,6.852c0,2.344,1.092,4.406,2.768,5.789
		c0,11.32,0,22.641,0,33.961h-6.074c-2.479,0-4.486,2-4.486,4.484c0,2.477,2.008,4.492,4.486,4.492h10.445
		c2.479,0,4.486-2.016,4.486-4.492c0-0.422-0.072-0.813-0.178-1.195c0.039-0.242,0.072-0.484,0.072-0.742
		c0-11.969,0-23.961,0-35.953c2.115-1.328,3.523-3.664,3.523-6.344c0-2.125-0.887-4.031-2.303-5.398l6.555-26.797
		c1.535-0.516,3.213-1.367,5.232-2.406c4.453-2.289,9.988-5.125,15.773-5.125c5.783,0,11.322,2.836,15.771,5.125
		c2.258,1.148,4.084,2.086,5.766,2.555l6.518,26.648c-1.418,1.367-2.303,3.273-2.303,5.398c0,2.68,1.408,5.016,3.523,6.344
		c0,11.992,0,23.984,0,35.953c0,0.258,0.033,0.5,0.072,0.742c-0.107,0.383-0.18,0.773-0.18,1.195c0,2.477,2.01,4.492,4.486,4.492
		h10.447c2.479,0,4.486-2.016,4.486-4.492C176.342,245.184,174.334,243.184,171.855,243.184z M147.363,161.355
		c-4.979-2.563-11.795-6.063-19.609-6.063c-7.813,0-14.633,3.5-19.607,6.063c-0.338,0.172-0.701,0.352-1.068,0.547
		c1.076-6.672-1.301-9.461-3.646-11.563c-0.271-0.242-0.65-0.594-0.723-0.695c0,0-0.174-0.563,0.318-2.383
		c0.504-1.836,1.197-2.352,3.229-2.352c2.918,0,7.078,1.43,10.746,2.688c3.92,1.328,7.623,2.586,10.752,2.586
		c3.127,0,6.828-1.258,10.75-2.586c3.668-1.258,7.828-2.688,10.746-2.688c2.008,0,2.732,0.531,3.229,2.352
		c0.488,1.789,0.326,2.367,0.326,2.367c-0.076,0.117-0.455,0.469-0.732,0.711c-2.346,2.102-4.721,4.891-3.645,11.563
		C148.061,161.707,147.695,161.527,147.363,161.355z"/>
	<path fill="#374150" d="M108.828,48.793c0.189,0.531,0.463,1.633,0.463,3.742c0,8.398,7.074,13.609,18.463,13.609
		c11.387,0,18.461-5.211,18.461-13.609c0-2.109,0.273-3.211,0.463-3.742c7.104-1.258,8.207-13.914,8.207-21.602
		c0-16.141-13.631-23.352-27.131-23.352c-13.504,0-27.129,7.211-27.129,23.352C100.625,34.879,101.723,47.535,108.828,48.793z
		 M127.754,12.238c3.127,0,18.727,0.727,18.727,14.953c0,7.578-1.258,12.023-2.027,13.398c-2.209,0.398-6.643,2.383-6.643,11.945
		c0,4.695-7.033,5.211-10.057,5.211c-3.027,0-10.059-0.516-10.059-5.211c0-9.563-4.434-11.547-6.643-11.945
		c-0.77-1.375-2.027-5.82-2.027-13.398C109.025,12.965,124.625,12.238,127.754,12.238z"/>
	<path fill="#374150" d="M117.652,36.285h2.137c3.066,0,5.551-2.086,5.551-4.68v-0.789c0-2.594-2.484-4.695-5.551-4.695h-2.137
		c-3.064,0-5.551,2.102-5.551,4.695v0.789C112.102,34.199,114.588,36.285,117.652,36.285z"/>
	<path fill="#374150" d="M135.715,36.285h2.137c3.066,0,5.551-2.086,5.551-4.68v-0.789c0-2.594-2.484-4.695-5.551-4.695h-2.137
		c-3.064,0-5.551,2.102-5.551,4.695v0.789C130.164,34.199,132.65,36.285,135.715,36.285z"/>
	<path fill="#374150" d="M123.408,39.926c-2.391,4.141-2.391,7.531,0,7.531c2.387,0,6.301,0,8.689,0c2.391,0,2.391-3.391,0-7.531
		C129.709,35.785,125.795,35.785,123.408,39.926z"/>
</g>
</svg>
