<?xml version="1.0" encoding="utf-8"?>
<!-- Generator: Adobe Illustrator 16.0.0, SVG Export Plug-In . SVG Version: 6.00 Build 0)  -->
<!DOCTYPE svg PUBLIC "-//W3C//DTD SVG 1.1//EN" "http://www.w3.org/Graphics/SVG/1.1/DTD/svg11.dtd">
<svg version="1.1" id="Layer_1" xmlns="http://www.w3.org/2000/svg" xmlns:xlink="http://www.w3.org/1999/xlink" x="0px" y="0px"
	 width="256px" height="256px" viewBox="0 0 256 256" enable-background="new 0 0 256 256" xml:space="preserve">
<g>
	<path fill="#374150" d="M226.071,14.605c-0.008-0.094-0.012-0.195-0.023-0.305c-0.004-5.398-5.027-10.43-10.434-10.43
		c-0.104-0.016-0.201-0.016-0.305-0.031c-0.049,0.016-0.094-0.008-0.143,0c-0.232,0.016-0.467,0.016-0.693,0.031
		c-0.387,0.016-0.77,0-1.152,0.063c-17.025,0.883-34.045,1.773-51.064,2.656c-14.006,0.727-14.074,22.547,0,21.82
		c8.373-0.438,16.746-0.859,25.117-1.305c-7.355,7.352-14.729,14.734-22.387,22.391c-9.771-6.82-21.627-10.852-34.424-10.852
		c-13.641,0-26.193,4.602-36.307,12.258C79.708,61.926,70.253,79.34,70.253,98.949c0,0.711,0.084,1.391,0.107,2.094
		c0.707,20.672,11.852,38.703,28.346,49.031c4.512-1.383,8.691-3.719,12.117-7.156c2.02-2.016,3.551-4.32,4.85-6.703
		c-14.785-5.922-25.27-20.383-25.27-37.266c0-1.953,0.254-3.852,0.523-5.742c2.516-17.359,16.076-31.148,33.367-33.875
		c2.049-0.32,4.133-0.547,6.27-0.547c22.145,0,40.16,18.023,40.16,40.164c0,9.625-3.406,18.445-9.066,25.375
		c-0.291,10.367-2.797,20.672-7.555,30.141c21.594-9.18,36.771-30.602,36.771-55.516c0-12.578-3.887-24.281-10.51-33.953
		c7.68-7.68,15.072-15.078,22.449-22.445c-0.436,8.367-0.871,16.734-1.303,25.117c-0.729,14.063,21.105,14,21.828,0
		c0.883-17.023,1.766-34.055,2.648-51.063c0.057-0.391,0.051-0.773,0.057-1.148c0.016-0.234,0.023-0.477,0.039-0.703
		C226.087,14.707,226.067,14.668,226.071,14.605z"/>
	<path fill="#2878C8" d="M124.706,200.66c-7.768,0-15.535,0-23.303,0c0-6.078,0-12.367,0-19.141
		c9.17-1.727,17.775-5.547,25.236-11.227c2.154-1.656,4.254-3.398,6.205-5.352c12.299-12.297,18.102-28.617,17.539-44.773
		c-0.518-14.734-6.318-29.297-17.539-40.516c-3.297-3.305-6.938-6.117-10.799-8.531c-4.508,1.383-8.684,3.711-12.117,7.156
		c-2.023,2.016-3.559,4.32-4.861,6.711c5.006,2,9.605,4.992,13.531,8.914c9.279,9.273,12.92,21.992,11.199,34.086
		c-1.178,8.305-4.818,16.32-11.199,22.703c-6.059,6.063-13.721,9.898-22.025,11.219c-2.092,0.328-4.215,0.547-6.373,0.547
		c-10.729,0-20.814-4.172-28.4-11.766c-14.617-14.609-15.402-37.711-2.717-53.453c0.238-10.492,2.748-20.898,7.549-30.469
		c-7.037,2.992-13.512,7.305-19.078,12.883c-23.516,23.508-23.516,61.781,0,85.289c8.844,8.852,19.957,14.563,32.021,16.703
		c0,6.711,0,12.969,0,19.016c-7.768,0-15.535,0-23.303,0c-14.076,0-14.076,21.828,0,21.828c7.768,0,15.535,0,23.303,0
		c0,6.063,0,12.305,0,19.109c0,14.086,21.828,14.086,21.828,0c0-6.805,0-13.047,0-19.109c7.768,0,15.535,0,23.303,0
		C138.782,222.488,138.782,200.66,124.706,200.66z"/>
</g>
</svg>
