<?xml version="1.0" encoding="utf-8"?>
<!-- Generator: Adobe Illustrator 16.0.0, SVG Export Plug-In . SVG Version: 6.00 Build 0)  -->
<!DOCTYPE svg PUBLIC "-//W3C//DTD SVG 1.1//EN" "http://www.w3.org/Graphics/SVG/1.1/DTD/svg11.dtd">
<svg version="1.1" id="Layer_1" xmlns="http://www.w3.org/2000/svg" xmlns:xlink="http://www.w3.org/1999/xlink" x="0px" y="0px"
	 width="256px" height="256px" viewBox="0 0 256 256" enable-background="new 0 0 256 256" xml:space="preserve">
<g>
	<path fill="#374150" d="M186.633,186.85c-16.254,15.293-17.125,18.793-29.523,20.898c-12.398,2.121-31.027-4.363-31.027-4.363
		c8.973-0.699,21.023-2.063,26.57-2.852c16.883-2.41,18.551-9.152,17.809-14.289c-1.469-10.383-22.703-8.398-38.859-8.867
		c-15.43-0.473-21.727-8.594-45.113-3.578c-24.895,5.352-38.219,25.355-38.219,25.355H23.309c0,0-9.32,7.93-9.32,26.586
		c0,18.641,9.313,26.113,9.313,26.113s10.578,0,24.969,0c7.199,0,49.488,0,49.488,0c13.262-0.031,34.691,1.699,48.148-2.711
		c37.453-12.277,65.84-55.125,65.84-55.125c1.941-2.32,2.152-6.273,0.484-8.82C212.23,185.197,205.16,169.389,186.633,186.85z"/>
	<path fill="#2878C8" d="M134.359,3.838c-57.82,0-107.656,50.379-107.656,72.992s49.836,73.008,107.656,73.008
		S242.012,99.443,242.012,76.83S192.18,3.838,134.359,3.838z M134.359,131.436c-30.16,0-54.609-24.445-54.609-54.605
		c0-30.145,24.449-54.594,54.609-54.594s54.605,24.449,54.605,54.594C188.965,106.99,164.52,131.436,134.359,131.436z"/>
	<path fill="#2878C8" d="M172.855,61.248c-1.789,8.914-9.641,15.625-19.082,15.625c-10.746,0-19.453-8.699-19.453-19.457
		c0-9.43,6.723-17.297,15.633-19.066c-4.816-1.957-10.078-3.063-15.594-3.063c-22.945,0-41.543,18.609-41.543,41.543
		c0,22.945,18.598,41.543,41.543,41.543s41.543-18.598,41.543-41.543C175.902,71.314,174.805,66.068,172.855,61.248z"/>
</g>
</svg>
