<?xml version="1.0" encoding="utf-8"?>
<!-- Generator: Adobe Illustrator 16.0.0, SVG Export Plug-In . SVG Version: 6.00 Build 0)  -->
<!DOCTYPE svg PUBLIC "-//W3C//DTD SVG 1.1//EN" "http://www.w3.org/Graphics/SVG/1.1/DTD/svg11.dtd">
<svg version="1.1" id="Layer_1" xmlns="http://www.w3.org/2000/svg" xmlns:xlink="http://www.w3.org/1999/xlink" x="0px" y="0px"
	 width="256px" height="256px" viewBox="0 0 256 256" enable-background="new 0 0 256 256" xml:space="preserve">
<g>
	<path fill="#2878C8" d="M225.676,118.625c-5.131,0.453,8.66-14.289-11.117-30.617c-24.6-20.281-19.4-54.078,9.457-56.883
		c4.289-0.422-6.094,15.602,10.238,34.133C255.373,89.219,244.506,116.969,225.676,118.625z"/>
	<polygon fill="#2878C8" points="138.412,151.305 161.799,127.914 182.609,107.117 153.236,77.75 109.041,121.93 64.844,77.75 
		35.471,107.117 56.281,127.914 79.668,151.305 56.266,174.703 35.471,195.5 64.844,224.883 109.041,180.688 153.236,224.883 
		182.609,195.5 161.799,174.703 	"/>
	<path fill="#374150" d="M164.482,138.734h36.254v25.164h-36.248h-1.098l12.717,12.852h25.855l0,0h41.893
		c4.592,0,8.305-3.711,8.305-8.305v-34.273c0-4.57-3.713-8.305-8.305-8.305h-30.494h-11.398h-25.855l-12.793,12.867H164.482z"/>
	<path fill="#374150" d="M54.834,138.734l-12.859-12.867H16.086c-6.744,0-12.246,5.5-12.246,12.25V164.5
		c0,6.75,5.502,12.25,12.246,12.25h25.873l12.951-12.852h-3.313H17.217c-0.281,0-0.508-0.227-0.508-0.5v-24.164
		c0-0.273,0.227-0.5,0.508-0.5h34.396H54.834z"/>
</g>
</svg>
