<?xml version="1.0" encoding="utf-8"?>
<!-- Generator: Adobe Illustrator 16.0.0, SVG Export Plug-In . SVG Version: 6.00 Build 0)  -->
<!DOCTYPE svg PUBLIC "-//W3C//DTD SVG 1.1//EN" "http://www.w3.org/Graphics/SVG/1.1/DTD/svg11.dtd">
<svg version="1.1" id="Layer_1" xmlns="http://www.w3.org/2000/svg" xmlns:xlink="http://www.w3.org/1999/xlink" x="0px" y="0px"
	 width="256px" height="256px" viewBox="0 0 256 256" enable-background="new 0 0 256 256" xml:space="preserve">
<g>
	<path fill="#374150" d="M244.049,110.305H229.83c-4.453,0-9.426,3.406-11.039,7.563l-20.848,53.672h-80.883v-32.484H54.564
		c-52.744,0-50.713,41.242-50.713,56.156h95.74h17.469h135.098v-16.57v-7.102v-53.125
		C252.158,113.953,248.518,110.305,244.049,110.305z"/>
	<g>
		<path fill="#2878C8" d="M252.158,241.055c0,2.242-1.805,4.063-4.047,4.063H7.898c-2.236,0-4.055-1.82-4.055-4.063v-32.977
			c0-2.242,1.818-4.063,4.055-4.063h240.213c2.242,0,4.047,1.82,4.047,4.063V241.055z"/>
	</g>
	<g>
		<path fill="#2878C8" d="M205.096,58.453c-11.23,0-20.34,9.109-20.34,20.344c0,11.227,9.109,20.336,20.34,20.336
			s20.34-9.109,20.34-20.336C225.436,67.563,216.326,58.453,205.096,58.453z"/>
		<path fill="#2878C8" d="M174.572,115.805c0,0-6.367,13.203-9.43,19.555c-4.41-8.109-11.867-13.57-23.945-17.586
			c-11.859-3.922-16.141-11.094-17.477-17.273h5.852c6.723,0,12.172-5.461,12.172-12.188V57.867c0-6.734-5.449-12.188-12.172-12.188
			h-19.461c-6.723,0-12.176,5.453-12.176,12.188v30.445c0,6.727,5.453,12.188,12.176,12.188h5.383
			c1.535,9.383,7.516,19.789,23.141,24.992c9.715,3.227,15.543,7.227,19.051,13.227h-31.492v23.68h64.938l22.332-56.156
			C194.834,100.031,182.217,100.5,174.572,115.805z"/>
	</g>
	<path fill="#374150" d="M113.795,36.555h12.18c0-16.672-12.504-25.672-24.273-25.672c-6.594,0-12.719,2.602-17.234,7.328
		c-3.441,3.594-7.547,10.172-7.547,21.055v90.648H89.1V39.266c0-5.406,1.445-9.789,4.172-12.641c2.199-2.305,5.184-3.563,8.43-3.563
		C107.521,23.063,113.795,27.281,113.795,36.555z"/>
</g>
</svg>
