<?xml version="1.0" encoding="utf-8"?>
<!-- Generator: Adobe Illustrator 16.0.0, SVG Export Plug-In . SVG Version: 6.00 Build 0)  -->
<!DOCTYPE svg PUBLIC "-//W3C//DTD SVG 1.1//EN" "http://www.w3.org/Graphics/SVG/1.1/DTD/svg11.dtd">
<svg version="1.1" id="Layer_1" xmlns="http://www.w3.org/2000/svg" xmlns:xlink="http://www.w3.org/1999/xlink" x="0px" y="0px"
	 width="256px" height="256px" viewBox="0 0 256 256" enable-background="new 0 0 256 256" xml:space="preserve">
<g>
	<g>
		<path fill="#58595B" d="M247.742,92.734H185.77v17.082v97.789h57.941v-97.789h4.031c2.441,0,4.418-1.977,4.418-4.418v-8.246
			C252.16,94.715,250.184,92.734,247.742,92.734z M210.133,195.484h-12.527v-25.859h12.527V195.484z M210.133,156.691h-12.527
			v-32.328h12.527V156.691z M232.555,195.484h-12.52v-25.859h12.52V195.484z M232.555,156.691h-12.52v-32.328h12.52V156.691z"/>
		<path fill="#58595B" d="M3.84,97.152v8.246c0,2.441,1.977,4.418,4.418,4.418h3.348v97.789H70.23v-97.789V92.734H8.258
			C5.816,92.734,3.84,94.715,3.84,97.152z M35.965,195.484h-12.52v-25.859h12.52V195.484z M35.965,156.691h-12.52v-32.328h12.52
			V156.691z M58.395,195.484H45.867v-25.859h12.527V195.484z M58.395,156.691H45.867v-32.328h12.527V156.691z"/>
	</g>
	<path fill="#2878C8" d="M179.297,214.074V47.586h7.32c2.441,0,4.426-1.977,4.426-4.414V29.375c0-2.441-1.984-4.418-4.426-4.418
		H69.383c-2.441,0-4.426,1.977-4.426,4.418v13.797c0,2.438,1.984,4.414,4.426,4.414h7.32v166.488H3.84v16.969h248.32v-16.969
		H179.297z M135.258,171.98v29.969h-14.512V171.98H135.258z M120.746,156.996v-37.484h14.512v37.484H120.746z M148.977,201.949
		V171.98h14.512v29.969H148.977z M163.488,156.996h-14.512v-37.484h14.512V156.996z M105.098,73.48h14.285V59.441h17.234V73.48
		h14.285v16.551h-14.285v14.129h-17.234V90.031h-14.285V73.48z M92.512,119.512h14.512v37.484H92.512V119.512z M92.512,171.98
		h14.512v29.969H92.512V171.98z"/>
</g>
</svg>
