<?xml version="1.0" encoding="utf-8"?>
<!-- Generator: Adobe Illustrator 16.0.0, SVG Export Plug-In . SVG Version: 6.00 Build 0)  -->
<!DOCTYPE svg PUBLIC "-//W3C//DTD SVG 1.1//EN" "http://www.w3.org/Graphics/SVG/1.1/DTD/svg11.dtd">
<svg version="1.1" id="Layer_1" xmlns="http://www.w3.org/2000/svg" xmlns:xlink="http://www.w3.org/1999/xlink" x="0px" y="0px"
	 width="256px" height="256px" viewBox="0 0 256 256" enable-background="new 0 0 256 256" xml:space="preserve">
<g>
	<g>
		<path fill="#374150" d="M50.917,34.553c5.244-1.289,10.775,2.813,12.354,9.195c1.568,6.383-1.402,12.578-6.646,13.898
			c-5.236,1.289-10.77-2.836-12.33-9.195C42.718,42.069,45.688,35.842,50.917,34.553z"/>
	</g>
	<g>
		<path fill="#374150" d="M31.851,48.6c4.623-1.148,9.504,2.5,10.883,8.109c1.408,5.641-1.229,11.125-5.852,12.258
			c-4.621,1.156-9.502-2.484-10.881-8.109C24.599,55.225,27.228,49.741,31.851,48.6z"/>
	</g>
	<g>
		<path fill="#374150" d="M13.497,101.78c-3.971,0.992-8.154-2.133-9.336-6.953c-1.199-4.82,1.045-9.531,5.016-10.516
			c3.963-0.977,8.146,2.148,9.336,6.969C19.696,96.116,17.452,100.811,13.497,101.78z"/>
	</g>
	<g>
		<path fill="#374150" d="M12.716,76.428c-1.295-5.242,1.137-10.32,5.418-11.383c4.305-1.078,8.836,2.305,10.125,7.547
			c1.295,5.195-1.152,10.305-5.441,11.383C18.521,85.022,14.005,81.655,12.716,76.428z"/>
	</g>
	<g>
		<path fill="#374150" d="M213.255,56.709c1.395-5.609,6.268-9.258,10.898-8.109c4.623,1.141,7.244,6.625,5.85,12.258
			c-1.387,5.625-6.266,9.266-10.889,8.109C214.499,67.834,211.862,62.35,213.255,56.709z"/>
	</g>
	<g>
		<path fill="#374150" d="M192.733,43.749c1.576-6.383,7.094-10.484,12.346-9.195c5.236,1.289,8.207,7.516,6.631,13.898
			c-1.568,6.359-7.094,10.484-12.338,9.195C194.128,56.327,191.157,50.131,192.733,43.749z"/>
	</g>
	<g>
		<path fill="#374150" d="M176.935,23.288c6.934,0.211,12.336,7.219,12.086,15.641c-0.258,8.414-6.078,15.102-13.004,14.883
			c-6.926-0.195-12.336-7.211-12.08-15.641C164.194,29.733,169.999,23.077,176.935,23.288z"/>
	</g>
	<g>
		<path fill="#374150" d="M233.187,83.975c-4.305-1.078-6.744-6.188-5.441-11.383c1.289-5.242,5.82-8.625,10.109-7.547
			c4.289,1.063,6.729,6.141,5.434,11.383C241.999,81.655,237.476,85.022,233.187,83.975z"/>
	</g>
	<g>
		<path fill="#374150" d="M251.837,94.827c-1.176,4.82-5.359,7.945-9.33,6.953c-3.971-0.969-6.213-5.664-5.023-10.5
			c1.189-4.82,5.373-7.945,9.344-6.969C250.798,85.295,253.04,90.006,251.837,94.827z"/>
	</g>
	<g>
		<path fill="#374150" d="M90.976,40.186c0.326,0,0.637,0.063,0.969,0.094c0.061-0.695,0.137-1.383,0.107-2.109
			c-0.242-8.438-6.047-15.094-12.99-14.883c-6.926,0.211-12.336,7.219-12.078,15.641c0.211,7.32,4.668,13.328,10.381,14.625
			C77.517,46.147,83.534,40.186,90.976,40.186z"/>
	</g>
	<g>
		<path fill="#2878C8" d="M81.442,53.811c0-5.258,4.266-9.516,9.533-9.516c5.252,0,9.525,4.258,9.525,9.516
			c0,5.273-4.273,9.523-9.525,9.523C85.708,63.334,81.442,59.084,81.442,53.811z"/>
	</g>
	<g>
		<path fill="#2878C8" d="M179.958,105.663c0-6.422,5.213-11.625,11.639-11.625c6.428,0,11.641,5.203,11.641,11.625
			c0,6.43-5.213,11.625-11.641,11.625C185.171,117.288,179.958,112.092,179.958,105.663z"/>
	</g>
	<g>
		<path fill="#2878C8" d="M159.134,191.78c0-6.422,5.205-11.625,11.639-11.625c6.426,0,11.641,5.203,11.641,11.625
			c0,6.43-5.215,11.625-11.641,11.625C164.339,203.405,159.134,198.209,159.134,191.78z"/>
	</g>
	<g>
		<path fill="#2878C8" d="M145.735,223.202c0-5.258,4.258-9.523,9.533-9.523c5.258,0,9.518,4.266,9.518,9.523
			s-4.26,9.516-9.518,9.516C149.993,232.717,145.735,228.459,145.735,223.202z"/>
	</g>
	<g>
		<path fill="#374150" d="M86.808,230.858L86.808,230.858c-14.035,0-24.932-7.977-29.168-21.344
			c-10.193-32.164-13.141-38.086-16.787-44.016l-1.061-1.648c-29.055-44.594-19.93-69.523-7.152-82.586
			c9.502-9.703,25.705-19.508,40.467-19.508c7.457,0,13.898,2.406,19.127,7.156c19.445,17.625,16.293,40.148,13.52,60.016
			c-0.576,4.195-1.168,8.367-1.531,12.445c-1.197,13.516,2.939,20.75,8.17,29.914c2.734,4.773,5.834,10.188,8.336,16.914
			c3.516,9.492,2.395,19.133-3.168,27.133C110.997,224.764,98.933,230.858,86.808,230.858z M73.106,73.397
			c-10.822,0-24.357,8.063-32.146,16c-14.248,14.586-11.352,37.484,8.586,68.102l1.227,1.906
			c4.094,6.656,7.146,12.477,17.961,46.594c3.645,11.5,12.891,13.219,18.074,13.219l0,0c8.291,0,16.809-4.234,21.188-10.523
			c3.426-4.922,4.031-10.453,1.818-16.43c-2.166-5.836-4.895-10.594-7.523-15.203c-5.502-9.617-11.193-19.563-9.662-36.719
			c0.379-4.273,0.984-8.625,1.605-13.023c2.6-18.672,5.063-36.297-9.82-49.789C81.351,74.749,77.653,73.397,73.106,73.397z"/>
	</g>
	<path fill="#374150" d="M223.358,81.264c-9.504-9.703-25.699-19.508-40.469-19.508c-7.463,0-13.898,2.406-19.135,7.156
		c-19.43,17.625-16.293,40.148-13.52,60.016c0.592,4.195,1.168,8.367,1.531,12.445c1.213,13.516-2.926,20.75-8.168,29.914
		c-2.729,4.773-5.82,10.188-8.322,16.93c-3.531,9.477-2.402,19.117,3.168,27.117c1.047,1.516,2.289,2.891,3.592,4.227
		c1.107-4.031,3.957-7.32,7.73-8.969c-0.576-0.641-1.289-1.211-1.773-1.914c-3.418-4.906-4.031-10.438-1.805-16.414
		c2.168-5.836,4.889-10.594,7.518-15.203c5.502-9.617,11.186-19.563,9.656-36.719c-0.379-4.273-0.986-8.625-1.592-13.023
		c-2.607-18.672-5.07-36.297,9.805-49.789c3.07-2.781,6.768-4.133,11.314-4.133c10.814,0,24.365,8.063,32.146,16
		c14.248,14.586,11.359,37.484-8.586,68.102l-1.227,1.906c-4.094,6.656-7.146,12.477-17.961,46.594
		c-3.652,11.5-12.883,13.219-18.066,13.219c-0.287,0-0.561-0.094-0.848-0.109c0.408,1.305,0.697,2.664,0.697,4.094
		c0,2.773-0.842,5.352-2.26,7.5c0.805,0.063,1.607,0.156,2.41,0.156c14.02,0,24.924-7.977,29.16-21.344
		c10.201-32.164,13.141-38.086,16.787-44.016l1.061-1.648C245.251,119.256,236.126,94.327,223.358,81.264z"/>
	<g>
		<path fill="#2878C8" d="M63.831,159.936c0-6.406,5.221-11.625,11.654-11.625c6.426,0,11.625,5.219,11.625,11.625
			c0,6.445-5.199,11.641-11.625,11.641C69.052,171.577,63.831,166.381,63.831,159.936z"/>
	</g>
</g>
</svg>
