<?xml version="1.0" encoding="utf-8"?>
<!-- Generator: Adobe Illustrator 16.0.0, SVG Export Plug-In . SVG Version: 6.00 Build 0)  -->
<!DOCTYPE svg PUBLIC "-//W3C//DTD SVG 1.1//EN" "http://www.w3.org/Graphics/SVG/1.1/DTD/svg11.dtd">
<svg version="1.1" id="Layer_1" xmlns="http://www.w3.org/2000/svg" xmlns:xlink="http://www.w3.org/1999/xlink" x="0px" y="0px"
	 width="256px" height="256px" viewBox="0 0 256 256" enable-background="new 0 0 256 256" xml:space="preserve">
<g>
	<path fill="#2878C8" d="M184.859,7.025C146.664-6.627,128,27.928,128,27.928S109.336-6.627,71.141,7.025
		C30.902,21.412,10.949,124.275,128,164.65C245.051,124.275,225.098,21.412,184.859,7.025z"/>
	<g>
		<path fill="#374150" d="M218.156,136.006c-0.535,17.766,0.957,20.234-4.848,28.402c-5.781,8.188-19.93,15.008-19.93,15.008
			c4.652-5.441,10.684-12.992,13.352-16.566c8.152-10.867,5.297-15.598,1.984-18.082c-6.684-5.016-17.52,8.063-26.887,16.883
			c-8.957,8.441-17.082,7.398-27.426,23.418c-11.012,17.035-7.234,35.813-7.234,35.813v31.285h45.445v-17.129
			c4.055-4.047,12.109-12.352,12.109-12.352c7.449-7.488,20.5-18.582,25.59-28.66c14.188-27.992,6.039-68.129,6.039-68.129
			c-0.219-2.41-2.324-4.758-4.695-5.242C231.656,120.654,218.766,115.729,218.156,136.006z"/>
		<path fill="#374150" d="M37.844,136.006c0.539,17.766-0.953,20.234,4.852,28.402c5.781,8.188,19.93,15.008,19.93,15.008
			c-4.652-5.441-10.688-12.992-13.352-16.566c-8.156-10.867-5.297-15.598-1.988-18.082c6.684-5.016,17.523,8.063,26.887,16.883
			c8.961,8.441,17.082,7.398,27.426,23.418c11.012,17.035,7.238,35.813,7.238,35.813v31.285H63.391v-17.129
			c-4.055-4.047-12.109-12.352-12.109-12.352c-7.449-7.488-20.5-18.582-25.594-28.66c-14.184-27.992-6.039-68.129-6.039-68.129
			c0.219-2.41,2.328-4.758,4.699-5.242C24.348,120.654,37.238,115.729,37.844,136.006z"/>
	</g>
</g>
</svg>
