<?xml version="1.0" encoding="utf-8"?>
<!-- Generator: Adobe Illustrator 16.0.0, SVG Export Plug-In . SVG Version: 6.00 Build 0)  -->
<!DOCTYPE svg PUBLIC "-//W3C//DTD SVG 1.1//EN" "http://www.w3.org/Graphics/SVG/1.1/DTD/svg11.dtd">
<svg version="1.1" id="Layer_1" xmlns="http://www.w3.org/2000/svg" xmlns:xlink="http://www.w3.org/1999/xlink" x="0px" y="0px"
	 width="256px" height="256px" viewBox="0 0 256 256" enable-background="new 0 0 256 256" xml:space="preserve">
<g>
	<path fill="#2878C8" d="M229.712,206.766c-2.941-22.051-19.355-33.934-33.715-40.223c1.176,5.609,2.176,12.73,1.941,20.613
		c0.066,0.027,0.129,0.043,0.195,0.066c15.074,6.246,16.211,21.363,13.406,35.777c-2.031,10.441-7.117,23.711-20.371,20.766
		c-4.879-1.094-2.809-8.574,2.063-7.488c12.836,2.863,18.672-39.035,0.395-42.277c-12.707-2.254-18.121,9.191-20.992,19.574
		c-1.59,5.734-5.105,16.609,3.199,18.641c4.863,1.184,2.805,8.668-2.063,7.473c-14.176-3.457-11.387-20.145-7.934-30.441
		c3.848-11.488,12.055-23.895,24.379-23.719c0.09-9.141-1.605-17.227-2.984-22.297c-7.93-2.539-13.824-3.313-13.824-3.313
		l-45.406,66.918l-45.414-66.918c0,0-5.891,0.773-13.828,3.313c-2.52,9.285-6.086,28.836,2.234,46.129
		c0.91-0.227,1.844-0.371,2.824-0.371c6.641,0,12.023,5.387,12.023,12.027c0,6.637-5.383,12.023-12.023,12.023
		c-6.645,0-12.027-5.387-12.027-12.023c0-2.82,1.012-5.383,2.637-7.43c-8.586-16.914-6.977-35.371-4.504-47.004
		c-14.344,6.297-30.707,18.172-33.633,40.184c-3.988,30.004-3.301,45.395-3.301,45.395h105.012h105.008
		C233.009,252.16,233.701,236.77,229.712,206.766z"/>
	<path fill="#374150" d="M187.751,103.719c4.473-6.578,5.148-15.793,1.645-22.398c-0.316-0.613-0.793-1.078-1.18-1.629
		c2.16-22.047-0.895-75.852-60.215-75.852l0,0h-0.004c-59.316,0-62.375,53.805-60.219,75.852c-0.383,0.551-0.855,1.016-1.176,1.629
		c-3.504,6.605-2.828,15.82,1.645,22.398c1.223,1.805,2.691,3.246,4.293,4.398c0.535,8.59,0.828,25.871-3.254,45.48
		c0,0,17.254-4.992,29.914-3.953c7.203,7.473,16.617,13.086,28.801,13.086c12.27,0,21.719-5.613,28.926-13.102
		c12.645-0.992,29.789,3.969,29.789,3.969c-4.086-19.609-3.789-36.891-3.262-45.48C185.064,106.965,186.533,105.523,187.751,103.719
		z M86.826,110.191l-1.125-7.41l-3.699,0.41c-3.719,0.348-6-1.867-7.336-3.836c-2.832-4.168-3.352-10.359-1.207-14.414
		c1.734-3.258,4.949-4.926,9.57-4.926V80h0.004c19.398,1.5,59.004-9.016,67.898-24.203c1.941,11.152,10.59,25.688,22.035,24.203l0,0
		v0.016c4.625,0,7.836,1.668,9.574,4.934c2.145,4.047,1.629,10.238-1.207,14.406c-1.332,1.969-3.645,4.242-7.336,3.836l-3.695-0.402
		l-1.102,7.25c-0.098,0.449-10.906,44.934-41.199,44.934C97.748,154.973,86.892,110.48,86.826,110.191z"/>
	<path fill="#374150" d="M159.595,172.027c-9.16,3.277-19.945,5.246-31.594,5.246s-22.438-1.969-31.598-5.246l31.598,46.563
		L159.595,172.027z"/>
</g>
</svg>
