<?xml version="1.0" encoding="utf-8"?>
<!-- Generator: Adobe Illustrator 16.0.0, SVG Export Plug-In . SVG Version: 6.00 Build 0)  -->
<!DOCTYPE svg PUBLIC "-//W3C//DTD SVG 1.1//EN" "http://www.w3.org/Graphics/SVG/1.1/DTD/svg11.dtd">
<svg version="1.1" id="Layer_1" xmlns="http://www.w3.org/2000/svg" xmlns:xlink="http://www.w3.org/1999/xlink" x="0px" y="0px"
	 width="256px" height="256px" viewBox="0 0 256 256" enable-background="new 0 0 256 256" xml:space="preserve">
<g>
	<path fill="#2878C8" d="M201.658,59.783c-39.172,29.965-66.238,30.418-94.148,48.164c-49.879,31.68-36.09,81.723-28.691,100.262
		c-7.352,8.547-15.703,21.566-17.688,38.254c0,0,4.094,2.758,9.941,2.758c5.852,0,9.383-2.758,9.383-2.758
		s1.984-16.414,10.715-30.527C225.045,219.787,215.92,48.885,201.658,59.783z M162.357,151.537
		c-11.016,13.93-33.055,34.559-62.77,41.227c0,0,63.605-53.273,86.551-98.063C186.139,94.701,182.057,126.65,162.357,151.537z"/>
	<path fill="#374150" d="M101.627,98.127c22.199-14.094,44.637-18.52,73.07-32.766V6.779H81.303v76.117H3.842v89.754h54.402
		C58.311,148.006,67.646,119.709,101.627,98.127z"/>
	<path fill="#374150" d="M222.037,82.896c0.379,28.191-5.75,61.883-23.016,89.754h53.137V82.896H222.037z"/>
	<path fill="#374150" d="M97.49,228.092c-1.766,4.488-4.199,12.156-4.605,21.129h81.813v-48.363
		C156.025,216.424,130.873,226.881,97.49,228.092z"/>
</g>
</svg>
