<?xml version="1.0" encoding="utf-8"?>
<!-- Generator: Adobe Illustrator 16.0.0, SVG Export Plug-In . SVG Version: 6.00 Build 0)  -->
<!DOCTYPE svg PUBLIC "-//W3C//DTD SVG 1.1//EN" "http://www.w3.org/Graphics/SVG/1.1/DTD/svg11.dtd">
<svg version="1.1" id="Layer_1" xmlns="http://www.w3.org/2000/svg" xmlns:xlink="http://www.w3.org/1999/xlink" x="0px" y="0px"
	 width="256px" height="256px" viewBox="0 0 256 256" enable-background="new 0 0 256 256" xml:space="preserve">
<g>
	<g>
		<path fill="#374150" d="M232.615,85.909c-6.41-58.426-57.656-86.875-112.598-81.402C93.572,7.144,70.111,17.175,54.361,39.136
			C43.123,54.808,38.721,75.769,39.404,94.792c0.285,7.773,5.984,17.898,4.598,24.961c-2.539,12.945-16.414,23.613-20.922,36.238
			c-3.363,9.398,5.488,13.188,12.559,15.535c1.969,0.652,3.918,1.32,5.855,2.047c-0.379,0.258-0.438,1.227-0.938,3.336
			c-0.852,3.559,0.895,6.363,3.379,8.516c-1.555,5.988,1.816,10.336,8.246,13.43c-0.273,13.805,2.801,26.797,18.566,29.965
			c16.672,3.348,37.773-2.973,44.293,18.309c2.676,8.715,16.367,5,13.68-3.777c-3.297-10.758-11.703-20.898-22.313-24.977
			c-9.383-3.621-18.809-2.621-28.66-2.984c-13.094-0.457-11.914-10.52-11.199-21.234c0.211-3.199-2.336-5.926-5.207-6.836
			c-0.813-0.242-1.621-0.516-2.418-0.805c-0.031-0.012-0.039-0.012-0.059-0.027c2.258-3.957,1-8.262-3.289-10.324
			c1.742-5.242,3-8.848-3.488-13.457c-3.5-2.484-8.676-3.547-12.676-4.852c-0.828-0.27-1.426-0.258-1.918-0.137
			c0.168-0.27,0.309-0.5,0.492-0.879c1.402-2.922,3.328-5.652,5.086-8.363c5.242-8.094,15.488-18.75,15.301-29.055
			c-0.145-7.914-4.027-15.082-4.676-22.961c-1.383-16.598,2.816-33.648,11.387-47.852c14.332-23.75,42.977-30.16,68.805-30.781
			c23.848-0.574,47.633,6.715,64.656,23.84c21.527,21.66,22.461,54.898,19.73,83.332c-1.879,19.715-10.289,36.555-16.293,55.047
			c-7.113,21.914-2.195,45.484,3.578,67.082c2.355,8.82,16.043,5.074,13.68-3.777c-7.16-26.824-8.527-48.363,1.871-74.008
			C231.826,142.929,235.736,114.327,232.615,85.909z"/>
	</g>
	<g>
		<path fill="#374150" d="M107.803,103.929c-11.789-5.195-25.16-6.879-37.988-6.289c-9.117,0.41-9.148,14.609,0,14.188
			c1.258-0.063,2.57-0.031,3.855-0.063c-0.445,3.805,1.723,8.199,6.672,8.594c8.539,0.684,17.738-0.258,25.766-3.469
			C111.033,114.917,114.107,106.718,107.803,103.929z"/>
	</g>
	<g>
		<path fill="#374150" d="M181.143,91.14c-12.699-3.473-25.211,3.758-27.016,17.141c-1.203,8.941,12.469,12.809,13.68,3.773
			c0.59-4.41,2.531-8.32,7.691-7.609c9.191,1.258,8.926,7.836,7.156,15.641c-1.98,8.746-9.238,12.535-11.898,20.434
			c-0.781,2.316-0.555,8.184-2.707,9.609c-2.258,1.516-2.273-1.563-1.953-2.383c3.258-8.563-10.461-12.23-13.688-3.758
			c-4.805,12.625,8.078,22.418,19.793,19.672c6.473-1.516,10.285-8.215,11.094-14.305c0.699-5.215,3.707-7.047,6.691-10.988
			c3.297-4.352,4.906-9.277,6.344-14.504C200.318,109.491,196.564,95.335,181.143,91.14z"/>
	</g>
	<g>
		<path fill="#2878C8" d="M127.99,109.097c-1.137,0-2.273-0.5-3.039-1.469c-2.234-2.82-4.781-5.395-7.57-7.684
			c-1.652-1.363-1.895-3.805-0.535-5.473c1.355-1.637,3.797-1.895,5.461-0.531c3.215,2.641,6.156,5.625,8.723,8.867
			c1.336,1.668,1.055,4.125-0.629,5.441C129.689,108.827,128.842,109.097,127.99,109.097z M108.416,93.55
			c-0.566,0-1.145-0.121-1.688-0.395c-3.199-1.547-6.641-2.867-10.238-3.895c-2.063-0.578-3.254-2.73-2.668-4.793
			c0.598-2.074,2.75-3.273,4.797-2.664c4.031,1.148,7.895,2.621,11.504,4.379c1.926,0.926,2.727,3.242,1.789,5.184
			C111.244,92.745,109.857,93.55,108.416,93.55z M84.229,86.862c-0.129,0-0.266-0.012-0.402-0.027
			c-6.32-0.637-10.715-0.289-10.898-0.273c-2.145,0.152-4-1.379-4.195-3.516c-0.199-2.121,1.379-4.016,3.5-4.215
			c0,0,4.926-0.469,12.383,0.289c2.137,0.211,3.684,2.121,3.469,4.258C87.881,85.378,86.189,86.862,84.229,86.862z"/>
	</g>
	<g>
		<path fill="#2878C8" d="M79.74,147.823c-0.059,0-0.121,0-0.18-0.016c-7.398-0.332-12.188-1.668-12.391-1.711
			c-2.063-0.578-3.258-2.715-2.684-4.777c0.578-2.074,2.742-3.289,4.773-2.695c0.047,0,4.215,1.137,10.656,1.438
			c2.137,0.105,3.797,1.91,3.699,4.063C83.514,146.202,81.803,147.823,79.74,147.823z M93.283,147.155
			c-1.895,0-3.555-1.379-3.836-3.32c-0.309-2.121,1.16-4.09,3.277-4.395c3.645-0.531,7.234-1.363,10.684-2.5
			c2.063-0.637,4.227,0.453,4.887,2.484c0.668,2.047-0.445,4.23-2.477,4.898c-3.867,1.258-7.898,2.195-11.973,2.801
			C93.662,147.14,93.467,147.155,93.283,147.155z M116.994,139.003c-1.34,0-2.645-0.699-3.363-1.941
			c-1.07-1.863-0.434-4.227,1.426-5.305c3.113-1.789,6.137-3.91,8.996-6.273c1.648-1.363,4.098-1.137,5.453,0.516
			c1.371,1.652,1.145,4.09-0.5,5.453c-3.195,2.652-6.586,5.02-10.078,7.035C118.322,138.835,117.654,139.003,116.994,139.003z"/>
	</g>
	<g>
		<path fill="#2878C8" d="M84.729,207.538c-1.965,0-3.645-1.484-3.859-3.469c-0.219-2.141,1.328-4.047,3.457-4.277
			c0.047,0,4.434-0.484,10.941-2.09c2.07-0.516,4.184,0.758,4.699,2.832c0.516,2.094-0.758,4.184-2.832,4.699
			c-7.078,1.758-11.809,2.258-12.004,2.273C84.994,207.522,84.857,207.538,84.729,207.538z M109.182,201.339
			c-1.574,0-3.063-0.969-3.637-2.531c-0.75-2,0.273-4.242,2.273-4.984c3.563-1.32,7.016-2.836,10.293-4.488
			c1.906-0.969,4.242-0.195,5.211,1.727c0.965,1.91,0.199,4.246-1.719,5.199c-3.523,1.789-7.254,3.41-11.07,4.836
			C110.092,201.265,109.631,201.339,109.182,201.339z M131.502,189.714c-1.215,0-2.41-0.574-3.16-1.637
			c-1.246-1.742-0.836-4.168,0.906-5.41c3.063-2.184,5.914-4.547,8.473-7.047c1.531-1.5,4.004-1.457,5.488,0.059
			c1.5,1.531,1.469,3.988-0.063,5.488c-2.848,2.773-6.008,5.41-9.395,7.82C133.068,189.472,132.279,189.714,131.502,189.714z"/>
	</g>
</g>
</svg>
