<?xml version="1.0" encoding="utf-8"?>
<!-- Generator: Adobe Illustrator 16.0.0, SVG Export Plug-In . SVG Version: 6.00 Build 0)  -->
<!DOCTYPE svg PUBLIC "-//W3C//DTD SVG 1.1//EN" "http://www.w3.org/Graphics/SVG/1.1/DTD/svg11.dtd">
<svg version="1.1" id="Layer_1" xmlns="http://www.w3.org/2000/svg" xmlns:xlink="http://www.w3.org/1999/xlink" x="0px" y="0px"
	 width="256px" height="256px" viewBox="0 0 256 256" enable-background="new 0 0 256 256" xml:space="preserve">
<g>
	<g>
		<path fill="#374150" d="M128,252.156c-68.461,0-124.16-55.691-124.16-124.152S59.539,3.844,128,3.844s124.16,55.699,124.16,124.16
			S196.461,252.156,128,252.156z M128,18.031c-60.641,0-109.977,49.332-109.977,109.973S67.359,237.965,128,237.965
			s109.965-49.32,109.965-109.961S188.641,18.031,128,18.031z"/>
	</g>
	<g>
		<path fill="#2878C8" d="M128,103.223c13.684,0,24.773,11.094,24.773,24.781c0,13.672-11.09,24.766-24.773,24.766
			c-13.688,0-24.773-11.094-24.773-24.766C103.227,114.316,114.313,103.223,128,103.223z"/>
	</g>
	<g>
		<path fill="#2878C8" d="M31.863,127.996c0-35.578,19.375-66.566,48.105-83.191l18.25,31.621l11.086,19.203
			c-11.207,6.488-18.84,18.484-18.84,32.375l0,0H68.441L31.863,127.996z"/>
	</g>
	<g>
		<path fill="#2878C8" d="M128,224.133c-17.516,0-33.883-4.75-48.031-12.941l18.25-31.625l11.086-19.203
			c5.531,3.199,11.859,5.168,18.695,5.168s13.164-1.969,18.695-5.168l11.086,19.203l18.246,31.629
			C161.895,219.383,145.512,224.133,128,224.133z"/>
	</g>
	<g>
		<path fill="#2878C8" d="M187.555,128.004h-22.02c0-13.891-7.633-25.887-18.84-32.375l11.086-19.203l18.254-31.613
			c28.715,16.625,48.102,47.605,48.102,83.184L187.555,128.004z"/>
	</g>
</g>
</svg>
