<?xml version="1.0" encoding="utf-8"?>
<!-- Generator: Adobe Illustrator 16.0.0, SVG Export Plug-In . SVG Version: 6.00 Build 0)  -->
<!DOCTYPE svg PUBLIC "-//W3C//DTD SVG 1.1//EN" "http://www.w3.org/Graphics/SVG/1.1/DTD/svg11.dtd">
<svg version="1.1" id="Layer_1" xmlns="http://www.w3.org/2000/svg" xmlns:xlink="http://www.w3.org/1999/xlink" x="0px" y="0px"
	 width="256px" height="256px" viewBox="0 0 256 256" enable-background="new 0 0 256 256" xml:space="preserve">
<g>
	<path fill="#2878C8" d="M190.039,181.764c-2.424-20.703-15.611-45.633-44.74-47.727c-6.17-0.438-7.549-3.953-9.898-13.852
		c-2.303-9.672-5.447-22.914-21.965-26.492c-1.645-0.367-3.447-0.531-5.373-0.531c-12.102,0-30.672,7.32-42.842,23.414
		c-8.002,10.578-15.963,28.781-8.443,55.352c6.424,22.703,24.201,40.117,46.398,45.438c9.529,2.289,16.922,5.734,24.076,9.063
		c8.725,4.078,16.971,7.93,26.625,7.93l0,0c3.963,0,7.889-0.633,12.004-1.922C182.977,227.022,192.92,206.202,190.039,181.764z
		 M170.701,199.545c-2.607,12.445-13.127,19.023-25.576,16.43c-6.207-1.32-10.338-6.336-16.199-8.578
		c-5.877-2.258-16.252-3.227-28.813-7.656c-19.086-6.742-48.598-45.859-20.607-60.898c3.629-1.938,11.074-3.227,18.244-1.984
		c0,0-13.531-13.82-8.311-19.539c5.219-5.711,14.201-10.016,17.018-6.695c3.564,4.227-4.164,7.516-3.604,10.719
		c0.564,3.227,11.045,9.953,14.629,13.5c3.582,3.531,3.531,14.336-11.102,16.188c0,0,5.9,2.578,9.582,12.242
		c0,0,3.498-4.133,9.59-5.789c3.957-1.07,10.621-0.328,12.744-2.039c0,0,9.836-9.07,15.656-0.852
		c2.424,3.391,2.674,5.531-0.865,7.289c0,0,3.16,4.914-3.197,4.656c-6.344-0.258-12.027-1.336-19.82,1.953
		c-4.406,1.852-7.658,5.898-8.465,7.82c-1.773,4.258,2.387,9.516,5.354,9.625c0.057-12.578,14.975-15.961,25.963-13.641
		C165.35,174.897,173.322,187.116,170.701,199.545z"/>
	<path fill="#374150" d="M188.713,248.881c-2.613-4.367,1.184-7.492,4.676-10.352c6.033-4.93,14.398-13.914,15.627-26.617
		c1.879-19.336-4.986-31.781-12.254-44.953c-8.525-15.461-17.34-31.469-11.738-57.5c1.455-6.75,2.984-13.328,4.508-19.875
		c5.836-25.078,11.375-47.68,12.111-78.688c0.053-2.32,1.098-7.047,6.373-7.047c5.281,0,6.357,4.953,6.305,7.375
		c-0.803,32.391-6.715,56.609-12.443,81.242c-1.508,6.469-3.023,12.969-4.457,19.656c-4.607,21.414,2.365,34.055,10.443,48.711
		c7.51,13.609,16.02,29.055,13.777,52.289c-1.865,19.219-15.051,31.57-22.863,37.289
		C195.633,252.709,191.328,253.241,188.713,248.881z"/>
	<g>
		<path fill="#374150" d="M68.02,251.483c-5.189-1.969-3.359-7.367-2.879-9.484c2.201-9.75-2.492-19.219-7.775-26.328l-0.973-1.305
			c-18.662-25.297-25.713-50.859-20.961-75.992c5.471-28.906,25.223-50.063,38.379-61.336c-6.426-3.141-12.326-8.945-19.344-17.156
			c-2.91-3.398-4.205-7.734-3.748-12.508C52.096,33.116,69.926,15.624,79.6,7.092c2.891-2.547,6.684-5.094,10.473-1.383
			c4.68,4.578,0.178,8.898-1.48,10.352c-10.83,9.445-24.426,23.906-25.25,32.531c-0.168,1.711,0.295,2.516,0.764,3.055
			c2.846,3.336,5.244,6.047,7.477,8.094c12.943,11.898,23.42,13.523,23.42,13.523s-9.105,9.672-17.35,17.461
			c-11.352,10.711-25.637,28.055-29.781,50.086c-4.041,21.492,2.258,43.711,18.721,66.023l0.939,1.273
			c6.098,8.188,14.152,22.188,9.492,38.617C76.334,249.163,74.387,253.913,68.02,251.483z"/>
	</g>
</g>
</svg>
