
<?xml version="1.0" encoding="utf-8"?>
<!-- Generator: Adobe Illustrator 16.0.0, SVG Export Plug-In . SVG Version: 6.00 Build 0)  -->
<!DOCTYPE svg PUBLIC "-//W3C//DTD SVG 1.1//EN" "http://www.w3.org/Graphics/SVG/1.1/DTD/svg11.dtd">
<svg version="1.1" id="Layer_1" xmlns="http://www.w3.org/2000/svg" xmlns:xlink="http://www.w3.org/1999/xlink" x="0px" y="0px"
	 width="256px" height="256px" viewBox="0 0 256 256" enable-background="new 0 0 256 256" xml:space="preserve">
<g>
	<g>
		<path fill="#2878C8" d="M128.003,154.98c-15.203,0-27.555-12.32-27.555-27.539s12.336-27.555,27.555-27.555
			c15.215,0,27.555,12.336,27.555,27.555S143.218,154.98,128.003,154.98z"/>
	</g>
	<g>
		<path fill="#2878C8" d="M139.671,29.137c0,7.477,6.051,13.523,13.504,13.523c7.473,0,13.52-6.047,13.52-13.523
			c0-7.453-6.047-13.5-13.52-13.5C145.722,15.637,139.671,21.684,139.671,29.137z"/>
	</g>
	<g>
		<path fill="#2878C8" d="M38.245,169.699c6.367-3.867,8.43-12.172,4.547-18.555c-3.863-6.383-12.168-8.422-18.551-4.563
			c-6.379,3.867-8.426,12.172-4.563,18.555C23.546,171.52,31.851,173.559,38.245,169.699z"/>
	</g>
	<g>
		<path fill="#2878C8" d="M207.147,188.988c-6.363-3.875-14.688-1.875-18.566,4.508c-3.879,6.359-1.879,14.664,4.488,18.563
			c6.363,3.898,14.684,1.883,18.582-4.484C215.53,201.207,213.53,192.887,207.147,188.988z"/>
	</g>
	<path fill="#374150" d="M221.272,115.449c16.266-20.883,21.07-39.266,13.504-51.758c-3.848-6.352-12.668-13.93-32.902-13.93
		c-9.426,0-20.219,1.672-31.797,4.75c-1.199-4.094-2.473-8.078-3.867-11.766c-2.789,2.688-6.41,4.461-10.426,5.016
		c1.152,3.125,2.227,6.539,3.258,10.039c-9.805,3.227-20.008,7.352-30.371,12.32c-10.43-5.047-20.707-9.242-30.57-12.523
		c7.805-26.523,19.504-42.438,30.461-42.438c2.973,0,5.988,1.188,8.973,3.414c2.215-3.273,5.457-5.758,9.246-7.125
		c-5.605-4.922-11.73-7.609-18.219-7.609c-17.52,0-32.418,19.461-41.496,50.445c-11.594-3.109-22.402-4.789-31.828-4.789
		c-20.008,0-28.797,7.5-32.648,13.805c-7.605,12.461-2.879,30.859,13.309,51.805c3.242,4.195,6.941,8.414,10.93,12.625
		c-3.926,4.109-7.535,8.18-10.703,12.211c3.746,1.008,7.141,3.188,9.699,6.352c2.699-3.375,5.805-6.875,9.156-10.391
		c7.168,6.773,15.188,13.438,23.871,19.867c1.074,12.469,2.879,24.125,5.305,34.719c-10.656,2.852-20.508,4.414-28.918,4.414
		c-8.246,0-18.961-1.469-23.203-8.477c-1.531-2.516-1.988-5.742-1.637-9.422c-3.988-0.195-7.82-1.688-10.977-4.227
		c-1.316,7.344-0.438,13.969,2.926,19.531c3.852,6.352,12.672,13.914,32.891,13.914c9.41,0,20.203-1.648,31.766-4.727
		c9.066,31.117,24.008,50.664,41.559,50.664c17.523,0,32.438-19.492,41.516-50.5c3.953,1.063,7.863,2.016,11.609,2.727
		c-0.789-3.727-0.41-7.648,1.168-11.32c-3.199-0.633-6.535-1.469-9.93-2.375c2.441-10.609,4.258-22.297,5.352-34.805
		c8.668-6.375,16.688-13,23.871-19.742c20.262,21.5,28.66,40.922,22.719,50.664c-1.684,2.758-4.41,4.625-7.578,5.898
		c1.637,3.586,2.063,7.617,1.273,11.547c8.699-2.695,13.43-7.383,15.973-11.547c9.504-15.586-0.469-39.742-24.203-64.703
		C214.315,123.816,218.03,119.621,221.272,115.449z M201.874,61.105c8.246,0,18.977,1.469,23.203,8.469
		c4.895,8.063,0.242,22.25-12.73,38.922c-2.984,3.836-6.395,7.688-10.047,11.516c-7.125-6.695-15.172-13.398-24.07-19.945
		c-1.074-12.414-2.895-23.992-5.305-34.555C183.597,62.66,193.464,61.105,201.874,61.105z M161.905,68.848
		c1.594,6.984,2.941,14.516,3.973,22.57c-3.484-2.32-7.094-4.609-10.777-6.867c-4.5-2.742-9.031-5.367-13.563-7.82
		C148.479,73.684,155.3,71.043,161.905,68.848z M168.151,128.004c0,7.563-0.289,14.852-0.789,21.852
		c-5.836,4.141-11.941,8.156-18.309,12.008c-6.789,4.117-13.688,7.906-20.566,11.352c-6.867-3.469-13.746-7.289-20.551-11.43
		c-6.305-3.867-12.367-7.898-18.172-12.031c-0.5-6.977-0.789-14.219-0.789-21.75c0-7.563,0.289-14.836,0.801-21.844
		c5.73-4.078,11.809-8.094,18.281-12.016c6.82-4.125,13.715-7.914,20.598-11.367c6.863,3.484,13.746,7.289,20.535,11.445
		c6.441,3.922,12.457,7.953,18.156,12.016C167.847,113.223,168.151,120.473,168.151,128.004z M115.8,76.668
		c-4.547,2.453-9.094,5.047-13.609,7.789c-3.758,2.273-7.41,4.594-10.957,6.945c1.031-8.125,2.379-15.734,3.984-22.766
		C101.901,70.879,108.784,73.559,115.8,76.668z M32.261,69.199c4.227-6.93,14.836-8.383,22.977-8.383
		c8.426,0,18.293,1.586,28.977,4.469c-2.453,10.594-4.258,22.266-5.348,34.75c-8.852,6.477-16.898,13.086-23.977,19.719
		c-3.652-3.859-7.063-7.727-10.035-11.578C31.94,91.457,27.351,77.246,32.261,69.199z M62.995,127.895
		c4.535-4.258,9.504-8.547,14.914-12.836c-0.164,4.242-0.258,8.563-0.258,12.945c0,4.336,0.094,8.594,0.246,12.773
		C72.593,136.551,67.604,132.246,62.995,127.895z M91.218,164.527c3.531,2.352,7.141,4.672,10.82,6.93
		c4.531,2.758,9.066,5.32,13.625,7.789c-6.984,3.063-13.836,5.711-20.488,7.93C93.581,180.168,92.233,172.59,91.218,164.527z
		 M128.562,240.84c-10.988,0-22.703-15.992-30.523-42.633c9.836-3.227,20.082-7.367,30.48-12.352
		c10.41,5.031,20.672,9.227,30.523,12.484C151.237,224.91,139.534,240.84,128.562,240.84z M161.921,187.324
		c-6.668-2.242-13.535-4.93-20.535-8.016c4.531-2.445,9.047-5.031,13.535-7.75c3.742-2.273,7.395-4.602,10.988-6.984
		C164.878,172.684,163.53,180.293,161.921,187.324z M179.214,115.191c5.414,4.32,10.414,8.641,14.945,12.93
		c-4.621,4.32-9.625,8.609-14.945,12.828c0.184-4.25,0.258-8.57,0.258-12.945C179.472,123.668,179.382,119.395,179.214,115.191z"/>
</g>
</svg>
