<?xml version="1.0" encoding="utf-8"?>
<!-- Generator: Adobe Illustrator 16.0.0, SVG Export Plug-In . SVG Version: 6.00 Build 0)  -->
<!DOCTYPE svg PUBLIC "-//W3C//DTD SVG 1.1//EN" "http://www.w3.org/Graphics/SVG/1.1/DTD/svg11.dtd">
<svg version="1.1" id="Layer_1" xmlns="http://www.w3.org/2000/svg" xmlns:xlink="http://www.w3.org/1999/xlink" x="0px" y="0px"
	 width="256px" height="256px" viewBox="0 0 256 256" enable-background="new 0 0 256 256" xml:space="preserve">
<g>
	<g>
		<path fill="#2878C8" d="M155.074,31.168c0-15.086-12.248-27.328-27.336-27.328c-15.092,0-27.338,12.242-27.338,27.328
			c0,15.109,12.246,27.336,27.338,27.336C142.826,58.504,155.074,46.277,155.074,31.168z"/>
	</g>
	<g>
		<path fill="#2878C8" d="M222.617,213.77L212.5,166.816c-3.729-17.461-24.303-17.844-24.303-17.844
			c7.695,0,10.146-5.563,10.572-9.383c0.355-3.211-0.66-9.563-8.678-11.852l-33.695-6.625c0,0-2.588-13.422-5.836-28.93
			c-5.717-27.359-48.141-34.344-48.141-18.555c0,11.281,0.053,51.82,0.016,68.266l-0.016-0.016c0,0,0,8.367,0,19.313
			c0,14.289,14.467,17.609,22.67,17.609s51.1,0,51.1,0s18.357,44.133,21.545,48.578c3.18,4.438,8.252,8.227,17.482,4.938
			C224.92,228.848,223.791,218.816,222.617,213.77z"/>
	</g>
	<path fill="#374150" d="M143.604,187.441c0,25.508-20.752,46.273-46.26,46.273c-25.512,0-46.262-20.766-46.262-46.273
		c0-18.086,10.645-34.633,27.043-42.086c0.045-0.016,5.273-2.578,7.723-4.852c4.068-3.789,6.518-8.109,7.172-12.281
		c0.379-1.68,0.572-3.453,0.572-5.289V99.309c0-12.797-10.4-23.188-23.189-23.188h-4.365h-7.744h-2.178
		c-5.098,0-9.227,4.117-9.227,9.227c0,5.094,4.129,9.234,9.227,9.234h2.178h7.744h4.365c2.523,0,4.732,2.211,4.732,4.727v23.625
		c0,0.469-0.041,0.867-0.227,1.773c-0.096,0.578-0.693,1.414-1.297,2c-0.883,0.656-2.723,1.656-3.057,1.82
		c-23.041,10.477-37.932,33.602-37.932,58.914c0,35.68,29.031,64.719,64.721,64.719c35.686,0,64.717-29.039,64.717-64.719H143.604z"
		/>
</g>
</svg>
