<?xml version="1.0" encoding="utf-8"?>
<!-- Generator: Adobe Illustrator 16.0.0, SVG Export Plug-In . SVG Version: 6.00 Build 0)  -->
<!DOCTYPE svg PUBLIC "-//W3C//DTD SVG 1.1//EN" "http://www.w3.org/Graphics/SVG/1.1/DTD/svg11.dtd">
<svg version="1.1" id="Layer_1" xmlns="http://www.w3.org/2000/svg" xmlns:xlink="http://www.w3.org/1999/xlink" x="0px" y="0px"
	 width="256px" height="256px" viewBox="0 0 256 256" enable-background="new 0 0 256 256" xml:space="preserve">
<g>
	<path fill="#374150" d="M149.059,140.186V90.67h3.699c3.168,0,5.746-2.578,5.746-5.742v-8.625c0-3.168-2.578-5.746-5.746-5.746
		h-49.516c-3.168,0-5.742,2.578-5.742,5.746v8.625c0,3.164,2.574,5.742,5.742,5.742h3.699v49.516
		c-30.828,0.105-50.973,25.129-50.973,55.988c0,30.918,20.219,55.984,51.145,55.984h41.773c30.926,0,51.145-25.066,51.145-55.984
		C200.031,165.314,179.887,140.291,149.059,140.186z M118.301,90.67h19.398v32.496h-19.398V90.67z M177.855,209.615
		c-3.195,3.199-8.379,3.199-11.578,0c-0.895-0.895-1.516-1.938-1.902-3.059h-12.816c-0.43,1.469-1.18,2.863-2.348,4.016
		c-1.168,1.164-2.563,1.922-4.031,2.363l0.008,12.809c1.113,0.391,2.168,1,3.063,1.895c3.188,3.211,3.188,8.395,0,11.594
		c-3.207,3.195-8.391,3.195-11.59,0c-3.195-3.199-3.195-8.383,0-11.594c0.895-0.895,1.949-1.504,3.063-1.895v-12.809
		c-1.469-0.441-2.863-1.199-4.031-2.363c-3.047-3.047-3.563-7.641-1.613-11.262l-8.699-8.699c-3.617,1.953-8.215,1.438-11.27-1.621
		c-1.16-1.168-1.91-2.547-2.348-4.02l-12.809-0.012c-0.395,1.121-1.016,2.18-1.91,3.074c-3.199,3.199-8.383,3.199-11.578,0
		c-3.199-3.211-3.199-8.379,0-11.594c3.195-3.199,8.379-3.199,11.578,0c0.895,0.895,1.516,1.953,1.91,3.063h12.809
		c0.43-1.473,1.188-2.867,2.348-4.016c1.168-1.168,2.563-1.926,4.031-2.367v-12.805c-1.121-0.395-2.168-1-3.063-1.91
		c-3.195-3.184-3.195-8.383,0-11.582c3.199-3.195,8.383-3.195,11.582,0c3.195,3.199,3.195,8.398,0,11.582
		c-0.895,0.91-1.941,1.516-3.063,1.91v12.805c1.469,0.441,2.863,1.199,4.031,2.367c3.055,3.043,3.563,7.637,1.613,11.258
		l8.691,8.699c3.625-1.938,8.223-1.438,11.277,1.625c1.168,1.152,1.918,2.559,2.348,4.016h12.809
		c0.395-1.105,1.016-2.168,1.91-3.063c3.199-3.199,8.383-3.199,11.578,0C181.055,201.221,181.055,206.42,177.855,209.615z"/>
	<path fill="#2878C8" d="M106.25,50.947c0,6.305-5.113,11.41-11.418,11.41c-6.301,0-11.414-5.105-11.414-11.41
		c0-6.309,5.113-11.414,11.414-11.414C101.137,39.533,106.25,44.639,106.25,50.947z"/>
	<path fill="#2878C8" d="M172.508,43.49c0,7.09-5.762,12.867-12.863,12.867c-7.105,0-12.867-5.777-12.867-12.867
		c0-7.109,5.762-12.871,12.867-12.871C166.746,30.619,172.508,36.381,172.508,43.49z"/>
	<path fill="#2878C8" d="M136.918,18.92c0,8.32-6.742,15.066-15.063,15.066c-8.328,0-15.082-6.746-15.082-15.066
		s6.754-15.078,15.082-15.078C130.176,3.842,136.918,10.6,136.918,18.92z"/>
</g>
</svg>
