<?xml version="1.0" encoding="utf-8"?>
<!-- Generator: Adobe Illustrator 16.0.0, SVG Export Plug-In . SVG Version: 6.00 Build 0)  -->
<!DOCTYPE svg PUBLIC "-//W3C//DTD SVG 1.1//EN" "http://www.w3.org/Graphics/SVG/1.1/DTD/svg11.dtd">
<svg version="1.1" id="Layer_1" xmlns="http://www.w3.org/2000/svg" xmlns:xlink="http://www.w3.org/1999/xlink" x="0px" y="0px"
	 width="256px" height="256px" viewBox="0 0 256 256" enable-background="new 0 0 256 256" xml:space="preserve">
<g>
	<g>
		<path fill="#374150" d="M127.75,107.48c-26.729,0-45.363-30.039-45.363-57c0-27.023,19.082-46.641,45.363-46.641
			c26.289,0,45.363,19.617,45.363,46.641C173.113,77.441,154.486,107.48,127.75,107.48z M127.75,15.207
			c-20.324,0-33.98,14.172-33.98,35.273c0,23.445,16.514,45.617,33.98,45.617c17.475,0,33.996-22.172,33.996-45.617
			C161.746,29.379,148.082,15.207,127.75,15.207z"/>
	</g>
	<path fill="#374150" d="M60.881,134.395v-1.68c0-15.188,8.807-22.867,26.174-22.867c1.631,0,3.031,0.07,4.094,0.164
		c4.418,5.094,17.43,17.82,36.852,17.82c19.424,0,32.428-12.727,36.854-17.82c1.053-0.094,2.455-0.164,4.092-0.164
		c17.369,0,26.174,7.68,26.174,22.867v1.68h11.375v-1.68c0-21.445-14.041-34.25-37.549-34.25c-4.592,0-7.82,0.531-7.957,0.555
		l-2.305,0.383l-1.363,1.883c-0.121,0.148-11.283,15.18-29.32,15.18c-17.869,0-29.213-15.047-29.32-15.18l-1.371-1.883l-2.297-0.383
		c-0.135-0.023-3.379-0.555-7.957-0.555c-23.506,0-37.549,12.805-37.549,34.25v1.68H60.881z"/>
	<path fill="#2878C8" d="M206.578,140.582H49.422c-5.986,0-10.836,4.867-10.836,10.852v89.891c0,5.984,4.85,10.836,10.836,10.836
		h157.156c5.986,0,10.836-4.852,10.836-10.836v-89.891C217.414,145.449,212.564,140.582,206.578,140.582z M174.189,211.707
		c-11.217-8.273-25.963-12.789-41.066-13.641c0,5.109,0,10.219,0,15.328c13.027,0.813,25.705,4.578,35.275,11.641
		c4.865,3.586,0.152,11.805-4.773,8.18c-8.365-6.164-19.279-9.484-30.502-10.305c0,5.82,0,11.625,0,17.43c0,6.109-9.48,6.109-9.48,0
		c0-5.82,0-11.656,0-17.477c-11.488,0.695-22.703,4.047-31.268,10.352c-4.926,3.625-9.639-4.594-4.773-8.18
		c9.76-7.203,22.75-10.977,36.041-11.688c0-5.109,0-10.203,0-15.305c-15.369,0.727-30.426,5.258-41.83,13.664
		c-4.926,3.641-9.648-4.586-4.791-8.18c12.611-9.305,29.457-14.266,46.621-14.992c0-5.016,0-10.016,0-15.031
		c-12.594,0.602-24.932,3.469-34.678,8.852c-5.35,2.969-10.131-5.234-4.789-8.188c11.23-6.211,25.221-9.469,39.467-10.094
		c0-3.852,0-7.688,0-11.531c0-6.109,9.48-6.109,9.48,0c0,3.844,0,7.68,0,11.531c14.246,0.625,28.236,3.883,39.459,10.094
		c5.35,2.953,0.568,11.156-4.781,8.188c-9.746-5.383-22.076-8.25-34.678-8.852c0,5.016,0,10.031,0,15.063
		c16.906,0.836,33.428,5.805,45.855,14.961C183.836,207.121,179.115,215.348,174.189,211.707z"/>
</g>
</svg>
