<?xml version="1.0" encoding="utf-8"?>
<!-- Generator: Adobe Illustrator 16.0.0, SVG Export Plug-In . SVG Version: 6.00 Build 0)  -->
<!DOCTYPE svg PUBLIC "-//W3C//DTD SVG 1.1//EN" "http://www.w3.org/Graphics/SVG/1.1/DTD/svg11.dtd">
<svg version="1.1" id="Layer_1" xmlns="http://www.w3.org/2000/svg" xmlns:xlink="http://www.w3.org/1999/xlink" x="0px" y="0px"
	 width="256px" height="256px" viewBox="0 0 256 256" enable-background="new 0 0 256 256" xml:space="preserve">
<g>
	<g>
		<path fill="#374150" d="M223.12,139.139c2.137-3.16,2.465-7.582,0.781-10.754c-0.152-0.289-0.387-0.516-0.566-0.777
			c1.035-10.582-0.434-36.398-28.891-36.398l0,0l0,0c-28.469,0-29.941,25.816-28.902,36.398c-0.18,0.262-0.406,0.488-0.566,0.777
			c-1.676,3.172-1.352,7.594,0.781,10.754c0.59,0.863,1.301,1.559,2.074,2.109c0.25,4.125,0.387,12.41-1.574,21.82
			c0,0,8.289-2.395,14.367-1.895c3.457,3.586,7.965,6.277,13.82,6.277c5.891,0,10.414-2.695,13.871-6.281
			c6.078-0.48,14.305,1.898,14.305,1.898c-1.969-9.41-1.824-17.695-1.574-21.82C221.811,140.697,222.522,140.002,223.12,139.139z"/>
		<path fill="#374150" d="M250.319,191.643c-1.605-12.117-10.633-18.645-18.527-22.098c0.652,3.078,1.203,6.992,1.066,11.32
			c0.039,0.02,0.07,0.027,0.105,0.039c8.301,3.43,8.906,11.742,7.375,19.66c-1.121,5.734-3.91,13.023-11.199,11.398
			c-2.684-0.594-1.539-4.703,1.137-4.102c7.055,1.566,10.262-21.449,0.219-23.238c-6.98-1.23-9.957,5.055-11.543,10.758
			c-0.863,3.156-2.793,9.121,1.758,10.246c2.676,0.645,1.547,4.762-1.129,4.102c-7.781-1.898-6.25-11.063-4.355-16.727
			c2.113-6.313,6.617-13.125,13.398-13.027c0.043-5.027-0.879-9.465-1.652-12.25c-4.344-1.395-7.586-1.82-7.586-1.82l-24.941,36.766
			l-24.961-36.766c0,0-3.227,0.426-7.594,1.82c-1.379,5.098-3.332,15.844,1.234,25.34c0.5-0.121,1.008-0.203,1.555-0.203
			c3.637,0,6.609,2.957,6.609,6.609c0,3.648-2.973,6.605-6.609,6.605c-3.652,0-6.609-2.957-6.609-6.605
			c0-1.547,0.555-2.957,1.441-4.086c-4.715-9.285-3.836-19.434-2.477-25.82c-7.875,3.457-16.871,9.984-18.477,22.078
			c-2.184,16.484-1.813,24.945-1.813,24.945h57.699h57.695C252.139,216.588,252.502,208.127,250.319,191.643z"/>
		<path fill="#374150" d="M178.819,172.549l15.625,23.027l15.613-23.027c-4.531,1.629-9.852,2.598-15.613,2.598
			C188.686,175.146,183.35,174.178,178.819,172.549"/>
	</g>
	<path fill="#374150" d="M38.077,142.561l0.031,0.211c0.273,2.52,3.25,24.68,23.449,24.68c20.23,0,23.172-22.168,23.438-24.652
		l0.047-0.238c2.031-0.297,3.871-1.48,5.184-3.426c2.152-3.156,2.469-7.582,0.793-10.754c-0.469-0.875-1.105-1.578-1.809-2.203
		c0.84-3.949,0.902-10.602,0.203-16.789c-1.105-4.684-5.113-5.855-5.113-5.855s-7.938-12.324-22.742-12.324
		c-14.809,0-22.742,12.324-22.742,12.324s-4.012,1.172-5.125,5.855c-0.703,6.188-0.613,12.84,0.207,16.797
		c-0.707,0.617-1.336,1.32-1.805,2.195c-1.668,3.172-1.355,7.594,0.805,10.754C34.198,141.08,36.042,142.264,38.077,142.561z"/>
	<path fill="#374150" d="M117.436,191.646c-1.605-12.098-10.594-18.621-18.477-22.074c1.359,6.379,2.246,16.531-2.477,25.82
		c0.902,1.121,1.457,2.531,1.457,4.078c0,3.656-2.965,6.609-6.609,6.609c-3.652,0-6.617-2.953-6.617-6.609
		c0-3.645,2.965-6.605,6.617-6.605c0.531,0,1.055,0.078,1.555,0.203c4.566-9.5,2.598-20.242,1.211-25.336
		c-4.352-1.398-7.586-1.82-7.586-1.82l-17.656,26.02l0,0l-2.941-6.68c-0.531-1.293,0.191-1.758,0.57-2.355l4.652-5.996
		c0.371-0.59,0.195-1.391-0.379-1.781l-8.141-5.434c-0.293-0.195-0.668-0.301-1.059-0.301c-0.379,0-0.773,0.105-1.063,0.301
		l-8.133,5.434c-0.582,0.391-0.758,1.191-0.387,1.781l4.664,5.996c0.371,0.598,1.098,1.063,0.551,2.355l-2.926,6.676l-17.656-26.016
		c0,0-3.234,0.422-7.594,1.82c-0.766,2.781-1.688,7.219-1.652,12.242c6.785-0.098,11.293,6.715,13.398,13.031
		c1.91,5.66,3.441,14.824-4.348,16.734c-2.676,0.648-3.805-3.465-1.137-4.109c4.563-1.117,2.621-7.094,1.75-10.246
		c-1.57-5.703-4.539-11.988-11.52-10.754c-10.055,1.785-6.844,24.801,0.203,23.23c2.676-0.59,3.828,3.516,1.137,4.109
		c-7.273,1.617-10.078-5.668-11.184-11.402c-1.547-7.922-0.918-16.227,7.367-19.656c0.027-0.02,0.074-0.031,0.121-0.039
		c-0.145-4.332,0.406-8.25,1.043-11.324c-7.879,3.453-16.906,9.977-18.52,22.098c-2.184,16.484-1.813,24.941-1.813,24.941h57.695
		h57.691C119.249,216.588,119.635,208.131,117.436,191.646z"/>
	<path fill="#2878C8" d="M136.108,53.252H90.397c-2.703,0-4.895,2.191-4.895,4.891v31.109c0,2.699,2.191,4.891,4.895,4.891h3.773
		v7.363c0,1.961,1.215,2.504,2.684,1.195l9.641-8.559h29.613c2.699,0,4.891-2.191,4.891-4.891V58.143
		C140.999,55.443,138.807,53.252,136.108,53.252z M97.538,78.596c-2.715,0-4.898-2.195-4.898-4.898s2.184-4.898,4.898-4.898
		c2.695,0,4.895,2.195,4.895,4.898S100.233,78.596,97.538,78.596z M113.245,78.596c-2.695,0-4.895-2.191-4.895-4.898
		c0-2.711,2.199-4.898,4.895-4.898c2.707,0,4.906,2.188,4.906,4.898C118.151,76.404,115.952,78.596,113.245,78.596z M128.971,78.596
		c-2.715,0-4.895-2.195-4.895-4.898s2.18-4.898,4.895-4.898c2.695,0,4.895,2.195,4.895,4.898S131.667,78.596,128.971,78.596z"/>
	<path fill="#2878C8" d="M164.967,39.412h-45.695c-2.707,0-4.906,2.195-4.906,4.891v5.563h24.82c3.07,0,5.563,2.492,5.563,5.559
		v24.887h4.121l9.648,8.555c1.461,1.309,2.676,0.766,2.676-1.199v-7.355h3.773c2.703,0,4.895-2.199,4.895-4.898V44.303
		C169.862,41.607,167.67,39.412,164.967,39.412z"/>
</g>
</svg>
