<?xml version="1.0" encoding="utf-8"?>
<!-- Generator: Adobe Illustrator 16.0.0, SVG Export Plug-In . SVG Version: 6.00 Build 0)  -->
<!DOCTYPE svg PUBLIC "-//W3C//DTD SVG 1.1//EN" "http://www.w3.org/Graphics/SVG/1.1/DTD/svg11.dtd">
<svg version="1.1" id="Layer_1" xmlns="http://www.w3.org/2000/svg" xmlns:xlink="http://www.w3.org/1999/xlink" x="0px" y="0px"
	 width="256px" height="256px" viewBox="0 0 256 256" enable-background="new 0 0 256 256" xml:space="preserve">
<g>
	<g>
		<path fill="#374150" d="M154.783,26.202C139.732,8.842,116.164,1.225,88.436,4.631c-47.514,5.93-63.822,37.258-69.172,53.93
			c-1.986,6.148-1.395,9.875,3.668,11.094c5.068,1.227,7.486-3.383,9.518-9.141c4.918-13.852,18.938-37.938,57.625-42.742
			c23.203-2.906,42.648,3.164,54.721,17.078c16.043,18.492,18.809,49.305,8.002,89.125c-4.971,18.32-11.799,26.656-19.02,35.492
			c-8.533,10.414-17.348,21.188-22.902,46.594c-5.963,27.32-32.594,35.75-56.26,32.102c-15.959-2.523-32.32-11.313-36.588-25.453
			c-0.932-3.078-0.818-11.18-8.639-10.578c-6.902,0.516-5.676,6.688-5.031,10.188c3.555,19.445,21.932,34.766,48.205,38.891
			c3.984,0.617,8.07,0.953,12.186,0.953c25.711,0,52.357-12.641,59.049-43.273c4.871-22.305,12.328-31.414,20.211-41.055
			c7.789-9.516,15.838-19.352,21.559-40.406C180.744,71.514,168.082,41.506,154.783,26.202z"/>
		<path fill="#374150" d="M46.621,142.522c0.008-10.078-6.473-18.547-12.246-24.109c-4.047-3.883-9.162-5.594-12.361-1.078
			c-3.197,4.531,0.676,8.211,3.273,10.727c4.047,3.945,8.109,9.281,8.109,14.461c0,12.945-1.734,22.719-10.215,28.375l-2.434,1.633
			l-0.439,2.898c-0.189,1.289-1.682,12.758,5.283,19.172c2.061,1.906,5.41,3.852,10.457,3.852c1.621,0,3.41-0.195,5.396-0.672
			c5.008-1.164,7.449-4.391,9.229-6.742c1.773-2.336,3.305-4.367,8.488-5.914c6.783-2.055,9.314-0.695,14.369,1.992
			c2.061,1.102,4.258,2.258,6.842,3.305c4.494,1.781,9.223,1.727,13.648-0.219c9.957-4.344,16.725-17.516,20.643-27.813
			c12.414-32.57,12.148-56.695-0.787-71.719c-13.459-15.656-36.801-16.656-50.949-15.578c2.273-3.953,5.07-7.5,8.52-10.445
			c9.684-8.273,22.566-11.031,35.291-7.531c16.975,4.641,22.461,20.945,24.227,31.602c0.863,5.227,1.221,9.398,7.449,9.672
			c6.223,0.273,6.662-4.031,5.957-9.234c-1.813-13.594-8.654-37.813-34.141-44.797C93.445,39.749,75.729,43.6,62.854,54.584
			c-12.596,10.781-19.484,27.344-19.508,46.383c-0.006,3.063,0.752,9.227,7.17,8.625c6.41-0.594,6.018-6.539,6.047-9.313
			c0.031-3.969,0.424-7.773,1.16-11.352c11.891-1.758,35.246-2.273,46.135,10.367c9.52,11.063,8.996,30.711-1.553,58.398
			c-4.145,10.852-9.215,18.492-13.58,20.398c-1.189,0.516-2.205,0.547-3.418,0.047c-2.107-0.852-3.887-1.805-5.57-2.695
			c-5.813-3.109-12.404-6.609-24.387-2.984c-9.313,2.805-12.867,7.484-15.217,10.594c-1.242,1.633-1.432,1.805-1.713,1.859
			c-1.84,0.43-3.363,0.43-3.863-0.031c-0.789-0.711-1.229-2.875-1.289-5.016C44.969,170.288,46.621,155.725,46.621,142.522z"/>
	</g>
	<g>
		<g>
			<path fill="#2878C8" d="M244.342,110.561c-20.25,21.945-20.25,53.305,0,75.25c4.055,4.391,10.586-2.172,6.547-6.547
				c-16.777-18.188-16.777-43.969,0-62.141C254.928,112.725,248.396,106.163,244.342,110.561L244.342,110.561z"/>
		</g>
	</g>
	<g>
		<g>
			<path fill="#2878C8" d="M225.428,92.327c-30.086,32.586-30.07,79.133,0,111.734c4.055,4.391,10.586-2.172,6.547-6.555
				c-26.621-28.852-26.629-69.773,0-98.633C236.021,94.491,229.486,87.928,225.428,92.327L225.428,92.327z"/>
		</g>
	</g>
	<g>
		<g>
			<path fill="#2878C8" d="M203.865,79.17c-37.154,40.273-37.154,97.758,0,138.031c4.063,4.391,10.586-2.172,6.547-6.555
				c-33.715-36.539-33.715-88.375,0-124.914C214.451,81.334,207.92,74.772,203.865,79.17L203.865,79.17z"/>
		</g>
	</g>
</g>
</svg>
