<?xml version="1.0" encoding="utf-8"?>
<!-- Generator: Adobe Illustrator 16.0.0, SVG Export Plug-In . SVG Version: 6.00 Build 0)  -->
<!DOCTYPE svg PUBLIC "-//W3C//DTD SVG 1.1//EN" "http://www.w3.org/Graphics/SVG/1.1/DTD/svg11.dtd">
<svg version="1.1" id="Layer_1" xmlns="http://www.w3.org/2000/svg" xmlns:xlink="http://www.w3.org/1999/xlink" x="0px" y="0px"
	 width="256px" height="256px" viewBox="0 0 256 256" enable-background="new 0 0 256 256" xml:space="preserve">
<g>
	<g>
		<path fill="#374150" d="M113.812,107.297l-26.914,59.531c-1.516,3.352-4.406,5.367-7.715,5.367c-0.016,0-0.016,0-0.023,0
			c-3.313,0-6.199-1.988-7.73-5.32l-19.02-41.453l-11.375,21.082c-2.125,3.926-6.73,6.684-11.203,6.684H16.722
			c12.688,20.734,35.594,40.121,72.863,52.973c10.195-3.516,19.289-7.535,27.418-11.93v-41.68c0-9.152,5.781-16.809,15.105-18.473
			L113.812,107.297z"/>
		<path fill="#374150" d="M144.854,52.945c-37.125-13.277-55.27,20.309-55.27,20.309S71.444,39.668,34.319,52.945
			C10.843,61.328-5.489,100.703,9.78,139.336h19.387l16.004-29.66c1.695-3.152,4.598-5.004,7.895-4.867
			c3.262,0.105,6.094,2.109,7.578,5.367L79.12,150.43l25.719-56.91c1.418-3.125,4.141-5.156,7.293-5.426
			c3.211-0.258,6.184,1.258,8.121,4.09l28.383,41.527h22.758C183.046,96.957,167.194,60.918,144.854,52.945z"/>
	</g>
	<g>
		<path fill="#2878C8" d="M207.706,184.289c1.621,0,2.684-1,2.684-2.363v-0.063c0-1.227-1.031-2.316-2.684-2.316
			s-2.684,1.059-2.684,2.285v0.063C205.022,183.258,206.085,184.289,207.706,184.289z"/>
		<path fill="#2878C8" d="M207.706,188.215c-1.832,0-3.152,0.969-3.152,2.363v0.078c0,1.301,1.121,2.453,3.152,2.453
			c2.023,0,3.152-1.152,3.152-2.453v-0.078C210.858,189.184,209.538,188.215,207.706,188.215z"/>
		<path fill="#2878C8" d="M185.972,160.734v-0.059c0-3.473-1.66-5.988-4.055-5.988c-2.402,0-3.992,2.426-3.992,5.926v0.063
			c0,3.484,1.621,5.973,4.055,5.973C184.409,166.648,185.972,164.191,185.972,160.734z"/>
		<path fill="#2878C8" d="M229.636,180.363c-2.402,0-3.992,2.426-3.992,5.926v0.063c0,3.484,1.621,5.969,4.055,5.969
			c2.426,0,3.984-2.453,3.984-5.91v-0.059C233.683,182.879,232.03,180.363,229.636,180.363z"/>
		<path fill="#2878C8" d="M238.315,140.23H138.261c-7.617,0-13.852,6.227-13.852,13.852v38.238c0,7.609,6.234,13.84,13.852,13.84
			h100.055c7.613,0,13.844-6.23,13.844-13.84v-38.238C252.159,146.457,245.929,140.23,238.315,140.23z M147.476,171.574h-5.957
			V155.25l-3.684,0.832l-1.152-4.668l6.398-1.801h4.395V171.574z M168.647,171.574h-17.262v-4.547l8.168-6.23
			c2.031-1.59,2.805-2.621,2.805-3.926c0-1.379-0.969-2.211-2.426-2.211c-1.469,0-2.621,0.832-4.332,2.801l-4.086-3.395
			c2.332-3.031,4.645-4.684,8.883-4.684c4.766,0,8.039,2.836,8.039,6.957v0.063c0,3.484-1.805,5.305-5.047,7.637l-3.742,2.609h9
			V171.574z M171.847,160.734v-0.059c0-6.168,3.926-11.352,10.133-11.352s10.07,5.105,10.07,11.289v0.063
			c0,6.168-3.902,11.336-10.133,11.336C175.683,172.012,171.847,166.906,171.847,160.734z M178.218,189.594l29.898-36.102l4,3.305
			l-29.895,36.117L178.218,189.594z M216.679,191.215c0,3.895-3.734,6.41-8.973,6.41s-8.973-2.59-8.973-6.379v-0.078
			c0-2.637,1.395-4.227,3.734-5.227c-1.688-0.941-2.992-2.363-2.992-4.746v-0.059c0-3.484,3.336-6.078,8.23-6.078
			s8.23,2.594,8.23,6.078v0.059c0,2.383-1.313,3.805-2.992,4.746c2.211,1.031,3.734,2.484,3.734,5.199V191.215z M239.761,186.352
			c0,6.168-3.895,11.336-10.125,11.336c-6.234,0-10.07-5.109-10.07-11.277v-0.059c0-6.184,3.934-11.352,10.133-11.352
			s10.063,5.105,10.063,11.289V186.352z"/>
	</g>
</g>
</svg>
