<?xml version="1.0" encoding="utf-8"?>
<!-- Generator: Adobe Illustrator 16.0.0, SVG Export Plug-In . SVG Version: 6.00 Build 0)  -->
<!DOCTYPE svg PUBLIC "-//W3C//DTD SVG 1.1//EN" "http://www.w3.org/Graphics/SVG/1.1/DTD/svg11.dtd">
<svg version="1.1" id="Layer_1" xmlns="http://www.w3.org/2000/svg" xmlns:xlink="http://www.w3.org/1999/xlink" x="0px" y="0px"
	 width="256px" height="256px" viewBox="0 0 256 256" enable-background="new 0 0 256 256" xml:space="preserve">
<g>
	<path fill="#374150" d="M245,102.223h-37.316h-5.668h-24.25h-5.895H84.128H71.437H53.984h-5.668H11c-3.953,0-7.16,3.211-7.16,7.164
		v8.352c0,3.953,2.234,7.32,7.16,8.672c1.852,0.5,3.609,0.953,5.094,1.336v0.023l2.387,30.102
		c1.441,20.219,13.18,31.813,32.223,31.813h29.75c12.477,0,28.184-5.438,32.191-31.523l3.676-30.102
		c0.094-0.68,0.109-1.313,0.152-1.953c2.578-1.211,6.375-2.391,11.527-2.391c5.145,0,8.949,1.18,11.527,2.391
		c0.035,0.625,0.059,1.242,0.141,1.906l3.707,30.344c3.988,25.891,19.695,31.328,32.168,31.328h29.754
		c19.043,0,30.781-11.594,32.215-31.766l2.395-30.172c1.484-0.383,3.242-0.836,5.094-1.336c4.926-1.352,7.16-4.719,7.16-8.672
		v-8.352C252.16,105.434,248.953,102.223,245,102.223z M104.476,126.574l-3.66,29.969c-2.887,18.789-12.398,21.203-20.363,21.203
		h-29.75c-12.852,0-19.309-6.578-20.316-20.766l-2.379-30.133c-0.258-3.336,0.453-5.852,2.164-7.68
		c2.988-3.234,9.43-5.008,18.145-5.008h35.813c8.973,0,15.777,1.898,18.672,5.188C103.773,120.449,105.015,122.41,104.476,126.574z
		 M228,126.832l-2.387,30.195c-1.008,14.141-7.465,20.719-20.316,20.719h-29.754c-7.961,0-17.473-2.414-20.34-21.023l-3.688-30.195
		c-0.531-4.117,0.711-6.078,1.68-7.18c2.895-3.289,9.703-5.188,18.676-5.188h35.813c8.715,0,15.156,1.773,18.141,5.008
		C227.539,120.996,228.25,123.512,228,126.832z"/>
	<g>
		<path fill="#2878C8" d="M98.429,73.863V62.527h8.055V18.105h-8.055V6.762h59.141v21.281h-12.832v-9.938h-20.793V33.59h16.785
			v11.336h-16.785v17.602h20.793V52.488h12.832v21.375H98.429z"/>
	</g>
	<g>
		<g>
			<path fill="#2878C8" d="M45.085,168.176v-7.773h6.594v-30.477h-6.594v-7.773h41.195v14.195h-8.797v-6.422H63.652v10.656h9.961
				v7.789h-9.961v12.031h7.078v7.773H45.085z"/>
		</g>
	</g>
	<g>
		<g>
			<path fill="#2878C8" d="M194.589,160.402v7.773h-24.258v-7.773h5.855v-30.477h-5.855v-7.773h24.258
				c5.645,0,10,1.328,13.078,3.969c3.078,2.648,4.625,6.211,4.625,10.703c0,2.547-0.547,4.875-1.625,6.953
				c-1.082,2.094-2.469,3.68-4.152,4.805c-1.688,1.109-3.621,1.867-5.789,2.273c-2.176,0.406-4.895,0.625-8.152,0.625h-4.41v8.922
				H194.589z M188.164,143.793h1.785c4.109,0,6.746-0.664,7.93-2c1.18-1.336,1.773-2.984,1.773-4.969c0-1.688-0.41-3.109-1.23-4.289
				c-0.816-1.188-1.75-1.914-2.809-2.188c-1.055-0.273-2.789-0.422-5.191-0.422h-2.258V143.793z"/>
		</g>
	</g>
	<g>
		<g>
			<g>
				<path fill="#2878C8" d="M45.996,248.738v-6.063h5.387v-23.727h-5.387v8.336h-6.152v-14.398h32.488v14.398h-6.086v-8.336h-5.539
					v23.727h5.379v6.063H45.996z"/>
			</g>
		</g>
		<g>
			<g>
				<path fill="#2878C8" d="M128.878,212.387c6.184,0,11.043,1.789,14.594,5.352c3.539,3.594,5.32,7.945,5.32,13.078
					c0,5.156-1.781,9.508-5.336,13.07c-3.551,3.563-8.418,5.352-14.578,5.352c-6.41,0-11.328-1.836-14.762-5.508
					c-3.434-3.664-5.152-7.969-5.152-12.914c0-5.117,1.766-9.469,5.289-13.063C117.785,214.176,122.656,212.387,128.878,212.387z
					 M128.878,218.941c-2.75,0-5.086,1.023-6.996,3.086c-1.918,2.063-2.871,5.078-2.871,9.063c0,3.531,0.941,6.336,2.836,8.461
					c1.887,2.109,4.227,3.164,7.031,3.164c2.742,0,5.078-1.031,7-3.102c1.926-2.078,2.891-5.063,2.891-8.961
					c0-3.484-0.918-6.305-2.762-8.469C134.175,220.012,131.796,218.941,128.878,218.941z"/>
			</g>
		</g>
		<g>
			<g>
				<path fill="#2878C8" d="M187.175,248.738v-6.063l16.992-23.727h-9.957v6.523h-6.078v-12.586H215.8v5.383l-17.5,24.406h11.809
					v-6.883h6.047v12.945H187.175z"/>
			</g>
		</g>
	</g>
</g>
</svg>
