<?xml version="1.0" encoding="utf-8"?>
<!-- Generator: Adobe Illustrator 16.0.0, SVG Export Plug-In . SVG Version: 6.00 Build 0)  -->
<!DOCTYPE svg PUBLIC "-//W3C//DTD SVG 1.1//EN" "http://www.w3.org/Graphics/SVG/1.1/DTD/svg11.dtd">
<svg version="1.1" id="Layer_1" xmlns="http://www.w3.org/2000/svg" xmlns:xlink="http://www.w3.org/1999/xlink" x="0px" y="0px"
	 width="256px" height="256px" viewBox="0 0 256 256" enable-background="new 0 0 256 256" xml:space="preserve">
<g>
	<path fill="#374150" d="M189.396,81.305c-0.969-1.828-2.289-3.297-3.766-4.594c1.727-8.238,1.887-22.098,0.426-34.98
		c-2.305-9.781-10.664-12.199-10.664-12.199S158.846,3.84,127.998,3.84C97.146,3.84,80.6,29.531,80.6,29.531
		S72.24,31.949,69.936,41.73c-1.461,12.891-1.297,26.75,0.426,34.98c-1.469,1.305-2.793,2.773-3.758,4.594
		c-3.504,6.613-2.828,15.824,1.645,22.406c2.742,4.039,6.566,6.527,10.828,7.133l0.066,0.438c0.57,5.262,6.762,51.441,48.859,51.441
		c42.176,0,48.297-46.195,48.844-51.371l0.078-0.508c4.262-0.605,8.086-3.094,10.828-7.133
		C192.225,97.133,192.9,87.918,189.396,81.305z M181.334,99.355c-1.336,1.969-3.652,4.234-7.332,3.836l-3.695-0.41l-1.164,7.66
		c-0.48,4.555-5.754,44.523-41.141,44.523c-35.324,0-40.652-39.961-41.176-44.773l-1.125-7.41l-3.699,0.41
		c-3.715,0.34-6-1.875-7.336-3.836c-2.832-4.168-3.352-10.367-1.207-14.414c1.734-3.273,4.949-4.926,9.57-4.926
		c11.02-14.23,7.66-28.328,7.66-28.328s20.113,8.086,37.309,8.086c17.191,0,37.305-8.086,37.305-8.086s-3.352,14.098,7.672,28.328
		c4.617,0,7.832,1.652,9.566,4.926C184.686,88.988,184.166,95.188,181.334,99.355z"/>
	<path fill="#2878C8" d="M229.709,206.758c-2.93-22.059-19.355-33.941-33.719-40.23c1.172,5.609,2.168,12.738,1.93,20.613
		c0.074,0.031,0.145,0.043,0.215,0.074c15.078,6.246,16.211,21.371,13.41,35.777c-2.031,10.441-7.121,23.711-20.375,20.758
		c-4.883-1.086-2.809-8.566,2.063-7.473c12.84,2.848,18.676-39.043,0.391-42.285c-12.703-2.254-18.117,9.191-20.988,19.574
		c-1.586,5.734-5.105,16.602,3.199,18.633c4.859,1.191,2.801,8.668-2.063,7.488c-14.176-3.473-11.387-20.152-7.934-30.449
		c3.852-11.488,12.055-23.887,24.383-23.719c0.082-9.141-1.609-17.234-2.988-22.297c-7.934-2.531-13.82-3.305-13.82-3.305
		l-45.41,66.91l-45.414-66.91c0,0-5.891,0.773-13.828,3.305c-2.516,9.277-6.086,28.836,2.234,46.121
		c0.91-0.211,1.844-0.363,2.824-0.363c6.641,0,12.023,5.379,12.023,12.027c0,6.645-5.383,12.023-12.023,12.023
		c-6.645,0-12.027-5.379-12.027-12.023c0-2.82,1.012-5.383,2.637-7.434c-8.586-16.902-6.977-35.375-4.504-47
		c-14.344,6.297-30.707,18.172-33.633,40.184c-3.988,30.004-3.301,45.402-3.301,45.402h105.012H233.01
		C233.01,252.16,233.697,236.762,229.709,206.758z"/>
	<g>
		<path fill="#374150" d="M145.439,179.926c0.672-1.078,0.363-2.547-0.699-3.25l-14.805-9.891c-0.535-0.355-1.234-0.531-1.934-0.531
			c-0.703,0-1.402,0.176-1.938,0.531l-14.805,9.891c-1.059,0.703-1.371,2.172-0.695,3.25l8.48,10.914
			c0.688,1.074,2,1.938,1.012,4.281l-3.129,7.016l11.074,17.254l11.07-17.254l-3.129-7.016c-0.984-2.344,0.324-3.207,1.012-4.281
			L145.439,179.926z"/>
	</g>
</g>
</svg>
