<?xml version="1.0" encoding="utf-8"?>
<!-- Generator: Adobe Illustrator 16.0.0, SVG Export Plug-In . SVG Version: 6.00 Build 0)  -->
<!DOCTYPE svg PUBLIC "-//W3C//DTD SVG 1.1//EN" "http://www.w3.org/Graphics/SVG/1.1/DTD/svg11.dtd">
<svg version="1.1" id="Layer_1" xmlns="http://www.w3.org/2000/svg" xmlns:xlink="http://www.w3.org/1999/xlink" x="0px" y="0px"
	 width="256px" height="256px" viewBox="0 0 256 256" enable-background="new 0 0 256 256" xml:space="preserve">
<g>
	<path fill="#374150" d="M244.039,101.836H229.83c-4.463,0-9.434,3.406-11.045,7.578l-20.84,53.656h-80.889v-32.469H54.561
		c-52.748,0-50.709,41.242-50.709,56.156h95.73h17.475H252.16v-16.586v-7.102v-53.109
		C252.16,105.484,248.506,101.836,244.039,101.836z"/>
	<g>
		<path fill="#2878C8" d="M225.432,70.344c0,11.227-9.105,20.336-20.34,20.336s-20.34-9.109-20.34-20.336
			c0-11.25,9.105-20.344,20.34-20.344S225.432,59.094,225.432,70.344z"/>
	</g>
	<g>
		<path fill="#2878C8" d="M213.453,97.773l-22.328,56.172h-64.934V130.25h37.33l11.041-22.898
			C182.213,92.031,194.834,91.578,213.453,97.773z"/>
	</g>
	<g>
		<path fill="#2878C8" d="M252.16,232.586c0,2.242-1.816,4.063-4.063,4.063H7.896c-2.238,0-4.057-1.82-4.057-4.063v-32.977
			c0-2.242,1.818-4.063,4.057-4.063h240.201c2.246,0,4.063,1.82,4.063,4.063V232.586z"/>
	</g>
	<path fill="#2878C8" d="M112.941,19.352H18.049c-7.836,0-14.209,6.383-14.209,14.219v54.531c0,7.836,6.373,14.203,14.209,14.203
		h94.893c7.836,0,14.209-6.367,14.209-14.203V33.57C127.15,25.734,120.777,19.352,112.941,19.352z M114.635,69.898h-11.537
		l-8.992,13.641c-0.887,1.352-2.326,2.141-3.846,2.141c-0.17,0-0.34,0-0.516-0.031c-1.701-0.195-3.137-1.383-3.746-3.078
		L74.119,49.242L59.33,75.477c-0.91,1.625-2.568,2.563-4.33,2.398c-1.756-0.156-3.24-1.336-3.869-3.094l-6.859-19.055l-7.256,11.43
		c-1.037,1.641-3.045,2.742-4.986,2.742H16.357v-8.125h14.457l10.498-16.547c0.979-1.531,2.652-2.352,4.361-2.18
		c1.717,0.195,3.16,1.375,3.773,3.086l6.666,18.508l14.805-26.25c0.92-1.633,2.609-2.547,4.338-2.391
		c1.754,0.148,3.236,1.328,3.865,3.102L91.25,73.117l5.713-8.672c1.049-1.594,3.047-2.672,4.963-2.672h12.709V69.898z"/>
</g>
</svg>
