<?xml version="1.0" encoding="utf-8"?>
<!-- Generator: Adobe Illustrator 16.0.0, SVG Export Plug-In . SVG Version: 6.00 Build 0)  -->
<!DOCTYPE svg PUBLIC "-//W3C//DTD SVG 1.1//EN" "http://www.w3.org/Graphics/SVG/1.1/DTD/svg11.dtd">
<svg version="1.1" id="Layer_1" xmlns="http://www.w3.org/2000/svg" xmlns:xlink="http://www.w3.org/1999/xlink" x="0px" y="0px"
	 width="256px" height="256px" viewBox="0 0 256 256" enable-background="new 0 0 256 256" xml:space="preserve">
<g>
	<g>
		<path fill="#374150" d="M127.756,107.168c-26.652,0-45.227-29.949-45.227-56.82c0-26.945,19.02-46.508,45.227-46.508
			c26.211,0,45.234,19.563,45.234,46.508C172.99,77.219,154.408,107.168,127.756,107.168z M127.756,15.18
			c-20.273,0-33.883,14.133-33.883,35.168c0,23.379,16.461,45.484,33.883,45.484s33.887-22.105,33.887-45.484
			C161.643,29.313,148.025,15.18,127.756,15.18z"/>
	</g>
	<path fill="#2878C8" d="M201.709,113.762c-5.926-10.012-17.551-15.535-32.738-15.566h-3.59l-1.547,3.246
		c-0.289,0.605-29.742,60.91-110.133,86.254l-3.965,1.25v25.559c0,24.629,17.379,37.656,50.246,37.656h35.434h4.773l0.813-4.703
		c0.113-0.637,11.77-65.203,60.297-127.313l2.383-3.055L201.709,113.762z"/>
	<path fill="#374150" d="M61.076,176.957v-44.629c0-7.707,2.152-13.293,6.563-17.051c7.289-6.215,18.945-5.965,23.621-5.57
		c4.402,5.07,17.375,17.766,36.746,17.766c2.695,0,5.242-0.297,7.699-0.738c4.461-4.945,8.152-9.668,11.215-14.109
		c0,0-9.578,3.5-18.914,3.5c-17.824,0-29.133-14.996-29.238-15.141l-1.363-1.871l-2.289-0.379
		c-0.879-0.137-21.52-3.387-34.781,7.875c-7.035,5.965-10.598,14.617-10.598,25.719v48.516
		C53.896,179.633,57.682,178.313,61.076,176.957z"/>
	<path fill="#374150" d="M194.92,143.773v107.652h11.344V132.328c0-1.66-0.098-3.258-0.266-4.813
		C202.314,132.012,198.314,137.566,194.92,143.773z"/>
	<path fill="#374150" d="M161.357,207.457c-1.102,2.676-2.523,6.426-4.031,10.973c6.191,0.684,13.238,2.297,17.012,5.852
		c1.813,1.715,2.652,3.699,2.652,6.262c0,0.727-0.152,1.621-1.355,2.785c-4.039,3.918-14.195,6.035-24.16,6.957
		c-0.758,3.676-1.418,7.52-1.969,11.52c11.48-0.801,26.688-3.227,34.016-10.328c3.152-3.055,4.813-6.836,4.813-10.934
		c0-5.664-2.152-10.672-6.223-14.516C176.658,210.883,168.518,208.52,161.357,207.457z"/>
</g>
</svg>
