<?xml version="1.0" encoding="utf-8"?>
<!-- Generator: Adobe Illustrator 16.0.0, SVG Export Plug-In . SVG Version: 6.00 Build 0)  -->
<!DOCTYPE svg PUBLIC "-//W3C//DTD SVG 1.1//EN" "http://www.w3.org/Graphics/SVG/1.1/DTD/svg11.dtd">
<svg version="1.1" id="Layer_1" xmlns="http://www.w3.org/2000/svg" xmlns:xlink="http://www.w3.org/1999/xlink" x="0px" y="0px"
	 width="256px" height="256px" viewBox="0 0 256 256" enable-background="new 0 0 256 256" xml:space="preserve">
<g>
	<path fill="#374150" d="M152.975,166.699H72.066l-13.914-41.32c-3.133-9.289-13.207-14.273-22.498-11.156
		c-9.295,3.141-14.289,13.203-11.16,22.508l17.477,51.867c0,1.867,0,3.758,0,5.695v34.742c0,12.711,10.4,23.125,23.121,23.125
		h87.883c12.721,0,23.125-10.414,23.125-23.125v-39.227C176.1,177.09,165.695,166.699,152.975,166.699z"/>
	<g>
		<path fill="#2878C8" d="M181.877,190.613c0,0,40.176,37.922,45.371,43.102c5.195,5.203,4.27,12.461,0.598,15.703
			c-3.834,3.398-10.643,4.414-18.869-1.563c-18.328-13.367-27.1-19.93-27.1-19.93V190.613z"/>
	</g>
	<g>
		<path fill="#2878C8" d="M95.619,82.34c0-12.477-10.121-22.586-22.594-22.586c-12.477,0-22.598,10.109-22.598,22.586
			c0,12.484,10.121,22.594,22.598,22.594C85.498,104.934,95.619,94.824,95.619,82.34z"/>
		<path fill="#2878C8" d="M155.707,139.598H114.33c-3.285-6.609-6.727-13.523-10.146-20.344
			c-5.605-11.18-24.637-13.531-42.086-2.922l15.426,44.578h12.336h35.045h30.803c5.885,0,10.654-4.781,10.654-10.656
			C166.361,144.371,161.592,139.598,155.707,139.598z"/>
	</g>
	<g>
		<path fill="#374150" d="M188.047,92.629c-24.479,0-44.393-19.914-44.393-44.391c0-24.484,19.914-44.398,44.393-44.398
			c24.477,0,44.393,19.914,44.393,44.398C232.439,72.715,212.523,92.629,188.047,92.629z M188.047,15.41
			c-18.105,0-32.832,14.711-32.832,32.828c0,18.094,14.727,32.828,32.832,32.828c18.104,0,32.828-14.734,32.828-32.828
			C220.875,30.121,206.15,15.41,188.047,15.41z"/>
	</g>
	<path fill="#2878C8" d="M185.637,27.277c0,7.117,0,14.242,0,21.367c-5.043,0-10.088,0-15.127,0c-4.66,0-4.66,7.227,0,7.227
		c6.244,0,12.492,0,18.742,0c1.969,0,3.609-1.633,3.609-3.602c0-8.336,0-16.656,0-24.992
		C192.861,22.621,185.637,22.621,185.637,27.277z"/>
</g>
</svg>
