<?xml version="1.0" encoding="utf-8"?>
<!-- Generator: Adobe Illustrator 16.0.0, SVG Export Plug-In . SVG Version: 6.00 Build 0)  -->
<!DOCTYPE svg PUBLIC "-//W3C//DTD SVG 1.1//EN" "http://www.w3.org/Graphics/SVG/1.1/DTD/svg11.dtd">
<svg version="1.1" id="Layer_1" xmlns="http://www.w3.org/2000/svg" xmlns:xlink="http://www.w3.org/1999/xlink" x="0px" y="0px"
	 width="256px" height="256px" viewBox="0 0 256 256" enable-background="new 0 0 256 256" xml:space="preserve">
<g>
	<g>
		<g>
			<path fill="#374150" d="M128,252.16c-68.461,0-124.16-55.703-124.16-124.164S59.539,3.84,128,3.84s124.16,55.695,124.16,124.156
				S196.461,252.16,128,252.16z M128,20.145c-59.469,0-107.855,48.383-107.855,107.852c0,59.461,48.387,107.836,107.855,107.836
				c59.465,0,107.852-48.375,107.852-107.836C235.852,68.527,187.465,20.145,128,20.145z"/>
		</g>
	</g>
	<path fill="#2878C8" d="M72.578,109.551c12.359,17.086,25.578,27.617,38.125,35.07c-3.332,4.5-4.09,7.914-4.09,7.914
		c-7.262-20.914-23.145-17.656-27.234-11.305c-4.109,6.367-10.734,23.82-15.281,25.641c-4.547,1.805-11.766-8.516-16.852-1.984
		c-4.031,5.172,5.078,17.023,15.082,22.914c9.984,5.914,26.137-18.219,26.137-18.219c0.371,10.914,4.559,21.453,8.539,26.18
		c30.707,36.461,79.047-18.961,83.047-49.047c2.633-19.828,0.852-35.359,2.344-44.664s7.594-16.93,7.594-26.445
		c0-19.086-12.93-32.5-31.996-32.5c-19.074,0-34.539,15.477-34.539,34.523c0,16.859,9.547,37.711,28.031,33.922
		c0.777,4.383-5.648,12.109-12.469,10.82c-3.09-0.586-10.031-4.102-14.109-10c-7.215-10.445-7.387-19.109-8.973-28.508
		c-1.582-9.414-7.813-3.258-7.813-3.258c-3.684-4.656-6.738-3.641-10.996,0.984c-10.262,11.078,6.109,22.719,6.109,22.719
		c3.152,2.594,4.113,12.609,6.91,18.078c4.289,8.445,11.473,12.297,11.473,12.297c-2.129,1.359-3.863,2.758-5.441,4.133
		c-15.383-8.867-26.781-19.258-37.305-33.813C67.023,88.637,51.84,81.207,40.352,77.816c-1.336,2.305-2.547,4.68-3.684,7.094
		C47.063,87.77,61.57,94.332,72.578,109.551z"/>
</g>
</svg>
