<?xml version="1.0" encoding="utf-8"?>
<!-- Generator: Adobe Illustrator 16.0.0, SVG Export Plug-In . SVG Version: 6.00 Build 0)  -->
<!DOCTYPE svg PUBLIC "-//W3C//DTD SVG 1.1//EN" "http://www.w3.org/Graphics/SVG/1.1/DTD/svg11.dtd">
<svg version="1.1" id="Layer_1" xmlns="http://www.w3.org/2000/svg" xmlns:xlink="http://www.w3.org/1999/xlink" x="0px" y="0px"
	 width="256px" height="256px" viewBox="0 0 256 256" enable-background="new 0 0 256 256" xml:space="preserve">
<g>
	<path fill="#2878C8" d="M155.285,49.762h-54.57c-10.332,0-18.711,8.383-18.711,18.719v4.063h12.711V82.59H82.004v13.262h12.711
		v10.066H82.004v13.246h12.711v10.063H82.004v13.262h12.711v10.047H82.004v4.063c0,10.336,8.379,18.719,18.711,18.719h54.57
		c10.332,0,18.711-8.383,18.711-18.719V68.48C173.996,58.145,165.617,49.762,155.285,49.762z M128.004,146.656
		c-12.52,0-22.676-10.156-22.676-22.672c0-12.52,17.172-45.563,22.676-45.563c5.492,0,22.664,33.043,22.664,45.563
		C150.668,136.5,140.523,146.656,128.004,146.656z"/>
	<g>
		<g>
			<path fill="#2878C8" d="M110.219,122.316c-0.152,10.258,7.652,18.43,17.41,20.324c5.512,1.074,7.863-7.367,2.328-8.441
				c-4.625-0.895-8.023-2.91-10.043-7.23c-0.449-0.957-0.715-2.41-0.902-3.563c0.168,1.063-0.047-0.684-0.039-1.09
				C119.063,116.676,110.305,116.676,110.219,122.316L110.219,122.316z"/>
		</g>
	</g>
	<path fill="#374150" d="M164.695,27.59h-13.391c0-0.063,0.016-0.105,0.016-0.168c0-13.004-10.461-23.582-23.32-23.582
		c-12.863,0-23.324,10.578-23.324,23.582c0,0.063,0.016,0.105,0.016,0.168H91.301c-17.57,0-31.867,14.293-31.867,31.871v106.156
		c0,17.582,14.297,31.875,31.867,31.875h3.633v6.063c0,3.938,3.203,7.137,7.145,7.137h18.957c0.359,8.367,2.406,20.324,10.27,29.344
		c7.016,8.047,17.027,12.125,29.758,12.125v-13.398c-8.785,0-15.203-2.457-19.617-7.488c-5.191-5.926-6.68-14.367-6.996-20.582
		h19.469c3.941,0,7.145-3.199,7.145-7.137v-6.063h3.633c17.57,0,31.871-14.293,31.871-31.875V59.461
		C196.566,41.883,182.266,27.59,164.695,27.59z M118.082,27.422c0-5.609,4.449-10.168,9.918-10.168
		c5.465,0,9.914,4.559,9.914,10.168c0,0.063-0.016,0.105-0.016,0.168h-19.801C118.098,27.527,118.082,27.484,118.082,27.422z
		 M183.156,165.617c0,10.184-8.281,18.461-18.461,18.461H91.301c-10.176,0-18.461-8.277-18.461-18.461V59.461
		c0-10.184,8.285-18.473,18.461-18.473h73.395c10.18,0,18.461,8.289,18.461,18.473V165.617z"/>
</g>
</svg>
