<?xml version="1.0" encoding="utf-8"?>
<!-- Generator: Adobe Illustrator 16.0.0, SVG Export Plug-In . SVG Version: 6.00 Build 0)  -->
<!DOCTYPE svg PUBLIC "-//W3C//DTD SVG 1.1//EN" "http://www.w3.org/Graphics/SVG/1.1/DTD/svg11.dtd">
<svg version="1.1" id="Layer_1" xmlns="http://www.w3.org/2000/svg" xmlns:xlink="http://www.w3.org/1999/xlink" x="0px" y="0px"
	 width="256px" height="256px" viewBox="0 0 256 256" enable-background="new 0 0 256 256" xml:space="preserve">
<g>
	<g>
		<path fill="#374150" d="M153.771,199.379c-23.445,0-40.406-3.805-51.836-11.656c-20.141-13.793-25.766-40.117-27.297-51.637
			c-10.531-1.457-34.137-4.699-43.012-5.852c-27.387-3.578-28.145-18.445-27.723-22.93c1.852-19.477,27.27-19.477,45.836-19.477
			l24.012,0.105c8.164,0,14.27-0.242,18.832-0.605C77.829,78.656,72.04,65.004,73.321,53.637c1.082-9.672,7.32-16.43,15.164-16.43
			c3.34,0,6.75,1.258,9.867,3.637c11.98,9.137,32.215,14.551,58.531,15.625c17.051,0.711,24.563,8.926,31.836,16.871
			c4.379,4.789,8.914,9.758,16.203,14.305c18.461,11.535,28.539,12.066,28.629,12.066l3.137,0.121l2.016,2.5
			c0.547,0.711,13.461,17.855,13.461,42.059c0,24.219-12.93,41.18-13.48,41.891l-2.012,2.594h-3.266
			c-25.059,0-38.504,3.273-50.371,6.184C173.958,197.285,165.388,199.379,153.771,199.379z M49.739,101.164
			c-16.543,0-31.938,0.895-32.559,7.398c-0.348,3.805,5.988,7.121,16.164,8.441c11.602,1.516,48.328,6.594,48.328,6.594l5.469,0.758
			l0.273,5.516c0.016,0.332,1.879,33.023,22.07,46.848c9,6.184,23.906,9.32,44.285,9.32c10.012,0,17.109-1.742,26.09-3.941
			c11.438-2.789,25.523-6.242,49.98-6.547c3.016-4.926,8.984-16.504,8.984-31.16c0-15.188-6.289-27.039-9.227-31.754
			c-5.367-0.922-16.145-3.926-31.754-13.668c-8.82-5.52-14.453-11.688-18.977-16.629c-6.879-7.516-11.031-12.063-22.535-12.535
			c-20.266-0.848-48.184-4.711-66.066-18.352c-0.941-0.715-1.578-0.91-1.781-0.91c-0.645,0.242-2.242,2.805-1.965,7.168
			c0.531,8.457,7.684,19.008,26.129,23.207l4.625,1.059l0.516,4.715c0.301,2.652-0.555,5.242-2.395,7.305
			c-3.91,4.363-12.488,7.289-41.645,7.289L49.739,101.164z"/>
	</g>
	<g>
		<path fill="#2878C8" d="M58.481,193.738c0,13.84-11.223,25.055-25.059,25.055c-13.84,0-25.063-11.215-25.063-25.055
			c0-13.836,18.984-50.363,25.063-50.363C39.493,143.375,58.481,179.902,58.481,193.738z"/>
	</g>
</g>
</svg>
