<?xml version="1.0" encoding="utf-8"?>
<!-- Generator: Adobe Illustrator 16.0.0, SVG Export Plug-In . SVG Version: 6.00 Build 0)  -->
<!DOCTYPE svg PUBLIC "-//W3C//DTD SVG 1.1//EN" "http://www.w3.org/Graphics/SVG/1.1/DTD/svg11.dtd">
<svg version="1.1" id="Layer_1" xmlns="http://www.w3.org/2000/svg" xmlns:xlink="http://www.w3.org/1999/xlink" x="0px" y="0px"
	 width="256px" height="256px" viewBox="0 0 256 256" enable-background="new 0 0 256 256" xml:space="preserve">
<g>
	<g>
		<path fill="#374150" d="M232.628,85.909c-6.414-58.426-57.672-86.875-112.605-81.402C93.585,7.144,70.12,17.175,54.366,39.136
			C43.128,54.808,38.718,75.769,39.413,94.792c0.273,7.773,5.98,17.898,4.594,24.961c-2.539,12.945-16.414,23.613-20.93,36.238
			c-3.367,9.398,5.484,13.188,12.563,15.535c1.973,0.652,3.926,1.32,5.852,2.047c-0.363,0.258-0.434,1.227-0.934,3.336
			c-0.848,3.559,0.902,6.363,3.383,8.516c-1.555,5.988,1.824,10.336,8.242,13.43c-0.277,13.805,2.813,26.797,18.574,29.965
			c16.656,3.348,37.77-2.973,44.289,18.309c2.664,8.715,16.367,5,13.684-3.777c-3.305-10.758-11.707-20.898-22.316-24.977
			c-9.383-3.621-18.816-2.621-28.652-2.984c-13.098-0.457-11.914-10.52-11.207-21.234c0.219-3.199-2.336-5.926-5.207-6.836
			c-0.82-0.242-1.621-0.516-2.426-0.805c-0.016-0.012-0.031-0.012-0.055-0.027c2.262-3.957,1.008-8.262-3.281-10.324
			c1.746-5.242,2.996-8.848-3.492-13.457c-3.492-2.484-8.676-3.547-12.68-4.852c-0.824-0.27-1.422-0.258-1.906-0.137
			c0.148-0.27,0.301-0.5,0.484-0.879c1.395-2.922,3.324-5.652,5.082-8.363c5.254-8.094,15.5-18.75,15.301-29.055
			c-0.145-7.914-4.031-15.082-4.684-22.961c-1.371-16.598,2.836-33.648,11.398-47.852c14.332-23.75,42.977-30.16,68.809-30.781
			c23.844-0.574,47.629,6.715,64.645,23.84c21.535,21.66,22.461,54.898,19.746,83.332c-1.895,19.715-10.297,36.555-16.301,55.047
			c-7.113,21.914-2.188,45.484,3.57,67.082c2.363,8.82,16.051,5.074,13.688-3.777c-7.172-26.824-8.535-48.363,1.871-74.008
			C231.823,142.929,235.733,114.327,232.628,85.909z"/>
	</g>
	<g>
		<path fill="#2878C8" d="M141.706,69.722c-1.383-0.59-3.125,0-3.867,1.305l-4.758,8.246c-0.75,1.285-0.395,3.09,0.801,4
			l4.793,3.605c1.195,0.895,1.969,2.852,1.727,4.336c0,0-0.258,1.457-0.258,3.637c0,2.168,0.258,3.637,0.258,3.637
			c0.242,1.488-0.531,3.426-1.727,4.32l-4.785,3.625c-1.188,0.891-1.559,2.695-0.809,4l4.758,8.246
			c0.75,1.301,2.492,1.879,3.867,1.301l5.559-2.363c1.383-0.574,3.488-0.332,4.691,0.563l6.27,3.605
			c1.363,0.621,2.629,2.336,2.809,3.836l0.738,5.941c0.18,1.469,1.551,2.695,3.051,2.695h9.527c1.492,0,2.871-1.227,3.047-2.695
			l0.742-5.941c0.184-1.5,1.457-3.215,2.82-3.836l6.258-3.605c1.199-0.895,3.313-1.152,4.691-0.563l5.555,2.348
			c1.379,0.594,3.121,0,3.863-1.301l4.77-8.246c0.75-1.289,0.387-3.094-0.813-3.984l-4.789-3.625
			c-1.195-0.895-1.969-2.832-1.719-4.32c0,0,0.25-1.469,0.25-3.637c0-2.18-0.25-3.652-0.25-3.652
			c-0.25-1.469,0.523-3.426,1.719-4.32l4.789-3.605c1.199-0.91,1.563-2.715,0.813-4.016l-4.77-8.246
			c-0.742-1.305-2.484-1.879-3.863-1.305l-5.563,2.367c-1.371,0.574-3.484,0.332-4.684-0.563l-6.258-3.605
			c-1.371-0.621-2.637-2.336-2.82-3.82l-0.742-5.941c-0.184-1.484-1.555-2.699-3.047-2.699h-9.531c-1.504,0-2.867,1.215-3.055,2.699
			l-0.734,5.941c-0.184,1.484-1.449,3.199-2.813,3.82l-6.262,3.605c-1.203,0.91-3.309,1.152-4.691,0.563L141.706,69.722z
			 M153.753,94.851c0-8.73,7.109-15.836,15.84-15.836c8.723,0,15.82,7.105,15.82,15.836s-7.098,15.824-15.82,15.824
			C160.862,110.675,153.753,103.581,153.753,94.851z"/>
		<path fill="#2878C8" d="M82.187,60.886c-1.086-0.453-2.449,0-3.031,1.016l-3.746,6.488c-0.59,1-0.301,2.438,0.637,3.137
			l3.762,2.832c0.938,0.699,1.543,2.23,1.355,3.398c0,0-0.207,1.148-0.207,2.863c0,1.695,0.207,2.848,0.207,2.848
			c0.188,1.168-0.418,2.699-1.355,3.41l-3.762,2.836c-0.938,0.695-1.227,2.105-0.637,3.137l3.746,6.473
			c0.582,1.031,1.953,1.469,3.031,1.031l4.363-1.852c1.086-0.469,2.742-0.273,3.684,0.426l4.918,2.848
			c1.078,0.488,2.07,1.82,2.223,3.004l0.559,4.652c0.152,1.168,1.227,2.137,2.41,2.137h7.473c1.176,0,2.258-0.969,2.402-2.137
			l0.582-4.652c0.137-1.184,1.137-2.516,2.207-3.004l4.918-2.848c0.938-0.699,2.605-0.91,3.684-0.426l4.363,1.852
			c1.086,0.438,2.441,0,3.031-1.031l3.742-6.473c0.586-1.031,0.297-2.441-0.637-3.137l-3.758-2.836
			c-0.938-0.711-1.547-2.242-1.355-3.41c0,0,0.195-1.152,0.195-2.848c0-1.715-0.195-2.879-0.195-2.879
			c-0.191-1.152,0.418-2.684,1.355-3.383l3.754-2.832c0.938-0.711,1.227-2.137,0.641-3.152l-3.742-6.473
			c-0.59-1.031-1.953-1.469-3.031-1.031l-4.363,1.867c-1.078,0.453-2.746,0.254-3.684-0.426l-4.918-2.863
			c-1.07-0.488-2.07-1.82-2.207-2.988l-0.582-4.668c-0.145-1.168-1.227-2.121-2.402-2.121h-7.48c-1.176,0-2.258,0.953-2.402,2.121
			l-0.574,4.668c-0.137,1.168-1.137,2.5-2.207,2.988l-4.918,2.863c-0.941,0.68-2.598,0.879-3.684,0.426L82.187,60.886z
			 M91.644,80.62c0-6.852,5.578-12.445,12.434-12.445c6.859,0,12.438,5.594,12.438,12.445s-5.578,12.43-12.438,12.43
			C97.222,93.05,91.644,87.472,91.644,80.62z"/>
	</g>
</g>
</svg>
