<?xml version="1.0" encoding="utf-8"?>
<!-- Generator: Adobe Illustrator 16.0.0, SVG Export Plug-In . SVG Version: 6.00 Build 0)  -->
<!DOCTYPE svg PUBLIC "-//W3C//DTD SVG 1.1//EN" "http://www.w3.org/Graphics/SVG/1.1/DTD/svg11.dtd">
<svg version="1.1" id="Layer_1" xmlns="http://www.w3.org/2000/svg" xmlns:xlink="http://www.w3.org/1999/xlink" x="0px" y="0px"
	 width="256px" height="256px" viewBox="0 0 256 256" enable-background="new 0 0 256 256" xml:space="preserve">
<g>
	<path fill="#374150" d="M128,87.645c17.672,0,32,14.328,32,32c0,17.664-14.328,31.996-32,31.996s-31.996-14.332-31.996-31.996
		C96.004,101.973,110.329,87.645,128,87.645z"/>
	<path fill="#2878C8" d="M3.84,119.637c0-45.945,25.04-85.965,62.133-107.441l23.574,40.848l14.309,24.801
		c-14.473,8.383-24.324,23.863-24.324,41.801c0,0,0,0,0,0.008H51.083L3.84,119.637z"/>
	<path fill="#2878C8" d="M128,243.805c-22.613,0-43.758-6.145-62.027-16.715l23.574-40.84l14.309-24.805
		c7.145,4.133,15.316,6.672,24.145,6.672c8.836,0,17.004-2.539,24.145-6.672l14.313,24.805l23.578,40.848
		C171.778,237.66,150.629,243.805,128,243.805z"/>
	<path fill="#2878C8" d="M204.918,119.645h-28.441c0-17.938-9.844-33.418-24.332-41.801l14.313-24.801l23.586-40.84
		c37.094,21.477,62.117,61.496,62.117,107.434L204.918,119.645z"/>
</g>
</svg>
