<?xml version="1.0" encoding="utf-8"?>
<!-- Generator: Adobe Illustrator 16.0.0, SVG Export Plug-In . SVG Version: 6.00 Build 0)  -->
<!DOCTYPE svg PUBLIC "-//W3C//DTD SVG 1.1//EN" "http://www.w3.org/Graphics/SVG/1.1/DTD/svg11.dtd">
<svg version="1.1" id="Layer_1" xmlns="http://www.w3.org/2000/svg" xmlns:xlink="http://www.w3.org/1999/xlink" x="0px" y="0px"
	 width="256px" height="256px" viewBox="0 0 256 256" enable-background="new 0 0 256 256" xml:space="preserve">
<g>
	<g>
		<path fill="#2878C8" d="M251.926,141.047H141.043v-31.766c0-7.777,6.305-14.082,14.078-14.082h82.723
			c7.777,0,14.082,6.305,14.082,14.082V141.047z"/>
	</g>
	<g>
		<path fill="#374150" d="M225.25,252.16h-57.547c-11.43,0-20.719-9.309-20.719-20.734v-81.844h13.293v81.844
			c0,4.105,3.332,7.441,7.426,7.441h57.547c4.109,0,7.441-3.336,7.441-7.441v-81.844h13.293v81.844
			C245.984,242.852,236.68,252.16,225.25,252.16z"/>
	</g>
	<g>
		<path fill="#2878C8" d="M168.246,149.582v14.988h28.238v8.883h-28.238v12.699h28.238v8.883h-28.238v12.715h28.238v8.883h-28.238
			v5.699c0,5.137,4.156,9.273,9.277,9.273h37.922c5.121,0,9.273-4.137,9.273-9.273v-72.75H168.246z"/>
	</g>
	<g>
		<path fill="#2878C8" d="M123.719,3.84H44.316c-7.793,0-14.098,6.305-14.098,14.078v35.086h107.582V17.918
			C137.801,10.145,131.492,3.84,123.719,3.84z M59.23,40.941H48.438V16.586H59.23V40.941z M89.406,40.941H78.613V16.586h10.793
			V40.941z M119.582,40.941h-10.793V16.586h10.793V40.941z"/>
	</g>
	<g>
		<path fill="#374150" d="M122.93,94.426c0.063,0.016,4.289,1.5,8.898,4.184c0.969-4.605,3.895-8.457,7.836-10.773
			c-2.91-1.773-5.715-3.184-7.926-4.168V61.555h-13.277l0.016,31.328L122.93,94.426z"/>
		<path fill="#374150" d="M131.48,238.867H30.66c-7.336,0-13.293-5.957-13.293-13.293v-8.41h114.098v-71.371v-10.367v-14.414H18.73
			c2.184-9.426,6.656-13.672,10.73-17.508c6.094-5.742,15.52-9.047,15.613-9.078l4.484-1.543V61.555H36.281v22.113
			c-4.273,1.906-10.789,5.316-15.93,10.168c-8.227,7.746-16.277,17.277-16.277,40.816v90.922c0,14.656,11.93,26.586,26.586,26.586
			h104.457C132.844,248.234,131.523,243.699,131.48,238.867z M47.875,155.977H70.43v-22.16h27.16v22.16h22.551v26.129H97.59v22.25
			H70.43v-22.25H47.875V155.977z"/>
	</g>
</g>
</svg>
