<?xml version="1.0" encoding="utf-8"?>
<!-- Generator: Adobe Illustrator 16.0.0, SVG Export Plug-In . SVG Version: 6.00 Build 0)  -->
<!DOCTYPE svg PUBLIC "-//W3C//DTD SVG 1.1//EN" "http://www.w3.org/Graphics/SVG/1.1/DTD/svg11.dtd">
<svg version="1.1" id="Layer_1" xmlns="http://www.w3.org/2000/svg" xmlns:xlink="http://www.w3.org/1999/xlink" x="0px" y="0px"
	 width="256px" height="256px" viewBox="0 0 256 256" enable-background="new 0 0 256 256" xml:space="preserve">
<g>
	<polygon fill="#2878C8" points="170.939,95.664 144.15,95.664 144.15,122.152 111.85,122.152 111.85,95.664 85.061,95.664 
		85.061,64.625 111.85,64.625 111.85,38.301 144.15,38.301 144.15,64.625 170.939,64.625 	"/>
	<g>
		<path fill="#2878C8" d="M170.857,144.992c0,0.977-0.789,1.773-1.762,1.773H86.83c-0.98,0-1.77-0.797-1.77-1.773v-7.063
			c0-0.965,0.789-1.758,1.77-1.758h82.266c0.973,0,1.762,0.793,1.762,1.758V144.992z"/>
		<path fill="#2878C8" d="M170.857,167.582c0,0.984-0.789,1.766-1.762,1.766H86.83c-0.98,0-1.77-0.781-1.77-1.766v-7.063
			c0-0.984,0.789-1.758,1.77-1.758h82.266c0.973,0,1.762,0.773,1.762,1.758V167.582z"/>
		<path fill="#2878C8" d="M170.857,190.18c0,0.969-0.789,1.75-1.762,1.75H86.83c-0.98,0-1.77-0.781-1.77-1.75v-7.07
			c0-0.969,0.789-1.773,1.77-1.773h82.266c0.973,0,1.762,0.805,1.762,1.773V190.18z"/>
	</g>
	<path fill="#374150" d="M198.939,3.84H57.061c-6.527,0-11.82,5.297-11.82,11.824v224.668c0,6.539,5.293,11.828,11.82,11.828
		h141.879c6.527,0,11.82-5.289,11.82-11.828V15.664C210.76,9.137,205.467,3.84,198.939,3.84z M128.002,244.445
		c-8.305,0-15.02-6.727-15.02-15.035c0-8.289,6.715-15.02,15.02-15.02c8.301,0,15.02,6.73,15.02,15.02
		C143.021,237.719,136.303,244.445,128.002,244.445z M192.291,207.078H63.713V21.605h128.578V207.078z"/>
</g>
</svg>
