<?xml version="1.0" encoding="utf-8"?>
<!-- Generator: Adobe Illustrator 16.0.0, SVG Export Plug-In . SVG Version: 6.00 Build 0)  -->
<!DOCTYPE svg PUBLIC "-//W3C//DTD SVG 1.1//EN" "http://www.w3.org/Graphics/SVG/1.1/DTD/svg11.dtd">
<svg version="1.1" id="Layer_1" xmlns="http://www.w3.org/2000/svg" xmlns:xlink="http://www.w3.org/1999/xlink" x="0px" y="0px"
	 width="256px" height="256px" viewBox="0 0 256 256" enable-background="new 0 0 256 256" xml:space="preserve">
<g>
	<path fill="#374150" d="M156.219,32.059c0,15.582-12.641,28.223-28.219,28.223c-15.582,0-28.223-12.641-28.223-28.223
		C99.777,16.48,112.418,3.84,128,3.84C143.578,3.84,156.219,16.48,156.219,32.059z"/>
	<path fill="#2878C8" d="M78.984,85.227c0,7.809-6.32,14.113-14.109,14.113c-7.809,0-14.113-6.305-14.113-14.113
		c0-7.789,6.305-14.109,14.113-14.109C72.664,71.117,78.984,77.438,78.984,85.227z"/>
	<path fill="#2878C8" d="M175.938,133.699c0,7.805-6.32,14.109-14.109,14.109s-14.109-6.305-14.109-14.109
		c0-7.793,6.32-14.113,14.109-14.113S175.938,125.906,175.938,133.699z"/>
	<g>
		<path fill="#374150" d="M45.488,85.227c0-3.922,1.199-7.563,3.199-10.609l-16.156,1.82c-6.82,0.773-11.719,6.926-10.945,13.746
			c0.773,6.805,6.914,11.703,13.734,10.93l16.262-1.836C47.852,95.746,45.488,90.777,45.488,85.227z"/>
		<path fill="#374150" d="M223.469,76.438l-67.188-7.594c-10.336-1.227-16.293,3.73-28.281,3.73c-12.004,0-17.945-4.957-28.281-3.73
			L78.258,71.27c3.68,3.531,5.984,8.473,5.984,13.957c0,3.973-1.195,7.656-3.258,10.73l8.883-1l3.074,49.699
			c0,1.91,0.41,18.793,0.41,20.734v15.277c2.41-1.078,5.047-1.684,7.852-1.684c10.699,0,19.371,8.668,19.371,19.371
			c0,10.699-8.672,19.383-19.371,19.383c-2.805,0-5.441-0.621-7.852-1.68v21.309c0,8.168,6.625,14.793,14.793,14.793
			s14.793-6.625,14.793-14.793v-63.93H128h5.063v63.93c0,8.168,6.621,14.793,14.793,14.793c8.168,0,14.777-6.625,14.777-14.793
			v-71.977c0-1.105,0.133-7.109,0.258-12.414c-0.367,0.016-0.699,0.105-1.063,0.105c-10.699,0-19.371-8.684-19.371-19.383
			c0-10.703,8.672-19.371,19.371-19.371c1.063,0,2.074,0.152,3.09,0.305l1.215-19.676l54.547,6.156
			c6.82,0.773,12.957-4.125,13.73-10.93C235.184,83.363,230.273,77.211,223.469,76.438z"/>
	</g>
	<path fill="#2878C8" d="M115.313,198.355c0,7.789-6.32,14.109-14.109,14.109s-14.109-6.32-14.109-14.109
		c0-7.805,6.32-14.113,14.109-14.113S115.313,190.551,115.313,198.355z"/>
	<path fill="#2878C8" d="M63.48,62.555c7.289-7.262,15.715-13.367,25.098-17.883c-1.273-4.004-2.152-8.188-2.152-12.613
		c0-1.316,0.273-2.59,0.395-3.895c-18.582,7.82-34.465,20.734-45.984,36.996L63.48,62.555z"/>
	<path fill="#2878C8" d="M192.52,62.555l22.645,2.605c-11.52-16.262-27.402-29.176-45.984-36.996
		c0.121,1.305,0.395,2.578,0.395,3.895c0,4.426-0.879,8.609-2.168,12.613C176.785,49.188,185.23,55.293,192.52,62.555z"/>
	<path fill="#2878C8" d="M81.426,204.934c-26.707-15.93-44.727-44.941-44.727-78.223c0-5.289,0.621-10.414,1.531-15.461
		l-16.145,1.852c-0.621,4.469-1.059,8.973-1.059,13.609c0,42.285,24.703,78.781,60.398,96.137V204.934z"/>
	<path fill="#2878C8" d="M233.91,113.102l-16.141-1.852c0.895,5.047,1.516,10.172,1.516,15.461
		c0,33.297-18.004,62.352-44.711,78.281v17.855c35.68-17.371,60.398-53.867,60.398-96.137
		C234.973,122.074,234.516,117.57,233.91,113.102z"/>
</g>
</svg>
