<?xml version="1.0" encoding="utf-8"?>
<!-- Generator: Adobe Illustrator 16.0.0, SVG Export Plug-In . SVG Version: 6.00 Build 0)  -->
<!DOCTYPE svg PUBLIC "-//W3C//DTD SVG 1.1//EN" "http://www.w3.org/Graphics/SVG/1.1/DTD/svg11.dtd">
<svg version="1.1" id="Layer_1" xmlns="http://www.w3.org/2000/svg" xmlns:xlink="http://www.w3.org/1999/xlink" x="0px" y="0px"
	 width="256px" height="256px" viewBox="0 0 256 256" enable-background="new 0 0 256 256" xml:space="preserve">
<g>
	<path fill="#374150" d="M205.032,35.258h-32.859v-6.32c0-4.91-3.984-8.883-8.895-8.883h-7.703C150.18,10.387,139.86,3.84,128,3.84
		s-22.184,6.547-27.578,16.215h-7.699c-4.91,0-8.895,3.973-8.895,8.883v6.32H50.969c-8.941,0-16.219,7.273-16.219,16.215v184.469
		c0,8.941,7.277,16.219,16.219,16.219h154.063c8.941,0,16.219-7.277,16.219-16.219V51.473
		C221.25,42.531,213.973,35.258,205.032,35.258z M50.969,235.941V51.473h32.859v8.852c0,4.91,3.984,8.883,8.895,8.883h70.555
		c4.91,0,8.895-3.973,8.895-8.883v-8.852h32.859l0.008,184.469H50.969z"/>
	<g>
		<g>
			<path fill="#2878C8" d="M184.086,168.297c0,0.957-0.773,1.73-1.73,1.73H73.641c-0.945,0-1.727-0.773-1.727-1.73v-6.91
				c0-0.953,0.781-1.727,1.727-1.727h108.715c0.957,0,1.73,0.773,1.73,1.727V168.297z"/>
		</g>
		<g>
			<path fill="#2878C8" d="M184.086,191.609c0,0.953-0.773,1.727-1.73,1.727H73.641c-0.945,0-1.727-0.773-1.727-1.727v-6.91
				c0-0.957,0.781-1.73,1.727-1.73h108.715c0.957,0,1.73,0.773,1.73,1.73V191.609z"/>
		</g>
		<g>
			<path fill="#2878C8" d="M184.086,214.918c0,0.957-0.773,1.73-1.73,1.73H73.641c-0.945,0-1.727-0.773-1.727-1.73v-6.91
				c0-0.953,0.781-1.727,1.727-1.727h108.715c0.957,0,1.73,0.773,1.73,1.727V214.918z"/>
		</g>
	</g>
	<path fill="#2878C8" d="M163.805,80.621H92.192c-5.91,0-10.723,4.82-10.723,10.715V132.5c0,5.91,4.813,10.73,10.723,10.73h71.613
		c5.914,0,10.723-4.82,10.723-10.73V91.336C174.528,85.441,169.719,80.621,163.805,80.621z M164.793,119.223h-8.172l-6.16,8.898
		c-0.949,1.438-2.387,2.273-3.918,2.273c-0.168,0-0.332-0.016-0.508-0.031c-1.711-0.211-3.113-1.41-3.766-3.23l-8.156-22.855
		l-9.973,17.672c-0.969,1.73-2.668,2.594-4.332,2.531c-1.746-0.148-3.191-1.348-3.852-3.211l-4.387-12.172l-4.215,6.641
		c-1.301,2.059-3.902,3.484-6.344,3.484H90.618v-7.031h10.395l7.293-11.066c1.043-1.652,2.684-2.547,4.402-2.316
		c1.719,0.18,3.137,1.395,3.797,3.227l4.211,11.688l9.98-17.703c0.965-1.715,2.617-2.652,4.328-2.531
		c1.742,0.152,3.184,1.348,3.867,3.211l8.363,23.492l3.031-4.574c1.32-2.016,3.926-3.426,6.336-3.426h8.172V119.223z"/>
</g>
</svg>
