<?xml version="1.0" encoding="utf-8"?>
<!-- Generator: Adobe Illustrator 16.0.0, SVG Export Plug-In . SVG Version: 6.00 Build 0)  -->
<!DOCTYPE svg PUBLIC "-//W3C//DTD SVG 1.1//EN" "http://www.w3.org/Graphics/SVG/1.1/DTD/svg11.dtd">
<svg version="1.1" id="Layer_1" xmlns="http://www.w3.org/2000/svg" xmlns:xlink="http://www.w3.org/1999/xlink" x="0px" y="0px"
	 width="256px" height="256px" viewBox="0 0 256 256" enable-background="new 0 0 256 256" xml:space="preserve">
<g>
	<path fill="#2878C8" d="M237.444,18.59h-68.035c-8.125,0-14.699,6.586-14.699,14.711v68.027c0,8.125,6.574,14.711,14.699,14.711
		h68.035c8.125,0,14.719-6.586,14.719-14.711V33.301C252.163,25.176,245.569,18.59,237.444,18.59z M235.417,78.809h-19.961v19.715
		h-24.039V78.809h-19.961V55.699h19.961V36.098h24.039v19.602h19.961V78.809z"/>
	<path fill="#374150" d="M54.085,128.777l0.047,0.309c0.41,3.699,4.766,36.227,34.402,36.227c29.707,0,34.012-32.535,34.406-36.18
		l0.047-0.355c3-0.434,5.699-2.176,7.621-5.023c3.152-4.633,3.641-11.125,1.168-15.777c-0.684-1.289-1.621-2.32-2.652-3.238
		c1.211-5.797,1.336-15.559,0.305-24.637c-1.621-6.879-7.52-8.594-7.52-8.594s-11.656-18.082-33.375-18.082
		c-21.727,0-33.371,18.082-33.371,18.082s-5.891,1.715-7.512,8.594c-1.031,9.078-0.918,18.84,0.297,24.645
		c-1.031,0.91-1.965,1.941-2.645,3.23c-2.465,4.652-1.992,11.137,1.16,15.777C48.386,126.602,51.085,128.344,54.085,128.777z"/>
	<path fill="#374150" d="M170.546,200.816c-2.348-17.758-15.551-27.328-27.113-32.398c1.984,9.367,3.289,24.258-3.637,37.891
		c1.316,1.652,2.137,3.715,2.137,5.988c0,5.363-4.352,9.699-9.703,9.699c-5.363,0-9.699-4.336-9.699-9.699
		c0-5.352,4.336-9.695,9.699-9.695c0.789,0,1.547,0.113,2.273,0.297c6.715-13.945,3.836-29.707,1.805-37.188
		c-6.395-2.043-11.152-2.664-11.152-2.664L99.237,201.23l0,0l-4.289-9.805c-0.805-1.895,0.258-2.578,0.816-3.457l6.836-8.789
		c0.547-0.871,0.289-2.047-0.559-2.621l-11.945-7.973c-0.426-0.289-1-0.434-1.563-0.434c-0.559,0-1.121,0.145-1.559,0.434
		l-11.93,7.973c-0.863,0.574-1.105,1.75-0.559,2.621l6.836,8.789c0.543,0.879,1.605,1.563,0.816,3.457l-4.305,9.797l-25.91-38.176
		c0,0-4.75,0.621-11.145,2.664c-1.109,4.086-2.473,10.605-2.41,17.969c9.941-0.137,16.563,9.867,19.656,19.129
		c2.789,8.305,5.031,21.758-6.387,24.551c-3.918,0.957-5.586-5.074-1.668-6.031c6.699-1.637,3.855-10.402,2.582-15.027
		c-2.316-8.375-6.684-17.598-16.922-15.785c-14.746,2.621-10.039,36.398,0.313,34.086c3.926-0.863,5.598,5.16,1.668,6.039
		c-10.688,2.375-14.793-8.32-16.43-16.738c-2.258-11.625-1.352-23.813,10.805-28.844c0.063-0.027,0.121-0.043,0.184-0.059
		c-0.199-6.352,0.605-12.102,1.543-16.621c-11.578,5.07-24.816,14.648-27.172,32.438c-3.223,24.188-2.668,36.594-2.668,36.594h84.66
		h84.68C173.214,237.41,173.761,225.004,170.546,200.816z"/>
</g>
</svg>
