<?xml version="1.0" encoding="utf-8"?>
<!-- Generator: Adobe Illustrator 16.0.0, SVG Export Plug-In . SVG Version: 6.00 Build 0)  -->
<!DOCTYPE svg PUBLIC "-//W3C//DTD SVG 1.1//EN" "http://www.w3.org/Graphics/SVG/1.1/DTD/svg11.dtd">
<svg version="1.1" id="Layer_1" xmlns="http://www.w3.org/2000/svg" xmlns:xlink="http://www.w3.org/1999/xlink" x="0px" y="0px"
	 width="256px" height="256px" viewBox="0 0 256 256" enable-background="new 0 0 256 256" xml:space="preserve">
<g>
	<path fill="#374150" d="M155.129,237.927c-6.395,3.848-12.957,5.563-18.914,6.184c-12.777,0.934-23.035-2.121-30.797-5.449
		c-1.047-0.461-2.047-0.934-3.016-1.402c-13.688,5.609-14.762,14.898-14.762,14.898h80.738
		C168.379,252.158,167.363,243.564,155.129,237.927z"/>
	<path fill="#2878C8" d="M97.293,224.833c-0.332,0.648,0.773,1.953,3.215,3.848c2.453,1.863,6.336,4.16,11.777,6.359
		c5.426,2.121,12.594,4.07,21.535,3.469c4.441-0.422,9.367-1.613,14.125-4.441c4.652-2.871,9.215-7.516,11.262-13.934
		c2.258-6.277,1.395-14.227-2.637-20.426c-2-3.051-4.605-5.727-7.578-7.734c-0.727-0.5-1.484-0.965-2.242-1.402l-0.848,24.34h-0.109
		c-0.043,0.426-0.043,0.84-0.137,1.266c-0.512,2.789-2.379,5.352-4.773,7.297c-2.484,1.91-5.563,3.176-8.684,3.91
		c-6.367,1.32-12.672,0.863-17.793-0.008C104.098,225.544,98.008,223.345,97.293,224.833z"/>
	<path fill="#2878C8" d="M175.484,110.986l-0.652,1.297c-0.848,1.758-2.09,3.5-3.469,5.211
		c-5.668,6.867-14.867,12.043-24.871,13.914c-5.031,0.941-10.293,1.289-15.625,0.715c-1.336-0.063-2.652-0.395-4.004-0.563
		l-4.848-0.773c-3.852-0.688-7.914-0.801-11.977-0.652c-8.152,0.563-16.641,3.137-23.656,8.52
		c-6.941,5.32-12.445,13.465-13.477,22.879c-1.227,9.344,2.488,18.996,8.293,24.992c5.715,6.281,12.641,9.738,19.219,12.012
		c3.105,1.043,6.184,1.832,9.215,2.438l-0.668-19.285c-0.684-0.242-1.379-0.469-2.047-0.734c-4.516-1.82-8.547-4.379-10.91-7.41
		c-2.52-2.988-3.23-6.176-2.73-9.277c0.469-3.137,2.668-6.25,5.836-8.488c3.199-2.242,7.441-3.453,12.004-3.605
		c2.32,0.043,4.668,0.129,7.094,0.68l4.578,0.879c1.816,0.32,3.59,0.766,5.453,0.941c7.32,1.016,14.898,0.848,22.313-0.332
		c14.805-2.41,29.008-9.457,39.176-20.992c2.52-2.926,4.836-6.047,6.715-9.602l1.379-2.676c0.441-0.91,0.789-1.91,1.168-2.863
		c0.336-0.91,0.805-2.047,0.984-2.773l0.668-2.32c0.895-3.09,1.758-6.16,2.363-9.313c0.32-1.563,0.668-3.102,0.941-4.66
		c0.227-1.586,0.453-3.152,0.668-4.715c0.016-0.074,0.016-0.152,0.027-0.227c-6.484,6.258-15.793,12.336-29.066,16.527
		C175.531,110.81,175.516,110.904,175.484,110.986z"/>
	<path fill="#374150" d="M132.652,221.177c2.262-0.621,4.473-1.527,6.457-2.742l1.957-56.258c-4.305,0.164-8.609,0.016-12.824-0.57
		c-1.863-0.172-3.637-0.629-5.453-0.93l-4.578-0.887c-1.137-0.258-2.258-0.41-3.367-0.508l2.184,62.777
		C121.727,222.521,127.199,222.513,132.652,221.177z"/>
	<path fill="#374150" d="M113.57,123.087c2.883,0.023,5.715,0.211,8.445,0.707l4.848,0.777c1.352,0.168,2.668,0.5,4.004,0.555
		c3.895,0.418,7.742,0.34,11.5-0.09l0.531-15.188c70.539-5.555,74.797-50.313,74.797-50.313H38.305c0,0,4.277,44.758,74.813,50.313
		L113.57,123.087z"/>
	<path fill="#2878C8" d="M195.492,41.962c-1.457-2.355-2.895-4.66-4.441-6.805c-1.652-2.039-3.152-4.16-4.895-5.949
		c-6.762-7.336-13.977-12.488-20.309-15.875c-3.168-1.797-6.414-3.039-9.125-4.297c-2.789-1.105-5.395-1.766-7.535-2.453
		c-2.137-0.746-3.984-0.934-5.379-1.23c-1.395-0.25-2.363-0.422-2.863-0.516c-4.109-0.742-10.715-1.309-18.172-0.801
		c-7.398,0.711-15.492,2.711-22.355,5.902C86.82,16.115,78.41,26.466,82.797,32.892c-1.219,0.547-2.563,1.184-3.992,1.789
		c-3.684,1.605-6.852,2.441-7.746,2.863c-0.895,0.441-3.848,1.66-2.531,4.488c0.926,1.977,3.473,1.637,4.367,1.492
		c1.879-0.297,5.016-1.879,8.469-4.652c1.48-1.16,2.746-2.434,3.73-3.602c5.359,3.57,14.277,0.828,23.977-1.332
		c5.504-1.305,11.172-2.379,16.156-2.941c4.941-0.316,9.23-0.332,11.867,0.098c1.273,0.344,7.426,0.645,16.141,5.305
		c4.535,2.313,9.34,5.77,13.793,10.438c1.668,1.727,3.199,3.734,4.641,5.879h28.809C199.055,48.927,197.309,45.337,195.492,41.962z
		 M92.109,24.111c3.82-11.785,17.93-9.48,17.93-9.48C105.492,24.669,92.109,24.111,92.109,24.111z"/>
</g>
</svg>
