<?xml version="1.0" encoding="utf-8"?>
<!-- Generator: Adobe Illustrator 16.0.0, SVG Export Plug-In . SVG Version: 6.00 Build 0)  -->
<!DOCTYPE svg PUBLIC "-//W3C//DTD SVG 1.1//EN" "http://www.w3.org/Graphics/SVG/1.1/DTD/svg11.dtd">
<svg version="1.1" id="Layer_1" xmlns="http://www.w3.org/2000/svg" xmlns:xlink="http://www.w3.org/1999/xlink" x="0px" y="0px"
	 width="256px" height="256px" viewBox="0 0 256 256" enable-background="new 0 0 256 256" xml:space="preserve">
<g>
	<path fill="#2878C8" d="M19.02,220.868c-11.156,14.52-18.148,25.848-13.945,30.055c4.215,4.207,15.543-2.781,30.063-13.938
		L19.02,220.868z"/>
	<path fill="#2878C8" d="M195.18,13.622l-11.383,11.367L231.012,72.2l11.375-11.375c13.031-13.035,13.031-34.168,0-47.203
		C229.352,0.579,208.215,0.579,195.18,13.622z"/>
	<g>
		<path fill="#2878C8" d="M165.73,101.337l-3.953,3.949l-5.23-5.234l3.949-3.949l-2.992-2.992l-4.109,4.113
			c-1.563,1.563-1.563,4.102,0,5.66l5.555,5.563c1.57,1.563,4.102,1.555,5.66-0.008l4.117-4.105L165.73,101.337z"/>
		<path fill="#2878C8" d="M115.961,130.544c-2.078-2.082-5.473-2.082-7.551,0l-7.457,7.457l2.988,2.992l7.457-7.453
			c0.438-0.434,1.137-0.441,1.574,0l3.25,3.25l-7.523,7.523l2.984,2.996l7.535-7.527l3.25,3.25c0.434,0.434,0.434,1.137-0.008,1.57
			l-7.457,7.457l3,2.992l7.457-7.457c2.078-2.082,2.078-5.469,0-7.555L115.961,130.544z"/>
		<path fill="#2878C8" d="M146.637,99.868c-2.078-2.082-5.473-2.082-7.551,0l-4.469,4.465c-2.078,2.082-2.078,5.469,0,7.555
			l9.504,9.496c2.074,2.082,5.469,2.082,7.547,0l4.469-4.465c2.078-2.082,2.078-5.473,0-7.555L146.637,99.868z M153.145,113.927
			l-4.465,4.461c-0.438,0.434-1.137,0.441-1.574,0l-9.488-9.492c-0.438-0.441-0.438-1.137,0-1.57l4.465-4.465
			c0.43-0.438,1.129-0.438,1.566,0l9.496,9.496C153.578,112.798,153.578,113.493,153.145,113.927z"/>
		<path fill="#2878C8" d="M142.148,124.321c-0.91,0.91-0.91,2.391,0,3.289c0.91,0.91,2.379,0.91,3.289,0
			c0.91-0.906,0.91-2.379,0-3.289C144.527,123.415,143.059,123.407,142.148,124.321z"/>
		<path fill="#2878C8" d="M138.07,124.966l-0.887-0.887l-0.355-0.348c-2.074-2.082-5.469-2.082-7.547,0l-0.668,0.66l-0.406,0.41
			l-4.168,4.176l-3.262-3.254c-0.438-0.43-0.43-1.129,0-1.566l7.457-7.457l-2.984-2.992l-7.465,7.461
			c-2.082,2.078-2.082,5.473,0,7.551l9.496,9.5c2.082,2.078,5.473,2.078,7.555,0l3.395-3.395l0.645-0.652l0.426-0.422
			c2.082-2.078,2.082-5.473,0-7.547L138.07,124.966z M136.313,130.759l-1.074,1.074l-3.395,3.395c-0.434,0.426-1.129,0.434-1.563,0
			l-3.258-3.258l4.184-4.176l1.059-1.07c0.441-0.43,1.137-0.438,1.578,0l2.469,2.465
			C136.746,129.626,136.738,130.325,136.313,130.759z"/>
	</g>
	<path fill="#374150" d="M177.008,31.794l-90.164,90.164c-22.289,22.281-16.109,32.578-30.645,52.063
		c-9.98,13.367-21.508,27.078-31.207,39.223l17.762,17.766c12.156-9.699,25.855-21.227,39.227-31.207
		c19.488-14.535,29.781-8.359,52.066-30.641l90.156-90.164L177.008,31.794z M173.016,109.802l-49.539,49.547
		c-2.5,2.484-6.578,2.484-9.063,0l-17.758-17.754c-2.492-2.496-2.492-6.57,0-9.063l49.547-49.547c2.492-2.492,6.57-2.488,9.055,0
		l17.758,17.754C175.508,103.231,175.508,107.31,173.016,109.802z M170.727,85.282c-6.457-6.457-6.449-16.914,0-23.371
		c6.449-6.449,16.906-6.457,23.363,0s6.457,16.914,0,23.371C187.641,91.731,177.176,91.731,170.727,85.282z"/>
	<path fill="#2878C8" d="M190.141,65.856c4.273,4.277,4.273,11.203,0,15.469c-4.266,4.273-11.191,4.273-15.465,0
		c-4.277-4.273-4.277-11.191,0-15.469C178.949,61.591,185.875,61.591,190.141,65.856z"/>
</g>
</svg>
