<?xml version="1.0" encoding="utf-8"?>
<!-- Generator: Adobe Illustrator 16.0.0, SVG Export Plug-In . SVG Version: 6.00 Build 0)  -->
<!DOCTYPE svg PUBLIC "-//W3C//DTD SVG 1.1//EN" "http://www.w3.org/Graphics/SVG/1.1/DTD/svg11.dtd">
<svg version="1.1" id="Layer_1" xmlns="http://www.w3.org/2000/svg" xmlns:xlink="http://www.w3.org/1999/xlink" x="0px" y="0px"
	 width="256px" height="256px" viewBox="0 0 256 256" enable-background="new 0 0 256 256" xml:space="preserve">
<g>
	<path fill="#374150" d="M239.064,145.86l-67.105-35.086c10.891-37.434-5.707-78.691-41.551-97.438
		C89.553-8.019,38.932,7.849,17.568,48.712c-21.341,40.859-5.484,91.465,35.375,112.836c35.844,18.734,79.207,8.805,103.723-21.508
		l67.105,35.09c8.086,4.211,18.051,1.09,22.277-6.988C250.264,160.048,247.143,150.091,239.064,145.86z M60.143,147.771
		c-33.262-17.398-46.18-58.609-28.789-91.859c17.391-33.254,58.594-46.184,91.855-28.785c33.254,17.387,46.172,58.582,28.789,91.848
		C134.607,152.243,93.404,165.157,60.143,147.771z"/>
	<path fill="#2878C8" d="M117.592,198.923c-1.039-0.922-2.203-1.637-3.332-2.41c-5.027-3.395-10.801-5.516-16.582-7.289
		c-0.855-0.273-1.719-0.547-2.57-0.805c-7.66-2.316-13.535-5.516-17.965-9.668c-7.859-1.242-15.645-3.563-23.199-6.941
		c2.82,7.895,7.336,15.066,14.469,21.355c6.34,5.605,14.594,8.121,22.484,10.504c21.164,6.395,28.84,19.488,29.469,40.844
		c0.297,10.188,16.137,10.215,15.832,0C135.658,226.524,131.432,211.153,117.592,198.923z"/>
	<path fill="#2878C8" d="M100.635,185.04c5.438,1.668,10.859,3.699,15.668,6.746c6.293-5.957,10.477-12.641,13.098-19.977
		c-7.555,3.379-15.34,5.699-23.199,6.941c-2.242,2.09-4.855,3.957-7.879,5.563C99.088,184.556,99.861,184.798,100.635,185.04z"/>
	<path fill="#2878C8" d="M65.752,198.923c-13.84,12.23-18.066,27.602-18.605,45.59c-0.305,10.215,15.535,10.188,15.832,0
		c0.535-18.352,6.34-30.57,21.375-37.707c-6.363-1.941-12.773-4.23-18.215-8.172C66.018,198.743,65.873,198.817,65.752,198.923z"/>
	<g>
		<path fill="#2878C8" d="M135.787,46.06c-4.523-4.836-9.875-9.035-16.066-12.277c-2.992-1.563-6.074-2.789-9.184-3.805
			c8.488,13.184,10.762,34.176,11.18,51.09H78.709c-3.516,0-6.371,2.852-6.371,6.383c0,3.516,2.855,6.363,6.371,6.363h43.008
			c-0.418,16.93-2.707,37.922-11.195,51.109c9.504-3.125,18.219-8.578,25.25-16.066c3.383-14.004,4.488-28.918,4.488-41.438
			C140.26,74.931,139.154,60.048,135.787,46.06z"/>
		<path fill="#2878C8" d="M104.643,109.638H62.615c-0.82-7.805-1.063-15.535-1.063-22.219c0-6.668,0.242-14.367,1.047-22.172h42.043
			c3.516,0,6.371-2.852,6.371-6.383c0-3.516-2.855-6.363-6.371-6.363H64.568c1.699-8.414,4.258-16.34,8.246-22.523
			c-9.504,3.105-18.219,8.578-25.25,16.066c-3.383,13.988-4.48,28.887-4.48,41.375c0,12.504,1.098,27.402,4.48,41.406
			c4.531,4.836,9.875,9.051,16.066,12.277c2.992,1.578,6.074,2.789,9.184,3.805c-3.98-6.184-6.547-14.109-8.246-22.508h40.074
			c3.516,0,6.371-2.863,6.371-6.379C111.014,112.501,108.158,109.638,104.643,109.638z"/>
	</g>
</g>
</svg>
