<?xml version="1.0" encoding="utf-8"?>
<!-- Generator: Adobe Illustrator 16.0.0, SVG Export Plug-In . SVG Version: 6.00 Build 0)  -->
<!DOCTYPE svg PUBLIC "-//W3C//DTD SVG 1.1//EN" "http://www.w3.org/Graphics/SVG/1.1/DTD/svg11.dtd">
<svg version="1.1" id="Layer_1" xmlns="http://www.w3.org/2000/svg" xmlns:xlink="http://www.w3.org/1999/xlink" x="0px" y="0px"
	 width="256px" height="256px" viewBox="0 0 256 256" enable-background="new 0 0 256 256" xml:space="preserve">
<g>
	<path fill="#374150" d="M251.096,81.684c5.004-9.109-9-17.125-14.035-7.977c-2.605,4.75-5.305,9.578-8.152,14.352l-27.176-22.383
		l-7.637,7.656l28.934,23.836c-4.262,6.188-9.02,11.945-14.52,16.891l-27.57-27.586l-7.609,7.609l26.539,26.555
		c-0.426,0.266-0.805,0.586-1.227,0.844c-6.715,3.984-13.93,5.867-21.418,6.477l-17.051-20.719l-7.652,7.648l10.578,12.828
		c-22.25-2.32-45.773-12.328-65.703-14.188c-47.27-4.445-71.25,22.156-92.494,60.82c-5.004,9.094,9.016,17.109,14.045,7.969
		c2.609-4.742,5.293-9.594,8.156-14.367l27.16,22.375l7.637-7.641L32.982,158.84c4.262-6.18,9.02-11.938,14.52-16.867l27.555,27.555
		l7.609-7.609l-26.539-26.539c0.426-0.258,0.82-0.586,1.242-0.844c6.715-3.977,13.93-5.852,21.418-6.461l17.035,20.688l7.637-7.641
		l-10.547-12.82c22.25,2.336,45.77,12.32,65.703,14.188C205.869,146.926,229.861,120.332,251.096,81.684z"/>
	<path fill="#2878C8" d="M115.115,108.902c5.973,1.438,12.094,3.125,18.309,4.773c-1.953-8.672-3.516-17.43-3.715-26.492
		l12.504,15.188l7.656-7.656l-18.277-22.172c1.605-4.742,4.09-9.047,7.211-12.992l23.113,23.117l7.609-7.609l-23.309-23.313
		c3.469-3.102,7.258-5.984,11.184-8.641l24.176,19.906l7.637-7.641L166.951,37.02c3.211-1.945,6.395-3.805,9.41-5.578
		c8.988-5.289,1-19.328-7.957-14.039c-33.012,19.43-57.457,39.664-54.563,81C114.084,101.949,114.553,105.434,115.115,108.902z"/>
	<path fill="#2878C8" d="M140.881,147.113c-5.988-1.445-12.125-3.125-18.34-4.789c1.957,8.68,3.547,17.43,3.746,26.508
		l-12.504-15.188l-7.656,7.641l18.277,22.172c-1.605,4.742-4.09,9.047-7.211,12.984L94.08,173.332l-7.609,7.609l23.309,23.313
		c-3.469,3.117-7.258,5.984-11.184,8.648L74.42,192.988l-7.637,7.656l22.262,18.336c-3.211,1.953-6.395,3.805-9.41,5.578
		c-8.988,5.289-1,19.328,7.973,14.039c32.996-19.438,57.457-39.664,54.563-81C141.912,154.066,141.443,150.582,140.881,147.113z"/>
</g>
</svg>
