<?xml version="1.0" encoding="utf-8"?>
<!-- Generator: Adobe Illustrator 16.0.0, SVG Export Plug-In . SVG Version: 6.00 Build 0)  -->
<!DOCTYPE svg PUBLIC "-//W3C//DTD SVG 1.1//EN" "http://www.w3.org/Graphics/SVG/1.1/DTD/svg11.dtd">
<svg version="1.1" id="Layer_1" xmlns="http://www.w3.org/2000/svg" xmlns:xlink="http://www.w3.org/1999/xlink" x="0px" y="0px"
	 width="256px" height="256px" viewBox="0 0 256 256" enable-background="new 0 0 256 256" xml:space="preserve">
<g>
	<g>
		<path fill="#374150" d="M135.486,216.494c0,4.156-3.354,7.5-7.486,7.5c-4.135,0-7.488-3.344-7.488-7.5
			c0-4.125,3.354-7.484,7.488-7.484C132.133,209.01,135.486,212.369,135.486,216.494z"/>
	</g>
	<g>
		<path fill="#2878C8" d="M57.232,248.4c-0.277,0-0.555-0.031-0.834-0.094c-2.096-0.453-3.418-2.516-2.959-4.617
			c0.758-3.445,1.412-6.961,1.977-10.508c0.338-2.109,2.324-3.516,4.441-3.211c2.117,0.336,3.559,2.32,3.221,4.438
			c-0.588,3.688-1.273,7.352-2.061,10.945C60.619,247.174,59.012,248.4,57.232,248.4z"/>
		<path fill="#2878C8" d="M60.986,224.213c-0.129,0-0.262,0-0.391-0.016c-2.133-0.211-3.686-2.125-3.475-4.25
			c0.451-4.5,0.781-8.984,1.012-13.367c0.113-2.133,1.887-3.844,4.082-3.664c2.141,0.117,3.781,1.938,3.672,4.078
			c-0.24,4.5-0.58,9.109-1.043,13.727C64.643,222.729,62.957,224.213,60.986,224.213z"/>
		<path fill="#2878C8" d="M62.457,197.096c-0.016,0-0.031,0-0.045,0c-2.143-0.031-3.857-1.789-3.836-3.922l0.031-4.852
			c0-2.984-0.039-5.867-0.1-8.594c-0.045-2.141,1.652-3.93,3.797-3.977c2.281,0.016,3.914,1.672,3.963,3.805
			c0.061,2.773,0.1,5.719,0.1,8.766l-0.031,4.938C66.314,195.385,64.578,197.096,62.457,197.096z"/>
		<path fill="#2878C8" d="M61.846,169.932c-2.041,0-3.754-1.586-3.867-3.648c-0.467-8.219-1.023-13.289-1.031-13.352
			c-0.234-2.125,1.299-4.047,3.43-4.273c2.145-0.227,4.051,1.305,4.285,3.422c0,0,0.58,5.242,1.061,13.766
			c0.121,2.133-1.516,3.969-3.652,4.086C61.994,169.932,61.918,169.932,61.846,169.932z"/>
	</g>
	<g>
		<g>
			<path fill="#2878C8" d="M121.828,65.916c-1.141,0-2.27-0.5-3.039-1.453c-2.697-3.398-5.707-6.414-8.943-8.969
				c-1.678-1.32-1.963-3.766-0.633-5.445c1.334-1.68,3.775-1.969,5.453-0.633c3.695,2.922,7.123,6.359,10.193,10.211
				c1.334,1.672,1.061,4.109-0.619,5.445C123.529,65.643,122.672,65.916,121.828,65.916z M100.691,49.291
				c-0.533,0-1.08-0.117-1.598-0.352c-3.768-1.711-7.82-2.984-12.053-3.797c-2.107-0.414-3.482-2.461-3.074-4.547
				c0.406-2.109,2.443-3.461,4.543-3.078c4.832,0.922,9.469,2.391,13.789,4.359c1.951,0.883,2.814,3.188,1.928,5.141
				C103.58,48.439,102.17,49.291,100.691,49.291z M60.809,45.682c-1.705,0-3.266-1.133-3.74-2.844
				c-0.568-2.078,0.637-4.203,2.697-4.773c0.244-0.063,5.988-1.641,14.434-1.773c2.246-0.172,3.906,1.664,3.943,3.805
				c0.035,2.148-1.67,3.906-3.814,3.953c-7.389,0.117-12.443,1.484-12.492,1.5C61.49,45.643,61.15,45.682,60.809,45.682z"/>
		</g>
		<g>
			<path fill="#2878C8" d="M134.172,65.916c-0.848,0-1.701-0.273-2.414-0.844c-1.678-1.336-1.951-3.773-0.617-5.445
				c3.07-3.852,6.498-7.289,10.193-10.211c1.674-1.352,4.115-1.063,5.451,0.633c1.33,1.68,1.047,4.125-0.633,5.445
				c-3.234,2.555-6.244,5.57-8.941,8.969C136.441,65.416,135.313,65.916,134.172,65.916z M155.309,49.291
				c-1.479,0-2.889-0.852-3.537-2.273c-0.885-1.953-0.021-4.258,1.93-5.141c4.32-1.969,8.957-3.438,13.789-4.359
				c2.076-0.414,4.141,0.969,4.543,3.078c0.408,2.086-0.967,4.133-3.074,4.547c-4.232,0.813-8.285,2.086-12.053,3.797
				C156.387,49.174,155.842,49.291,155.309,49.291z M195.191,45.682c-0.342,0-0.682-0.039-1.027-0.133
				c-0.049-0.016-5.104-1.383-12.492-1.5c-2.145-0.047-3.85-1.805-3.816-3.953c0.039-2.125,1.934-3.914,3.945-3.805
				c8.445,0.133,14.189,1.711,14.432,1.773c2.063,0.57,3.268,2.695,2.699,4.773C198.457,44.549,196.896,45.682,195.191,45.682z"/>
		</g>
	</g>
	<g>
		<path fill="#374150" d="M60.773,108.783c0,4.133,3.354,7.484,7.492,7.484c4.133,0,7.486-3.352,7.486-7.484
			c0-4.125-3.354-7.508-7.486-7.508C64.127,101.275,60.773,104.658,60.773,108.783z"/>
		<path fill="#374150" d="M115.201,117.463c-4.711-3.578-8.447,0.727-10.439,2.625c-11.402,10.789-25.617,14.5-39.281,9.93
			C52.666,125.713,44.27,115.01,44.1,102.76c-0.301-21.273,12.727-32.281,19.576-36.586c2.229-1.406,7.189-4.789,3.908-10.383
			c-2.684-4.563-6.949-3.164-9.439-1.711c-1.5,0.898-3.297,2.047-5.225,3.484c-2.266-20.016-6.555-37.086-9.4-46.781
			c-1.508-5.141-3.406-8.094-8.674-6.523c-5.268,1.594-5.453,5.383-3.975,10.477c3.184,10.961,8.355,31.828,9.885,55.18
			c-5.629,7.883-10.086,18.664-9.881,33.031c0.117,8.352,2.85,16.141,7.486,22.734c-4.145,12.93-15.967,63.188-4.311,120.008
			c0.504,2.453,1.803,7.773,8.615,6.18c5.65-1.336,4.764-6.773,4.271-9.211c-9.27-45.789-2.555-88.664,2.113-106.25
			c3.645,2.547,7.738,4.641,12.221,6.141c4.697,1.578,10.01,2.516,15.633,2.516c12.193,0,25.846-4.414,37.838-16.219
			C116.85,126.768,120.604,121.557,115.201,117.463z"/>
	</g>
	<g>
		<path fill="#2878C8" d="M194.982,245.354c-0.787-3.594-1.473-7.258-2.061-10.945c-0.338-2.117,1.102-4.102,3.221-4.438
			c2.117-0.305,4.104,1.102,4.441,3.211c0.564,3.547,1.219,7.063,1.977,10.508c0.459,2.102-0.863,4.164-2.959,4.617
			c-0.279,0.063-0.557,0.094-0.834,0.094C196.988,248.4,195.381,247.174,194.982,245.354z"/>
		<path fill="#2878C8" d="M191.156,220.721c-0.463-4.617-0.803-9.227-1.043-13.727c-0.109-2.141,1.531-3.961,3.672-4.078
			c2.193-0.18,3.967,1.531,4.082,3.664c0.23,4.383,0.561,8.867,1.012,13.367c0.211,2.125-1.342,4.039-3.475,4.25
			c-0.129,0.016-0.262,0.016-0.391,0.016C193.043,224.213,191.357,222.729,191.156,220.721z"/>
		<path fill="#2878C8" d="M189.662,193.26l-0.029-4.938c0-3.047,0.037-5.992,0.098-8.766c0.051-2.133,1.684-3.789,3.965-3.805
			c2.145,0.047,3.842,1.836,3.797,3.977c-0.063,2.727-0.1,5.609-0.1,8.594l0.031,4.852c0.021,2.133-1.695,3.891-3.836,3.922
			c-0.014,0-0.029,0-0.045,0C191.422,197.096,189.686,195.385,189.662,193.26z"/>
		<path fill="#2878C8" d="M193.93,169.932c-2.137-0.117-3.773-1.953-3.652-4.086c0.48-8.523,1.061-13.766,1.061-13.766
			c0.234-2.117,2.141-3.648,4.285-3.422c2.129,0.227,3.664,2.148,3.43,4.273c-0.008,0.063-0.564,5.133-1.031,13.352
			c-0.113,2.063-1.826,3.648-3.869,3.648C194.082,169.932,194.006,169.932,193.93,169.932z"/>
	</g>
	<path fill="#374150" d="M195.225,108.783c0,4.133-3.352,7.484-7.49,7.484c-4.135,0-7.486-3.352-7.486-7.484
		c0-4.125,3.352-7.508,7.486-7.508C191.873,101.275,195.225,104.658,195.225,108.783z"/>
	<path fill="#374150" d="M140.799,117.463c4.711-3.578,8.447,0.727,10.439,2.625c11.4,10.789,25.617,14.5,39.281,9.93
		c12.814-4.305,21.211-15.008,21.381-27.258c0.301-21.273-12.727-32.281-19.578-36.586c-2.227-1.406-7.188-4.789-3.906-10.383
		c2.684-4.563,6.949-3.164,9.439-1.711c1.5,0.898,3.297,2.047,5.225,3.484c2.266-20.016,6.555-37.086,9.4-46.781
		c1.508-5.141,3.406-8.094,8.674-6.523c5.266,1.594,5.451,5.383,3.975,10.477c-3.184,10.961-8.355,31.828-9.887,55.18
		c5.631,7.883,10.088,18.664,9.883,33.031c-0.117,8.352-2.85,16.141-7.486,22.734c4.145,12.93,15.967,63.188,4.311,120.008
		c-0.504,2.453-1.803,7.773-8.615,6.18c-5.65-1.336-4.764-6.773-4.271-9.211c9.27-45.789,2.555-88.664-2.113-106.25
		c-3.646,2.547-7.738,4.641-12.221,6.141c-4.697,1.578-10.01,2.516-15.633,2.516c-12.193,0-25.846-4.414-37.838-16.219
		C139.15,126.768,135.396,121.557,140.799,117.463z"/>
</g>
</svg>
