<?xml version="1.0" encoding="utf-8"?>
<!-- Generator: Adobe Illustrator 16.0.0, SVG Export Plug-In . SVG Version: 6.00 Build 0)  -->
<!DOCTYPE svg PUBLIC "-//W3C//DTD SVG 1.1//EN" "http://www.w3.org/Graphics/SVG/1.1/DTD/svg11.dtd">
<svg version="1.1" id="Layer_1" xmlns="http://www.w3.org/2000/svg" xmlns:xlink="http://www.w3.org/1999/xlink" x="0px" y="0px"
	 width="256px" height="256px" viewBox="0 0 256 256" enable-background="new 0 0 256 256" xml:space="preserve">
<g>
	<g>
		<g>
			<path fill="#374150" d="M64.511,51.471c10.625-11.535,9.895-29.512-1.645-40.121c-11.531-10.621-29.5-9.879-40.117,1.652
				c-10.629,11.535-9.891,29.48,1.652,40.121C35.933,63.748,53.886,63.002,64.511,51.471z"/>
		</g>
		<g>
			<path fill="#374150" d="M178.112,29.373c-12.031,7.379-27.871,14.973-41.902,16.035c-10.934,0.816-22.82-2.82-32.984-7.684
				c-7.102-4.367-16.5-3.246-22.348,3.121L55.022,68.9c-0.145,0.164-0.242,0.348-0.391,0.531c-1.063,1.074-6.973,9.227-6.695,31.008
				c0.355,27.676,12.891,52.336,33.711,73.691c10.781,11.078,26.945-6.594,16.223-17.613c-13.902-14.262-22.961-29.844-25.27-47.258
				L108.3,142.15c11.445,10.547,34.945,16.215,37.336,17.535c4.336,2.41,4.41,5.488,4.488,6.957v39.301
				c0.656,19.309,31.07,18.082,30.414-1.23v-21.867c-0.02-14.992,0.418-26.191-4.816-36.27c-4.316-8.32-13.375-13.734-22.84-17.75
				l0.121-0.137c6.84-1.074,13.852-2.18,15.555-2.395c3.215-0.395,6.43-0.559,9.66-0.68c2.016-0.078,4.555,1.422,8.129,4.699
				c7.195,6.637,21.195,19.566,29.324,27.066c14.188,13.098,34.461-8.926,20.277-22.02c-8.324-7.688-16.625-15.414-24.953-23.102
				c-6.02-5.563-11.852-12.367-19.84-14.91c-12.344-3.914-39.105-3.047-39.105-3.047l-21.285-25.191
				c1.063,0.074,2.129,0.211,3.191,0.258c18.879,0.82,40.965-9.941,56.828-19.672C203.972,41.604,191.257,21.311,178.112,29.373z"/>
		</g>
	</g>
	<g>
		<g>
			<g>
				<path fill="#2878C8" d="M97.765,194.166c0.977,0.484,29.48,14.73,31.652,11.035c2.172-3.684-24.105-21.707-24.996-22.328
					s-3.328-3.621-7.379,3.262C92.991,193.014,96.796,193.682,97.765,194.166z"/>
			</g>
		</g>
		<g>
			<g>
				<path fill="#2878C8" d="M117.257,180.299c0.707,0.922,21.227,28.16,24.805,25.809c3.582-2.348-13.277-32.008-13.844-33.008
					c-0.574-1.016-1.578-4.988-8.246-0.621C113.304,176.857,116.554,179.373,117.257,180.299z"/>
			</g>
		</g>
		<g>
			<g>
				<path fill="#2878C8" d="M100.729,219.779c1.156,0,35.086,0.32,35.398-3.957c0.316-4.273-33.281-8.957-34.43-9.121
					c-1.141-0.168-4.895-1.789-5.48,6.168C95.628,220.826,99.581,219.779,100.729,219.779z"/>
			</g>
		</g>
	</g>
	<g>
		<rect x="15.233" y="229.252" fill="#374150" width="225.531" height="22.902"/>
	</g>
</g>
</svg>
