<?xml version="1.0" encoding="utf-8"?>
<!-- Generator: Adobe Illustrator 16.0.0, SVG Export Plug-In . SVG Version: 6.00 Build 0)  -->
<!DOCTYPE svg PUBLIC "-//W3C//DTD SVG 1.1//EN" "http://www.w3.org/Graphics/SVG/1.1/DTD/svg11.dtd">
<svg version="1.1" id="Layer_1" xmlns="http://www.w3.org/2000/svg" xmlns:xlink="http://www.w3.org/1999/xlink" x="0px" y="0px"
	 width="256px" height="256px" viewBox="0 0 256 256" enable-background="new 0 0 256 256" xml:space="preserve">
<g>
	<path fill="#374150" d="M204.871,120.634c0.363-7.141-0.047-23.703-10.125-35.227c-5.379-6.148-12.625-9.82-21.445-11.125
		c9.02-5.133,18.43-2.5,18.43-2.5l1.715-3.602c4.668-9.836,2.059-19.219-0.223-23.219l-1.492-2.594l-2.941-0.547
		c-10.957-2-21.27-0.367-29.992,2.563c-5.273-5.852-16.75-14.688-36.332-11.609c-10.242,1.578-18.398,5.242-24.613,10.672
		c-0.18-1.578-0.316-3.219-0.316-4.852v-4.047l-3.652-1.758c-0.727-0.336-17.961-8.414-31.563,3.102l-2.797,2.383l0.613,3.625
		c2.191,12.938,7.039,49.406,3.789,65.93c-0.145,0.195-0.313,0.359-0.445,0.555c-8.77,12.672-16.281,35.633-2.215,73.07
		c1.016,2.711,2.207,5.188,3.363,7.703c-0.258,5.727-1.5,30.125-4.426,42.781l-0.758,3.305l2.289,2.5
		c3.32,3.641,10.73,8.703,19.855,8.703c3.488,0,7.23-0.742,11.094-2.594l2.402-1.148l0.887-2.5c0.105-0.289,1.637-4.656,2.988-9.883
		c27.492,18.914,60.031,21.836,77.055,21.836h0.012c9.906,0,16.977-0.891,20.313-1.422c11.508-1.867,20.762-13.188,26.051-31.938
		C231.355,187.001,227.074,142.485,204.871,120.634z M182.887,54.009c0.25,1.211,0.387,2.773,0.145,4.531
		c-8.668,0.117-21.051,4.047-29.25,18.078c-1.297,1.547-9.172,11.508-9.973,25.086c-2.531,0.016-5.055,0.344-7.527,0.984
		c-2.57-3.211-6.723-7.609-12.223-11.219c0.113-4.633,2.684-8.305,2.684-8.305l1.863-2.469l-0.766-3
		c-0.371-1.469-0.719-5.594,0.66-7.063c0.984-1.031,3.727-1.258,7.336-0.578l3.066,0.563l2.359-2.063
		C141.457,68.392,160.523,51.853,182.887,54.009z M124.438,45.501c10.426-1.633,17.277,1.398,21.461,4.531
		c-4.789,2.609-8.488,5.203-10.73,6.898c-6.926-0.648-12.352,0.922-16.074,4.898c-4.758,5.078-4.75,12.156-4.266,16.141
		c-1.047,1.859-2.273,4.68-3.016,8.063c-1.652-0.398-3.352-0.68-5.125-0.836c-0.637-0.063-1.332-0.086-2.059-0.086
		c-1.859,0-3.895,0.242-5.988,0.586c-1.613-8.148-2.191-19.031,3.199-27.555C106.105,51.415,113.707,47.157,124.438,45.501z
		 M84.855,43.243c0.539,6.125,1.949,11.578,2.844,14.586c-4.289,11.047-3.289,22.977-1.395,31.75
		c-2.82,1.273-5.652,2.773-8.406,4.641c0.137-18.57-2.977-41.109-4.402-50.32C77.527,42.001,81.918,42.501,84.855,43.243z
		 M84.758,233.126c-4.813,1.313-8.82-0.531-11.199-2.156c1.227-6.641,2.105-14.852,2.727-22.281
		c3.578,4.688,7.398,8.898,11.445,12.641C87.086,225.259,85.781,229.923,84.758,233.126z M209.98,215.313
		c-3.676,13.023-9.688,21.734-15.688,22.688c-2.957,0.484-9.262,1.289-18.266,1.289h-0.012
		c-23.828-0.016-81.543-6.094-102.684-62.367c-9.582-25.492-9.324-46.648,0.742-61.203c8.949-12.914,23.492-17.711,30.555-17.711
		c0.332,0,0.656,0.008,0.961,0.023c13.77,1.188,22.684,15.539,22.75,15.656c0,0,1.813,2.852,2.965,4.945
		c9.426-6.805,23.641-3.188,23.641-3.188s0.629-19.242,7.414-28.781c10.418-0.727,17.746,1.609,22.648,7.188
		c9.043,10.289,6.828,28.359,6.797,28.523l-0.453,3.453l2.652,2.289C213.539,144.899,218.035,186.743,209.98,215.313z"/>
	<g>
		<g>
			<path fill="#2878C8" d="M121.43,118.665c-21.621,5.742-38.641,21.672-45.258,43.102c-1.813,5.852,7.336,8.336,9.133,2.516
				c5.652-18.281,20.262-31.602,38.648-36.477C129.848,126.243,127.34,117.103,121.43,118.665L121.43,118.665z"/>
		</g>
	</g>
	<g>
		<g>
			<path fill="#2878C8" d="M164.918,121.524c5.004-0.297,10.004,0.945,14.004,3.992c4.883,3.68,9.598-4.547,4.793-8.203
				c-5.176-3.898-12.34-5.656-18.797-5.258C158.855,112.415,158.82,121.907,164.918,121.524L164.918,121.524z"/>
		</g>
	</g>
	<path fill="#2878C8" d="M57.219,58.845c-12.086,0.984-24.703,6.906-24.703,6.906s-3.23,11.805,6.441,17.672
		c0,0,10.109-2.133,20.566-2.664C59.047,72.798,58.145,65.165,57.219,58.845z"/>
	<path fill="#2878C8" d="M48.73,135.501c0.531-7.625,2.336-13.398,3.699-16.805c-6.859-0.945-16.719-1.688-25.402,2.102
		c0,0-4.313,5.125-0.75,13.656c0,0,6.434,0.547,14.359,1.93c-6.105,2.18-12.988,5.758-17.594,9.227c0,0-1.289,9.289,4.605,15.32
		c0,0,10.488-2.773,21.5-3.742C48.246,150.235,48.195,143.11,48.73,135.501z"/>
	<path fill="#2878C8" d="M230.84,95.243c-7.508-3.016-17.707-0.453-17.707-0.453c2.379-4.133,10.879-8.922,10.879-8.922
		c0.441-9.234-5.355-12.602-5.355-12.602c-7.957-0.5-16.77,2.352-22.613,5.008c4.629,5.344,13.93,18.367,13.801,36.375
		c10.41-2.641,21.883-3.43,21.883-3.43C235.215,103.54,230.84,95.243,230.84,95.243z"/>
	<path fill="#2878C8" d="M160.355,38.501c3.262-11.031,9.84-21.414,9.84-21.414c-4.078-6.734-12.762-7.758-12.762-7.758
		c-9.293,7.422-11.969,14.18-11.969,14.18c-0.492-6.102,1.137-13.883,1.137-13.883C139.738,4.431,134.09,7.11,134.09,7.11
		c-3.895,3.914-6.332,8.539-7.895,12.75c-2.637-9.016-6.973-15.594-6.973-15.594s-11.867-2.977-17.512,6.836
		c0,0,2.605,11.078,3.242,21.984C113.473,28.649,136.516,20.024,160.355,38.501z"/>
</g>
</svg>
