<?xml version="1.0" encoding="utf-8"?>
<!-- Generator: Adobe Illustrator 16.0.0, SVG Export Plug-In . SVG Version: 6.00 Build 0)  -->
<!DOCTYPE svg PUBLIC "-//W3C//DTD SVG 1.1//EN" "http://www.w3.org/Graphics/SVG/1.1/DTD/svg11.dtd">
<svg version="1.1" id="Layer_1" xmlns="http://www.w3.org/2000/svg" xmlns:xlink="http://www.w3.org/1999/xlink" x="0px" y="0px"
	 width="256px" height="256px" viewBox="0 0 256 256" enable-background="new 0 0 256 256" xml:space="preserve">
<g>
	<g>
		<path fill="#374150" d="M207.248,252.16H48.752c-24.766,0-44.91-20.145-44.91-44.91V48.754c0-24.766,20.145-44.914,44.91-44.914
			h158.496c24.766,0,44.91,20.148,44.91,44.914V207.25C252.158,232.016,232.014,252.16,207.248,252.16z M48.752,25.125
			c-13.031,0-23.629,10.598-23.629,23.629V207.25c0,13.031,10.598,23.629,23.629,23.629h158.496
			c13.031,0,23.629-10.598,23.629-23.629V48.754c0-13.031-10.598-23.629-23.629-23.629H48.752z"/>
	</g>
	<g>
		<g>
			<path fill="#2878C8" d="M58.068,56.223h47.988v50.656h43.887V56.223h47.988v143.559h-47.988v-51.48h-43.887v51.48H58.068V56.223z
				"/>
		</g>
	</g>
</g>
</svg>
