<?xml version="1.0" encoding="utf-8"?>
<!-- Generator: Adobe Illustrator 16.0.0, SVG Export Plug-In . SVG Version: 6.00 Build 0)  -->
<!DOCTYPE svg PUBLIC "-//W3C//DTD SVG 1.1//EN" "http://www.w3.org/Graphics/SVG/1.1/DTD/svg11.dtd">
<svg version="1.1" id="Layer_1" xmlns="http://www.w3.org/2000/svg" xmlns:xlink="http://www.w3.org/1999/xlink" x="0px" y="0px"
	 width="256px" height="256px" viewBox="0 0 256 256" enable-background="new 0 0 256 256" xml:space="preserve">
<g>
	<path fill="#374150" d="M127.998,86.434c21.379,0,36.293-23.871,36.293-45.301c0-21.605-15.262-37.293-36.293-37.293
		c-21.027,0-36.281,15.688-36.281,37.293C91.717,62.563,106.623,86.434,127.998,86.434z M118.369,16.664
		c-3.57,7.859-5.078,17.02,2.285,22.195c6.684,4.699,15.895,3.828,20.855-2.703c4.926-6.496-0.453-15.059-7.645-16.051
		c-5.836-0.813-8.359,8.113-2.465,8.934c3.031,0.422,3.563,2.41,0.273,3.434c-4.199,1.301-7.094-1.621-6.879-5.41
		c0.227-4.012,2.461-8.285,4.863-11.953c14.102,0.773,23.508,10.973,23.508,26.023c0,17.574-12.23,34.184-25.168,34.184
		c-12.934,0-25.164-16.609-25.164-34.184C102.834,29.137,108.803,20.203,118.369,16.664z"/>
	<path fill="#374150" d="M211.139,124.395c-8.398-17.172-43.879-39.793-58.289-39.793c-2.16,0-4.047,0.461-5.602,1.355
		c-9.094,5.246-16.059,7.102-19.25,7.102c-3.188,0-10.152-1.855-19.246-7.102c-1.555-0.895-3.441-1.355-5.609-1.355
		c-14.406,0-49.887,22.621-58.281,39.793c-3.805,7.766-1.305,12.867,0.512,15.207c3.215,4.141,7.051,6.23,11.398,6.23
		c6.152,0,11.746-4.258,18.234-9.184c3.332-2.555,6.957-5.305,10.973-7.746c0.074,4.352,0.5,10.23,1.441,17.301
		c-0.352,1.297-3.289,12.352-2.063,22.152c-8.383,6.691-19.531,17.375-20.387,27.742c-0.922,11.066,12.945,31.777,22.613,42.277
		c8.414,9.148,15.816,13.785,22.016,13.785h0.008c1.668,0,3.258-0.332,4.715-0.992c3.438-1.539,5.734-4.313,6.652-8.023
		c2.605-10.527-7.594-27.441-13.898-36.559c5.82-2.363,14.164-6.238,20.922-11.238c6.762,5,15.105,8.875,20.926,11.238
		c-6.305,9.117-16.508,26.031-13.898,36.559c0.914,3.711,3.211,6.484,6.652,8.023c1.453,0.66,3.047,0.992,4.715,0.992h0.008
		c6.195,0,13.602-4.637,22.012-13.785c9.672-10.5,23.539-31.211,22.613-42.277c-0.855-10.367-11.988-21.043-20.383-27.734
		c1.242-9.867-1.738-21-2.063-22.168c0.941-7.07,1.363-12.949,1.441-17.293c4.016,2.441,7.637,5.191,10.973,7.746
		c6.484,4.926,12.078,9.184,18.23,9.184c4.352,0,8.188-2.09,11.398-6.23C212.443,137.262,214.943,132.16,211.139,124.395z
		 M106.365,194.801c-5.457,2.41-14.477,8.27-14.477,8.27c1.441,2.41,4.758,7.98,5.715,9.336
		c7.496,10.738,13.762,23.281,12.578,28.063l-0.582,0.574c-1.66,0-6.434-2.152-13.832-10.184
		c-11.988-13.035-20.102-29.258-19.715-33.836c0.391-4.789,6.684-11.77,13.66-17.77c5.039,5.805,13.574,10.273,21.957,13.016
		C109.842,193.195,108.045,194.059,106.365,194.801z M179.947,197.023c0.387,4.578-7.73,20.801-19.719,33.836
		c-7.395,8.031-12.172,10.184-13.828,10.184l-0.586-0.574c-1.18-4.781,5.086-17.324,12.582-28.063
		c0.953-1.355,4.273-6.926,5.711-9.336c0,0-9.016-5.859-14.473-8.27c-1.684-0.742-3.48-1.605-5.305-2.531
		c8.383-2.742,16.914-7.211,21.961-13.016C173.264,185.262,179.553,192.234,179.947,197.023z M201.85,132.77
		c-1.516,1.938-2.352,1.938-2.625,1.938c-2.402,0-7.023-3.516-11.504-6.918c-5.676-4.32-12.746-9.699-21.52-13.27l-7.156-2.91
		c0,0-0.195,10.707-0.148,14.172c0.051,4.258-0.184,11.055-1.488,20.25h-29.41h-29.41c-1.305-9.195-1.539-15.992-1.484-20.25
		c0.047-3.465-0.152-14.172-0.152-14.172l-7.152,2.91c-8.777,3.57-15.848,8.949-21.523,13.27c-4.477,3.402-9.102,6.918-11.504,6.918
		c-0.273,0-1.105,0-2.621-1.938c-0.453-0.594,0.059-2.191,0.695-3.496c6.699-13.691,38.801-33.547,48.352-33.684
		c9.473,5.457,18.504,8.586,24.801,8.586s15.332-3.129,24.805-8.586c9.547,0.137,41.648,19.992,48.348,33.684
		C201.787,130.578,202.303,132.176,201.85,132.77z"/>
</g>
</svg>
