<?xml version="1.0" encoding="utf-8"?>
<!-- Generator: Adobe Illustrator 16.0.0, SVG Export Plug-In . SVG Version: 6.00 Build 0)  -->
<!DOCTYPE svg PUBLIC "-//W3C//DTD SVG 1.1//EN" "http://www.w3.org/Graphics/SVG/1.1/DTD/svg11.dtd">
<svg version="1.1" id="Layer_1" xmlns="http://www.w3.org/2000/svg" xmlns:xlink="http://www.w3.org/1999/xlink" x="0px" y="0px"
	 width="256px" height="256px" viewBox="0 0 256 256" enable-background="new 0 0 256 256" xml:space="preserve">
<g>
	<path fill="#2878C8" d="M46.577,222.962c-2.191,2.18-5.73,2.18-7.922,0l0,0c-2.18-2.191-2.18-5.73,0-7.914l25.254-25.242
		c2.18-2.191,5.727-2.191,7.91,0l0,0c2.184,2.184,2.184,5.723,0,7.91L46.577,222.962z"/>
	<path fill="#374150" d="M105.722,185.025l-29.387-29.387c-14.836,14.828-45.164,45.164-70.277,70.277
		c-12.125,12.117,27.688,40.325,66.352-1.371C87.144,208.669,94.886,196.552,105.722,185.025z M49.022,226.72
		c-3.902,3.902-10.223,3.895-14.125,0c-3.895-3.895-3.895-10.215,0-14.117l26.563-26.563c3.902-3.895,10.223-3.895,14.117,0
		c3.895,3.902,3.902,10.223,0,14.125L49.022,226.72z"/>
	<path fill="#2878C8" d="M241.53,20.095L241.53,20.095L241.53,20.095c-14.172-14.172-37.148-14.172-51.32,0L83.671,138.193
		c-2.82,3.105-2.699,8.078,0.273,11.047l28.441,28.434c2.961,2.98,7.934,3.102,11.039,0.281L241.53,71.412
		C255.702,57.244,255.702,34.267,241.53,20.095z M123.851,159.669l-21.895-21.895c-1.582-1.582-1.582-4.145,0-5.738
		c1.586-1.574,4.145-1.574,5.738,0l21.887,21.895c1.582,1.586,1.582,4.152,0,5.738C127.995,161.251,125.425,161.244,123.851,159.669
		z M137.339,146.173l-21.895-21.887c-1.582-1.586-1.582-4.152,0.008-5.738c1.578-1.582,4.148-1.582,5.73,0l21.887,21.895
		c1.582,1.582,1.59,4.145,0,5.73C141.491,147.755,138.917,147.755,137.339,146.173z M150.827,132.681l-21.883-21.891
		c-1.594-1.578-1.594-4.148,0-5.73c1.574-1.582,4.152-1.582,5.727,0l21.895,21.887c1.582,1.582,1.582,4.152,0,5.734
		C154.979,134.267,152.413,134.267,150.827,132.681z"/>
</g>
</svg>
