<?xml version="1.0" encoding="utf-8"?>
<!-- Generator: Adobe Illustrator 16.0.0, SVG Export Plug-In . SVG Version: 6.00 Build 0)  -->
<!DOCTYPE svg PUBLIC "-//W3C//DTD SVG 1.1//EN" "http://www.w3.org/Graphics/SVG/1.1/DTD/svg11.dtd">
<svg version="1.1" id="Layer_1" xmlns="http://www.w3.org/2000/svg" xmlns:xlink="http://www.w3.org/1999/xlink" x="0px" y="0px"
	 width="256px" height="256px" viewBox="0 0 256 256" enable-background="new 0 0 256 256" xml:space="preserve">
<g>
	<path fill="#2878C8" d="M97.137,79.406c17.543,0.918,36.313,3.957,54.008,7.789c0,0,26.281-21.324,30.844-24.598
		c3.926-2.789,4.008-6.48-2.008-6.48c-11.012,0-27.395,0-36.352,0c-14.293,0-19.523,2.168-24.117,4.957
		c-4.316,2.629-30.266,17.969-30.266,17.969C91.898,79.164,94.398,79.254,97.137,79.406z"/>
	<path fill="#374150" d="M238.582,84.742c-0.031,0-0.008,0-0.039,0c-0.074-0.016-0.121-0.016-0.16,0
		c-1.227-0.016,2.941-0.016-11.16-0.016c-5.27-0.016-8.664,4.961-10.574,9.266c-1.469,3.254-7,17.711-7,17.711
		S149.039,89.305,99.887,86.758c-22.84-1.199-42.219-1.805-58.102,0.781c-17.277,2.793-33.563,16.398-37.172,36.547
		c-4.758,26.613,11.816,42.27,68.059,42.27c0,0,33.352,23.297,38.883,27.16c5.551,3.867,12.641,6.367,31.027,6.367
		c11.52,0,32.602,0,46.758,0c7.758,0,7.637-4.742,2.605-8.336c-6.102-4.379-33.633-25.191-33.633-25.191c38.77,0,50.047,0,75.988,0
		c17.859,0,17.859-13.039,17.859-13.039v-37.93c0-0.016,0-0.547,0-1.969c0-2.367,0,1.621,0-8.035
		C252.16,85.605,240.398,84.758,238.582,84.742z M52.363,123.055c0,7.43-7.418,7.43-7.418,7.43H32.836c-12.109,0-16.02,0-16.02-6.23
		c0-20.566,16.793-21.887,20.703-21.887c3.121,0,0.977,0,8,0c5.473,0,6.844,2.152,6.844,7.281V123.055z M138.852,138.137h-15.973
		v15.785h-19.25v-15.785H87.656v-18.508h15.973v-15.691h19.25v15.691h15.973V138.137z"/>
</g>
</svg>
