<?xml version="1.0" encoding="utf-8"?>
<!-- Generator: Adobe Illustrator 16.0.0, SVG Export Plug-In . SVG Version: 6.00 Build 0)  -->
<!DOCTYPE svg PUBLIC "-//W3C//DTD SVG 1.1//EN" "http://www.w3.org/Graphics/SVG/1.1/DTD/svg11.dtd">
<svg version="1.1" id="Layer_1" xmlns="http://www.w3.org/2000/svg" xmlns:xlink="http://www.w3.org/1999/xlink" x="0px" y="0px"
	 width="256px" height="256px" viewBox="0 0 256 256" enable-background="new 0 0 256 256" xml:space="preserve">
<g>
	<g>
		<path fill="#374150" d="M31.429,236.346c1.395-24.664,10.688-37.047,11.117-37.602l4.32-5.641l5.313,4.695
			c9.793,8.703,21.105,3.266,21.582,3.031l4.305-2.117l3.41,3.406c2.328,2.398,57.98,58.008,124.602,5.273
			c24.324-19.242,31.113-44.477,32.523-62.273c2.531-31.797-9.441-62.898-22.566-77.203c-17.93-19.523-37.77-22.844-68.492-11.461
			c-12.633,4.664-21.324,1.578-26.387-1.867c-11.473-7.758-15.488-24.031-16.898-34.234c-0.605-4.383,0.16-8.492,5.605-8.758
			c5.457-0.289,7.125,4.328,7.578,7.406c1.273,8.547,4.406,20.102,11.141,24.648c3.691,2.5,8.383,2.648,14.355,0.406
			c24.008-8.898,55.121-15.266,82.844,14.914c15.063,16.398,28.832,51.625,26.008,87.195c-2.32,29.266-15.293,54.031-37.496,71.609
			c-66.461,52.578-124.844,8.945-139.031-3.406c-5.5,1.664-15.27,3.258-25.188-2c-2.113,4.859-4.715,12.945-5.41,24.281
			c-0.145,2.391-1.434,7.664-7.109,7.742C31.886,244.456,31.296,238.924,31.429,236.346z"/>
	</g>
	<g>
		<path fill="#374150" d="M3.847,237.026c0.422-16.258,4-53.758,27.023-69.656c21.02-14.539,40.285-7.414,50.203,0.289
			c6.055-2.398,17.598-5.398,31.504-1.242c8.016-6.852,31.434-32.328,5.941-80.211c-9.199-4.211-39.816-21.625-40.863-67.078
			c-0.051-2.547,1.063-7.719,6.891-7.531c5.828,0.18,6.273,5.633,6.359,8.133c1.469,43.352,34.086,54.914,34.441,55.031l2.426,0.82
			l1.242,2.242c37.641,67.992-11.074,101.188-11.574,101.508l-2.816,1.859l-3.152-1.195c-15.719-5.969-27.633,0.859-28.133,1.164
			l-4.5,2.641l-3.668-3.742c-1.605-1.641-16.527-15.813-36.777-1.82c-17.375,12-20.695,42.773-21.246,57.609
			c-0.191,4.938-2.238,8.352-7.066,8.563C5.257,244.604,3.733,241.362,3.847,237.026z"/>
	</g>
	<path fill="#2878C8" d="M223.886,119.127c-24.965,7.531-53.094,6.563-66.355,3.984c1.621,21.656-10.344,58.516-37.586,68.172
		c0,0-22.676-6.711-31.27,2.094c0,0,35.059,38.969,87.938,18.32C216.987,195.924,228.741,156.471,223.886,119.127z M126.655,207.838
		c-2.953,0-5.332-2.398-5.332-5.352c0-2.938,2.379-5.336,5.332-5.336c2.949,0,5.336,2.398,5.336,5.336
		C131.991,205.44,129.604,207.838,126.655,207.838z M159.472,204.104c-3.926,0-7.117-3.18-7.117-7.117
		c0-3.93,3.191-7.109,7.117-7.109s7.113,3.18,7.113,7.109C166.585,200.924,163.397,204.104,159.472,204.104z M167.729,167.901
		c-2.953,0-5.34-2.398-5.34-5.336c0-2.953,2.387-5.336,5.34-5.336c2.941,0,5.336,2.383,5.336,5.336
		C173.065,165.502,170.671,167.901,167.729,167.901z M191.647,190.526c-2.949,0-5.336-2.391-5.336-5.336
		c0-2.953,2.387-5.336,5.336-5.336c2.957,0,5.336,2.383,5.336,5.336C196.983,188.135,194.604,190.526,191.647,190.526z
		 M199.894,153.823c-3.934,0-7.125-3.188-7.125-7.109c0-3.945,3.191-7.125,7.125-7.125c3.926,0,7.105,3.18,7.105,7.125
		C206.999,150.635,203.819,153.823,199.894,153.823z"/>
</g>
</svg>
