<?xml version="1.0" encoding="utf-8"?>
<!-- Generator: Adobe Illustrator 16.0.0, SVG Export Plug-In . SVG Version: 6.00 Build 0)  -->
<!DOCTYPE svg PUBLIC "-//W3C//DTD SVG 1.1//EN" "http://www.w3.org/Graphics/SVG/1.1/DTD/svg11.dtd">
<svg version="1.1" id="Layer_1" xmlns="http://www.w3.org/2000/svg" xmlns:xlink="http://www.w3.org/1999/xlink" x="0px" y="0px"
	 width="256px" height="256px" viewBox="0 0 256 256" enable-background="new 0 0 256 256" xml:space="preserve">
<g>
	<path fill="#374150" d="M203.369,233.285h-32.73c23.484-13.754,39.301-39.238,39.301-68.363c0-20.09-7.523-38.449-19.895-52.426
		c0.199-1.289,0.336-2.598,0.336-3.941c0-13.844-11.262-25.113-25.113-25.113c-13.855,0-25.117,11.27-25.117,25.113
		c0,13.848,11.262,25.117,25.117,25.117c2.539,0,4.984-0.387,7.305-1.094c6.941,8.957,11.109,20.16,11.109,32.344
		c0,29.184-23.75,52.926-52.926,52.926c-20.43,0-38.133-11.668-46.945-28.66h12.047c3.965,0,7.176-3.219,7.176-7.184
		s-3.211-7.184-7.176-7.184H41.252c-3.965,0-7.18,3.219-7.18,7.184s3.215,7.184,7.18,7.184H55.4
		c6.031,18.703,18.852,34.344,35.539,44.098H62.127c-3.621,0-6.563,2.941-6.563,6.57v5.742c0,3.625,2.941,6.563,6.563,6.563h141.242
		c3.629,0,6.57-2.938,6.57-6.563v-5.742C209.939,236.227,206.998,233.285,203.369,233.285z M165.268,118.164
		c-5.297,0-9.609-4.309-9.609-9.609c0-5.297,4.313-9.605,9.609-9.605s9.609,4.309,9.609,9.605
		C174.877,113.855,170.564,118.164,165.268,118.164z"/>
	<path fill="#2878C8" d="M132.717,108.555c0-17.941,14.605-32.539,32.551-32.539c5.953,0,11.516,1.629,16.328,4.434l4.152-4.152
		c2.617-2.605,2.617-6.852,0-9.465L158.932,40.02c-2.609-2.605-6.852-2.605-9.457,0L93.939,95.551l36.285,36.277l6.934-6.941
		C134.354,120.082,132.717,114.512,132.717,108.555z"/>
	<path fill="#2878C8" d="M174.814,5.98c-2.848,2.863-2.848,7.492,0,10.352l7.504,7.5l-14.574,14.574l19.621,19.621l14.578-14.574
		l7.496,7.496c2.855,2.863,7.488,2.863,10.344,0c2.863-2.859,2.855-7.488,0-10.348L185.166,5.98
		C182.318,3.129,177.678,3.121,174.814,5.98z"/>
	<path fill="#2878C8" d="M117.479,145.09l7.594-7.609l-36.785-36.789l-7.609,7.605v0.008c-1.969,1.973-3.555,4.184-4.758,6.551
		l-12.73,1.121c-2.145,0.172-3.738,2.059-3.547,4.195l0.426,4.852c0.195,2.129,2.074,3.715,4.211,3.531l8.828-0.766
		c0.184,4.266,1.402,8.48,3.676,12.254l-8.117,8.117c-1.508,1.516-1.508,3.977,0.008,5.5l3.434,3.434
		c1.523,1.523,3.988,1.516,5.512,0l8.105-8.102c3.777,2.266,7.988,3.48,12.254,3.66l-0.766,8.836
		c-0.18,2.137,1.402,4.023,3.531,4.215l4.852,0.426c2.129,0.18,4.016-1.395,4.207-3.539l1.129-12.734
		C113.271,148.637,115.494,147.07,117.479,145.09z"/>
</g>
</svg>
