<?xml version="1.0" encoding="utf-8"?>
<!-- Generator: Adobe Illustrator 16.0.0, SVG Export Plug-In . SVG Version: 6.00 Build 0)  -->
<!DOCTYPE svg PUBLIC "-//W3C//DTD SVG 1.1//EN" "http://www.w3.org/Graphics/SVG/1.1/DTD/svg11.dtd">
<svg version="1.1" id="Layer_1" xmlns="http://www.w3.org/2000/svg" xmlns:xlink="http://www.w3.org/1999/xlink" x="0px" y="0px"
	 width="256px" height="256px" viewBox="0 0 256 256" enable-background="new 0 0 256 256" xml:space="preserve">
<g>
	<g>
		<g>
			<path fill="#2878C8" d="M236.141,34.197l-35.543,3.379c-8.805,0.852-18.598,8.293-21.75,16.566l-2.031,5.352h-18.793v-7.52
				c0-10.637-8.652-19.309-19.293-19.309H59.297c-10.656,0-19.309,8.672-19.309,19.309v7.52H16.707
				c-7.109,0-12.867,5.758-12.867,12.867v23.598c0,7.109,5.758,12.867,12.867,12.867h222.586c7.105,0,12.867-5.758,12.867-12.867
				V73.693v-1.332V48.764C252.16,39.912,244.945,33.35,236.141,34.197z M52.855,51.975c0-3.547,2.895-6.441,6.441-6.441h79.434
				c3.547,0,6.426,2.895,6.426,6.441v7.52H52.855V51.975z"/>
		</g>
	</g>
	<path fill="#374150" d="M208.766,168.361c-7.305,0-13.91,2.91-18.836,7.578l-46.699-26.418l56.277-31.844h-32.68l-39.934,22.598
		l-39.953-22.598H54.266l56.289,31.844l-46.711,26.418c-4.926-4.668-11.535-7.578-18.84-7.578
		c-15.156,0-27.492,12.336-27.492,27.477c0,15.156,12.336,27.496,27.492,27.496c12.336,0,22.676-8.23,26.145-19.445h111.488
		c3.457,11.215,13.793,19.445,26.129,19.445c15.156,0,27.496-12.34,27.496-27.496C236.262,180.697,223.922,168.361,208.766,168.361z
		 M45.004,207.236c-6.289,0-11.398-5.105-11.398-11.398c0-6.273,5.109-11.383,11.398-11.383c6.273,0,11.398,5.109,11.398,11.383
		C56.402,202.131,51.277,207.236,45.004,207.236z M75.559,187.807l51.336-29.039l51.316,29.039H75.559z M208.766,207.236
		c-6.273,0-11.379-5.105-11.379-11.398c0-6.273,5.105-11.383,11.379-11.383c6.293,0,11.398,5.109,11.398,11.383
		C220.164,202.131,215.059,207.236,208.766,207.236z"/>
</g>
</svg>
