<?xml version="1.0" encoding="utf-8"?>
<!-- Generator: Adobe Illustrator 16.0.0, SVG Export Plug-In . SVG Version: 6.00 Build 0)  -->
<!DOCTYPE svg PUBLIC "-//W3C//DTD SVG 1.1//EN" "http://www.w3.org/Graphics/SVG/1.1/DTD/svg11.dtd">
<svg version="1.1" id="Layer_1" xmlns="http://www.w3.org/2000/svg" xmlns:xlink="http://www.w3.org/1999/xlink" x="0px" y="0px"
	 width="256px" height="256px" viewBox="0 0 256 256" enable-background="new 0 0 256 256" xml:space="preserve">
<g>
	<path fill="#374150" d="M223.289,98.627c-7.078,0-12.824-5.742-12.824-12.832V62.811H58.871H45.535v22.984
		c0,7.09-5.746,12.832-12.824,12.832H3.84v16.055v90.352h28.871c7.078,0,12.824,5.742,12.824,12.836v22.984h164.93v-22.984
		c0-7.094,5.746-12.836,12.824-12.836h28.871V98.627H223.289z M128,215.24c-35.02,0-63.414-28.391-63.414-63.41
		S92.98,88.42,128,88.42s63.414,28.391,63.414,63.41S163.02,215.24,128,215.24z"/>
	<path fill="#2878C8" d="M161.148,15.146H128H94.852c-12.383,0-22.43,10.043-22.43,22.43v16.359h21.438
		c0,0-2.082-19.395,13.633-19.395H128h20.508c15.715,0,13.633,19.395,13.633,19.395h21.438V37.576
		C183.578,25.189,173.531,15.146,161.148,15.146z"/>
	<g>
		<g>
			<path fill="#2878C8" d="M110.918,168.158h-28.34V135.33h28.34v-27.848h34.164v27.848h28.34v32.828h-28.34v28.023h-34.164V168.158
				z"/>
		</g>
	</g>
	<path fill="#2878C8" d="M39.738,82.6V62.811H26.27c-12.383,0-22.43,10.043-22.43,22.434v8.402h24.855
		C34.789,93.646,39.738,88.705,39.738,82.6z"/>
	<path fill="#2878C8" d="M39.738,221.061v19.793H26.27c-12.383,0-22.43-10.047-22.43-22.434v-8.406h24.855
		C34.789,210.014,39.738,214.959,39.738,221.061z"/>
	<path fill="#2878C8" d="M216.262,82.6V62.811h13.469c12.383,0,22.43,10.043,22.43,22.434v8.402h-24.855
		C221.211,93.646,216.262,88.705,216.262,82.6z"/>
	<path fill="#2878C8" d="M216.262,221.061v19.793h13.469c12.383,0,22.43-10.047,22.43-22.434v-8.406h-24.855
		C221.211,210.014,216.262,214.959,216.262,221.061z"/>
</g>
</svg>
