<?xml version="1.0" encoding="utf-8"?>
<!-- Generator: Adobe Illustrator 16.0.0, SVG Export Plug-In . SVG Version: 6.00 Build 0)  -->
<!DOCTYPE svg PUBLIC "-//W3C//DTD SVG 1.1//EN" "http://www.w3.org/Graphics/SVG/1.1/DTD/svg11.dtd">
<svg version="1.1" id="Layer_1" xmlns="http://www.w3.org/2000/svg" xmlns:xlink="http://www.w3.org/1999/xlink" x="0px" y="0px"
	 width="256px" height="256px" viewBox="0 0 256 256" enable-background="new 0 0 256 256" xml:space="preserve">
<g>
	<g>
		<path fill="#2878C8" d="M167.699,3.84H88.297c-7.781,0-14.078,6.305-14.078,14.078V53.02h107.563V17.918
			C181.781,10.145,175.484,3.84,167.699,3.84z M103.227,40.957H92.426V16.602h10.801V40.957z M133.395,40.957h-10.793V16.602h10.793
			V40.957z M163.57,40.957h-10.797V16.602h10.797V40.957z"/>
	</g>
	<path fill="#374150" d="M128,173.68c2.66,0,6.379,0.863,4.773-6.273c-1.605-7.156-2.742-10.23-4.773-10.23
		s-3.168,3.074-4.773,10.23C121.617,174.543,125.332,173.68,128,173.68z"/>
	<path fill="#374150" d="M139.215,157.871c7.676,3.152,11.23-4.531,11.23-4.531c2.563-8.867-15.156-12.398-16.738-6.699
		C132.137,152.355,131.547,154.734,139.215,157.871z"/>
	<path fill="#374150" d="M116.785,157.871c7.668-3.137,7.09-5.516,5.508-11.23c-1.586-5.699-19.301-2.168-16.742,6.699
		C105.551,153.34,109.105,161.023,116.785,157.871z"/>
	<path fill="#374150" d="M191.656,93.836C186.508,89,180,85.59,175.734,83.684V61.555h-13.285v22.129H93.551V61.555H80.266v22.129
		C75.996,85.59,69.488,89,64.344,93.836c-8.238,7.746-16.277,17.277-16.277,40.816v90.938c0,14.656,11.926,26.57,26.582,26.57
		h106.707c14.648,0,26.578-11.914,26.578-26.57v-90.938C207.934,111.113,199.895,101.582,191.656,93.836z M98.125,144.352
		C93.52,109.16,128,109.281,128,109.281s34.48-0.121,29.871,35.07c-0.711,5.441-2.266,10.336-1.879,11.883
		c0.379,1.578,1.379,1.105,2.063,2.547c0.695,1.441,0.773,11.594-2.852,12.23c-7.348,1.258-11.305,5.441-12.641,10.777
		c-0.848,3.41-10.07,4.031-14.563,4.031c-4.496,0-13.719-0.621-14.566-4.031c-1.324-5.336-5.289-9.52-12.641-10.777
		c-3.621-0.637-3.547-10.789-2.848-12.23c0.695-1.441,1.703-0.969,2.074-2.547C100.391,154.688,98.84,149.793,98.125,144.352z
		 M162.805,229.574c-4.297,1.805-6.965-4.547-10.973-6.074c-0.813-0.305-13.543-5.172-23.832-9.094
		c-10.293,3.922-23.023,8.789-23.836,9.094c-4.008,1.527-6.676,7.879-10.973,6.074c-6.734-2.848-2.402-3.621-3.871-7.457
		c-1.469-3.848-5.828-4.395-0.066-10.215c2.309-2.332,8.34,2.441,11.539,1.215c0.484-0.184,5.625-2.137,11.914-4.531
		c-6.715-2.563-12.367-4.73-12.898-4.926c-4.016-1.531-10.23,1.438-12.23-2.773c-3.145-6.609,0.605-4.305,2.074-8.156
		c1.465-3.836-1.422-7.152,6.746-7.652c3.289-0.215,4.594,7.363,7.805,8.594c0.773,0.301,13.375,5.105,23.797,9.078
		c10.418-3.973,23.02-8.777,23.793-9.078c3.215-1.23,4.52-8.809,7.809-8.594c8.176,0.5,5.281,3.816,6.742,7.652
		c1.473,3.852,5.223,1.547,2.078,8.156c-2,4.211-8.215,1.242-12.23,2.773c-0.531,0.195-6.184,2.363-12.898,4.926
		c6.289,2.395,11.426,4.348,11.91,4.531c3.199,1.227,9.23-3.547,11.551-1.215c5.75,5.82,1.395,6.367-0.074,10.215
		C165.207,225.953,169.543,226.727,162.805,229.574z"/>
</g>
</svg>
