<?xml version="1.0" encoding="utf-8"?>
<!-- Generator: Adobe Illustrator 16.0.0, SVG Export Plug-In . SVG Version: 6.00 Build 0)  -->
<!DOCTYPE svg PUBLIC "-//W3C//DTD SVG 1.1//EN" "http://www.w3.org/Graphics/SVG/1.1/DTD/svg11.dtd">
<svg version="1.1" id="Layer_1" xmlns="http://www.w3.org/2000/svg" xmlns:xlink="http://www.w3.org/1999/xlink" x="0px" y="0px"
	 width="256px" height="256px" viewBox="0 0 256 256" enable-background="new 0 0 256 256" xml:space="preserve">
<g>
	<path fill="#2878C8" d="M94.62,76.206c-3.859-1.289-7.551-1.773-10.855-2.102c-0.664-0.031-4.066-0.258-5.91-0.398
		c6.82-12.211,6.004-26.656-6.941-39.602C54.409,17.581,24.475,9.792,10.834,23.432S4.983,67.01,21.502,83.51
		C35.901,97.909,52.19,97.338,65.17,87.877c4.07,0.664,9.016,1.227,14.398,1.305c2.289,0.211,8.094,0.563,10.715,1.367
		c2.605,0.781,5.328,1.844,7.715,3.484c2.355,1.633,4.41,3.727,5.887,6.289c1.531,2.547,2.457,5.664,2.629,9.172
		c0.273,1.711,0,3.57-0.027,5.406c-0.23,1.953-0.516,3.578-0.867,5.852c-0.848,4.836-1.422,9.852-0.664,15.023
		c0.719,5.117,2.668,10.227,5.836,14.289c3.219,4.016,7.266,6.656,11.117,8.516c3.918,1.727,7.691,2.773,11.145,3.273
		c13.883,1.945,22.508-0.68,22.449-2.148c0.012-1.945-8.898-2.242-20.508-5.883c-2.879-0.906-5.805-2.227-8.547-3.852
		c-2.668-1.727-5.109-3.82-6.801-6.391c-1.613-2.625-2.477-5.688-2.727-9.078c-0.266-3.414,0.41-7.172,1.297-10.898
		c2.395-8.852,3.371-20.43-1.828-30.023c-2.438-4.734-6.055-8.656-9.91-11.508C102.577,79.221,98.467,77.463,94.62,76.206z"/>
	<path fill="#374150" d="M207.303,92.588c-2.848-0.938-5.555-1.281-7.992-1.523c-0.484-0.016-3.008-0.203-4.359-0.305
		c5.016-9.008,4.426-19.648-5.121-29.18c-12.156-12.172-34.207-17.914-44.266-7.867c-10.055,10.055-4.297,32.117,7.859,44.273
		c10.617,10.609,22.621,10.188,32.176,3.211c3,0.5,6.641,0.914,10.609,0.977c1.691,0.148,5.973,0.391,7.898,1
		c1.922,0.57,3.926,1.359,5.684,2.555c1.742,1.219,3.242,2.766,4.332,4.641c1.129,1.883,1.82,4.188,1.949,6.758
		c0.195,1.258-0.008,2.641-0.023,3.992c-0.172,1.438-0.387,2.633-0.637,4.313c-0.637,3.547-1.047,7.25-0.5,11.055
		c0.531,3.773,1.973,7.547,4.305,10.547c2.379,2.938,5.352,4.898,8.184,6.258c2.895,1.289,5.676,2.047,8.215,2.43
		c10.23,1.422,16.598-0.5,16.543-1.594c0.016-1.422-6.547-1.656-15.109-4.336c-2.121-0.664-4.266-1.633-6.297-2.836
		c-1.957-1.273-3.758-2.82-5.012-4.711c-1.188-1.922-1.824-4.188-2.008-6.688c-0.195-2.516,0.305-5.289,0.957-8.047
		c1.773-6.5,2.484-15.031-1.344-22.094c-1.801-3.484-4.461-6.398-7.313-8.492C213.17,94.838,210.139,93.534,207.303,92.588z"/>
	<path fill="#374150" d="M84.022,175.94c-2.832-0.945-5.547-1.289-7.984-1.531c-0.484-0.031-3.004-0.203-4.367-0.305
		c5.031-9.008,4.434-19.641-5.105-29.18c-12.164-12.172-34.223-17.914-44.273-7.867c-10.047,10.07-4.289,32.102,7.867,44.273
		c10.609,10.609,22.613,10.188,32.168,3.227c3.008,0.484,6.648,0.898,10.617,0.961c1.684,0.148,5.965,0.391,7.891,1
		c1.922,0.57,3.918,1.359,5.684,2.563c1.742,1.211,3.25,2.742,4.34,4.633c1.121,1.883,1.813,4.188,1.941,6.758
		c0.195,1.258,0,2.641-0.016,3.992c-0.18,1.438-0.395,2.633-0.652,4.32c-0.621,3.539-1.043,7.242-0.492,11.047
		c0.539,3.773,1.973,7.547,4.305,10.531c2.371,2.953,5.352,4.914,8.191,6.273c2.879,1.273,5.668,2.047,8.215,2.43
		c10.23,1.406,16.582-0.516,16.535-1.594c0.016-1.422-6.547-1.656-15.109-4.336c-2.121-0.664-4.273-1.633-6.297-2.836
		c-1.965-1.289-3.766-2.82-5.012-4.711c-1.18-1.922-1.824-4.195-2.016-6.703c-0.18-2.5,0.32-5.273,0.965-8.031
		c1.766-6.5,2.477-15.031-1.344-22.094c-1.801-3.5-4.461-6.398-7.305-8.492C89.897,178.182,86.874,176.877,84.022,175.94z"/>
</g>
</svg>
