<?xml version="1.0" encoding="utf-8"?>
<!-- Generator: Adobe Illustrator 16.0.0, SVG Export Plug-In . SVG Version: 6.00 Build 0)  -->
<!DOCTYPE svg PUBLIC "-//W3C//DTD SVG 1.1//EN" "http://www.w3.org/Graphics/SVG/1.1/DTD/svg11.dtd">
<svg version="1.1" id="Layer_1" xmlns="http://www.w3.org/2000/svg" xmlns:xlink="http://www.w3.org/1999/xlink" x="0px" y="0px"
	 width="256px" height="256px" viewBox="0 0 256 256" enable-background="new 0 0 256 256" xml:space="preserve">
<g>
	<polygon fill="#2878C8" points="79.014,156.858 62.752,156.858 62.752,170.12 49.264,170.12 49.264,185.749 62.752,185.749 
		62.752,199.069 79.014,199.069 79.014,185.749 92.506,185.749 92.506,170.12 79.014,170.12 	"/>
	<g>
		<path fill="#374150" d="M136.049,59.585c15.398,0,27.879-12.473,27.879-27.855c0-15.414-12.48-27.887-27.879-27.887
			s-27.871,12.473-27.871,27.887C108.178,47.112,120.65,59.585,136.049,59.585z"/>
		<path fill="#374150" d="M227.592,125.882c-13.309-3.789-29.305-10.156-39.391-19.582c-8.055-7.535-13.367-18.887-16.582-29.707
			c-1.895-7.578-8.699-13.219-16.875-13.219l-8.426,17.25L136.17,67.257l-0.121,0.152l-0.121-0.152l-10.141,13.367l-8.434-17.25
			c-1.539,0-17.938,6.262-29.199,17.555C72.908,96.19,64.107,115.694,60.736,138.05h-19.93c-11.414,0-20.688,9.277-20.688,20.688
			v38.453c0,11.398,9.273,20.672,20.688,20.672h46.871c-1.992,1.895-3.973,3.789-5.66,5.457
			c-13.492,13.293,7.273,34.043,20.746,20.75c12.277-12.109,32.664-25.344,38.727-42.074c3.137-8.656,1.023-18.777-2.363-28.266
			h0.164c5.336,4.211,10.777,8.547,12.074,9.637c2.414,2.047,4.676,4.262,6.902,6.504c1.395,1.395,2,4.227,2,8.973
			c0,9.594-0.023,28.281-0.031,39.117c-0.016,18.93,29.328,18.93,29.344,0c0.016-11.109,0.066-22.219,0.09-33.328
			c0.016-8.047,1.039-16.746-2.438-24.203c-5.367-11.504-23.766-30.223-23.766-30.223l4.031-32.086
			c0.652,0.832,1.258,1.684,1.926,2.484c11.949,14.141,34.371,22.934,51.93,27.902C235.943,152.647,242.135,129.987,227.592,125.882
			z M99.916,102.858v35.191H84.342C86.775,124.577,91.717,112.694,99.916,102.858z M108.447,197.19c0,4.121-3.348,7.488-7.484,7.488
			H40.807c-4.137,0-7.496-3.367-7.496-7.488v-38.453c0-4.137,3.359-7.5,7.496-7.5h60.156c4.137,0,7.484,3.363,7.484,7.5V197.19z"/>
	</g>
</g>
</svg>
