<?xml version="1.0" encoding="utf-8"?>
<!-- Generator: Adobe Illustrator 16.0.0, SVG Export Plug-In . SVG Version: 6.00 Build 0)  -->
<!DOCTYPE svg PUBLIC "-//W3C//DTD SVG 1.1//EN" "http://www.w3.org/Graphics/SVG/1.1/DTD/svg11.dtd">
<svg version="1.1" id="Layer_1" xmlns="http://www.w3.org/2000/svg" xmlns:xlink="http://www.w3.org/1999/xlink" x="0px" y="0px"
	 width="256px" height="256px" viewBox="0 0 256 256" enable-background="new 0 0 256 256" xml:space="preserve">
<g>
	<path fill="#374150" d="M232.1,48.644c-8.988-18.625-23.795-31.023-44-36.813C137.039-2.794,86.311,2.933,55.719,26.761
		C35.916,42.175,25.883,64.19,26.701,90.448c0.168,5.211,0.729,9.32,1.182,12.609c0.797,5.789,0.781,6.891-0.135,7.953
		c-1.107,1.258-2.418,2.609-3.76,3.984c-5.26,5.398-10.215,10.508-10.215,16.141c0,4.336,3.395,8.055,9.912,14.766
		c2.561,2.641,6.707,6.93,7.76,8.445c-1.061,1.484-4.297,3.938-5.768,5.047c-2.811,2.133-4.676,3.531-5.645,5.789
		c-1.387,3.242-0.16,6.406,1.137,9.773c0.879,2.258,2.189,5.656,1.834,7.289c-3.85,17.75,1.084,27.844,4.031,33.891
		c0.652,1.32,1.531,3.141,1.592,3.742c0.045,0.773-0.547,3.172-0.939,4.742c-1.699,6.766-4.836,19.359,7.555,25.391
		c3.16,1.547,7.01,2.148,11.283,2.148c8.291,0,18.188-2.289,27.881-4.531c5.994-1.375,11.646-2.68,15.156-2.922l2.766-0.156
		c12.656-0.648,42.285-2.18,44.977-38.844c1.963-26.797,5.994-35.734,9.555-43.617c0.426-0.922,0.834-1.836,1.229-2.758
		c5.426,3.805,9.549,9.031,11.625,14.945c3.379,9.664,12.367,15.188,25.295,15.547c16.748,0.609,40.361-8.422,45.408-20.609
		C234.963,158.237,253.549,93.112,232.1,48.644z M36.508,206.737c-1.318-3.18-2.395-7.047-2.379-12.227
		c1.758,0.055,3.742,0.086,5.926,0.086c12.391,0,31.023-1.164,49.211-6.664c-0.484,4.117-1.393,7.82-3.037,10.258
		C82.992,202.995,59.016,206.284,36.508,206.737z M124.816,204.8c-1.736,23.672-16.666,26.383-33.133,27.234l-2.979,0.18
		c-4.5,0.305-10.352,1.656-17.119,3.219c-10.176,2.359-25.561,5.891-30.865,3.313c-2.484-1.211-2.932-2.891-0.887-11.094
		c0.75-3.016,1.463-5.859,1.289-8.594c-0.068-1.039-0.395-2-0.674-2.969c17.641-0.516,47.014-2.875,53.592-12.625
		c7.025-10.43,5.213-30.781,3.805-40.617c5.395,5.594,14.754,11.242,28.689,6.016c1.941-0.727,3.563-1.617,5.047-2.578
		C128.824,174.065,126.264,185.003,124.816,204.8z M218.846,164.425c-1.918,4.617-18.469,13.383-33.488,12.883
		c-7.586-0.211-12.238-2.625-13.83-7.172c-4.313-12.305-14.74-22.414-27.895-27.039c-16.748-5.883-36.117-2.789-54.525,8.719
		c-11.572,7.242-11.588,7.242-16.377,1.031c-0.682-0.883-1.4-1.836-2.098-2.688c0,0-5.299-10.156-11.725-5.578
		c-6.434,4.578,3.902,15.898,3.902,15.898c7.443,9.656,13.18,12.414,26.047,5.867c0.408,3.352,0.75,7.367,0.85,11.516
		c-20.447,6.852-42.605,7.508-54.496,7.219c0.008-0.063,0.016-0.125,0.031-0.18c1.152-5.305-0.902-10.594-2.387-14.461
		c-0.076-0.211-0.16-0.406-0.236-0.594c0.197-0.148,0.402-0.305,0.607-0.469c4.826-3.641,11.451-8.641,10.889-15.688
		c-0.379-4.867-4.592-9.438-11.434-16.5c-1.91-1.977-4.602-4.75-5.936-6.461c1.281-1.922,4.404-5.141,6.215-7.016
		c1.5-1.531,2.971-3.047,4.199-4.445c4.834-5.516,4.008-11.547,3.129-17.914c-0.432-3.164-0.924-6.742-1.068-11.289
		c-0.705-22.414,7.441-40.391,24.189-53.438c27.076-21.086,74.674-26.086,121.25-12.75c16.611,4.758,28.781,14.93,36.162,30.219
		C239.965,93.776,222.188,156.347,218.846,164.425z"/>
	<path fill="#374150" d="M51.938,86.565c-9.777,4.352,2.152,13.547,1.303,26.797c-0.652,10.305-18.598,15.945,6.449,19.031
		c25.045,3.109,26.561-23.367,17.406-36.203C67.949,83.354,58.689,83.565,51.938,86.565z"/>
	<path fill="#374150" d="M154.658,123.425c-6.857-0.563-13.732-0.852-20.605-0.938c-9.654-0.141-23.324,4.375-32.086,0.344
		c-6.084-2.789-2.471-16.063-2.85-20.805c-0.574-7.219-5.697-12.555-10.76-17.125c-4.396-3.977-10.928,2.516-6.518,6.5
		c9.215,8.336,6.805,15.945,7.699,26.672c0.531,6.289,4.139,11.039,9.775,13.641c8.594,3.945,18.961,0.563,27.857,0.078
		c9.125-0.484,18.393,0.094,27.486,0.852C160.576,133.128,160.531,123.925,154.658,123.425z"/>
</g>
</svg>
