<?xml version="1.0" encoding="utf-8"?>
<!-- Generator: Adobe Illustrator 16.0.0, SVG Export Plug-In . SVG Version: 6.00 Build 0)  -->
<!DOCTYPE svg PUBLIC "-//W3C//DTD SVG 1.1//EN" "http://www.w3.org/Graphics/SVG/1.1/DTD/svg11.dtd">
<svg version="1.1" id="Layer_1" xmlns="http://www.w3.org/2000/svg" xmlns:xlink="http://www.w3.org/1999/xlink" x="0px" y="0px"
	 width="256px" height="256px" viewBox="0 0 256 256" enable-background="new 0 0 256 256" xml:space="preserve">
<g>
	<path fill="#374150" d="M61.785,74.373l-43.422,43.422c-19.364,19.371-19.372,50.762,0,70.129
		c19.363,19.355,50.758,19.355,70.129,0l43.422-43.422L61.785,74.373z"/>
	<path fill="#2878C8" d="M144.5,131.924l43.422-43.441c19.363-19.352,19.363-50.758-0.008-70.125
		c-19.359-19.355-50.758-19.355-70.109,0L74.371,61.795L144.5,131.924z"/>
	<path fill="#2878C8" d="M191.847,131.529c-33.305,0-60.313,27.008-60.313,60.32s27.008,60.309,60.313,60.309
		c33.309,0,60.316-26.996,60.316-60.309S225.156,131.529,191.847,131.529z M234.292,200.748h-84.891v-17.809h84.891V200.748z"/>
</g>
</svg>
