<?xml version="1.0" encoding="utf-8"?>
<!-- Generator: Adobe Illustrator 16.0.0, SVG Export Plug-In . SVG Version: 6.00 Build 0)  -->
<!DOCTYPE svg PUBLIC "-//W3C//DTD SVG 1.1//EN" "http://www.w3.org/Graphics/SVG/1.1/DTD/svg11.dtd">
<svg version="1.1" id="Layer_1" xmlns="http://www.w3.org/2000/svg" xmlns:xlink="http://www.w3.org/1999/xlink" x="0px" y="0px"
	 width="256px" height="256px" viewBox="0 0 256 256" enable-background="new 0 0 256 256" xml:space="preserve">
<g>
	<g>
		<g>
			<path fill="#2878C8" d="M122.488,35.055h-9.191V24.406h9.191v-9.039h11.098v9.039h9.191v10.648h-9.191v9.094h-11.098V35.055z"/>
		</g>
	</g>
	<path fill="#2878C8" d="M182.492,163.094c-10.387-3.105-21.727-4.063-21.727-4.063s-2.902,11.383-20.324,15.711L128,197.695
		l-12.445-22.953c-17.422-4.328-20.324-15.711-20.324-15.711s-11.336,0.957-21.727,4.063
		c-17.438,37.898,40.508,43.164,54.496,43.164S199.93,200.992,182.492,163.094z"/>
	<g>
		<path fill="#374150" d="M68.98,105.539c1.203,1.781,2.66,3.207,4.234,4.344c0.539,8.484,0.828,25.551-3.203,44.922
			c0,0,17.051-4.941,29.555-3.902c7.121,7.387,16.414,12.918,28.434,12.918c12.109,0,21.438-5.547,28.555-12.934
			c12.504-0.992,29.434,3.918,29.434,3.918c-4.031-19.371-3.746-36.438-3.207-44.922c1.578-1.137,3.031-2.563,4.234-4.344
			c4.418-6.504,5.086-15.605,1.625-22.137c-0.32-0.605-0.789-1.059-1.168-1.613c0.68-6.926,0.781-16.992-1.215-27.563
			c1.215-4.328,2.547-8.32,4.125-17.625c1.16-6.777-2.281-12.84-8.762-15.453c-17.672-7.16-35.531-17.227-53.586-17.309
			c-18.051,0.082-35.91,10.148-53.59,17.309c-6.473,2.613-9.914,8.676-8.754,15.453c1.563,9.199,2.879,13.199,4.078,17.465
			c-2.023,10.633-1.926,20.758-1.242,27.715c-0.379,0.555-0.852,1.016-1.168,1.621C63.895,89.934,64.563,99.035,68.98,105.539z
			 M87.328,111.926l-1.105-7.305l-3.66,0.395c-3.563,0.402-5.922-1.84-7.246-3.789c-2.789-4.113-3.305-10.238-1.191-14.238
			c1.715-3.23,4.891-4.867,9.449-4.867v-0.016l0,0c19.129,1.48,58.098-8.676,67-23.621c0.039,0.016,0.066,0.023,0.105,0.031
			c1.965,10.996,10.473,25.055,21.742,23.59l0,0v0.016c4.563,0,7.738,1.645,9.449,4.867c2.113,4,1.602,10.125-1.188,14.238
			c-1.328,1.949-3.668,4.191-7.246,3.789l-3.652-0.395l-1.09,7.156c-0.094,0.445-10.785,44.383-40.695,44.383
			C98.125,156.16,87.395,112.215,87.328,111.926z M77.324,28.25c16.754-6.789,33.641-16.664,50.711-16.754
			c17.074,0.09,33.961,9.965,50.715,16.754c4.586,1.855,4.281,5.879,4.086,7.063c-1.91,11.246-3.457,14.277-4.867,20.262
			c-1.059,1.633-3.613,2.297-5.668,1.457c-14.125-5.715-29.016-8.625-44.266-8.625c-15.246,0-30.137,2.91-44.262,8.625
			c-2.055,0.84-4.609,0.176-5.668-1.457c-1.41-5.984-2.957-9.016-4.867-20.262C73.043,34.129,72.738,30.105,77.324,28.25z"/>
		<path fill="#374150" d="M228.461,207.32c-3.258-24.523-23.391-36.336-38.52-41.832c17.332,43.332-48.285,48.258-61.941,48.258
			s-79.277-4.926-61.945-48.258c-15.125,5.496-35.262,17.309-38.52,41.832c-3.934,29.629-3.258,44.84-3.258,44.84H128h103.723
			C231.723,252.16,232.395,236.949,228.461,207.32z M198.012,229.973c0,1.598-1.309,2.902-2.91,2.902h-37.996
			c-1.598,0-2.91-1.305-2.91-2.902v-9.938c0-1.598,1.313-2.91,2.91-2.91h37.996c1.602,0,2.91,1.313,2.91,2.91V229.973z"/>
	</g>
</g>
</svg>
