<?xml version="1.0" encoding="utf-8"?>
<!-- Generator: Adobe Illustrator 16.0.0, SVG Export Plug-In . SVG Version: 6.00 Build 0)  -->
<!DOCTYPE svg PUBLIC "-//W3C//DTD SVG 1.1//EN" "http://www.w3.org/Graphics/SVG/1.1/DTD/svg11.dtd">
<svg version="1.1" id="Layer_1" xmlns="http://www.w3.org/2000/svg" xmlns:xlink="http://www.w3.org/1999/xlink" x="0px" y="0px"
	 width="256px" height="256px" viewBox="0 0 256 256" enable-background="new 0 0 256 256" xml:space="preserve">
<g>
	<path fill="#374150" d="M81.258,195.672c14.012,13.184,14.77,16.215,25.461,18.035c10.703,1.836,26.766-3.773,26.766-3.773
		c-7.734-0.59-18.133-1.773-22.922-2.457c-14.566-2.074-15.996-7.895-15.367-12.32c1.281-8.973,19.598-7.246,33.531-7.668
		c13.316-0.395,18.742-7.414,38.922-3.078c21.484,4.621,32.973,21.887,32.973,21.887h21.535c0,0,8.043,6.836,8.043,22.93
		c0,16.082-8.043,22.523-8.043,22.523s-9.121,0-21.535,0c-6.215,0-42.695,0-42.695,0c-11.434-0.016-29.926,1.469-41.543-2.336
		c-32.305-10.594-56.797-47.559-56.797-47.559c-1.676-2-1.859-5.41-0.418-7.609C59.168,194.246,65.27,180.605,81.258,195.672z"/>
	<g>
		<path fill="#2878C8" d="M177.008,105.281L148.75,63.734l-27.965,61.855c-1.582,3.484-4.578,5.578-8.023,5.59c0,0-0.016,0-0.023,0
			c-3.441,0-6.449-2.074-8.035-5.547l-19.77-43.086l-11.836,21.914c-2.199,4.094-6.988,6.941-11.641,6.941h-1.273H47.84H11.039
			c-3.973,0-7.199,3.227-7.199,7.199s3.227,7.199,7.199,7.199h47.566c14.09,15.945,35.035,30.359,64.977,40.68
			c38.738-13.367,62.559-33.527,75.734-55.078h-10.73C184.223,111.402,179.461,108.887,177.008,105.281z"/>
		<path fill="#2878C8" d="M244.969,82.789h-34.164c7.457-35.164-8.258-67.902-29.773-75.586
			c-38.594-13.793-57.449,21.113-57.449,21.113S104.719-6.59,66.125,7.203c-24.402,8.715-41.387,49.652-25.516,89.801h20.156
			l16.648-30.828c1.762-3.273,4.813-5.184,8.203-5.047c3.379,0.105,6.332,2.184,7.879,5.563l19.203,41.848l26.734-59.156
			c1.473-3.242,4.313-5.363,7.578-5.637c3.32-0.352,6.441,1.301,8.445,4.258l33.449,49.184h6.918h10.648h38.496
			c3.969,0,7.191-3.23,7.191-7.199C252.16,86,248.938,82.789,244.969,82.789z"/>
	</g>
</g>
</svg>
