<?xml version="1.0" encoding="utf-8"?>
<!-- Generator: Adobe Illustrator 16.0.0, SVG Export Plug-In . SVG Version: 6.00 Build 0)  -->
<!DOCTYPE svg PUBLIC "-//W3C//DTD SVG 1.1//EN" "http://www.w3.org/Graphics/SVG/1.1/DTD/svg11.dtd">
<svg version="1.1" id="Layer_1" xmlns="http://www.w3.org/2000/svg" xmlns:xlink="http://www.w3.org/1999/xlink" x="0px" y="0px"
	 width="256px" height="256px" viewBox="0 0 256 256" enable-background="new 0 0 256 256" xml:space="preserve">
<g>
	<path fill="#374150" d="M249.447,44.336L213.255,8.141c-3.617-3.621-9.473-3.621-13.094,0c-3.617,3.617-3.617,9.473,0,13.09
		l2.969,2.969L187.74,39.59l-13.043-13.039c-3.613-3.617-9.48-3.617-13.094,0c-3.617,3.613-3.617,9.48,0.008,13.094l1.316,1.328
		L71.9,132c-6.008,6.008-6.016,15.809,0.008,21.816l31.109,31.117c2.918,2.918,6.789,4.523,10.91,4.523
		c4.125,0,8.004-1.605,10.914-4.523l91.027-91.031l1.328,1.328c3.613,3.613,9.473,3.621,13.086,0c3.621-3.613,3.621-9.473,0-13.086
		L217.24,69.102l15.391-15.398l3.73,3.719c3.605,3.617,9.473,3.617,13.086,0.008C253.064,53.809,253.064,47.949,249.447,44.336z
		 M117.564,177.656c-1.938,1.949-5.324,1.949-7.273,0l-31.117-31.113c-2-2-2-5.27,0-7.27l91.031-91.027l4.441,4.441l-20.676,20.68
		l-2.563,2.547l-8.449,8.457l-1.824,1.824l-3.16,3.16l2.363,2.375l24.773,24.766l2.363,2.371l3.168-3.16l1.82-1.836l8.457-8.449
		l2.555-2.555l20.68-20.68l4.441,4.449L117.564,177.656z"/>
	<path fill="#2878C8" d="M88.724,138.605c-2.594,2.602-2.594,6.809,0,9.398l20.113,20.113c2.59,2.59,6.797,2.59,9.395,0l3.637-3.637
		l-11.078-11.074l5-5l11.082,11.07l9.238-9.246l-11.074-11.07l5.004-5l11.07,11.07l9.246-9.238l-11.074-11.078l5.004-4.996
		l11.07,11.066l8.328-8.328l-29.5-29.512L88.724,138.605z"/>
	<path fill="#2878C8" d="M57.447,171.578l-7.16,11.043c-2.668,4.105-2.016,10.32,1.457,13.793l0.469,0.477L3.841,245.27
		l10.149,5.305l45.961-45.961l0.477,0.484c3.469,3.473,9.684,4.113,13.793,1.457l4.5-2.918l21.172-13.742l-32.949-32.957
		L57.447,171.578z"/>
</g>
</svg>
