<?xml version="1.0" encoding="utf-8"?>
<!-- Generator: Adobe Illustrator 16.0.0, SVG Export Plug-In . SVG Version: 6.00 Build 0)  -->
<!DOCTYPE svg PUBLIC "-//W3C//DTD SVG 1.1//EN" "http://www.w3.org/Graphics/SVG/1.1/DTD/svg11.dtd">
<svg version="1.1" id="Layer_1" xmlns="http://www.w3.org/2000/svg" xmlns:xlink="http://www.w3.org/1999/xlink" x="0px" y="0px"
	 width="256px" height="256px" viewBox="0 0 256 256" enable-background="new 0 0 256 256" xml:space="preserve">
<g>
	<g>
		<path fill="#374150" d="M166.195,109.043c0-26.16,21.23-47.395,47.406-47.395V33.047c0-9.367-7.594-16.961-16.945-16.961h-86.859
			c-9.367,0-16.961,7.594-16.961,16.961v135.012c0,9.352,7.594,16.945,16.961,16.945h86.859c9.352,0,16.945-7.594,16.945-16.945
			v-11.609C187.426,156.449,166.195,135.23,166.195,109.043z"/>
	</g>
	<g>
		<path fill="#2878C8" d="M213.602,147.613c-21.262,0-38.555-17.309-38.555-38.57c0-21.25,17.293-38.543,38.555-38.543
			c21.266,0,38.559,17.293,38.559,38.543C252.16,130.305,234.867,147.613,213.602,147.613z M213.602,81.094
			c-15.414,0-27.961,12.535-27.961,27.949c0,15.426,12.547,27.977,27.961,27.977s27.965-12.551,27.965-27.977
			C241.566,93.629,229.016,81.094,213.602,81.094z"/>
	</g>
	<g>
		<path fill="#2878C8" d="M220.121,116.453l-0.957,9.473c-0.379,3.711-2.879,5.91-5.563,5.91s-5.184-2.199-5.563-5.91l-0.953-9.473
			c-2.5-1.941-4.152-4.957-4.152-8.398c0-5.879,4.773-10.652,10.668-10.652c5.898,0,10.672,4.773,10.672,10.652
			C224.273,111.496,222.637,114.512,220.121,116.453z"/>
	</g>
	<path fill="#2878C8" d="M181.742,192.656v3.168c0,16.172-20.246,28.828-46.102,28.828c-22.223,0-43.895-9.305-59.488-25.523
		c-18.203-18.945-28.406-47.285-29.965-82.238c15.156-7.305,26.445-34.313,26.445-58.594c0-28.371-15.398-42.211-34.387-42.211
		c-19.008,0-34.406,13.84-34.406,42.211c0,24.629,11.609,52.109,27.113,58.93c1.684,38.859,13.324,70.762,34.211,92.469
		c18.441,19.203,44.133,30.219,70.477,30.219c34.98,0,61.352-18.961,61.352-44.09v-3.168H181.742z"/>
</g>
</svg>
