<?xml version="1.0" encoding="utf-8"?>
<!-- Generator: Adobe Illustrator 16.0.0, SVG Export Plug-In . SVG Version: 6.00 Build 0)  -->
<!DOCTYPE svg PUBLIC "-//W3C//DTD SVG 1.1//EN" "http://www.w3.org/Graphics/SVG/1.1/DTD/svg11.dtd">
<svg version="1.1" id="Layer_1" xmlns="http://www.w3.org/2000/svg" xmlns:xlink="http://www.w3.org/1999/xlink" x="0px" y="0px"
	 width="256px" height="256px" viewBox="0 0 256 256" enable-background="new 0 0 256 256" xml:space="preserve">
<g>
	<path fill="#374150" d="M147.725,26.098l-0.016-0.008C136.932-3.16,94.268-4.516,76.572,27.652
		c-9.207,16.738-3.266,44.18,12.738,70.672c18.145-4.516,42.695,3.41,42.695,3.41c-1.059-2.051-2.008-4.09-2.895-6.129
		c8.82-2.371,15.453-6.496,19.781-12.648C157.248,71.027,156.9,52.887,147.725,26.098z M139.752,76.563
		c-2.926,4.176-7.746,7.039-14.52,8.668c-7.473-23.711-4.805-43.605-4.805-43.605c8.449-2.395,14.262-4.863,18.301-7.109
		C144.959,54.508,145.314,68.633,139.752,76.563z"/>
	<path fill="#374150" d="M191.244,202.488c-3.445-19.621-18.816-33.156-27.863-39.59c6.063-6.805,7.305-15.344,3.289-24.289
		c-9.914-22.098-50.871-41.246-84.566-32.129c0,0-6.176,1.816-9.797,8.313c-9.535,17.102-11.945,62.422-1.121,80.652
		c1.059,1.789,2.363,3.48,3.781,5.125c1.355,22.453-4.289,51.59-4.289,51.59H171.08l1.668-1.863
		C187.947,233.309,194.17,219.105,191.244,202.488z M153.135,209.18c-1.07,6.941-7.246,6.063-7.52,6.074
		c-16.852-0.211-55.137-9.797-65.141-26.621c-7.137-12.012-6.684-44.445-1.121-60.828c2.289-6.723,4.305-7.699,4.336-7.707
		c14.141,0.289,13.094,18.816,13.828,33.957c0.594,12.156,1.055,21.766,5.086,27.039c7.934,10.398,18.277,12.133,38.133,18.172
		c3.113,0.949,5.168,1.555,8.609,2.637C149.611,201.988,154.037,203.387,153.135,209.18z"/>
</g>
</svg>
