<?xml version="1.0" encoding="utf-8"?>
<!-- Generator: Adobe Illustrator 16.0.0, SVG Export Plug-In . SVG Version: 6.00 Build 0)  -->
<!DOCTYPE svg PUBLIC "-//W3C//DTD SVG 1.1//EN" "http://www.w3.org/Graphics/SVG/1.1/DTD/svg11.dtd">
<svg version="1.1" id="Layer_1" xmlns="http://www.w3.org/2000/svg" xmlns:xlink="http://www.w3.org/1999/xlink" x="0px" y="0px"
	 width="256px" height="256px" viewBox="0 0 256 256" enable-background="new 0 0 256 256" xml:space="preserve">
<g>
	<g>
		<g>
			<path fill="#2878C8" d="M63.563,244.717c-32.926,0-59.723-26.789-59.723-59.723s26.797-59.723,59.723-59.723
				c32.934,0,59.723,26.789,59.723,59.723S96.497,244.717,63.563,244.717z M63.563,147.311c-20.777,0-37.695,16.906-37.695,37.684
				c0,20.789,16.918,37.703,37.695,37.703c20.785,0,37.703-16.914,37.703-37.703C101.266,164.217,84.348,147.311,63.563,147.311z"/>
		</g>
		<g>
			<path fill="#2878C8" d="M88.11,184.994c0,13.559-10.988,24.547-24.547,24.547c-13.543,0-24.539-10.988-24.539-24.547
				c0-13.563,10.996-24.547,24.539-24.547C77.122,160.447,88.11,171.432,88.11,184.994z"/>
		</g>
	</g>
	<path fill="#374150" d="M241.094,202.037h-27.977l-5.676-28.781c0,0-3.98-19.445-11.02-55.313c-6.539-33.32-25.469-48-47.035-48
		c-14.113,0-48.336,0-70.328,0L75.77,46.807c-3.297-21.914-16.262-35.523-33.836-35.523H25.407h-5.5H14.86
		c-6.094,0-11.02,4.93-11.02,11.016c0,6.078,4.926,11.004,11.02,11.004h5.047h5.5h16.527c8.844,0,11.465,12.852,12.059,16.793
		l5.199,35.836v28.539c1.453-0.082,2.895-0.211,4.371-0.211c35.004,0,64.066,25.57,69.68,58.996h52.031l2.918,14.52
		c-0.188,0-0.387-0.023-0.582-0.023c-15.734,0-28.48,12.754-28.48,28.48c0,15.73,12.746,28.484,28.48,28.484
		c13.004,0,23.945-8.723,27.355-20.625l26.129,0.066c6.109,0,11.066-4.957,11.066-11.063
		C252.161,206.986,247.204,202.037,241.094,202.037z M79.059,101.076V86.67c0,0,50.895,0,64.582,0
		c14.004,0,21.402,4.5,26.848,14.406H79.059z M187.61,225.607c-5.176,0-9.383-4.191-9.383-9.375c0-5.176,4.207-9.375,9.383-9.375
		c5.184,0,9.383,4.199,9.383,9.375C196.993,221.416,192.793,225.607,187.61,225.607z"/>
</g>
</svg>
