<?xml version="1.0" encoding="utf-8"?>
<!-- Generator: Adobe Illustrator 16.0.0, SVG Export Plug-In . SVG Version: 6.00 Build 0)  -->
<!DOCTYPE svg PUBLIC "-//W3C//DTD SVG 1.1//EN" "http://www.w3.org/Graphics/SVG/1.1/DTD/svg11.dtd">
<svg version="1.1" id="Layer_1" xmlns="http://www.w3.org/2000/svg" xmlns:xlink="http://www.w3.org/1999/xlink" x="0px" y="0px"
	 width="256px" height="256px" viewBox="0 0 256 256" enable-background="new 0 0 256 256" xml:space="preserve">
<g>
	<path fill="#374150" d="M119.296,119.309c26.219,0,44.5-29.523,44.5-56.023c0-18.961-9.594-34.148-24.48-41.301
		c0.047-0.449,0.184-0.879,0.184-1.344c0-8.289-9.047-16.801-20.203-16.801s-20.203,8.512-20.203,16.801
		c0,0.465,0.137,0.887,0.18,1.344c-14.883,7.145-24.477,22.34-24.477,41.301C74.796,89.785,93.077,119.309,119.296,119.309z
		 M134.421,47.34c4.547,8.547,9.609,12.809,17.398,16.977c0.531,0.285,0.926,0.355,1.41,0.559
		c-0.727,22.797-16.852,43.93-33.934,43.93c-15.703,0-30.602-17.875-33.465-38.473C110.671,67.738,125.569,55.555,134.421,47.34z"/>
	<path fill="#374150" d="M213.038,154.676c0.438-7.625-2.305-15.203-7.699-21.355c-6.441-7.363-15.398-10.715-24.371-10.063
		c-10.352-8.988-22.355-11.488-27.57-12.188c-5.609,11.109-18.762,18.902-34.102,18.902c-15.324,0-28.48-7.785-34.086-18.871
		c-9.836,1.363-41.906,9.027-42.285,51.41c-0.273,29.949,7.242,52.859,22.324,68.066c14.156,14.301,34.66,21.539,60.793,21.539
		h0.012c0.516,0.016,1.637,0.043,3.23,0.043c3.531,0,9.352-0.172,15.625-0.91c0.879,0.016,1.742,0.023,2.594,0.023
		c42.707,0,53.242-19.602,57.426-34.488c2.047-7.227,1.074-20.656-2.863-40.828C208.776,170.031,212.581,162.68,213.038,154.676z
		 M169.433,138.961c4.215-3.699,8.941-5.641,13.688-5.641c0.227,0,0.469,0.078,0.711,0.078c-0.09,4.074,1.941,9.184,5.852,13.652
		c3.91,4.457,8.715,7.141,12.777,7.578c-0.457,4.973-2.973,9.648-7.43,13.535c-5.563,4.883-13.141,7.793-20.277,7.793
		c-5.367,0-9.82-1.699-12.566-4.82C155.608,163.633,159.14,147.992,169.433,138.961z M163.202,234.715
		c-5.848,5.676-25.672,7.23-36.996,6.898c-23.387,0-41.391-6.199-53.5-18.414c-13.035-13.156-19.523-33.543-19.281-60.598
		c0.125-13.746,4.215-22.914,9.566-29.031c3.5,4.875,8.684,14.641,9.016,30.031c1.32,58.066,47.258,57.367,62.34,57.172l5.699-0.055
		c7.852-0.082,17.625-0.227,21.898,3.996c1.684,1.652,2.5,4.105,2.5,7.461C164.444,232.852,164.296,233.656,163.202,234.715z
		 M158.913,211.68c-6.121-1.605-13.004-1.539-18.988-1.473l-5.73,0.063c-8.82,0.129-24.539,0.289-36.344-9.004
		c2.379-7.781,8.109-18.609,21.582-30.418c10.762-9.426,22.219-16.02,30.48-20.09c-2.91,9.617-2.152,19.863,4.379,27.289
		c4.758,5.441,12.02,8.426,20.461,8.426c2.016,0,4.063-0.27,6.094-0.59C176.058,193.035,168.675,202.715,158.913,211.68z
		 M194.819,213.938c-1.758,6.242-4.879,17.219-20.793,23.008c0.574-1.516,0.922-3.109,0.922-4.77c0-6.227-1.895-11.25-5.621-14.934
		c-0.168-0.168-0.363-0.273-0.531-0.426c11.941-11.602,20.156-23.672,24.434-30.773
		C196.077,202.895,195.772,210.574,194.819,213.938z"/>
</g>
</svg>
