<?xml version="1.0" encoding="utf-8"?>
<!-- Generator: Adobe Illustrator 16.0.0, SVG Export Plug-In . SVG Version: 6.00 Build 0)  -->
<!DOCTYPE svg PUBLIC "-//W3C//DTD SVG 1.1//EN" "http://www.w3.org/Graphics/SVG/1.1/DTD/svg11.dtd">
<svg version="1.1" id="Layer_1" xmlns="http://www.w3.org/2000/svg" xmlns:xlink="http://www.w3.org/1999/xlink" x="0px" y="0px"
	 width="256px" height="256px" viewBox="0 0 256 256" enable-background="new 0 0 256 256" xml:space="preserve">
<path fill="#2878C8" d="M208.112,3.844h-36.213c-2.213,2.711-49.045,62.305-55.289,83.25c-8.609,28.977,8.586,24.766,0.971,41.953
	c-3.002,6.758-11.68,11.352-29.541-2.336c-14.246-10.914,2.918-30.344,2.918-30.344c20.371-49.227,56.996-92.523,56.996-92.523
	h-44.908c0,0-29.223,43.703-41.354,83.43c-2.525,8.25-19.545,24.219-11.801,52.43c0,0,0.895,51.438,7.117,112.453h11.973
	c-0.439-11.711-1.326-31.109-0.887-50.5l4.381,0.898l2.031,30.828l4.266-29.555l6.297,1.273
	c-0.947,21.688-0.121,47.055-0.121,47.055h8.004c2.576-11.852,4.053-28.414,4.902-44.461l11.42,2.313
	c-1.939,19.461-4.426,37.133-5.152,42.148h11.191c0,0,24.516-79.836,21.105-116.898C136.419,135.258,196.14,66.844,208.112,3.844z
	 M62.351,111.25c5.221-12.156,11.67-12.836,15.459-9.047c3.297,3.305-4.697,11.609-0.932,26.492
	C80.644,143.563,51.378,136.773,62.351,111.25z M111.411,160.555c0.773,9.898,0.061,24.297-1.166,38.828l-11.838-4.344
	c0.432-12.57,0.531-23.844,0.545-30.938c-9.268,3.641-10.365,11.734-11.723,18.492c-0.455,2.273-0.826,4.984-1.145,7.922
	l-6.729-2.453l-0.592-19.43l-5.365,17.234l-4.486-1.641c1.805-23.82,6.662-43.797,18.316-43.828
	c11.057-0.016,21.203,0.5,24.516,5.227C115.224,150.609,116.382,157.328,111.411,160.555z"/>
</svg>
