<?xml version="1.0" encoding="utf-8"?>
<!-- Generator: Adobe Illustrator 16.0.0, SVG Export Plug-In . SVG Version: 6.00 Build 0)  -->
<!DOCTYPE svg PUBLIC "-//W3C//DTD SVG 1.1//EN" "http://www.w3.org/Graphics/SVG/1.1/DTD/svg11.dtd">
<svg version="1.1" id="Layer_1" xmlns="http://www.w3.org/2000/svg" xmlns:xlink="http://www.w3.org/1999/xlink" x="0px" y="0px"
	 width="256px" height="256px" viewBox="0 0 256 256" enable-background="new 0 0 256 256" xml:space="preserve">
<g>
	<path fill="#374150" d="M151.371,182.711c0,15.93-12.93,28.859-28.863,28.859H90.199c-15.93,0-28.855-12.93-28.855-28.859V73.281
		c0-15.938,12.926-28.852,28.855-28.852h32.309c15.934,0,28.863,12.914,28.863,28.852V182.711z"/>
	<path fill="#2878C8" d="M248.34,113.461c0,14.008-11.352,25.359-25.355,25.359s-25.355-11.352-25.355-25.359
		c0-13.984,11.352-25.352,25.355-25.352S248.34,99.477,248.34,113.461z"/>
	<g>
		<path fill="#2878C8" d="M157.41,138.82h40.219c0,0-0.016-38.18-40.219-44.164V138.82z"/>
		<path fill="#2878C8" d="M55.297,109.633c-21.949,5.422-34.883,9.742-34.883,9.742S7,121.781,11.602,138.82h43.695V109.633z"/>
	</g>
	<path fill="#374150" d="M55.297,144.836H8.645c-2.652,0-4.805,2.156-4.805,4.805v28.266c0,2.656,2.152,4.805,4.805,4.805h46.652
		V144.836z"/>
	<path fill="#374150" d="M247.355,144.836H157.41v37.875h89.945c2.652,0,4.805-2.148,4.805-4.805v-28.266
		C252.16,146.992,250.008,144.836,247.355,144.836z"/>
</g>
</svg>
