<?xml version="1.0" encoding="utf-8"?>
<!-- Generator: Adobe Illustrator 16.0.0, SVG Export Plug-In . SVG Version: 6.00 Build 0)  -->
<!DOCTYPE svg PUBLIC "-//W3C//DTD SVG 1.1//EN" "http://www.w3.org/Graphics/SVG/1.1/DTD/svg11.dtd">
<svg version="1.1" id="Layer_1" xmlns="http://www.w3.org/2000/svg" xmlns:xlink="http://www.w3.org/1999/xlink" x="0px" y="0px"
	 width="256px" height="256px" viewBox="0 0 256 256" enable-background="new 0 0 256 256" xml:space="preserve">
<g>
	<path fill="#374150" d="M155.129,237.929c-6.395,3.848-12.957,5.555-18.914,6.184c-12.777,0.926-23.035-2.121-30.797-5.457
		c-1.047-0.453-2.047-0.926-3.016-1.395c-13.688,5.602-14.762,14.898-14.762,14.898h80.734
		C168.375,252.159,167.363,243.565,155.129,237.929z"/>
	<path fill="#2878C8" d="M97.293,224.827c-0.332,0.656,0.773,1.961,3.215,3.848c2.453,1.871,6.336,4.16,11.777,6.359
		c5.426,2.121,12.594,4.07,21.535,3.469c4.441-0.422,9.367-1.605,14.125-4.441c4.652-2.863,9.215-7.516,11.262-13.926
		c2.258-6.277,1.395-14.234-2.637-20.43c-2-3.047-4.609-5.73-7.578-7.738c-0.727-0.492-1.484-0.965-2.242-1.402l-0.852,24.34h-0.105
		c-0.043,0.426-0.043,0.848-0.137,1.273c-0.516,2.781-2.379,5.344-4.773,7.289c-2.484,1.91-5.563,3.176-8.684,3.91
		c-6.367,1.32-12.672,0.867-17.793,0C104.098,225.546,98.008,223.347,97.293,224.827z"/>
	<path fill="#2878C8" d="M175.484,110.979l-0.652,1.305c-0.848,1.75-2.09,3.492-3.469,5.203
		c-5.668,6.875-14.867,12.043-24.871,13.922c-5.031,0.941-10.293,1.289-15.629,0.715c-1.332-0.063-2.652-0.395-4-0.563l-4.848-0.773
		c-3.852-0.695-7.914-0.809-11.977-0.652c-8.152,0.555-16.641,3.133-23.656,8.52c-6.941,5.32-12.445,13.457-13.477,22.871
		c-1.227,9.352,2.488,18.996,8.293,24.992c5.711,6.281,12.641,9.746,19.219,12.02c3.105,1.043,6.184,1.832,9.215,2.43l-0.668-19.285
		c-0.684-0.242-1.379-0.469-2.047-0.727c-4.516-1.828-8.547-4.379-10.914-7.41c-2.516-2.996-3.227-6.184-2.727-9.277
		c0.469-3.137,2.668-6.258,5.836-8.488c3.199-2.242,7.441-3.453,12.004-3.613c2.316,0.047,4.668,0.129,7.094,0.68l4.574,0.887
		c1.82,0.313,3.594,0.758,5.457,0.934c7.32,1.023,14.898,0.848,22.313-0.324c14.805-2.41,29.008-9.457,39.176-20.992
		c2.516-2.934,4.836-6.055,6.715-9.609l1.379-2.668c0.441-0.91,0.789-1.91,1.168-2.863c0.332-0.91,0.805-2.047,0.984-2.773
		l0.668-2.328c0.895-3.09,1.758-6.16,2.363-9.313c0.32-1.563,0.668-3.102,0.941-4.66c0.227-1.586,0.453-3.152,0.668-4.715
		c0.012-0.074,0.012-0.152,0.027-0.219c-6.484,6.258-15.793,12.328-29.07,16.52C175.531,110.812,175.516,110.897,175.484,110.979z"
		/>
	<path fill="#374150" d="M132.652,221.179c2.258-0.621,4.473-1.527,6.457-2.742l1.957-56.258c-4.305,0.164-8.609,0.016-12.824-0.578
		c-1.863-0.164-3.637-0.621-5.457-0.922l-4.574-0.895c-1.137-0.258-2.258-0.41-3.367-0.5l2.184,62.77
		C121.727,222.515,127.199,222.515,132.652,221.179z"/>
	<path fill="#374150" d="M113.57,123.089c2.883,0.016,5.715,0.211,8.445,0.699l4.848,0.777c1.348,0.168,2.668,0.5,4,0.555
		c3.898,0.426,7.746,0.348,11.504-0.09l0.531-15.188c70.539-5.547,74.797-50.313,74.797-50.313H38.305
		c0,0,4.273,44.766,74.813,50.313L113.57,123.089z"/>
	<path fill="#2878C8" d="M195.492,41.956c-1.457-2.348-2.895-4.652-4.441-6.805c-1.652-2.039-3.152-4.152-4.895-5.941
		c-6.762-7.336-13.977-12.488-20.309-15.883c-3.168-1.789-6.414-3.031-9.125-4.289c-2.789-1.113-5.398-1.773-7.535-2.453
		c-2.137-0.746-3.984-0.941-5.379-1.23c-1.395-0.258-2.363-0.422-2.863-0.523c-4.109-0.734-10.715-1.309-18.172-0.793
		c-7.398,0.711-15.492,2.703-22.355,5.895C86.547,16.237,77.984,26.917,83,33.304c4.883,6.352,14.961,3.105,26.07,0.629
		c5.5-1.297,11.172-2.379,16.156-2.934c4.941-0.324,9.23-0.332,11.867,0.094c1.273,0.348,7.426,0.641,16.141,5.305
		c4.531,2.316,9.336,5.766,13.793,10.434c1.668,1.734,3.199,3.734,4.637,5.887h28.813C199.055,48.929,197.309,45.339,195.492,41.956
		z M92.109,24.104c3.82-11.777,17.93-9.473,17.93-9.473C105.492,24.663,92.109,24.104,92.109,24.104z"/>
</g>
</svg>
