<?xml version="1.0" encoding="utf-8"?>
<!-- Generator: Adobe Illustrator 16.0.0, SVG Export Plug-In . SVG Version: 6.00 Build 0)  -->
<!DOCTYPE svg PUBLIC "-//W3C//DTD SVG 1.1//EN" "http://www.w3.org/Graphics/SVG/1.1/DTD/svg11.dtd">
<svg version="1.1" id="Layer_1" xmlns="http://www.w3.org/2000/svg" xmlns:xlink="http://www.w3.org/1999/xlink" x="0px" y="0px"
	 width="256px" height="256px" viewBox="0 0 256 256" enable-background="new 0 0 256 256" xml:space="preserve">
<g>
	<path fill="#374150" d="M232.622,85.909c-6.414-58.426-57.664-86.875-112.598-81.402c-26.445,2.637-49.91,12.668-65.656,34.629
		C43.122,54.808,38.72,75.769,39.407,94.792c0.281,7.773,5.988,17.898,4.594,24.961c-2.531,12.945-16.414,23.613-20.922,36.238
		c-3.367,9.398,5.484,13.188,12.555,15.535c1.973,0.652,3.926,1.32,5.859,2.047c-0.371,0.258-0.434,1.227-0.934,3.336
		c-0.848,3.559,0.895,6.363,3.383,8.516c-1.563,5.988,1.816,10.336,8.242,13.43c-0.277,13.805,2.805,26.797,18.566,29.965
		c16.664,3.348,37.77-2.973,44.289,18.309c2.676,8.715,16.367,5,13.684-3.777c-3.305-10.758-11.699-20.898-22.309-24.977
		c-9.383-3.621-18.816-2.621-28.66-2.984c-13.094-0.457-11.914-10.52-11.199-21.234c0.211-3.199-2.336-5.926-5.215-6.836
		c-0.813-0.242-1.621-0.516-2.418-0.805c-0.023-0.012-0.039-0.012-0.055-0.027c2.262-3.957,1-8.262-3.289-10.324
		c1.746-5.242,3.004-8.848-3.484-13.457c-3.5-2.484-8.684-3.547-12.688-4.852c-0.816-0.27-1.422-0.258-1.906-0.137
		c0.156-0.27,0.301-0.5,0.484-0.879c1.402-2.922,3.332-5.652,5.09-8.363c5.246-8.094,15.492-18.75,15.293-29.055
		c-0.137-7.914-4.023-15.082-4.676-22.961c-1.371-16.598,2.828-33.648,11.391-47.852c14.34-23.75,42.984-30.16,68.809-30.781
		c23.844-0.574,47.637,6.715,64.652,23.84c21.527,21.66,22.461,54.898,19.738,83.332c-1.887,19.715-10.289,36.555-16.293,55.047
		c-7.121,21.914-2.195,45.484,3.57,67.082c2.355,8.82,16.043,5.074,13.68-3.777c-7.164-26.824-8.527-48.363,1.879-74.008
		C231.825,142.929,235.735,114.327,232.622,85.909z"/>
	<path fill="#374150" d="M107.802,103.929c-11.785-5.195-25.152-6.879-37.988-6.289c-9.109,0.41-9.148,14.609,0,14.188
		c1.258-0.063,2.574-0.031,3.863-0.063c-0.453,3.805,1.715,8.199,6.66,8.594c8.543,0.684,17.742-0.258,25.766-3.469
		C111.036,114.917,114.114,106.718,107.802,103.929z"/>
	<path fill="#374150" d="M181.149,91.14c-12.699-3.473-25.219,3.758-27.023,17.141c-1.195,8.941,12.469,12.809,13.688,3.773
		c0.59-4.41,2.531-8.32,7.684-7.609c9.199,1.258,8.926,7.836,7.152,15.641c-1.969,8.746-9.23,12.535-11.895,20.434
		c-0.773,2.316-0.555,8.184-2.699,9.609c-2.266,1.516-2.273-1.563-1.957-2.383c3.262-8.563-10.465-12.23-13.684-3.758
		c-4.805,12.625,8.07,22.418,19.793,19.672c6.473-1.516,10.277-8.215,11.094-14.305c0.691-5.215,3.699-7.047,6.684-10.988
		c3.305-4.352,4.902-9.277,6.352-14.504C200.321,109.491,196.563,95.335,181.149,91.14z"/>
	<path fill="#2878C8" d="M84.302,153.808c-4.539,0-8.23,3.684-8.23,8.23s3.691,8.23,8.23,8.23c4.547,0,8.23-3.684,8.23-8.23
		S88.849,153.808,84.302,153.808z"/>
	<path fill="#2878C8" d="M99.192,193.702c3.918,0,7.094-3.168,7.094-7.094s-3.176-7.094-7.094-7.094s-7.102,3.168-7.102,7.094
		S95.274,193.702,99.192,193.702z"/>
	<path fill="#2878C8" d="M129.255,166.101c-3.918,0-7.094,3.184-7.094,7.094c0,3.926,3.176,7.094,7.094,7.094
		c3.91,0,7.094-3.168,7.094-7.094C136.349,169.284,133.165,166.101,129.255,166.101z"/>
	<path fill="#2878C8" d="M111.165,159.917c3.918,0,7.094-3.184,7.094-7.094c0-3.926-3.176-7.094-7.094-7.094s-7.09,3.168-7.09,7.094
		C104.075,156.733,107.247,159.917,111.165,159.917z"/>
	<path fill="#2878C8" d="M76.892,83.788c3.926,0,7.094-3.168,7.094-7.094c0-3.91-3.168-7.094-7.094-7.094
		c-3.91,0-7.094,3.184-7.094,7.094C69.798,80.62,72.981,83.788,76.892,83.788z"/>
	<path fill="#2878C8" d="M102.868,59.96c-3.91,0-7.094,3.168-7.094,7.094c0,3.91,3.184,7.094,7.094,7.094
		c3.926,0,7.094-3.184,7.094-7.094C109.962,63.128,106.794,59.96,102.868,59.96z"/>
	<path fill="#2878C8" d="M124.786,101.55c4.547,0,8.227-3.684,8.227-8.23s-3.68-8.227-8.227-8.227s-8.23,3.68-8.23,8.227
		S120.239,101.55,124.786,101.55z"/>
</g>
</svg>
