<?xml version="1.0" encoding="utf-8"?>
<!-- Generator: Adobe Illustrator 16.0.0, SVG Export Plug-In . SVG Version: 6.00 Build 0)  -->
<!DOCTYPE svg PUBLIC "-//W3C//DTD SVG 1.1//EN" "http://www.w3.org/Graphics/SVG/1.1/DTD/svg11.dtd">
<svg version="1.1" id="Layer_1" xmlns="http://www.w3.org/2000/svg" xmlns:xlink="http://www.w3.org/1999/xlink" x="0px" y="0px"
	 width="256px" height="256px" viewBox="0 0 256 256" enable-background="new 0 0 256 256" xml:space="preserve">
<g>
	<g>
		<g>
			<path fill="#2878C8" d="M121.205,118.509c-21.648,5.75-38.676,21.703-45.301,43.156c-1.82,5.844,7.336,8.336,9.141,2.516
				c5.652-18.297,20.277-31.633,38.676-36.516C129.635,126.103,127.123,116.954,121.205,118.509L121.205,118.509z"/>
		</g>
	</g>
	<g>
		<g>
			<path fill="#2878C8" d="M164.752,121.376c5-0.305,10,0.953,14.02,3.984c4.871,3.703,9.594-4.547,4.781-8.195
				c-5.176-3.914-12.348-5.656-18.801-5.258C158.674,112.267,158.635,121.759,164.752,121.376L164.752,121.376z"/>
		</g>
	</g>
	<path fill="#2878C8" d="M64.174,56.915c-12.141,0.047-25.207,4.945-25.207,4.945s-4.16,11.531,5.035,18.156
		c0,0,10.242-1.336,20.723-1.031C64.885,71.009,64.6,63.313,64.174,56.915z"/>
	<path fill="#2878C8" d="M49.092,135.368c0.531-7.641,2.352-13.414,3.715-16.828c-6.875-0.938-16.734-1.68-25.434,2.109
		c0,0-4.32,5.141-0.758,13.672c0,0,6.441,0.547,14.375,1.922c-6.113,2.195-12.996,5.773-17.602,9.25c0,0-1.305,9.289,4.598,15.352
		c0,0,10.512-2.789,21.531-3.758C48.607,150.11,48.561,142.985,49.092,135.368z"/>
	<path fill="#2878C8" d="M230.498,95.063c-7.523-3.016-17.734-0.453-17.734-0.453c2.383-4.141,10.891-8.93,10.891-8.93
		c0.449-9.242-5.355-12.609-5.355-12.609c-7.973-0.516-16.793,2.336-22.645,5c4.637,5.352,13.941,18.391,13.813,36.422
		c10.422-2.648,21.91-3.422,21.91-3.422C234.877,103.368,230.498,95.063,230.498,95.063z"/>
	<path fill="#2878C8" d="M160.174,38.532c3.258-11.047,9.852-21.43,9.852-21.43c-4.078-6.742-12.777-7.773-12.777-7.773
		c-9.305,7.422-11.973,14.195-11.973,14.195c-0.5-6.117,1.137-13.898,1.137-13.898c-6.883-5.195-12.527-2.516-12.527-2.516
		c-3.902,3.914-6.344,8.555-7.91,12.766c-2.641-9.031-6.973-15.609-6.973-15.609s-11.891-2.977-17.535,6.836
		c0,0,2.613,11.094,3.25,22C113.232,28.681,136.318,20.04,160.174,38.532z"/>
	<path fill="#374150" d="M204.74,120.485c0.355-7.156-0.055-23.734-10.141-35.273c-5.934-6.773-14.156-10.453-24.242-11.367
		c9.641-5.469,22.113-4.422,22.113-4.422s4.32-2.531,5.523-9.414c1.207-6.898-1.551-10.93-1.551-10.93
		c-5.762-1.211-18.789-2.922-32.617,1.953c-1.336-1.844-2.395-3.313-2.547-3.555c-3.168-4.578-15.035-18.719-39.043-14.961
		c-13.398,2.094-23.281,7.664-29.734,16.305c-1.426-8.109-0.371-13-0.371-13s-4.543-4.016-12.18-3.93
		c-7.473,0.094-12.309,4.914-12.309,4.914s3.102,43.406,1.289,64.578c-2.031,2.094-3.984,4.32-5.734,6.836
		c-8.785,12.688-16.301,35.68-2.223,73.156c2.684,7.156,5.941,13.492,9.52,19.281c-0.668,9.82-1.855,23.023-3.758,31.266
		l-0.758,3.305c0,0,2.09,5.016,11.973,7.531c6.949,1.773,13.254-2.906,13.254-2.906s1.434-6.242,2.703-13.016
		c28.426,22.094,63.902,25.32,81.945,25.32h0.008c9.91,0,16.996-0.891,20.34-1.422c11.516-1.867,20.777-13.203,26.066-31.969
		C231.256,186.931,226.967,142.368,204.74,120.485z M101.596,57.915c4.273-6.727,11.883-10.984,22.625-12.656
		c15.371-2.375,23.191,5.32,25.754,8.563c0.164,0.234,1.105,1.445,2.285,3.008c0,0-5.016,2.602-8.773,6.602
		c0,0-9.602-5.68-15.398-0.227c-5.797,5.445-0.984,15.898-0.984,15.898s-4.473,3.734-7.199,9.898c-3.949-2.031-8.422-3.563-13.461-4
		c-0.637-0.047-1.324-0.078-2.059-0.078c-1.859,0-3.898,0.242-5.988,0.594C96.775,77.36,96.197,66.462,101.596,57.915z
		 M209.854,215.267c-3.68,13.055-9.699,21.766-15.715,22.719c-2.957,0.484-9.262,1.289-18.277,1.289h-0.008
		c-23.863-0.016-81.633-6.094-102.797-62.43c-9.594-25.523-9.34-46.711,0.742-61.273c8.957-12.93,23.512-17.75,30.586-17.75
		c0.34,0,0.664,0.016,0.969,0.031c13.777,1.18,22.703,15.555,22.773,15.688c0,0,1.809,2.852,2.961,4.938
		c9.441-6.82,23.668-3.195,23.668-3.195s0.637-19.25,7.418-28.797c10.434-0.727,17.77,1.609,22.672,7.188
		c9.066,10.305,6.836,28.383,6.813,28.57l-0.461,3.453l2.652,2.289C213.416,144.774,217.92,186.673,209.854,215.267z"/>
</g>
</svg>
