<?xml version="1.0" encoding="utf-8"?>
<!-- Generator: Adobe Illustrator 16.0.0, SVG Export Plug-In . SVG Version: 6.00 Build 0)  -->
<!DOCTYPE svg PUBLIC "-//W3C//DTD SVG 1.1//EN" "http://www.w3.org/Graphics/SVG/1.1/DTD/svg11.dtd">
<svg version="1.1" id="Layer_1" xmlns="http://www.w3.org/2000/svg" xmlns:xlink="http://www.w3.org/1999/xlink" x="0px" y="0px"
	 width="256px" height="256px" viewBox="0 0 256 256" enable-background="new 0 0 256 256" xml:space="preserve">
<g>
	<path fill="#2878C8" d="M113.926,54.801c-15.641,0-64.469,93.941-64.469,129.527s28.875,64.445,64.469,64.445
		c35.59,0,64.449-28.859,64.449-64.445S129.539,54.801,113.926,54.801z M109.59,234.797c-25.191-4.879-45.348-25.977-44.949-52.457
		c0.23-14.578,22.836-14.594,22.602,0c-0.016,1.016,0.547,5.535,0.098,2.805c0.496,2.988,1.172,6.699,2.336,9.172
		c5.211,11.168,13.988,16.367,25.926,18.688C129.906,215.793,123.828,237.57,109.59,234.797z"/>
	<path fill="#2878C8" d="M211.352,7.227c-9.898,0-40.82,59.488-40.82,82.027c0,22.535,18.285,40.797,40.82,40.797
		c22.531,0,40.809-18.262,40.809-40.797C252.16,66.715,221.234,7.227,211.352,7.227z M208.609,121.215
		c-15.957-3.09-28.719-16.457-28.457-33.223c0.141-9.227,14.457-9.242,14.305,0c-0.008,0.652,0.348,3.504,0.059,1.789
		c0.316,1.879,0.746,4.23,1.473,5.805c3.313,7.063,8.863,10.352,16.426,11.824C221.473,109.168,217.625,122.961,208.609,121.215z"/>
	<path fill="#2878C8" d="M36.301,7.227c-7.879,0-32.461,47.301-32.461,65.23c0,17.918,14.535,32.453,32.461,32.453
		c17.922,0,32.449-14.535,32.449-32.453C68.75,54.527,44.164,7.227,36.301,7.227z M34.121,97.875
		c-12.688-2.469-22.844-13.094-22.641-26.43c0.117-7.336,11.5-7.336,11.383,0c-0.008,0.527,0.281,2.801,0.047,1.422
		c0.25,1.516,0.594,3.379,1.176,4.609c2.629,5.637,7.043,8.242,13.055,9.41C44.344,88.281,41.289,99.254,34.121,97.875z"/>
</g>
</svg>
