<?xml version="1.0" encoding="utf-8"?>
<!-- Generator: Adobe Illustrator 16.0.0, SVG Export Plug-In . SVG Version: 6.00 Build 0)  -->
<!DOCTYPE svg PUBLIC "-//W3C//DTD SVG 1.1//EN" "http://www.w3.org/Graphics/SVG/1.1/DTD/svg11.dtd">
<svg version="1.1" id="Layer_1" xmlns="http://www.w3.org/2000/svg" xmlns:xlink="http://www.w3.org/1999/xlink" x="0px" y="0px"
	 width="256px" height="256px" viewBox="0 0 256 256" enable-background="new 0 0 256 256" xml:space="preserve">
<g>
	<path fill="#374150" d="M171.389,187.217c-13.164,10.668-29.859,17.004-47.855,17.004c-4.176,0-8.391-0.395-12.551-1.074
		c0,0,2.918-0.336,6.957-2.609c9.496-5.348,6.531-10.094,10.746-18.109c4.207-8.02-5.641-14.203-19.695-22.887
		c-1.207-0.742-2.313-1.395-3.387-2c-0.016,0.148-0.008,0.285-0.031,0.438c-1.371,10.762-9.246,19.082-19.172,21.566
		c3.41,4.32,8.715,8.172,8.457,12.203c-0.199,3.152-1.867,6.105-2.781,5.699c-12.285-5.547-22.578-14.234-30.207-24.844
		c-1.234-1.273-2.355-2.652-3.305-4.152c-7.145-0.637-13.43-1.574-18.906-2.758c12.039,26.66,36.496,47.211,67.391,52.805
		c5.449,0.984,10.996,1.484,16.484,1.484c19.172,0,37.133-5.91,52.016-16.141C172.068,198.979,170.955,193.217,171.389,187.217z"/>
	<path fill="#374150" d="M83.412,129.334c4.875,0.621,9.23,2.59,12.793,5.457c11.898-1.563,23.582-3.91,6.23-19.418
		c-34.18-30.523,5.805-42.996,4.258-30.824c-1.547,12.152,12.328,25.461,15.066,15.168c2.75-10.289,9.008-10.805,22.664-13.305
		c9.23-1.699,14.309-15.703,16.637-24.586c9.766,5.563,18.094,13.125,24.469,22.113c-7.004,3.23-16.648,9.004-13.688,15.34
		c4.504,9.684,12.609,18.625,4.199,20.355c-8.41,1.742-32.063-0.41-34.859,24.582c-2.813,24.977,17.27,16.188,21.984,16.551
		c2.813,0.195,8.223,5.563,11.102,13.488c2.25-6.199,5.488-12.078,8.746-16.852c8.645-12.672,19.641-22.191,32.273-24.828
		c2.289-45.438-29.508-86.738-75.445-95.074c-5.449-0.984-10.988-1.484-16.484-1.484c-44.445,0-82.473,31.781-90.414,75.582
		c-1.492,8.277-1.805,16.477-1.098,24.465c6.699,2.516,15.633,4.363,26.422,5.441C63.354,133.092,73.053,127.998,83.412,129.334z"/>
	<g>
		<path fill="#2878C8" d="M240.803,146.174c1.426-6.293,2.008-16.051-3.977-25.629c-3.723-5.957-9.422-10.855-16.992-14.734
			c1.387,6.004,2.215,12.172,2.449,18.445c1.121,1.168,2.039,2.336,2.758,3.457c2.84,4.469,3.191,9.109,2.797,12.715
			c-15.664-3.32-28.82,6.867-38.762,21.445c-8.715,12.777-17.961,34.102-0.16,44.059c7.781,4.352,14.73-7.578,6.973-11.926
			c-8.641-4.82-0.063-16.734,3.355-22.418c6.609-11.031,16.406-22.809,30.344-16.246c20.414,9.609-1.199,56.094-13.238,49.773
			c-7.875-4.137-14.848,7.773-6.973,11.914c16.855,8.852,28.789-6.641,35.449-20.191C252.631,180.939,257.9,157.947,240.803,146.174
			z"/>
		<path fill="#2878C8" d="M82.564,136.018c-8.957-1.137-17.238,4.199-20.148,12.383c-28.047-2.199-44.781-9.277-44.781-19.551
			c0-4.246,1.426-7.535,4.473-10.367c0.906-0.848,1.969-1.605,3.09-2.32c0.25-1.805,0.539-3.699,0.918-5.789
			c0.676-3.758,1.629-7.395,2.711-10.973c-6.023,2.016-11.691,4.863-16.102,8.957c-5.813,5.395-8.883,12.488-8.883,20.492
			c0,13.852,10.836,30.086,59.074,33.434c2.582,5.867,8.055,10.293,14.867,11.156c10.328,1.316,19.785-5.988,21.105-16.324
			C100.205,146.779,92.9,137.338,82.564,136.018z"/>
	</g>
</g>
</svg>
