<?xml version="1.0" encoding="utf-8"?>
<!-- Generator: Adobe Illustrator 16.0.0, SVG Export Plug-In . SVG Version: 6.00 Build 0)  -->
<!DOCTYPE svg PUBLIC "-//W3C//DTD SVG 1.1//EN" "http://www.w3.org/Graphics/SVG/1.1/DTD/svg11.dtd">
<svg version="1.1" id="Layer_1" xmlns="http://www.w3.org/2000/svg" xmlns:xlink="http://www.w3.org/1999/xlink" x="0px" y="0px"
	 width="256px" height="256px" viewBox="0 0 256 256" enable-background="new 0 0 256 256" xml:space="preserve">
<g>
	<path fill="#374150" d="M237.585,83.215v-16c0-4.145-3.391-7.531-7.535-7.531h-12.23c-4.137,0-9.457,2.781-11.828,6.176
		l-10.633,15.234h-47.031l-6-12.074c-0.918-1.855-3.367-3.371-5.441-3.371h-34.551c-2.066,0-4.516,1.516-5.434,3.371l-6,12.074
		h-7.16c-55.52,0-71.508,41.004-71.508,73.391c0,32.391,16.535,43.918,48.922,43.918h50.813c29.523,0,42.527-17.438,55.02-49.078
		l31.082-8.207l7.922,11.352c2.371,3.398,7.691,6.18,11.828,6.18h12.23c4.145,0,7.535-3.391,7.535-7.527v-16.004
		c7.711-6.023,12.699-15.391,12.699-25.949C250.284,98.613,245.296,89.246,237.585,83.215z M95.659,146.332
		c0,6.207-5.078,11.293-11.289,11.293H38.573c-13.793,0-14.738-60.535,40.461-60.535h5.336c6.211,0,11.289,5.086,11.289,11.289
		V146.332z M160.976,129.207h-15.68v15.496h-18.898v-15.496h-15.68v-18.16h15.68V95.633h18.898v15.414h15.68V129.207z
		 M217.351,126.098c-9.352,0-16.93-7.578-16.93-16.93c0-9.359,7.578-16.938,16.93-16.938c9.359,0,16.945,7.578,16.945,16.938
		C234.296,118.52,226.71,126.098,217.351,126.098z"/>
	<path fill="#2878C8" d="M192.894,50.422c-10.145-2.668-33.578-8.992-43.73-11.652c-9.004-2.367-20.113-7.488-29.547-7.488
		c-9.438,0-20.547,5.121-29.547,7.488c-10.156,2.66-33.594,8.984-43.734,11.652c-9.836,2.578-5.66,17.801,4.199,15.219
		c8.449-2.223,26.672-7.141,37.883-10.117h62.398c11.207,2.977,29.434,7.895,37.891,10.117
		C198.558,68.223,202.733,53,192.894,50.422z"/>
	<path fill="#2878C8" d="M147.495,196.637c-10.48,10.949-27.844,12.48-44.984,12.512c-3.895,0.008-11.82,0.008-19.203,0.008
		c-7.375,0-15.309,0-19.195-0.008c-17.141-0.031-34.504-1.563-44.984-12.512c-7.047-7.383-18.211,3.813-11.168,11.168
		c14.27,14.922,35.336,16.871,56.152,16.898c3.852,0.008,11.809,0.016,19.195,0.016c7.395,0,15.352-0.008,19.203-0.016
		c20.816-0.027,41.883-1.977,56.152-16.898C165.706,200.449,154.542,189.254,147.495,196.637z"/>
</g>
</svg>
