<?xml version="1.0" encoding="utf-8"?>
<!-- Generator: Adobe Illustrator 16.0.0, SVG Export Plug-In . SVG Version: 6.00 Build 0)  -->
<!DOCTYPE svg PUBLIC "-//W3C//DTD SVG 1.1//EN" "http://www.w3.org/Graphics/SVG/1.1/DTD/svg11.dtd">
<svg version="1.1" id="Layer_1" xmlns="http://www.w3.org/2000/svg" xmlns:xlink="http://www.w3.org/1999/xlink" x="0px" y="0px"
	 width="256px" height="256px" viewBox="0 0 256 256" enable-background="new 0 0 256 256" xml:space="preserve">
<g>
	<g>
		<path fill="#374150" d="M128.003,252.16c-68.465,0-124.16-55.703-124.16-124.164S59.538,3.84,128.003,3.84
			c68.463,0,124.154,55.695,124.154,124.156S196.466,252.16,128.003,252.16z M128.003,20.145
			c-59.467,0-107.85,48.383-107.85,107.852c0,59.461,48.383,107.836,107.85,107.836c59.469,0,107.846-48.375,107.846-107.836
			C235.849,68.527,187.472,20.145,128.003,20.145z"/>
	</g>
	<g>
		<path fill="#2878C8" d="M151.487,111.551c-18.484,3.789-28.027-17.063-28.027-33.922c0-19.047,15.463-34.523,34.533-34.523
			c19.066,0,31.994,13.414,31.994,32.5c0,9.516-6.092,17.141-7.586,26.445c-1.492,9.305,0.289,24.836-2.342,44.664
			c-4,30.086-52.35,85.508-83.057,49.047c-3.975-4.727-8.168-15.266-8.535-26.18c0,0-16.146,24.133-26.137,18.219
			c-10-5.891-19.113-17.742-15.082-22.914c5.086-6.531,12.307,3.789,16.852,1.984c4.547-1.82,11.174-19.273,15.277-25.641
			c4.1-6.352,19.982-9.609,27.234,11.305c0,0,1.955-9.461,15.01-17.852c0,0-7.189-3.852-11.479-12.297
			c-2.791-5.469-3.758-15.484-6.91-18.078c0,0-16.369-11.641-6.105-22.719c4.264-4.625,7.314-5.641,10.996-0.984
			c0,0,6.23-6.156,7.814,3.258c1.584,9.398,1.758,18.063,8.969,28.508c4.084,5.898,11.021,9.414,14.117,10
			C145.841,123.66,152.263,115.934,151.487,111.551z"/>
	</g>
</g>
</svg>
