<?xml version="1.0" encoding="utf-8"?>
<!-- Generator: Adobe Illustrator 16.0.0, SVG Export Plug-In . SVG Version: 6.00 Build 0)  -->
<!DOCTYPE svg PUBLIC "-//W3C//DTD SVG 1.1//EN" "http://www.w3.org/Graphics/SVG/1.1/DTD/svg11.dtd">
<svg version="1.1" id="Layer_1" xmlns="http://www.w3.org/2000/svg" xmlns:xlink="http://www.w3.org/1999/xlink" x="0px" y="0px"
	 width="256px" height="256px" viewBox="0 0 256 256" enable-background="new 0 0 256 256" xml:space="preserve">
<g>
	<path fill="#2878C8" d="M226.133,59.84c-24.234-26.391-50.85-24.711-79.92-13.914c-35.746,13.258-37.082-40.852-37.082-40.852
		H81.939c-2.902,58.461,41.035,73.328,41.035,73.328c37.076,66.992-9.949,97.984-9.949,97.984
		c-20.26-7.664-35.758,1.773-35.758,1.773s-20.711-21.594-47.855-2.836C1.414,194.668,3.896,250.926,3.896,250.926h28.945
		c-0.49-29.688,10.461-43.953,10.461-43.953c14.217,12.594,30.566,4.203,30.566,4.203s64.57,66.609,140.941,6.164
		C273.465,170.918,251.656,87.652,226.133,59.84z M174.191,216.48c-56.656,19.609-87.713-19.422-87.713-19.422
		c9.08-9.289,33.029-2.211,33.029-2.211c26.418-5.609,35.633-38.57,35.633-38.57s28.797,11.789,71.613,0
		C226.754,156.277,218.705,201.09,174.191,216.48z"/>
</g>
</svg>
