<?xml version="1.0" encoding="utf-8"?>
<!-- Generator: Adobe Illustrator 16.0.0, SVG Export Plug-In . SVG Version: 6.00 Build 0)  -->
<!DOCTYPE svg PUBLIC "-//W3C//DTD SVG 1.1//EN" "http://www.w3.org/Graphics/SVG/1.1/DTD/svg11.dtd">
<svg version="1.1" id="Layer_1" xmlns="http://www.w3.org/2000/svg" xmlns:xlink="http://www.w3.org/1999/xlink" x="0px" y="0px"
	 width="256px" height="256px" viewBox="0 0 256 256" enable-background="new 0 0 256 256" xml:space="preserve">
<g>
	<path fill="#374150" d="M61.822,128.537c0,0,11.004-20.352,13.695-25.414c2.289-4.289,7.668-9.824,16.699-9.824
		c9.035,0,14.277,5.094,16.887,10.762c3.426,7.488,8.625,18.793,8.625,18.793c5.816-12.883,10.031-22.293,15.891-35.16
		c2.809-6.168,8.129-10.867,16.004-10.867s13.223,3.031,18.695,10.836c10.289,14.73,17.777,26.039,27.902,40.875h20.445
		c1.426-6.242,2.258-12.625,2.289-19.203c0.16-28.945-14.086-54.316-34.648-61.652c-6.41-2.305-12.77-3.457-18.883-3.457
		c-18.203,0-30.57,9.941-37.445,17.688c-6.871-7.746-19.238-17.688-37.434-17.688c-6.117,0-12.473,1.152-18.895,3.457
		C51.1,55.018,36.854,80.389,37.006,109.334c0.043,6.578,0.871,12.961,2.301,19.203H61.822z"/>
	<path fill="#374150" d="M168.842,153.439c-5.539-8.137-10.223-14.957-15.543-22.75c0,0-11.457,25.645-18.363,40.543
		c-3.582,7.746-9.402,11.504-17.109,11.504s-13.953-4.547-16.59-10.184c-3.742-7.988-9.625-20.992-9.625-20.992
		s-2.938,3.652-5.484,6.668c-2.668,3.152-6.957,4.352-10.535,4.352c-6.805,0-20.59,0-20.59,0
		c15.133,20.688,39.293,37.559,70.559,48.348l2.418,0.848l2.426-0.848c31.262-10.789,55.418-27.66,70.559-48.348
		c0,0-14.609,0-16.199,0C181.564,162.58,174.479,161.717,168.842,153.439z"/>
	<path fill="#2878C8" d="M235.568,128.963c-6.109,0-11.398,3.336-14.277,8.246c-4.047,0-8.094,0-12.141,0
		c-4.141,0-12.809,0-19.105,0c-10.465-15.34-20.438-29.934-30.902-45.258c-1.586-2.32-4.012-5.621-9.344-5.563
		c-3.031,0.031-6.133,2.137-7.836,5.941c-8.141,18.156-24.191,53.488-24.191,53.488c-5.836-12.734-11.41-24.902-17.262-37.621
		c-1.215-2.664-3.168-4.863-7.383-5.258c-4.219-0.41-7.605,2.137-8.965,4.637c-3.176,5.898-15.828,29.375-15.938,29.633
		c-15.82,0-40.48,0-56.305,0c-10.773,0-10.773,16.715,0,16.715c16.734,0,39.898,0,56.625,0c7.758,0,11.988-2.895,14.898-8.105
		c3.168-5.699,8.789-15.777,8.789-15.777c5.867,12.805,11.73,25.582,17.605,38.375c1.191,2.59,3.902,4.563,8.039,4.469
		c4.141-0.074,6.762-1.863,7.938-4.469c8.676-19.188,17.352-38.391,26.027-57.566c8.512,12.461,15.887,23.25,24.387,35.711
		c5.313,7.773,13.035,7.363,21.348,7.363c6.906,0,15.527,0,23.723,0c2.887,4.914,8.16,8.246,14.27,8.246
		c9.16,0,16.594-7.441,16.594-16.609C252.162,136.389,244.729,128.963,235.568,128.963z"/>
</g>
</svg>
