<?xml version="1.0" encoding="utf-8"?>
<!-- Generator: Adobe Illustrator 16.0.0, SVG Export Plug-In . SVG Version: 6.00 Build 0)  -->
<!DOCTYPE svg PUBLIC "-//W3C//DTD SVG 1.1//EN" "http://www.w3.org/Graphics/SVG/1.1/DTD/svg11.dtd">
<svg version="1.1" id="Layer_1" xmlns="http://www.w3.org/2000/svg" xmlns:xlink="http://www.w3.org/1999/xlink" x="0px" y="0px"
	 width="256px" height="256px" viewBox="0 0 256 256" enable-background="new 0 0 256 256" xml:space="preserve">
<g>
	<path fill="#2878C8" d="M89.617,68.539c-8.031,8.02-21.066,8.051-29.098,0l29.105-29.098C97.66,47.473,97.652,60.508,89.617,68.539
		z"/>
	<path fill="#2878C8" d="M89.617,143.898c-8.031,8.016-21.066,8.047-29.098,0l29.105-29.102
		C97.66,122.832,97.652,135.863,89.617,143.898z"/>
	<path fill="#2878C8" d="M89.617,216.555c-8.031,8.035-21.066,8.051-29.098,0l29.105-29.082
		C97.66,195.504,97.652,208.539,89.617,216.555z"/>
	<path fill="#2878C8" d="M195.469,68.539c-8.023,8.02-21.066,8.051-29.09,0l29.105-29.098
		C203.52,47.473,203.512,60.508,195.469,68.539z"/>
	<path fill="#2878C8" d="M195.469,143.898c-8.023,8.016-21.066,8.047-29.09,0l29.105-29.102
		C203.52,122.832,203.512,135.863,195.469,143.898z"/>
	<path fill="#2878C8" d="M195.469,216.555c-8.023,8.035-21.066,8.051-29.09,0l29.105-29.082
		C203.52,195.504,203.512,208.539,195.469,216.555z"/>
	<path fill="#374150" d="M211.219,3.84H44.777c-10.75,0-19.473,8.715-19.473,19.473v209.371c0,10.762,8.723,19.477,19.473,19.477
		h166.441c10.762,0,19.477-8.715,19.477-19.477V23.313C230.695,12.555,221.98,3.84,211.219,3.84z M75.07,229.758
		c-15.316,0-27.746-12.43-27.746-27.734c0-15.324,12.43-27.754,27.746-27.754c15.32,0,27.75,12.43,27.75,27.754
		C102.82,217.328,90.391,229.758,75.07,229.758z M75.07,157.098c-15.316,0-27.746-12.426-27.746-27.75s12.43-27.75,27.746-27.75
		c15.32,0,27.75,12.426,27.75,27.75S90.391,157.098,75.07,157.098z M75.07,81.742c-15.316,0-27.746-12.43-27.746-27.75
		c0-15.324,12.43-27.754,27.746-27.754c15.32,0,27.75,12.43,27.75,27.754C102.82,69.313,90.391,81.742,75.07,81.742z
		 M133.48,224.285c0,3.031-2.453,5.473-5.477,5.473s-5.48-2.441-5.48-5.473v-24.672c0-3.031,2.457-5.473,5.48-5.473
		s5.477,2.441,5.477,5.473V224.285z M133.48,168.313c0,3.031-2.453,5.488-5.477,5.488s-5.48-2.457-5.48-5.488v-24.672
		c0-3.016,2.457-5.473,5.48-5.473s5.477,2.457,5.477,5.473V168.313z M133.48,112.355c0,3.031-2.453,5.473-5.477,5.473
		s-5.48-2.441-5.48-5.473V87.684c0-3.031,2.457-5.473,5.48-5.473s5.477,2.441,5.477,5.473V112.355z M133.48,56.387
		c0,3.031-2.453,5.484-5.477,5.484s-5.48-2.453-5.48-5.484V31.711c0-3.016,2.457-5.473,5.48-5.473s5.477,2.457,5.477,5.473V56.387z
		 M180.93,229.758c-15.316,0-27.746-12.43-27.746-27.734c0-15.324,12.43-27.754,27.746-27.754c15.313,0,27.742,12.43,27.742,27.754
		C208.672,217.328,196.242,229.758,180.93,229.758z M180.93,157.098c-15.316,0-27.746-12.426-27.746-27.75s12.43-27.75,27.746-27.75
		c15.313,0,27.742,12.426,27.742,27.75S196.242,157.098,180.93,157.098z M180.93,81.742c-15.316,0-27.746-12.43-27.746-27.75
		c0-15.324,12.43-27.754,27.746-27.754c15.313,0,27.742,12.43,27.742,27.754C208.672,69.313,196.242,81.742,180.93,81.742z"/>
</g>
</svg>
