<?xml version="1.0" encoding="utf-8"?>
<!-- Generator: Adobe Illustrator 16.0.0, SVG Export Plug-In . SVG Version: 6.00 Build 0)  -->
<!DOCTYPE svg PUBLIC "-//W3C//DTD SVG 1.1//EN" "http://www.w3.org/Graphics/SVG/1.1/DTD/svg11.dtd">
<svg version="1.1" id="Layer_1" xmlns="http://www.w3.org/2000/svg" xmlns:xlink="http://www.w3.org/1999/xlink" x="0px" y="0px"
	 width="256px" height="256px" viewBox="0 0 256 256" enable-background="new 0 0 256 256" xml:space="preserve">
<g>
	<g>
		<polygon fill="#2878C8" points="197.174,146.946 160.749,146.946 160.749,182.942 116.858,182.942 116.858,146.946 
			80.436,146.946 80.436,104.767 116.858,104.767 116.858,68.985 160.749,68.985 160.749,104.767 197.174,104.767 		"/>
	</g>
	<g>
		<path fill="#374150" d="M17.811,52.341c-11.547,6.793-20.887,51.488-7.094,105.504c13.793,53.988,43.461,88.727,56.844,89.133
			c27.352,0.836,40.582-11.41,38.309-20.324c-3.863-15.094-5.047-19.672-10.973-42.848c-1.828-7.258-16.355-8.848-27.852-5.047
			c-8.16,2.699-20.074-14.109-23.922-29.219c-3.883-15.082-1.5-35.543,6.977-37.102c11.906-2.199,23.867-10.551,22.023-17.809
			c-5.941-23.176-7.102-27.754-10.965-42.816C58.877,42.884,41.393,38.489,17.811,52.341z"/>
	</g>
	<path fill="#374150" d="M135.167,8.981c-25.371,0-48.813,8.199-68,21.977c2.137,8.336,3.73,14.563,6.02,23.52
		c16.633-14.457,38.277-23.262,61.98-23.262c52.246,0,94.762,42.496,94.762,94.738c0,52.262-42.516,94.758-94.762,94.758
		c-6.883,0-13.582-0.789-20.051-2.18c2.289,8.941,3.879,15.168,6.016,23.492c4.609,0.559,9.277,0.922,14.035,0.922
		c64.508,0,116.996-52.484,116.996-116.992C252.163,61.45,199.674,8.981,135.167,8.981z"/>
</g>
</svg>
