<?xml version="1.0" encoding="utf-8"?>
<!-- Generator: Adobe Illustrator 16.0.0, SVG Export Plug-In . SVG Version: 6.00 Build 0)  -->
<!DOCTYPE svg PUBLIC "-//W3C//DTD SVG 1.1//EN" "http://www.w3.org/Graphics/SVG/1.1/DTD/svg11.dtd">
<svg version="1.1" id="Layer_1" xmlns="http://www.w3.org/2000/svg" xmlns:xlink="http://www.w3.org/1999/xlink" x="0px" y="0px"
	 width="256px" height="256px" viewBox="0 0 256 256" enable-background="new 0 0 256 256" xml:space="preserve">
<g>
	<g>
		<g>
			<g>
				<path fill="#2878C8" d="M177.121,103.135c0,0.879-0.715,1.594-1.594,1.594h-50.953c-0.879,0-1.594-0.715-1.594-1.594v-6.348
					c0-0.879,0.715-1.594,1.594-1.594h50.953c0.879,0,1.594,0.715,1.594,1.594V103.135z"/>
			</g>
			<g>
				<path fill="#2878C8" d="M177.121,129.236c0,0.879-0.715,1.59-1.594,1.59h-50.953c-0.879,0-1.594-0.711-1.594-1.59v-6.367
					c0-0.863,0.715-1.574,1.594-1.574h50.953c0.879,0,1.594,0.711,1.594,1.574V129.236z"/>
			</g>
			<g>
				<path fill="#2878C8" d="M177.121,155.334c0,0.879-0.715,1.594-1.594,1.594h-50.953c-0.879,0-1.594-0.715-1.594-1.594v-6.352
					c0-0.879,0.715-1.59,1.594-1.59h50.953c0.879,0,1.594,0.711,1.594,1.59V155.334z"/>
			</g>
		</g>
		<g>
			<path fill="#2878C8" d="M177.121,181.436c0,0.879-0.715,1.59-1.594,1.59H38c-0.879,0-1.59-0.711-1.59-1.59v-6.367
				c0-0.863,0.711-1.578,1.59-1.578h137.527c0.879,0,1.594,0.715,1.594,1.578V181.436z"/>
		</g>
		<g>
			<path fill="#2878C8" d="M177.121,207.533c0,0.879-0.715,1.59-1.594,1.59H38c-0.879,0-1.59-0.711-1.59-1.59v-6.352
				c0-0.879,0.711-1.59,1.59-1.59h137.527c0.879,0,1.594,0.711,1.594,1.59V207.533z"/>
		</g>
		<g>
			<polygon fill="#2878C8" points="99.641,137.42 79.91,137.42 79.91,156.928 56.129,156.928 56.129,137.42 36.41,137.42 
				36.41,114.564 56.129,114.564 56.129,95.193 79.91,95.193 79.91,114.564 99.641,114.564 			"/>
		</g>
	</g>
	<g>
		<g>
			<path fill="#374150" d="M33.227,40.873h9.777L54.113,54.65V40.873h10.336v31.223h-9.277L43.578,57.682v14.414H33.227V40.873z"/>
		</g>
		<g>
			<path fill="#374150" d="M70.254,40.873h26.629v8.566H80.516v3.168h15.246v7.531H80.516v3.395h16.594v8.563H70.254V40.873z"/>
		</g>
		<g>
			<path fill="#374150" d="M100.355,40.873h10.941l4.41,14.992l5.031-15.082h9.02l5.031,15.082l4.426-14.992h10.746l-10.215,31.449
				h-9.094l-5.488-15.52l-5.484,15.52h-9.109L100.355,40.873z"/>
		</g>
		<g>
			<path fill="#374150" d="M150.492,67.412l5.578-6.652c3.395,2.59,7.273,3.668,10.926,3.668c1.879,0,2.684-0.484,2.684-1.348
				v-0.078c0-0.895-0.984-1.395-4.336-2.059c-7-1.426-13.156-3.426-13.156-10.035v-0.09c0-5.926,4.641-10.52,13.246-10.52
				c6.035,0,10.488,1.426,14.098,4.273l-5.078,7.047c-2.957-2.137-6.473-3.074-9.367-3.074c-1.563,0-2.273,0.527-2.273,1.285v0.094
				c0,0.848,0.848,1.395,4.137,2.016c7.988,1.469,13.34,3.789,13.34,10.078v0.09c0,6.547-5.398,10.566-13.777,10.566
				C160.176,72.674,154.461,70.885,150.492,67.412z"/>
		</g>
	</g>
	<path fill="#374150" d="M219.422,71.869h-9.73V32.721c0-14.324-11.672-25.992-25.992-25.992H29.816
		c-14.32,0-25.977,11.668-25.977,25.992v187.133c0,16.219,14.672,29.418,32.723,29.418h182.859
		c18.051,0,32.738-13.199,32.738-29.418V101.287C252.16,85.068,237.473,71.869,219.422,71.869z M15.371,219.854V32.721
		c0-7.957,6.488-14.445,14.445-14.445h153.883c7.957,0,14.441,6.488,14.441,14.445v44.922v5.777v133.602
		c-0.348,5.516,0.547,13.852,4.352,20.703H36.563C24.875,237.725,15.371,229.705,15.371,219.854z"/>
</g>
</svg>
