<?xml version="1.0" encoding="utf-8"?>
<!-- Generator: Adobe Illustrator 16.0.0, SVG Export Plug-In . SVG Version: 6.00 Build 0)  -->
<!DOCTYPE svg PUBLIC "-//W3C//DTD SVG 1.1//EN" "http://www.w3.org/Graphics/SVG/1.1/DTD/svg11.dtd">
<svg version="1.1" id="Layer_1" xmlns="http://www.w3.org/2000/svg" xmlns:xlink="http://www.w3.org/1999/xlink" x="0px" y="0px"
	 width="256px" height="256px" viewBox="0 0 256 256" enable-background="new 0 0 256 256" xml:space="preserve">
<g>
	<path fill="#2878C8" d="M128.558,61.279c1.441-0.422,2.352-0.527,2.352-0.527c11.047-1.836,13.52-2.828,15.457-6.262
		c0.109-0.258,0.125-0.68-0.059-1.258c-0.152-0.395-0.426-0.879-0.789-1.363c-0.289-0.348-0.848-0.863-1.559-1.395
		c-3.41-2.457-9.02-3.184-14.945-1.926c-0.258,0.047-1.137,0.223-2.668,0.699c-1.758,0.453-4.395,1.309-7.773,2.953
		c-0.184,0.094-18.555,9.535-18.039,27.102c0.363,12.668,6.02,21.621,17.188,27.234l-0.227-11.957
		c-1.063-0.715-2.031-1.434-2.82-2.184c-4.348-4-4.926-8.441-4.879-12.641c0.09-6.82,4.379-12.449,12.414-16.277
		C124.526,62.432,126.757,61.658,128.558,61.279z"/>
	<path fill="#2878C8" d="M249.081,152.861l-43.074-24.863l43.074-24.863c2.941-1.703,3.957-5.465,2.258-8.418l-32.855-56.898
		c-1.699-2.938-5.457-3.953-8.414-2.242l-43.059,24.855V10.705c0-3.395-2.758-6.152-6.168-6.152H95.14
		c-3.395,0-6.152,2.758-6.152,6.152v49.727L45.929,35.576c-2.941-1.707-6.715-0.695-8.414,2.242L4.671,94.725
		c-1.711,2.945-0.695,6.707,2.246,8.41l43.059,24.863L6.917,152.861c-2.941,1.699-3.957,5.465-2.246,8.414l32.844,56.895
		c1.699,2.949,5.473,3.949,8.414,2.25l43.059-24.855v49.73c0,3.395,2.758,6.152,6.152,6.152h65.703c3.41,0,6.168-2.758,6.168-6.152
		v-49.73l43.059,24.855c2.957,1.707,6.715,0.699,8.414-2.242l32.855-56.902C253.038,158.326,252.022,154.568,249.081,152.861z
		 M141.687,152.49l-0.379,0.145l-0.516,27.031c4.953,3.609,12.941,11.445,11.137,23.57c-1.285,8.668-6.984,14.023-11.879,17.172
		l-0.031,1.59c-0.215,8.676-3.609,13.066-10.066,13.066c-5.363,0-8.469-3.191-9.531-9.141c-1.336-0.137-2.594-0.363-3.715-0.789
		c-2.227-0.895-4.832-2.789-5.074-6.918c-0.078-1.113-0.273-4.488,3.137-7.328c1.137-1,2.711-1.848,4.863-2.789l-0.301-16.027
		c-7.578-3.531-18.945-10.086-18.961-27.016c-0.016-12.027,6.047-21.211,17.93-27.402l-0.441-23.449
		c-15.594-6.574-23.824-18.195-24.309-34.699c-0.637-22.301,21.734-33.473,21.961-33.578c0.363-0.184,0.711-0.305,1.074-0.469
		l-0.043-2.715c-0.168-6.789,2.18-10.652,4.168-12.691c4.773-4.891,13.73-4.875,18.488,0c1.957,2.008,4.215,5.797,4.152,12.391
		c1.715,0.621,3.336,1.395,4.746,2.395c1.211,0.906,2.137,1.781,2.91,2.695c0.895,1.184,1.484,2.289,1.895,3.41
		c0.789,2.336,0.664,4.57-0.32,6.723c-2.316,4.102-5.332,6.191-9.637,7.609l-0.609,32.41c0.457,0.199,0.895,0.363,1.367,0.586
		c14.547,6.34,18.188,16.496,18.672,23.891C163.343,137.057,156.386,147.264,141.687,152.49z"/>
	<path fill="#2878C8" d="M127.71,41.693c2.926-0.629,5.773-0.723,8.52-0.57c-0.168-2.684-0.758-4.895-2.031-6.191
		c-2.105-2.16-6.383-2.16-8.488,0c-1.516,1.555-2.273,4.207-2.184,7.676v0.215c0.289-0.094,0.609-0.215,0.895-0.289
		C126.499,41.881,127.71,41.693,127.71,41.693z"/>
	<path fill="#2878C8" d="M127.257,225.529c0.574,2.531,1.68,2.547,2.695,2.547c1.125,0,2.504-0.008,2.941-4.078
		c-0.105,0.031-0.316,0.105-0.348,0.121C130.683,224.74,128.925,225.205,127.257,225.529z"/>
	<path fill="#2878C8" d="M125.147,69.814c-0.422,0.203-0.711,0.438-1.105,0.652l1.184,64.125c0.938-0.348,1.879-0.711,2.789-1.047
		c1.953-0.711,3.832-1.41,5.563-2.129c0.395-0.16,0.758-0.34,1.152-0.508l1.195-63.945c-1.258,0.23-2.574,0.457-4,0.699
		c-0.199,0.031-0.758,0.121-1.668,0.387C129.409,68.236,127.679,68.678,125.147,69.814z"/>
	<path fill="#2878C8" d="M142.198,105.4l-0.211,10.746c3.379,2.32,5.23,5.73,5.078,9.926c-0.273,7.543-7.668,10.527-10.836,11.809
		c-1.773,0.742-3.758,1.469-5.805,2.219c-1.395,0.516-2.836,1.047-4.262,1.602l-0.695,0.285c-4.488,1.844-18.129,7.438-18.113,23.07
		c0,10.383,5.184,15.414,11.824,19.066l-0.168-8.684c-3.289-2.941-5.063-6.957-4.727-11.422c0.758-9.836,9-12.559,12.516-13.715
		l1.184-0.402c1.457-0.531,2.848-1,4.273-1.484c1.926-0.645,3.926-1.32,6.047-2.125l1.031-0.379
		c8.004-2.848,17.066-8.07,16.066-23.293C154.917,115.123,150.386,109.381,142.198,105.4z"/>
	<path fill="#2878C8" d="M133.44,200.947l0.832-45.832c-1.301,0.438-2.574,0.863-3.832,1.316c-0.352,0.137-0.867,0.32-1.441,0.5
		c-1.211,0.41-2.305,0.84-3.32,1.336l0.895,47.121c0.047-0.023,0.078-0.039,0.137-0.063
		C129.741,204.158,133.093,201.979,133.44,200.947z"/>
	<path fill="#2878C8" d="M140.397,201.377c-0.473,5.918-8.699,9.52-11.215,10.48c-4.609,1.723-8.566,3.184-9.883,4.336
		c-0.699,0.59-0.742,0.879-0.699,1.605c0.031,0.516,0.031,0.594,0.652,0.836c1.605,0.605,4.895,0.938,11.141-1.168
		c0.211-0.063,12.988-4.215,14.625-15.254c0.863-5.77-1.484-10.23-4.395-13.422L140.397,201.377z"/>
</g>
</svg>
