<?xml version="1.0" encoding="utf-8"?>
<!-- Generator: Adobe Illustrator 16.0.0, SVG Export Plug-In . SVG Version: 6.00 Build 0)  -->
<!DOCTYPE svg PUBLIC "-//W3C//DTD SVG 1.1//EN" "http://www.w3.org/Graphics/SVG/1.1/DTD/svg11.dtd">
<svg version="1.1" id="Layer_1" xmlns="http://www.w3.org/2000/svg" xmlns:xlink="http://www.w3.org/1999/xlink" x="0px" y="0px"
	 width="256px" height="256px" viewBox="0 0 256 256" enable-background="new 0 0 256 256" xml:space="preserve">
<g>
	<path fill="#374150" d="M204.617,60.57h-25.461c-5.926,22.742-26.555,39.551-51.152,39.551c-24.613,0-45.227-16.809-51.168-39.551
		H51.383c-10.59,0-19.176,8.586-19.176,19.18v153.23c0,10.594,8.586,19.18,19.176,19.18h153.234c10.594,0,19.176-8.586,19.176-19.18
		V79.75C223.793,69.156,215.211,60.57,204.617,60.57z M97.008,105.441c4.609-0.137,8.457,4.273,8.625,9.867
		c0.168,5.586-3.426,10.23-8.004,10.367c-4.59,0.137-8.457-4.289-8.621-9.867C88.84,110.215,92.418,105.578,97.008,105.441z
		 M78.352,112.906c3.484-0.855,7.141,1.871,8.184,6.102c1.047,4.227-0.922,8.336-4.395,9.207c-3.469,0.855-7.137-1.879-8.184-6.102
		C72.926,117.883,74.883,113.762,78.352,112.906z M65.719,122.219c3.07-0.758,6.297,1.652,7.223,5.375
		c0.926,3.734-0.82,7.371-3.879,8.129c-3.07,0.758-6.301-1.652-7.223-5.379C60.914,126.605,62.656,122.977,65.719,122.219z
		 M53.547,157.473c-2.621,0.652-5.395-1.41-6.184-4.605c-0.785-3.199,0.699-6.32,3.32-6.973c2.637-0.645,5.41,1.422,6.199,4.621
		S56.188,156.828,53.547,157.473z M53.035,140.664c-0.859-3.469,0.758-6.844,3.598-7.547c2.848-0.707,5.859,1.531,6.707,5
		c0.863,3.457-0.758,6.836-3.609,7.551C56.883,146.363,53.891,144.129,53.035,140.664z M85.035,225.266
		c-6.957-21.953-8.941-25.84-11.52-30.023c-2.574-4.191-23.551-33.141-5.969-51.121c7.563-7.73,24.129-17.129,34.145-8.035
		c13.898,12.598,8.063,29.602,6.699,44.832c-1.348,15.242,6.52,20.219,11.172,32.738C127.293,234.461,91.992,247.215,85.035,225.266
		z M183.066,127.594c0.91-3.723,4.152-6.133,7.215-5.375s4.805,4.387,3.879,8.125c-0.926,3.727-4.152,6.137-7.215,5.379
		S182.125,131.328,183.066,127.594z M169.457,119.008c1.043-4.23,4.699-6.957,8.184-6.102c3.469,0.855,5.441,4.977,4.395,9.207
		c-1.047,4.223-4.699,6.957-8.184,6.102C170.379,127.344,168.41,123.234,169.457,119.008z M158.984,105.441
		c4.59,0.137,8.168,4.773,8,10.367c-0.164,5.578-4.016,10.004-8.609,9.867c-4.59-0.137-8.184-4.781-8-10.367
		C150.539,109.715,154.391,105.305,158.984,105.441z M182.477,195.242c-2.563,4.184-4.547,8.07-11.52,30.023
		c-6.957,21.949-42.242,9.195-34.512-11.609c4.637-12.52,12.52-17.496,11.156-32.738c-1.352-15.23-7.199-32.234,6.699-44.832
		c10.031-9.094,26.582,0.305,34.145,8.035C206.043,162.102,185.051,191.051,182.477,195.242z M196.266,145.668
		c-2.848-0.715-4.469-4.094-3.605-7.551c0.848-3.469,3.863-5.707,6.715-5c2.832,0.703,4.457,4.078,3.59,7.547
		C202.117,144.129,199.117,146.363,196.266,145.668z M208.637,152.867c-0.789,3.195-3.563,5.258-6.188,4.605
		c-2.637-0.645-4.121-3.758-3.332-6.957s3.563-5.266,6.199-4.621C207.938,146.547,209.422,149.668,208.637,152.867z"/>
	<path fill="#2878C8" d="M128.004,3.84c-23.945,0-43.348,19.41-43.348,43.348c0,23.941,19.402,43.34,43.348,43.34
		c23.93,0,43.348-19.398,43.348-43.34C171.352,23.25,151.934,3.84,128.004,3.84z M128.004,59.777c-1.637,0-3.168-0.336-4.594-0.895
		l-12.52,12.512c-1.711,1.719-4.5,1.719-6.211,0c-1.715-1.723-1.715-4.496,0-6.215l12.199-12.211
		c-0.91-1.742-1.469-3.68-1.469-5.781c0-6.949,5.637-12.586,12.594-12.586c6.941,0,12.578,5.637,12.578,12.586
		S134.945,59.777,128.004,59.777z"/>
</g>
</svg>
