<?xml version="1.0" encoding="utf-8"?>
<!-- Generator: Adobe Illustrator 16.0.0, SVG Export Plug-In . SVG Version: 6.00 Build 0)  -->
<!DOCTYPE svg PUBLIC "-//W3C//DTD SVG 1.1//EN" "http://www.w3.org/Graphics/SVG/1.1/DTD/svg11.dtd">
<svg version="1.1" id="Layer_1" xmlns="http://www.w3.org/2000/svg" xmlns:xlink="http://www.w3.org/1999/xlink" x="0px" y="0px"
	 width="256px" height="256px" viewBox="0 0 256 256" enable-background="new 0 0 256 256" xml:space="preserve">
<g>
	<g>
		<path fill="#374150" d="M232.621,85.915c-6.41-58.426-57.664-86.891-112.605-81.418C93.578,7.134,70.113,17.165,54.359,39.126
			C43.129,54.798,38.719,75.774,39.41,94.782c0.277,7.789,5.977,17.898,4.598,24.977c-2.547,12.93-16.414,23.613-20.93,36.238
			c-3.363,9.398,5.484,13.188,12.563,15.535c1.973,0.652,3.918,1.32,5.852,2.031c-0.371,0.258-0.438,1.242-0.938,3.336
			c-0.852,3.574,0.898,6.363,3.379,8.531c-1.547,5.973,1.824,10.32,8.242,13.414c-0.27,13.82,2.813,26.813,18.574,29.98
			c16.664,3.348,37.777-2.988,44.297,18.293c2.668,8.73,16.367,5,13.676-3.762c-3.293-10.773-11.707-20.898-22.316-24.992
			c-9.383-3.605-18.809-2.621-28.652-2.969c-13.094-0.469-11.914-10.535-11.207-21.234c0.219-3.199-2.336-5.941-5.199-6.836
			c-0.82-0.258-1.621-0.531-2.426-0.816c-0.023-0.016-0.031-0.016-0.059-0.031c2.258-3.957,1.008-8.246-3.281-10.309
			c1.742-5.242,2.992-8.852-3.496-13.457c-3.492-2.484-8.668-3.563-12.668-4.867c-0.836-0.254-1.426-0.242-1.918-0.133
			c0.156-0.258,0.309-0.488,0.492-0.867c1.395-2.922,3.32-5.652,5.078-8.363c5.25-8.094,15.496-18.75,15.305-29.055
			c-0.148-7.914-4.031-15.098-4.684-22.965C52.313,79.868,56.52,62.817,65.09,48.614c14.324-23.766,42.969-30.16,68.801-30.781
			c23.852-0.59,47.629,6.715,64.652,23.824c21.535,21.676,22.461,54.898,19.738,83.348c-1.887,19.703-10.297,36.555-16.301,55.031
			c-7.105,21.914-2.188,45.484,3.578,67.082c2.363,8.836,16.051,5.09,13.688-3.762c-7.172-26.84-8.535-48.363,1.863-74.008
			C231.824,142.919,235.734,114.317,232.621,85.915z"/>
	</g>
	<path fill="#2878C8" d="M208.453,96.45c0.691-17.234-12.215-29.434-16.852-33.238c-7.367-20.43-30.543-22.07-37.641-22.07
		c-0.617,0-1.129,0.016-1.563,0.031c-8.891-2.969-17.18-4.469-24.652-4.469c-17.703,0-26.598,8.336-29.844,12.32
		c-9.652,3.305-16.238,8.641-19.602,15.855c-3.66,7.863-2.266,15.699-1.176,19.535c-2.977,8.457-2.652,15.473,0.992,20.871
		c4.797,7.09,13.77,8.879,19.922,9.215c3.328,13.625,13.051,16.672,21.063,16.672c2.992,0,5.977-0.426,8.887-0.973
		c1.387,3.152,3.902,7.125,8.535,10.609c1.695,1.273,3.547,2.383,5.547,3.336c7.16,6.82,22.535,24.445,16.695,45.59
		c-6.117,22.16-2.633,41.469,0.898,53.258c2.016,6.777,4.313,10.488,9.504,8.746c5.184-1.742,3.516-6.047,1.82-11.684
		c-3.094-10.23-6.426-27.602-1-47.215c5.031-18.215-1.531-33.797-9.109-44.68c0.781,0.031,1.484,0.137,2.297,0.137
		c4.676,0,9.75-0.438,15.191-1.332c6.172-1.016,9.504-4.125,11.219-6.535c1.887-2.68,2.801-5.969,2.848-9.73
		c8.02-2.742,13.641-7.09,16.445-13.215C212.805,108.954,209.945,100.04,208.453,96.45z M180.066,133.72
		c-0.621,0.891-1.797,1.469-3.578,1.758c-14.672,2.41-25.984,1.105-32.699-3.777c-1.887-1.363-3.039-2.785-3.918-4.137
		c0.469-0.09,0.984-0.195,1.426-0.258c3-0.406,6.23-0.605,9.609-0.605c12.457,0,24.188,2.727,29.902,4.289
		C180.734,132.142,180.512,133.083,180.066,133.72z M198.301,112.634c-1.637,3.578-5.609,6.215-11.809,7.867
		c-4.852-1.469-19.52-5.441-35.586-5.441c-3.887,0-7.641,0.242-11.156,0.715c-2.211,0.285-4.844,0.906-7.684,1.59
		c-4.184,1.016-8.934,2.168-12.965,2.168c-4.465,0-8.875-0.926-10.211-10.441c3.805-12.293,25.086-12.961,37.621-12.203
		c5.316,0.32,8.652-1.41,9.289-5.289c0.652-3.879-2.637-6-8.133-6.352c-14.633-0.91-41.004,0.063-48.855,17.566
		c-5.336-0.258-9.457-1.68-11.047-4.047c-2.031-3.016-0.621-8.23,0.922-12.063l0.91-2.242l-0.953-2.215
		c-0.023-0.059-2.594-6.426,0.211-12.441c2.121-4.563,6.941-8.02,14.316-10.262l2.203-0.668l1.145-1.984
		c0.055-0.09,5.367-8.551,21.227-8.551c6.488,0,13.867,1.426,21.934,4.199l1.164,0.395l1.199-0.09c0.105,0,0.801-0.063,1.918-0.063
		c6.75,0,22.891,1.531,27.082,15.582l0.57,1.926l1.637,1.164c0.152,0.109,14.805,10.719,13.504,25.555l-0.152,1.715l0.805,1.516
		C197.434,100.298,200.816,107.165,198.301,112.634z"/>
</g>
</svg>
