<?xml version="1.0" encoding="utf-8"?>
<!-- Generator: Adobe Illustrator 16.0.0, SVG Export Plug-In . SVG Version: 6.00 Build 0)  -->
<!DOCTYPE svg PUBLIC "-//W3C//DTD SVG 1.1//EN" "http://www.w3.org/Graphics/SVG/1.1/DTD/svg11.dtd">
<svg version="1.1" id="Layer_1" xmlns="http://www.w3.org/2000/svg" xmlns:xlink="http://www.w3.org/1999/xlink" x="0px" y="0px"
	 width="256px" height="256px" viewBox="0 0 256 256" enable-background="new 0 0 256 256" xml:space="preserve">
<g>
	<path fill="#374150" d="M237.559,20.717H18.449c-8.063,0-14.609,6.531-14.609,14.609v31.043h248.32V35.326
		C252.16,27.248,245.629,20.717,237.559,20.717z M121.27,49.697c0,1.938-1.566,3.5-3.508,3.5H22.875c-1.938,0-3.516-1.563-3.516-3.5
		V37.404c0-1.941,1.578-3.516,3.516-3.516h94.887c1.941,0,3.508,1.574,3.508,3.516V49.697z M168.859,53.197
		c-5.324,0-9.652-4.32-9.652-9.656c0-5.332,4.328-9.652,9.652-9.652c5.336,0,9.656,4.32,9.656,9.652
		C178.516,48.877,174.195,53.197,168.859,53.197z M197.922,53.197c-5.324,0-9.652-4.32-9.652-9.656c0-5.332,4.328-9.652,9.652-9.652
		c5.328,0,9.656,4.32,9.656,9.652C207.578,48.877,203.25,53.197,197.922,53.197z M226.984,53.197c-5.332,0-9.652-4.32-9.652-9.656
		c0-5.332,4.32-9.652,9.652-9.652c5.336,0,9.656,4.32,9.656,9.652C236.641,48.877,232.32,53.197,226.984,53.197z"/>
	<path fill="#2878C8" d="M3.84,81.947v138.727c0,8.063,6.547,14.609,14.609,14.609h219.109c8.07,0,14.602-6.547,14.602-14.609
		V81.947H3.84z M185.168,179.174h-35.66v35.254h-43v-35.254H70.832v-41.328h35.676v-35.043h43v35.043h35.66V179.174z"/>
</g>
</svg>
