<?xml version="1.0" encoding="utf-8"?>
<!-- Generator: Adobe Illustrator 16.0.0, SVG Export Plug-In . SVG Version: 6.00 Build 0)  -->
<!DOCTYPE svg PUBLIC "-//W3C//DTD SVG 1.1//EN" "http://www.w3.org/Graphics/SVG/1.1/DTD/svg11.dtd">
<svg version="1.1" id="Layer_1" xmlns="http://www.w3.org/2000/svg" xmlns:xlink="http://www.w3.org/1999/xlink" x="0px" y="0px"
	 width="256px" height="256px" viewBox="0 0 256 256" enable-background="new 0 0 256 256" xml:space="preserve">
<g>
	<g>
		<path fill="#374150" d="M150.712,35.761l-45.078,63.07c-12.113,16.953-12.668,22.715-12.137,29.57
			c0.172,2.266,0.305,3.902-1.48,8.172c-6.359,15.207-10.676,25.574-10.848,33.273l-27.359,42.84l17.188,12.293l31.68-39.766
			c7.23-2.652,15.645-10.094,27.973-21.035c3.453-3.07,5.047-3.469,7.242-4.039c6.668-1.719,11.941-4.105,24.055-21.059
			l45.078-63.074L150.712,35.761z M186.177,79.479l-26.484,37.063l-32.004-22.879l26.488-37.063L186.177,79.479z M134.173,145.659
			c-3.078,0.801-7.293,1.887-13.445,7.348c-7.082,6.293-20.266,17.992-23.309,18.348c-0.008,0-0.227-0.082-0.75-0.461
			c-0.242-0.176-0.406-0.305-0.496-0.371c-0.031-0.023-0.059-0.039-0.074-0.039c-0.59-3.539,6.094-19.512,9.699-28.145
			c3.18-7.594,2.844-11.93,2.602-15.098c-0.242-3.051-0.469-5.926,9.387-19.715l1.215-1.707l32,22.879l-1.211,1.699
			C139.931,144.179,137.134,144.901,134.173,145.659z"/>
		<g>
			<path fill="#2878C8" d="M60.044,248.319l6.91-17.688l-17.188-12.293l-14.508,12.277c-3.016,3.41-2.449,8.352,1.254,11.004
				l12.707,9.078C52.923,253.351,57.791,252.288,60.044,248.319z"/>
		</g>
		<path fill="#2878C8" d="M227.521,44.136c-7.367-3.055-15.25-3.168-30.301-13.93c-15.047-10.754-17.707-18.172-22.984-24.16
			c-3.926-4.441-10.129-1.652-12.082,3.766l-3.773,10.48l-0.008,0.008l-3.551,9.852l8.531,6.102l19.559,13.98l19.555,13.977
			l8.527,6.098l8.172-6.547l0.012-0.016l8.691-6.965C232.365,53.183,232.998,46.409,227.521,44.136z"/>
	</g>
	<path fill="#374150" d="M167.052,143.983c-4.309,5.742-7.902,9.918-11,12.852c2.32,6.102,4.168,11.723,3.848,13.648
		c-0.016,0-0.043,0.016-0.07,0.039c-0.094,0.066-0.254,0.195-0.496,0.371c-0.523,0.379-0.746,0.461-0.754,0.461
		c-1.672-0.195-6.441-3.855-11.551-8.129c-1.953,0.879-3.855,1.445-5.863,1.961c-2.648,0.684-4.566,1.168-8.73,4.867
		c-0.07,0.066-0.137,0.121-0.211,0.188c8.715,7.609,15.309,12.852,21.098,14.973l31.68,39.766l17.188-12.293l-27.359-42.84
		C174.689,163.476,171.685,155.229,167.052,143.983z"/>
	<path fill="#374150" d="M87.662,126.933c-0.402-5.184-0.281-9.852,3.461-17.648L69.822,79.479l32-22.879l12.633,17.68l9.18-12.844
		l-18.348-25.676L48.974,76.007l38.727,54.184C87.783,129.062,87.744,128.046,87.662,126.933z"/>
	<g>
		<path fill="#2878C8" d="M195.958,248.319l-6.914-17.688l17.188-12.293l14.508,12.277c3.016,3.41,2.449,8.352-1.254,11.004
			l-12.707,9.078C203.076,253.351,198.208,252.288,195.958,248.319z"/>
	</g>
	<path fill="#2878C8" d="M28.482,44.136c7.363-3.055,15.246-3.168,30.301-13.93C73.83,19.452,76.486,12.034,81.767,6.046
		c3.926-4.441,10.125-1.652,12.078,3.766l3.773,10.48l0.008,0.016l3.551,9.844l-8.531,6.102l-19.559,13.98L53.533,64.21
		l-8.527,6.098l-8.172-6.547l-0.012-0.016L28.13,56.78C23.634,53.183,23.001,46.409,28.482,44.136z"/>
</g>
</svg>
