<?xml version="1.0" encoding="utf-8"?>
<!-- Generator: Adobe Illustrator 16.0.0, SVG Export Plug-In . SVG Version: 6.00 Build 0)  -->
<!DOCTYPE svg PUBLIC "-//W3C//DTD SVG 1.1//EN" "http://www.w3.org/Graphics/SVG/1.1/DTD/svg11.dtd">
<svg version="1.1" id="Layer_1" xmlns="http://www.w3.org/2000/svg" xmlns:xlink="http://www.w3.org/1999/xlink" x="0px" y="0px"
	 width="256px" height="256px" viewBox="0 0 256 256" enable-background="new 0 0 256 256" xml:space="preserve">
<g>
	<g>
		<g>
			<path fill="#2878C8" d="M147.936,118.813l-11.496-16.898l-11.375,25.16c-0.637,1.426-1.863,2.273-3.258,2.273h-0.016
				c-1.395,0-2.621-0.836-3.258-2.258l-8.051-17.523l-4.82,8.914c-0.887,1.668-2.832,2.832-4.727,2.832h-0.516h-5.016H80.428
				c-1.621,0-2.926,1.305-2.926,2.926c0,1.609,1.305,2.926,2.926,2.926h19.34c5.746,6.488,14.262,12.352,26.434,16.551
				c15.762-5.441,25.445-13.641,30.805-22.402h-4.363C150.869,121.313,148.928,120.285,147.936,118.813z"/>
		</g>
		<g>
			<path fill="#2878C8" d="M175.58,109.676h-13.898c3.031-14.309-3.363-27.617-12.109-30.754
				c-15.703-5.605-23.371,8.594-23.371,8.594s-7.668-14.199-23.363-8.594c-9.93,3.547-16.832,20.203-10.383,36.527h8.199
				l6.77-12.535c0.719-1.332,1.953-2.105,3.332-2.063c1.379,0.047,2.578,0.895,3.215,2.273l7.805,17.023l10.883-24.07
				c0.59-1.316,1.75-2.18,3.074-2.289c1.352-0.137,2.625,0.531,3.434,1.73l13.602,20.004h2.82h4.328h15.664
				c1.605,0,2.926-1.316,2.926-2.926C178.506,110.977,177.186,109.676,175.58,109.676z"/>
		</g>
	</g>
	<path fill="#374150" d="M205.029,35.258H172.17v-6.32c0-4.895-3.988-8.883-8.891-8.883h-7.699
		c-5.402-9.668-15.723-16.215-27.574-16.215c-11.867,0-22.191,6.547-27.586,16.215h-7.699c-4.91,0-8.891,3.988-8.891,8.883v6.32
		H50.967c-8.938,0-16.211,7.273-16.211,16.215v184.469c0,8.941,7.273,16.219,16.211,16.219h154.063
		c8.941,0,16.215-7.277,16.215-16.219V51.473C221.244,42.531,213.971,35.258,205.029,35.258z M50.967,235.941V51.473H83.83v8.852
		c0,4.91,3.98,8.883,8.891,8.883h70.559c4.902,0,8.891-3.973,8.891-8.883v-8.852h32.859l0.016,184.469H50.967z"/>
	<g>
		<path fill="#2878C8" d="M139.764,168.297c0,0.957-0.77,1.73-1.727,1.73H73.365c-0.945,0-1.727-0.773-1.727-1.73v-6.91
			c0-0.953,0.781-1.727,1.727-1.727h64.672c0.957,0,1.727,0.773,1.727,1.727V168.297z"/>
	</g>
	<g>
		<g>
			<path fill="#2878C8" d="M167.412,175.621c-1.883,0-3.625-0.895-4.82-2.473l-13.461-17.641l7.414-5.652l10.547,13.82
				l17.234-28.297l7.965,4.852l-19.727,32.402c-1.086,1.789-2.852,2.863-4.844,2.973
				C167.615,175.621,167.518,175.621,167.412,175.621z"/>
		</g>
	</g>
	<g>
		<path fill="#2878C8" d="M139.764,214.934c0,0.957-0.77,1.715-1.727,1.715H73.365c-0.945,0-1.727-0.758-1.727-1.715v-6.926
			c0-0.953,0.781-1.727,1.727-1.727h64.672c0.957,0,1.727,0.773,1.727,1.727V214.934z"/>
	</g>
	<g>
		<g>
			<path fill="#2878C8" d="M167.412,222.238c-1.883,0-3.625-0.895-4.82-2.469l-13.461-17.641l7.414-5.656l10.547,13.824L184.326,182
				l7.965,4.852l-19.727,32.402c-1.086,1.789-2.852,2.879-4.844,2.984C167.615,222.238,167.518,222.238,167.412,222.238z"/>
		</g>
	</g>
</g>
</svg>
