<?xml version="1.0" encoding="utf-8"?>
<!-- Generator: Adobe Illustrator 16.0.0, SVG Export Plug-In . SVG Version: 6.00 Build 0)  -->
<!DOCTYPE svg PUBLIC "-//W3C//DTD SVG 1.1//EN" "http://www.w3.org/Graphics/SVG/1.1/DTD/svg11.dtd">
<svg version="1.1" id="Layer_1" xmlns="http://www.w3.org/2000/svg" xmlns:xlink="http://www.w3.org/1999/xlink" x="0px" y="0px"
	 width="256px" height="256px" viewBox="0 0 256 256" enable-background="new 0 0 256 256" xml:space="preserve">
<g>
	<g>
		<path fill="#374150" d="M157.208,26.196C142.157,8.86,118.591,1.22,90.864,4.642c-47.508,5.93-63.816,37.258-69.176,53.93
			c-1.977,6.133-1.395,9.867,3.676,11.094c5.063,1.227,7.48-3.398,9.512-9.141c4.918-13.867,18.938-37.938,57.625-42.758
			c23.211-2.906,42.656,3.188,54.719,17.102c16.051,18.469,18.809,49.281,8.004,89.102c-4.973,18.32-11.793,26.656-19.02,35.492
			c-8.535,10.43-17.348,21.203-22.902,46.594c-5.965,27.328-32.586,35.766-56.262,32.102c-15.957-2.5-32.32-11.305-36.586-25.445
			c-0.926-3.078-0.82-11.172-8.641-10.586c-6.895,0.531-5.668,6.703-5.031,10.188c3.555,19.461,21.934,34.781,48.215,38.906
			c3.977,0.625,8.063,0.938,12.176,0.938c25.715,0,52.359-12.641,59.059-43.266c4.863-22.313,12.32-31.422,20.203-41.047
			c7.789-9.516,15.836-19.352,21.559-40.422C183.173,71.517,170.509,41.517,157.208,26.196z"/>
		<path fill="#374150" d="M49.056,142.517c0-10.063-6.48-18.547-12.254-24.094c-4.039-3.898-9.164-5.609-12.363-1.078
			c-3.195,4.516,0.684,8.203,3.277,10.719c4.043,3.938,8.105,9.289,8.105,14.453c0,12.945-1.727,22.734-10.215,28.391l-2.434,1.625
			l-0.43,2.891c-0.199,1.289-1.691,12.781,5.273,19.188c2.063,1.898,5.41,3.852,10.457,3.852c1.621,0,3.41-0.211,5.398-0.664
			c5.016-1.188,7.449-4.398,9.23-6.75c1.77-2.344,3.301-4.359,8.484-5.922c6.785-2.047,9.324-0.688,14.371,2
			c2.059,1.094,4.258,2.258,6.848,3.289c4.488,1.805,9.215,1.742,13.641-0.195c9.961-4.367,16.727-17.539,20.645-27.813
			c12.414-32.586,12.156-56.719-0.789-71.734C102.845,75.032,79.505,74.017,65.36,75.087c2.273-3.953,5.063-7.484,8.52-10.438
			c9.684-8.281,22.559-11.039,35.285-7.531c16.973,4.648,22.461,20.961,24.227,31.609c0.871,5.219,1.219,9.383,7.449,9.656
			c6.23,0.289,6.66-4.016,5.957-9.227c-1.813-13.586-8.656-37.82-34.141-44.789c-16.785-4.625-34.504-0.773-47.371,10.227
			C52.685,65.36,45.794,81.923,45.774,100.962c-0.008,3.078,0.75,9.227,7.168,8.641c6.418-0.594,6.023-6.547,6.047-9.32
			c0.039-3.977,0.43-7.766,1.16-11.352c11.898-1.75,35.254-2.273,46.133,10.367c9.52,11.063,9.004,30.703-1.543,58.391
			c-4.152,10.867-9.223,18.492-13.59,20.406c-1.188,0.523-2.203,0.539-3.418,0.039c-2.105-0.828-3.887-1.797-5.563-2.695
			c-5.82-3.094-12.41-6.609-24.391-2.984c-9.316,2.82-12.863,7.5-15.219,10.609c-1.234,1.633-1.434,1.789-1.711,1.852
			c-1.844,0.422-3.367,0.422-3.867-0.031c-0.781-0.711-1.227-2.867-1.281-5C47.396,170.282,49.056,155.72,49.056,142.517z"/>
	</g>
	<g>
		<g>
			<path fill="#2878C8" d="M199.161,68.36c15.195-8.43,30.383-16.867,45.566-25.313c6.215-3.453,0.66-12.969-5.563-9.516
				c-15.191,8.438-30.379,16.867-45.559,25.313C187.392,62.298,192.946,71.798,199.161,68.36L199.161,68.36z"/>
		</g>
	</g>
	<g>
		<g>
			<path fill="#2878C8" d="M193.606,197.298c15.18,8.422,30.367,16.867,45.559,25.289c6.223,3.461,11.777-6.063,5.563-9.516
				c-15.184-8.43-30.371-16.867-45.566-25.297C192.946,184.321,187.392,193.837,193.606,197.298L193.606,197.298z"/>
		</g>
	</g>
	<g>
		<g>
			<path fill="#2878C8" d="M199.329,133.579c15.02,0,30.039,0,45.074,0c7.102,0,7.102-11.023,0-11.023c-15.035,0-30.055,0-45.074,0
				C192.22,122.556,192.22,133.579,199.329,133.579L199.329,133.579z"/>
		</g>
	</g>
</g>
</svg>
