<?xml version="1.0" encoding="utf-8"?>
<!-- Generator: Adobe Illustrator 16.0.0, SVG Export Plug-In . SVG Version: 6.00 Build 0)  -->
<!DOCTYPE svg PUBLIC "-//W3C//DTD SVG 1.1//EN" "http://www.w3.org/Graphics/SVG/1.1/DTD/svg11.dtd">
<svg version="1.1" id="Layer_1" xmlns="http://www.w3.org/2000/svg" xmlns:xlink="http://www.w3.org/1999/xlink" x="0px" y="0px"
	 width="256px" height="256px" viewBox="0 0 256 256" enable-background="new 0 0 256 256" xml:space="preserve">
<path fill="#2878C8" d="M249.084,152.861l-43.074-24.863l43.074-24.863c2.941-1.699,3.949-5.469,2.254-8.414l-32.852-56.902
	c-1.699-2.938-5.465-3.949-8.414-2.246l-43.066,24.863V10.709c0-3.402-2.758-6.156-6.16-6.156H95.143
	c-3.395,0-6.152,2.754-6.152,6.156v49.727L45.924,35.572c-2.941-1.703-6.707-0.691-8.406,2.25L4.67,94.725
	c-1.707,2.941-0.691,6.711,2.25,8.41l43.059,24.863L6.92,152.861c-2.941,1.699-3.957,5.469-2.25,8.414l32.848,56.895
	c1.699,2.949,5.465,3.953,8.406,2.254l43.066-24.863v49.73c0,3.402,2.758,6.156,6.152,6.156h65.703c3.402,0,6.16-2.754,6.16-6.156
	v-49.73l43.066,24.863c2.949,1.703,6.715,0.695,8.414-2.25l32.852-56.898C253.033,158.33,252.025,154.564,249.084,152.861z
	 M92.475,78.748c-0.672-22.262,24.941-31.57,25.879-31.926l-0.008-0.18c-0.242-10.152,4.957-14.898,11.551-14.898
	c5.988,0,10.777,3.945,11.441,12.234c2.883,0.57,5.375,1.473,7.223,2.648c1.07,0.695,1.926,1.402,2.586,2.113
	c0.711,0.828,1.195,1.633,1.484,2.391c0.582,1.531,0.41,2.891-0.227,4.137c-3.23,5.031-7.883,6.23-20.66,8.098
	c0,0-0.832,0.098-2.363,0.48c-1.547,0.301-3.773,0.926-6.379,1.973c-5.191,2.184-11.824,6.297-11.93,13.328
	c-0.016,1.094,0.039,2.105,0.184,3.059l1.484,26.32C109.799,107.162,93.158,101.01,92.475,78.748z M163.393,126.939
	c-2.234,19.516-23.621,23.277-24.297,23.496l-0.719,31.605c2.555,1.379,14.777,9.438,12.957,21.602
	c-1.816,12.168-12.07,15.32-13.891,16.137c-0.559,8.852-4.332,9.859-7.547,9.859c-2.66,0-5.715-0.703-7.004-5.996
	c-2.938,0.184-5.074-0.125-6.5-0.602c-2.594-0.934-3.137-2.5-3.23-3.918c-0.105-1.441,0.125-3,2.168-4.504
	c1.305-1.016,3.578-1.957,6.77-3.082l-1.234-54.598c-0.25,0.145-0.531,0.273-0.746,0.422c-2.211,1.609-3.895,2.883-4.273,4.801
	c-0.531,0.801-0.258,2.172-0.605,3.207l1.563,22.875c-1.773-0.82-15.066-4.688-16.523-22.754
	c-1.445-18.066,19.957-25.383,24.063-26.938c3.984-1.379,8.012-2.582,11.48-3.863c3.531-1.258,10.801-3.641,10.973-8.852
	c0.176-5.207-4.637-6.961-6.957-7.961l-0.203,8.859c-0.926,0.379-1.871,0.75-2.863,1.102c-3.48,1.281-7.496,2.484-11.484,3.863
	c-1.637,0.617-3.285,1.242-4.953,1.93l-1.289-56.32c2.09-1.656,4.484-2.93,6.652-3.844c2.609-1.047,4.844-1.668,6.391-1.965
	c1.523-0.387,2.355-0.484,2.355-0.484c2.477-0.363,4.563-0.699,6.48-1.043l-0.676,29.648
	C141.545,100.08,165.619,107.42,163.393,126.939z"/>
</svg>
