<?xml version="1.0" encoding="utf-8"?>
<!-- Generator: Adobe Illustrator 16.0.0, SVG Export Plug-In . SVG Version: 6.00 Build 0)  -->
<!DOCTYPE svg PUBLIC "-//W3C//DTD SVG 1.1//EN" "http://www.w3.org/Graphics/SVG/1.1/DTD/svg11.dtd">
<svg version="1.1" id="Layer_1" xmlns="http://www.w3.org/2000/svg" xmlns:xlink="http://www.w3.org/1999/xlink" x="0px" y="0px"
	 width="256px" height="256px" viewBox="0 0 256 256" enable-background="new 0 0 256 256" xml:space="preserve">
<g>
	<path fill="#2878C8" d="M204.58,123.231c5.668,7.566,18.582,0.184,12.836-7.5c-38.891-51.941-122.781-51.941-161.656,0
		c-5.742,7.684,7.156,15.066,12.824,7.5c8.168-10.91,19.004-19.004,31.145-24.309c-9.199,9.336-14.883,22.145-14.883,36.285
		c0,28.566,23.172,51.727,51.742,51.727s51.73-23.16,51.73-51.727c0-5.289-0.789-10.398-2.273-15.203
		c-0.773,11.004-9.93,19.688-21.113,19.688c-11.699,0-21.203-9.488-21.203-21.188c0-11.715,9.504-21.203,21.203-21.203
		c3.137,0,6.109,0.711,8.789,1.926c-0.09-0.094-0.18-0.215-0.273-0.305C185.572,104.228,196.428,112.321,204.58,123.231z"/>
	<g>
		<path fill="#374150" d="M251.475,123.899c-18.539-47.121-74.813-76.598-123.996-73.461C71.752,53.985,24.537,98.544,4.518,148.423
			c-4.289,10.672,12.957,15.262,17.188,4.742c0.91-2.285,1.91-4.531,2.953-6.773c14.492,32.844,51.973,52.652,78.609,59.398
			c0,0-2.555-17.898-21.395-27.371c-18.367-9.246-38.602-27.859-45.617-52.383c21.004-30.691,54.121-53.863,91.223-57.773
			c43.168-4.563,90.379,22.793,107.762,62.672C239.834,141.435,255.627,134.493,251.475,123.899z"/>
		<path fill="#374150" d="M225.936,155.532c-14.316,14.246-24.266,18.609-34.043,22.977c-21.672,9.699-20.461,25.902-20.461,25.902
			c12.141-2.699,50.305-16.172,67.719-37.102C246.455,158.532,234.088,147.407,225.936,155.532z"/>
	</g>
</g>
</svg>
