<?xml version="1.0" encoding="utf-8"?>
<!-- Generator: Adobe Illustrator 16.0.0, SVG Export Plug-In . SVG Version: 6.00 Build 0)  -->
<!DOCTYPE svg PUBLIC "-//W3C//DTD SVG 1.1//EN" "http://www.w3.org/Graphics/SVG/1.1/DTD/svg11.dtd">
<svg version="1.1" id="Layer_1" xmlns="http://www.w3.org/2000/svg" xmlns:xlink="http://www.w3.org/1999/xlink" x="0px" y="0px"
	 width="256px" height="256px" viewBox="0 0 256 256" enable-background="new 0 0 256 256" xml:space="preserve">
<g>
	<path fill="#2878C8" d="M126.96,185.927c0.057-12.578,14.979-15.945,25.959-13.641c12.432,2.602,20.404,14.82,17.785,27.266
		c-2.607,12.43-13.133,19.016-25.58,16.414c-6.203-1.32-10.336-6.336-16.197-8.578c-5.877-2.242-16.252-3.227-28.813-7.656
		c-19.086-6.727-48.598-45.859-20.609-60.883c3.631-1.953,11.076-3.227,18.244-1.984c0,0-13.529-13.836-8.309-19.555
		c5.217-5.695,14.201-10.016,17.018-6.68c3.564,4.211-4.166,7.5-3.604,10.711c0.564,3.234,11.045,9.945,14.629,13.492
		c3.58,3.531,3.531,14.352-11.102,16.203c0,0,5.898,2.563,9.582,12.227c0,0,3.498-4.133,9.59-5.789
		c3.957-1.07,10.621-0.328,12.742-2.031c0,0,9.834-9.078,15.656-0.859c2.426,3.406,2.676,5.531-0.863,7.305
		c0,0,3.16,4.898-3.197,4.648c-6.344-0.258-12.027-1.344-19.82,1.945c-4.408,1.844-7.658,5.891-8.465,7.836
		C119.833,180.575,123.993,185.817,126.96,185.927z"/>
	<path fill="#374150" d="M188.714,248.88c-2.611-4.375,1.182-7.5,4.676-10.359c6.031-4.914,14.398-13.914,15.629-26.617
		c1.873-19.328-4.99-31.781-12.256-44.953c-8.525-15.461-17.34-31.453-11.736-57.508c1.451-6.727,2.982-13.305,4.506-19.867
		c5.836-25.07,11.371-47.68,12.109-78.688c0.057-2.305,1.096-7.047,6.373-7.047c5.283,0,6.359,4.969,6.303,7.391
		c-0.797,32.391-6.707,56.609-12.436,81.227c-1.514,6.484-3.029,12.984-4.461,19.656c-4.611,21.414,2.365,34.07,10.443,48.711
		c7.51,13.625,16.023,29.055,13.773,52.289c-1.861,19.234-15.051,31.57-22.859,37.297
		C195.632,252.716,191.325,253.247,188.714,248.88z"/>
	<g>
		<path fill="#374150" d="M68.021,251.489c-5.191-1.969-3.361-7.383-2.879-9.5c2.201-9.75-2.494-19.219-7.775-26.328l-0.975-1.305
			c-18.66-25.297-25.713-50.852-20.961-75.977c5.473-28.922,25.225-50.078,38.381-61.336c-6.428-3.156-12.326-8.961-19.344-17.156
			c-2.91-3.414-4.207-7.75-3.748-12.508c1.375-14.258,19.207-31.766,28.881-40.281c2.891-2.547,6.684-5.109,10.473-1.398
			c4.68,4.594,0.178,8.914-1.482,10.352c-10.828,9.461-24.424,23.906-25.25,32.539c-0.166,1.719,0.297,2.5,0.766,3.047
			c2.846,3.336,5.244,6.047,7.477,8.109c12.943,11.898,23.42,13.508,23.42,13.508s-9.105,9.68-17.35,17.461
			C66.3,101.442,52.017,118.771,47.87,140.817c-4.039,21.492,2.26,43.711,18.723,66.008l0.939,1.273
			c6.096,8.195,14.152,22.188,9.492,38.633C76.335,249.153,74.386,253.903,68.021,251.489z"/>
	</g>
	<path fill="#2878C8" d="M153.878,234.349h-0.004c-9.654,0-17.896-3.852-26.623-7.914c-7.152-3.344-14.545-6.789-24.074-9.078
		c-22.197-5.32-39.975-22.734-46.398-45.422c-7.521-26.586,0.439-44.773,8.443-55.352c12.17-16.094,30.74-23.43,42.842-23.43
		c1.926,0,3.729,0.18,5.373,0.531c16.516,3.578,19.662,16.82,21.965,26.492c2.354,9.914,3.729,13.414,9.895,13.852
		c29.133,2.094,42.314,27.023,44.748,47.727c2.875,24.445-7.066,45.273-24.166,50.672
		C161.767,233.724,157.841,234.349,153.878,234.349z M108.063,103.138c-10.018,0-25.217,6.688-34.883,19.461
		c-9.51,12.586-11.863,28.711-6.793,46.625c6.502,22.977,24.471,34.906,39.119,38.438c10.506,2.5,18.721,6.336,25.969,9.727
		c8.355,3.898,14.959,6.977,22.402,6.977l0,0c2.928,0,5.869-0.477,8.99-1.477c13.898-4.375,19.203-23.414,17.26-39.945
		c-1.99-16.945-12.496-37.289-35.549-38.938c-14.023-1.016-16.725-12.383-18.893-21.508c-2.479-10.43-4.498-16.914-14.357-19.039
		C110.376,103.247,109.28,103.138,108.063,103.138z"/>
</g>
</svg>
