<?xml version="1.0" encoding="utf-8"?>
<!-- Generator: Adobe Illustrator 16.0.0, SVG Export Plug-In . SVG Version: 6.00 Build 0)  -->
<!DOCTYPE svg PUBLIC "-//W3C//DTD SVG 1.1//EN" "http://www.w3.org/Graphics/SVG/1.1/DTD/svg11.dtd">
<svg version="1.1" id="Layer_1" xmlns="http://www.w3.org/2000/svg" xmlns:xlink="http://www.w3.org/1999/xlink" x="0px" y="0px"
	 width="256px" height="256px" viewBox="0 0 256 256" enable-background="new 0 0 256 256" xml:space="preserve">
<g>
	<g>
		<path fill="#2878C8" d="M92.458,252.16c2.578-11.852,4.055-28.414,4.906-44.469l11.418,2.32
			c-1.93,19.461-4.426,37.133-5.145,42.148H92.458z"/>
	</g>
	<g>
		<path fill="#2878C8" d="M68.489,252.16c-0.438-11.711-1.332-31.117-0.895-50.5l4.391,0.898l2.031,30.813l4.266-29.555l6.289,1.281
			c-0.941,21.695-0.113,47.063-0.113,47.063H68.489z"/>
	</g>
	<g>
		<g>
			<path fill="#2878C8" d="M61.86,111.254c5.219-12.156,11.676-12.852,15.449-9.063c3.305,3.32-4.695,11.625-0.922,26.492
				C80.153,143.566,50.88,136.762,61.86,111.254z"/>
		</g>
	</g>
	<g>
		<g>
			<path fill="#2878C8" d="M110.911,160.559c0.773,9.883,0.063,24.297-1.148,38.828l-11.855-4.352
				c0.441-12.563,0.539-23.836,0.547-30.945c-9.262,3.648-10.367,11.742-11.715,18.508c-0.457,2.273-0.828,4.969-1.137,7.922
				l-6.746-2.453l-0.582-19.43l-5.359,17.234l-4.5-1.641c1.805-23.828,6.668-43.805,18.324-43.828
				c11.055-0.016,21.203,0.484,24.508,5.227C114.731,150.613,115.884,157.332,110.911,160.559z"/>
		</g>
	</g>
	<g>
		<path fill="#2878C8" d="M90.466,96.355c0,0-17.164,19.445-2.918,30.359c17.863,13.688,26.539,9.094,29.535,2.336
			c7.621-17.188-9.582-12.977-0.965-41.953c6.238-20.945,53.07-80.547,55.281-83.258h-23.945
			C147.454,3.84,110.837,47.145,90.466,96.355z"/>
	</g>
	<path fill="#374150" d="M54.13,137.887c-5.16-18.766,2.098-31.031,7.387-39.969c1.891-3.188,3.512-5.93,4.352-8.641
		c10.973-35.453,34.133-72.203,42.914-85.438H92.56C81.548,21.152,62.806,53.238,52.896,85.262c-0.363,1.18-1.738,3.5-3.063,5.727
		c-5.73,9.688-15.277,25.813-9.02,49.695c0.23,6.945,2.016,57.75,7.172,111.477h13.648c-5.57-57.547-7.246-112.109-7.27-112.672
		L54.13,137.887z"/>
	<path fill="#374150" d="M217.235,3.84h-13.906c-14.227,61.93-69.379,126.313-69.953,126.984l-1.699,1.953l0.039,2.578
		c0.535,40.875-14.621,95.508-21.055,116.805h14.211c7.016-23.688,20.383-74.039,20.438-114.414
		C155.267,125.848,204.501,64.605,217.235,3.84z"/>
</g>
</svg>
