<?xml version="1.0" encoding="utf-8"?>
<!-- Generator: Adobe Illustrator 16.0.0, SVG Export Plug-In . SVG Version: 6.00 Build 0)  -->
<!DOCTYPE svg PUBLIC "-//W3C//DTD SVG 1.1//EN" "http://www.w3.org/Graphics/SVG/1.1/DTD/svg11.dtd">
<svg version="1.1" id="Layer_1" xmlns="http://www.w3.org/2000/svg" xmlns:xlink="http://www.w3.org/1999/xlink" x="0px" y="0px"
	 width="256px" height="256px" viewBox="0 0 256 256" enable-background="new 0 0 256 256" xml:space="preserve">
<g>
	<path fill="#2878C8" d="M31.195,188.873c-5.102,0-21.031,30.648-21.031,42.266c0,11.609,9.414,21.02,21.031,21.02
		s21.027-9.41,21.027-21.02C52.223,219.521,36.293,188.873,31.195,188.873z M29.777,247.604c-8.215-1.59-14.793-8.477-14.656-17.117
		c0.066-4.758,7.441-4.766,7.367,0c0,0.332,0.18,1.805,0.027,0.918c0.168,0.969,0.387,2.18,0.758,2.992
		c1.715,3.637,4.57,5.336,8.465,6.094C36.406,241.4,34.43,248.506,29.777,247.604z"/>
	<g>
		<path fill="#374150" d="M33.309,178.803c-8.168-10.313,0.766-18.23,6.684-23.469c4.684-4.145,9.52-8.426,10.277-14.02
			c2.484-18.348,20.277-32.434,33.281-42.727l46.445-36.77l6.586,8.328l-46.438,36.77c-11.586,9.172-27.449,21.719-29.359,35.824
			c-1.285,9.496-8.199,15.625-13.762,20.543c-7.328,6.488-6.84,7.109-5.402,8.934c1.449,1.813,1.934,2.434,9.934-3.211
			c6.063-4.281,13.613-9.602,23.16-8.68c14.156,1.375,30.012-11.184,41.598-20.352l46.445-36.77l6.594,8.32l-46.453,36.777
			c-12.992,10.289-30.801,24.379-49.215,22.59c-5.613-0.547-10.895,3.184-16.004,6.789
			C51.223,182.229,41.461,189.123,33.309,178.803z"/>
	</g>
	<path fill="#2878C8" d="M191.223,104.9c3.438-2.719,4.023-7.691,1.332-11.133l41.074-32.516
		c13.93-11.027,16.293-31.27,5.258-45.203c-11.039-13.938-31.266-16.285-45.211-5.254l-41.074,32.512
		c-2.727-3.402-7.707-3.973-11.137-1.258l-4.16,3.297c-3.449,2.727-4.027,7.738-1.297,11.176l39.867,50.371
		c2.738,3.449,7.738,4.043,11.188,1.305L191.223,104.9z"/>
	<path fill="#2878C8" d="M65.258,153.498c16.051,6.527,32.891-5.582,37.664-9.363c4.773-3.789,37.941-29.98,37.941-29.98H89.066
		c0,0-1.27,1.063-6.047,4.844C78.246,122.771,62.598,136.389,65.258,153.498z"/>
</g>
</svg>
