<?xml version="1.0" encoding="utf-8"?>
<!-- Generator: Adobe Illustrator 16.0.0, SVG Export Plug-In . SVG Version: 6.00 Build 0)  -->
<!DOCTYPE svg PUBLIC "-//W3C//DTD SVG 1.1//EN" "http://www.w3.org/Graphics/SVG/1.1/DTD/svg11.dtd">
<svg version="1.1" id="Layer_1" xmlns="http://www.w3.org/2000/svg" xmlns:xlink="http://www.w3.org/1999/xlink" x="0px" y="0px"
	 width="256px" height="256px" viewBox="0 0 256 256" enable-background="new 0 0 256 256" xml:space="preserve">
<g>
	<path fill="#2878C8" d="M37.075,111.095c-8.572,8.563-50.547,50.547-19.445,76.633c30.539,25.594,60.566-21.797,83.014-44.242
		c22.432-22.43,60.414-49.469,35.555-74.328C111.345,44.298,45.638,102.533,37.075,111.095z M58.616,162.462
		c-10.145,10.148-23.225,13.531-29.203,7.547c-5.986-5.977-2.6-19.07,7.547-29.211c10.148-10.148,23.232-13.531,29.219-7.547
		C72.149,139.228,68.771,152.306,58.616,162.462z M125.636,102.275c-3.229,2.664-7.441,4.969-10.094,8.211
		c-3.637,4.461-6.926,9.297-11.17,13.25c-5.457,5.094-12.307,9.109-20.066,6.688c-14.93-4.656-19.098-20.492-9.625-32.438
		c2.334-2.922,6.412,1.211,4.107,4.125c-5.85,7.359-4.441,18.125,4.881,21.945c10.441,4.289,17.975-5.125,23.75-12.578
		c4.607-5.961,10.215-9.352,15.504-14.555c1.244-1.242,5.805-5.227,2.955-7.469c-2.637-2.063-7.047,1.305-8.789,2.859
		c-4.805,4.289-8.504,9.234-12.383,14.359c-3.639,4.805-9.262,8.922-15.475,6.875c-3.578-1.18-6.639-5.273-6.502-9.094
		c0.545-15.578,21.127-25.094,32.994-30.219c3.395-1.469,6.32,3.563,2.881,5.063c-9.412,4.047-28.01,11.688-29.934,23.609
		c-0.35,2.234,0.758,5.781,3.863,5.461c5.049-0.484,8.154-5.898,10.807-9.547c3.26-4.492,7.002-8.555,11.367-11.961
		c4.941-3.883,11.746-5.914,16.203-0.383C135.413,92.072,129.972,98.681,125.636,102.275z"/>
	<path fill="#374150" d="M173.015,246.65c11.699,3.125,69.035,18.492,76.086-21.477c6.895-39.234-49.152-41.555-79.813-49.773
		c-30.664-8.211-73.055-27.578-82.164,6.383C78.03,215.736,161.315,243.517,173.015,246.65z M206.722,202.306
		c13.867,3.711,23.34,13.352,21.145,21.523c-2.184,8.164-15.219,11.789-29.07,8.063c-13.867-3.703-23.34-13.336-21.145-21.523
		C179.835,202.197,192.854,198.595,206.722,202.306z M121.104,174.376c3.91,1.453,8.002,3.953,12.141,4.617
		c5.684,0.93,11.52,1.367,17.066,3.047c7.137,2.188,14.035,6.109,15.82,14.039c3.426,15.258-8.211,26.797-23.277,24.563
		c-3.699-0.555-2.152-6.164,1.516-5.633c9.305,1.391,17.93-5.203,16.566-15.188c-1.5-11.188-13.43-13.023-22.766-14.281
		c-7.457-1-13.217-4.18-20.355-6.148c-1.697-0.469-7.441-2.414-7.941,1.18c-0.471,3.32,4.637,5.438,6.881,6.188
		c6.107,2.016,12.246,2.742,18.596,3.531c5.988,0.758,12.367,3.57,13.703,9.969c0.773,3.68-1.242,8.383-4.625,10.188
		c-13.746,7.305-32.297-5.758-42.664-13.477c-2.984-2.211-0.076-7.258,2.941-5.016c8.215,6.109,24.129,18.414,35.418,14.094
		c2.109-0.789,4.625-3.531,2.805-6.063c-2.953-4.125-9.199-4.109-13.686-4.578c-5.516-0.57-10.896-1.805-16.051-3.859
		c-5.805-2.352-10.973-7.234-8.41-13.844C107.372,170.994,115.815,172.4,121.104,174.376z"/>
	<path fill="#374150" d="M222.44,61.142C219.304,49.455,203.933-7.897,165.8,6.001c-37.436,13.641-11.414,63.336-3.199,94
		s12.641,77.055,46.594,67.961C243.159,158.869,225.577,72.837,222.44,61.142z M167.179,54.126
		c-3.711-13.875-0.105-26.891,8.063-29.07c8.172-2.203,17.809,7.273,21.523,21.141s0.105,26.891-8.063,29.07
		C180.53,77.462,170.894,67.994,167.179,54.126z M185.792,142.259c-0.699-4.125-0.578-8.93-2.063-12.852
		c-2.047-5.367-4.59-10.641-5.879-16.297c-1.699-7.273-1.742-15.203,4.227-20.719c11.504-10.594,27.297-6.289,32.906,7.883
		c1.379,3.484-4.262,4.938-5.625,1.5c-3.441-8.758-13.457-12.93-21.445-6.758c-8.941,6.891-4.563,18.141-0.969,26.852
		c2.848,6.977,2.984,13.539,4.848,20.719c0.441,1.703,1.621,7.641,4.988,6.289c3.105-1.258,2.395-6.758,1.91-9.047
		c-1.305-6.305-3.746-11.984-6.23-17.883c-2.332-5.563-3.09-12.5,1.773-16.852c2.82-2.516,7.883-3.109,11.141-1.109
		c13.199,8.258,11.168,30.875,9.668,43.711c-0.422,3.672-6.258,3.688-5.82-0.047c1.184-10.164,3.883-30.102-5.5-37.719
		c-1.742-1.43-5.367-2.234-6.652,0.602c-2.094,4.625,1.027,10.023,2.863,14.141c2.258,5.063,3.895,10.352,4.684,15.844
		c0.879,6.195-0.773,13.109-7.777,14.195C189.733,155.822,186.745,147.806,185.792,142.259z"/>
</g>
</svg>
