<?xml version="1.0" encoding="utf-8"?>
<!-- Generator: Adobe Illustrator 16.0.0, SVG Export Plug-In . SVG Version: 6.00 Build 0)  -->
<!DOCTYPE svg PUBLIC "-//W3C//DTD SVG 1.1//EN" "http://www.w3.org/Graphics/SVG/1.1/DTD/svg11.dtd">
<svg version="1.1" id="Layer_1" xmlns="http://www.w3.org/2000/svg" xmlns:xlink="http://www.w3.org/1999/xlink" x="0px" y="0px"
	 width="256px" height="256px" viewBox="0 0 256 256" enable-background="new 0 0 256 256" xml:space="preserve">
<g>
	<path fill="#374150" d="M54.089,128.777l0.047,0.309c0.41,3.699,4.766,36.227,34.402,36.227c29.699,0,34.012-32.535,34.398-36.18
		l0.055-0.355c3-0.434,5.695-2.176,7.621-5.023c3.152-4.633,3.629-11.125,1.168-15.777c-0.684-1.289-1.621-2.32-2.652-3.238
		c1.211-5.797,1.324-15.559,0.297-24.637c-1.625-6.879-7.512-8.594-7.512-8.594s-11.656-18.082-33.375-18.082
		c-21.727,0-33.371,18.082-33.371,18.082s-5.891,1.715-7.512,8.594c-1.031,9.078-0.918,18.84,0.297,24.645
		c-1.031,0.91-1.965,1.941-2.645,3.23c-2.465,4.652-1.996,11.137,1.156,15.777C48.39,126.602,51.089,128.344,54.089,128.777z"/>
	<path fill="#374150" d="M170.55,200.816c-2.355-17.758-15.551-27.328-27.113-32.398c1.984,9.367,3.289,24.258-3.637,37.891
		c1.309,1.652,2.129,3.715,2.129,5.988c0,5.363-4.344,9.699-9.695,9.699c-5.363,0-9.699-4.336-9.699-9.699
		c0-5.352,4.336-9.695,9.699-9.695c0.781,0,1.539,0.113,2.273,0.297c6.707-13.945,3.828-29.707,1.805-37.188
		c-6.402-2.043-11.156-2.664-11.156-2.664L99.241,201.23l0,0l-4.297-9.805c-0.797-1.895,0.266-2.578,0.816-3.457l6.844-8.789
		c0.539-0.871,0.289-2.047-0.57-2.621l-11.934-7.973c-0.426-0.289-1-0.434-1.563-0.434c-0.559,0-1.129,0.145-1.559,0.434
		l-11.93,7.973c-0.863,0.574-1.105,1.75-0.566,2.621l6.84,8.789c0.547,0.879,1.609,1.563,0.813,3.457l-4.297,9.797l-25.91-38.176
		c0,0-4.75,0.621-11.148,2.664c-1.105,4.086-2.469,10.605-2.406,17.969c9.941-0.137,16.563,9.867,19.656,19.129
		c2.789,8.305,5.031,21.758-6.391,24.551c-3.914,0.957-5.582-5.074-1.664-6.031c6.699-1.637,3.855-10.402,2.582-15.027
		c-2.316-8.375-6.684-17.598-16.922-15.785c-14.746,2.621-10.039,36.398,0.313,34.086c3.926-0.863,5.598,5.16,1.668,6.039
		c-10.688,2.375-14.793-8.32-16.43-16.738c-2.258-11.625-1.352-23.813,10.805-28.844c0.063-0.027,0.121-0.043,0.184-0.059
		c-0.199-6.352,0.605-12.102,1.543-16.621c-11.578,5.07-24.816,14.648-27.172,32.438c-3.223,24.188-2.668,36.594-2.668,36.594h84.66
		h84.672C173.21,237.41,173.765,225.004,170.55,200.816z"/>
	<path fill="#2878C8" d="M199.62,18.59c-29.023,0-52.547,18.379-52.547,41.051c0,6.668,2.074,12.945,5.684,18.508v19.23
		c0,5.133,3.145,6.543,6.988,3.141l8.813-7.82c8.707,5,19.422,7.984,31.063,7.984c29.008,0,52.539-18.367,52.539-41.043
		C252.159,36.969,228.628,18.59,199.62,18.59z M169.858,50.367c5.117,0,9.27,4.16,9.27,9.273c0,5.125-4.152,9.27-9.27,9.27
		c-5.121,0-9.273-4.145-9.273-9.27C160.585,54.527,164.737,50.367,169.858,50.367z M199.62,68.91c-5.125,0-9.277-4.145-9.277-9.27
		c0-5.121,4.152-9.273,9.277-9.273c5.113,0,9.266,4.152,9.266,9.273C208.886,64.766,204.733,68.91,199.62,68.91z M229.37,68.91
		c-5.121,0-9.273-4.145-9.273-9.27c0-5.113,4.152-9.273,9.273-9.273c5.125,0,9.277,4.16,9.277,9.273
		C238.647,64.766,234.495,68.91,229.37,68.91z"/>
</g>
</svg>
