<?xml version="1.0" encoding="utf-8"?>
<!-- Generator: Adobe Illustrator 16.0.0, SVG Export Plug-In . SVG Version: 6.00 Build 0)  -->
<!DOCTYPE svg PUBLIC "-//W3C//DTD SVG 1.1//EN" "http://www.w3.org/Graphics/SVG/1.1/DTD/svg11.dtd">
<svg version="1.1" id="Layer_1" xmlns="http://www.w3.org/2000/svg" xmlns:xlink="http://www.w3.org/1999/xlink" x="0px" y="0px"
	 width="256px" height="256px" viewBox="0 0 256 256" enable-background="new 0 0 256 256" xml:space="preserve">
<g>
	<path fill="#2878C8" d="M249.956,227.449l-24.555-24.613c9.926-14.898,8.352-35.246-4.758-48.395
		c-14.945-14.992-39.301-15.02-54.293-0.078c-14.98,14.953-15.02,39.301-0.066,54.289c13.117,13.148,33.473,14.777,48.387,4.883
		l24.551,24.613c2.957,2.965,7.746,2.969,10.719,0.016C252.894,235.207,252.901,230.41,249.956,227.449z M211.835,199.969
		c-10.152,10.141-26.66,10.125-36.805-0.043c-10.133-10.156-10.117-26.676,0.051-36.809c10.156-10.133,26.676-10.117,36.809,0.055
		C222.022,173.324,222.007,189.836,211.835,199.969z"/>
	<g>
		<path fill="#374150" d="M53.96,90.785l0.047,0.301c0.402,3.699,4.75,36.133,34.313,36.133c29.625,0,33.93-32.441,34.309-36.086
			l0.059-0.348c2.988-0.426,5.676-2.168,7.602-5.012c3.145-4.613,3.613-11.094,1.16-15.738c-0.684-1.281-1.613-2.313-2.652-3.227
			c1.211-5.785,1.332-15.516,0.301-24.57c-1.621-6.867-7.484-8.563-7.484-8.563s-11.625-18.051-33.293-18.051
			c-21.664,0-33.289,18.051-33.289,18.051s-5.867,1.695-7.488,8.563c-1.031,9.055-0.91,18.793,0.297,24.578
			c-1.031,0.906-1.965,1.938-2.637,3.219c-2.465,4.645-1.988,11.117,1.156,15.738C48.284,88.617,50.968,90.359,53.96,90.785z"/>
		<path fill="#374150" d="M163.808,146.363c-5.457-7.777-13.414-12.832-20.734-16.051c1.984,9.352,3.273,24.203-3.625,37.797
			c1.305,1.652,2.117,3.715,2.117,5.98c0,5.344-4.328,9.672-9.672,9.672c-5.34,0-9.668-4.328-9.668-9.672s4.328-9.676,9.668-9.676
			c0.781,0,1.539,0.121,2.266,0.301c6.699-13.906,3.82-29.629,1.805-37.094c-6.379-2.039-11.125-2.66-11.125-2.66l-25.84,38.09
			l-4.289-9.777c-0.789-1.887,0.258-2.578,0.816-3.449l6.82-8.766c0.539-0.871,0.289-2.047-0.559-2.625l-11.914-7.949
			c-0.426-0.277-0.984-0.43-1.555-0.43c-0.559,0-1.129,0.152-1.551,0.43l-11.906,7.949c-0.855,0.578-1.098,1.754-0.563,2.625
			l6.82,8.766c0.555,0.871,1.609,1.563,0.813,3.449l-4.281,9.777L51.8,124.961c0,0-4.727,0.621-11.109,2.66
			c-1.105,4.078-2.469,10.578-2.41,17.93c9.922-0.137,16.523,9.836,19.613,19.074c2.773,8.285,5.016,21.695-6.379,24.477
			c-3.91,0.965-5.563-5.055-1.652-6.008c6.676-1.629,3.84-10.375,2.566-14.988c-2.309-8.344-6.66-17.551-16.875-15.742
			c-14.711,2.609-10.02,36.301,0.313,34.004c3.918-0.871,5.582,5.137,1.656,6.008c-10.652,2.383-14.746-8.289-16.383-16.688
			c-2.258-11.594-1.34-23.746,10.785-28.773c0.051-0.023,0.113-0.035,0.172-0.051c-0.195-6.336,0.609-12.074,1.547-16.582
			c-11.547,5.063-24.75,14.609-27.113,32.352c-3.207,24.121-2.652,36.504-2.652,36.504h84.441h62.605
			c-6.891-16.703-3.547-36.664,10.016-50.199C161.866,148.023,162.827,147.18,163.808,146.363z"/>
	</g>
</g>
</svg>
