<?xml version="1.0" encoding="utf-8"?>
<!-- Generator: Adobe Illustrator 16.0.0, SVG Export Plug-In . SVG Version: 6.00 Build 0)  -->
<!DOCTYPE svg PUBLIC "-//W3C//DTD SVG 1.1//EN" "http://www.w3.org/Graphics/SVG/1.1/DTD/svg11.dtd">
<svg version="1.1" id="Layer_1" xmlns="http://www.w3.org/2000/svg" xmlns:xlink="http://www.w3.org/1999/xlink" x="0px" y="0px"
	 width="256px" height="256px" viewBox="0 0 256 256" enable-background="new 0 0 256 256" xml:space="preserve">
<g>
	<path fill="#374150" d="M13.633,157.531L13.633,157.531c0-21.961,17.801-35.734,39.761-35.734h149.211
		c21.961,0,39.762,13.773,39.762,35.734l0,0H13.633z"/>
	<path fill="#374150" d="M246.121,210.047h-3.754v-42.453H13.633v42.453H9.879c-3.332,0-6.039,2.695-6.039,6.031v12.766
		c0,3.336,2.707,6.031,6.039,6.031h236.242c3.332,0,6.039-2.695,6.039-6.031v-12.766
		C252.16,212.742,249.453,210.047,246.121,210.047z M69.269,196.148c-2.621,0-4.879-1.5-6.016-3.664H41.73
		c-1.136,2.164-3.378,3.664-6,3.664c-3.77,0-6.82-3.047-6.82-6.805s3.051-6.805,6.82-6.805c2.621,0,4.863,1.5,6,3.68h21.523
		c1.137-2.18,3.395-3.68,6.016-3.68c3.758,0,6.805,3.047,6.805,6.805S73.027,196.148,69.269,196.148z M144.777,196.148
		c-2.629,0-4.879-1.5-6.016-3.664h-21.523c-1.137,2.164-3.387,3.664-6.008,3.664c-3.766,0-6.813-3.047-6.813-6.805
		s3.047-6.805,6.813-6.805c2.621,0,4.871,1.5,6.008,3.68h21.523c1.137-2.18,3.387-3.68,6.016-3.68c3.758,0,6.805,3.047,6.805,6.805
		S148.535,196.148,144.777,196.148z M220.277,196.148c-2.629,0-4.871-1.5-6.008-3.664h-21.523c-1.137,2.164-3.395,3.664-6.016,3.664
		c-3.758,0-6.805-3.047-6.805-6.805s3.047-6.805,6.805-6.805c2.621,0,4.879,1.5,6.016,3.68h21.523c1.137-2.18,3.379-3.68,6.008-3.68
		c3.762,0,6.805,3.047,6.805,6.805S224.039,196.148,220.277,196.148z"/>
	<path fill="#2878C8" d="M158.359,41.438h-19.84V24.945c0-2.109-1.73-3.82-3.828-3.82h-13.383c-2.098,0-3.828,1.711-3.828,3.82
		v16.492H97.64c-2.105,0-3.816,1.727-3.816,3.82v13.391c0,2.094,1.711,3.82,3.816,3.82h19.84v40.391c0,2.109,1.73,3.82,3.828,3.82
		h13.383c2.098,0,3.828-1.711,3.828-3.82V62.469h19.84c2.105,0,3.816-1.727,3.816-3.82V45.258
		C162.175,43.164,160.464,41.438,158.359,41.438z"/>
</g>
</svg>
