<?xml version="1.0" encoding="utf-8"?>
<!-- Generator: Adobe Illustrator 16.0.0, SVG Export Plug-In . SVG Version: 6.00 Build 0)  -->
<!DOCTYPE svg PUBLIC "-//W3C//DTD SVG 1.1//EN" "http://www.w3.org/Graphics/SVG/1.1/DTD/svg11.dtd">
<svg version="1.1" id="Layer_1" xmlns="http://www.w3.org/2000/svg" xmlns:xlink="http://www.w3.org/1999/xlink" x="0px" y="0px"
	 width="256px" height="256px" viewBox="0 0 256 256" enable-background="new 0 0 256 256" xml:space="preserve">
<g>
	<polygon fill="#2878C8" points="167.688,186.203 142.922,186.203 142.922,210.68 113.078,210.68 113.078,186.203 88.313,186.203 
		88.313,157.527 113.078,157.527 113.078,133.184 142.922,133.184 142.922,157.527 167.688,157.527 	"/>
	<path fill="#2878C8" d="M19.656,103.477h33.129c8.277,0,18.445-15.805,18.066-30.492c-0.051-1.984-0.16-4.258-0.395-6.578
		c11.293-2.836,29.77-5.879,57.543-5.879s46.25,3.043,57.539,5.879c-0.234,2.32-0.34,4.594-0.395,6.578
		c-0.379,14.688,9.793,30.492,18.066,30.492h33.133c4.984,0,15.816-15.82,15.816-30.492c0-22.219-20.418-35.18-24.137-37.102
		C201.105,22,172.762,13.434,128,13.434c-44.766,0-73.105,8.566-100.023,22.449C24.254,37.805,3.84,50.766,3.84,72.984
		C3.84,87.656,14.668,103.477,19.656,103.477z"/>
	<path fill="#374150" d="M237.289,138.777c-0.758-8.23-7.371-19.945-23.027-19.945c-11.473,0-20.402,0.059-20.402,0.059
		c-7.797-2.742-16.262-11.594-16.262-19.852V85.898c0-8.293-6.73-15.02-15.035-15.02h-6.258c-8.293,0-15.027,6.727-15.027,15.02
		v15.32H128h-13.285v-15.32c0-8.293-6.73-15.02-15.02-15.02h-6.27c-8.297,0-15.027,6.727-15.027,15.02v13.141
		c0,8.258-8.469,17.109-16.27,19.852c0,0-8.918-0.059-20.398-0.059c-15.656,0-22.266,11.715-23.023,19.945l-7.266,88.832
		c-0.75,8.23,5.387,14.957,13.652,14.957H128h102.902c8.262,0,14.406-6.727,13.648-14.957L237.289,138.777z M128,228.078
		c-31.012,0-56.156-25.129-56.156-56.152c0-31.012,25.145-56.141,56.156-56.141c31.008,0,56.152,25.129,56.152,56.141
		C184.152,202.949,159.008,228.078,128,228.078z"/>
</g>
</svg>
