<?xml version="1.0" encoding="utf-8"?>
<!-- Generator: Adobe Illustrator 16.0.0, SVG Export Plug-In . SVG Version: 6.00 Build 0)  -->
<!DOCTYPE svg PUBLIC "-//W3C//DTD SVG 1.1//EN" "http://www.w3.org/Graphics/SVG/1.1/DTD/svg11.dtd">
<svg version="1.1" id="Layer_1" xmlns="http://www.w3.org/2000/svg" xmlns:xlink="http://www.w3.org/1999/xlink" x="0px" y="0px"
	 width="256px" height="256px" viewBox="0 0 256 256" enable-background="new 0 0 256 256" xml:space="preserve">
<g>
	<path fill="#374150" d="M240.158,28.605H15.834c-6.625,0-11.992,5.367-11.992,11.988V196.34c0,6.648,5.367,11.996,11.992,11.996
		h48.695l3.227,11.293c1.223,4.273,5.852,7.766,10.297,7.766h99.895c4.445,0,9.074-3.492,10.301-7.766l3.223-11.293h48.688
		c6.625,0,12-5.348,12-11.996V40.594C252.158,33.973,246.783,28.605,240.158,28.605z M232.928,190.883H23.064V46.059h209.863
		V190.883z"/>
	<g>
		<polygon fill="#2878C8" points="133.65,135.656 103.83,135.656 103.83,165.133 67.885,165.133 67.885,135.656 38.068,135.656 
			38.068,101.113 67.885,101.113 67.885,71.809 103.83,71.809 103.83,101.113 133.65,101.113 		"/>
		<g>
			<path fill="#2878C8" d="M217.932,79.973c0,0.898-0.727,1.629-1.629,1.629h-64.867c-0.902,0-1.633-0.73-1.633-1.629v-6.535
				c0-0.895,0.73-1.629,1.633-1.629h64.867c0.902,0,1.629,0.734,1.629,1.629V79.973z"/>
			<path fill="#2878C8" d="M217.932,100.855c0,0.895-0.727,1.629-1.629,1.629h-64.867c-0.902,0-1.633-0.734-1.633-1.629v-6.531
				c0-0.895,0.73-1.629,1.633-1.629h64.867c0.902,0,1.629,0.734,1.629,1.629V100.855z"/>
			<path fill="#2878C8" d="M217.932,121.742c0,0.895-0.727,1.621-1.629,1.621h-64.867c-0.902,0-1.633-0.727-1.633-1.621v-6.531
				c0-0.902,0.73-1.637,1.633-1.637h64.867c0.902,0,1.629,0.734,1.629,1.637V121.742z"/>
			<path fill="#2878C8" d="M217.932,142.621c0,0.898-0.727,1.629-1.629,1.629h-64.867c-0.902,0-1.633-0.73-1.633-1.629v-6.527
				c0-0.902,0.73-1.637,1.633-1.637h64.867c0.902,0,1.629,0.734,1.629,1.637V142.621z"/>
			<path fill="#2878C8" d="M217.932,163.504c0,0.902-0.727,1.629-1.629,1.629h-64.867c-0.902,0-1.633-0.727-1.633-1.629v-6.523
				c0-0.91,0.73-1.637,1.633-1.637h64.867c0.902,0,1.629,0.727,1.629,1.637V163.504z"/>
		</g>
	</g>
</g>
</svg>
