<?xml version="1.0" encoding="utf-8"?>
<!-- Generator: Adobe Illustrator 16.0.0, SVG Export Plug-In . SVG Version: 6.00 Build 0)  -->
<!DOCTYPE svg PUBLIC "-//W3C//DTD SVG 1.1//EN" "http://www.w3.org/Graphics/SVG/1.1/DTD/svg11.dtd">
<svg version="1.1" id="Layer_1" xmlns="http://www.w3.org/2000/svg" xmlns:xlink="http://www.w3.org/1999/xlink" x="0px" y="0px"
	 width="256px" height="256px" viewBox="0 0 256 256" enable-background="new 0 0 256 256" xml:space="preserve">
<g>
	<g>
		<path fill="#374150" d="M151.007,129.37l-17.324-25.723l-31.738,70.207c-1.789,3.953-5.199,6.332-9.121,6.348h-0.016
			c-3.91,0-7.32-2.348-9.141-6.305l-22.461-48.953l-13.445,24.902c-2.5,4.637-7.941,7.879-13.215,7.879H19.058
			c14.973,24.492,42.043,47.395,86.055,62.598c16.082-5.547,29.844-12.141,41.648-19.445c-5.863-9.535-9.305-20.703-9.305-32.695
			C137.456,153.515,142.55,140.038,151.007,129.37z"/>
		<path fill="#374150" d="M170.39,39.343c-43.844-15.672-65.277,23.977-65.277,23.977S83.698,23.671,39.835,39.343
			c-27.719,9.895-47.016,56.41-28.98,102.031h22.887l18.918-35.027c2-3.715,5.453-5.863,9.336-5.742
			c3.832,0.121,7.184,2.484,8.941,6.332l21.809,47.547l30.391-67.219c1.68-3.699,4.895-6.094,8.621-6.41
			c3.758-0.332,7.305,1.5,9.578,4.879l21.629,32.117c10.383-7.652,23.176-12.23,37.059-12.23c2.152,0,4.289,0.105,6.379,0.316
			C206.69,73.851,190.835,46.647,170.39,39.343z"/>
	</g>
	<path fill="#2878C8" d="M200.022,116.046c-28.797,0-52.137,23.34-52.137,52.137s23.34,52.141,52.137,52.141
		s52.137-23.344,52.137-52.141S228.819,116.046,200.022,116.046z M196.323,125.944c0-2.047,1.652-3.699,3.699-3.699
		s3.695,1.652,3.695,3.699v9.125c0,2.043-1.648,3.695-3.695,3.695s-3.699-1.652-3.699-3.695V125.944z M166.921,171.882h-9.141
		c-2.047,0-3.699-1.652-3.699-3.699c0-2.043,1.652-3.695,3.699-3.695h9.141c2.047,0,3.699,1.652,3.699,3.695
		C170.62,170.229,168.968,171.882,166.921,171.882z M203.718,210.425c0,2.047-1.648,3.699-3.68,3.699
		c-2.047,0-3.699-1.652-3.699-3.699v-9.141c0-2.031,1.652-3.695,3.699-3.695c2.031,0,3.68,1.664,3.68,3.695V210.425z
		 M225.71,193.874c-2.043,2.031-4.605,2.32-7.078,0.211l-13.078-12.125c-1.711,0.699-3.578,1.094-5.531,1.094
		c-8.215,0-14.871-6.656-14.871-14.871c0-8.211,6.656-14.883,14.871-14.883s14.883,6.672,14.883,14.883
		c0,1.957-0.41,3.805-1.09,5.52l12.109,13.078C228.03,189.269,227.757,191.827,225.71,193.874z M242.261,171.866h-9.121
		c-2.047,0-3.699-1.652-3.699-3.695c0-2.031,1.652-3.684,3.699-3.684h9.121c2.047,0,3.699,1.652,3.699,3.684
		C245.96,170.214,244.308,171.866,242.261,171.866z"/>
</g>
</svg>
