<?xml version="1.0" encoding="utf-8"?>
<!-- Generator: Adobe Illustrator 16.0.0, SVG Export Plug-In . SVG Version: 6.00 Build 0)  -->
<!DOCTYPE svg PUBLIC "-//W3C//DTD SVG 1.1//EN" "http://www.w3.org/Graphics/SVG/1.1/DTD/svg11.dtd">
<svg version="1.1" id="Layer_1" xmlns="http://www.w3.org/2000/svg" xmlns:xlink="http://www.w3.org/1999/xlink" x="0px" y="0px"
	 width="256px" height="256px" viewBox="0 0 256 256" enable-background="new 0 0 256 256" xml:space="preserve">
<g>
	<path fill="#374150" d="M143.611,131.183c33.055-25.75,63.23-49.242,64.672-50.359c13.383-10.43,40.301-6.414,42.98-24.648
		c4.215-28.57-7.289-15.531-17.262-28.359c-9.988-12.805-2.91-28.672-34.344-21.125c-12.656,3.031-8.852,33.18-19.535,41.5
		c-1.426,1.117-34.344,26.766-68.297,53.195c0,0-7.215,18.141-6.242,19.398c0.984,1.258,27.492-6.68,28.523-5.344
		c1.047,1.344-6.383,15.695-5.547,16.773C129.408,133.308,143.611,131.183,143.611,131.183z"/>
	<path fill="#374150" d="M131.986,141.37c-26.16,33.266-50.895,64.719-52.047,66.172c-10.473,13.32-6.578,40.273-24.828,42.875
		c-28.598,4.078-15.504-7.367-28.266-17.414c-12.777-10.047-28.676-3.031-20.992-34.438c3.094-12.633,33.223-8.695,41.605-19.352
		c1.016-1.273,22.43-28.523,46.5-59.141c0,0-0.637,18.859,1.105,20.234c1.742,1.367,24.434-13.477,25.766-12.43
		c1.336,1.047-2.531,14.688-1.453,15.539C120.451,144.261,131.986,141.37,131.986,141.37z"/>
	<g>
		<g>
			<path fill="#2878C8" d="M47.08,72.245c1.152,0.969,29.57,25.023,33.828,20.758c4.273-4.273-19.777-32.688-20.762-33.828
				c-0.973-1.133-7.914-10.758-15.871-2.805C36.35,64.315,45.943,71.269,47.08,72.245z"/>
		</g>
		<g>
			<path fill="#2878C8" d="M83.561,54.769c0.348,1.469,9.32,37.602,15.262,36.648c5.957-0.969,3.094-38.094,2.973-39.594
				c-0.121-1.484-0.137-13.352-11.23-11.563C79.482,42.065,83.197,53.315,83.561,54.769z"/>
		</g>
		<g>
			<path fill="#2878C8" d="M42.686,95.644c1.453,0.359,37.602,9.32,36.633,15.266c-0.957,5.953-38.074,3.086-39.574,2.969
				c-1.484-0.125-13.352-0.125-11.563-11.219C29.967,91.565,41.229,95.276,42.686,95.644z"/>
		</g>
	</g>
</g>
</svg>
