<?xml version="1.0" encoding="utf-8"?>
<!-- Generator: Adobe Illustrator 16.0.0, SVG Export Plug-In . SVG Version: 6.00 Build 0)  -->
<!DOCTYPE svg PUBLIC "-//W3C//DTD SVG 1.1//EN" "http://www.w3.org/Graphics/SVG/1.1/DTD/svg11.dtd">
<svg version="1.1" id="Layer_1" xmlns="http://www.w3.org/2000/svg" xmlns:xlink="http://www.w3.org/1999/xlink" x="0px" y="0px"
	 width="256px" height="256px" viewBox="0 0 256 256" enable-background="new 0 0 256 256" xml:space="preserve">
<g>
	<path fill="#2878C8" d="M208.664,68.29c-4.297-3.734-9.512-6.234-15.066-7.867c3.457-2.445,6.48-5.477,8.715-9.203
		c3.145-5.227-5.023-9.969-8.145-4.758c-2.863,4.773-7.531,7.93-12.73,9.703c2.984-6.109,3.695-13.344,2.016-20.172
		c-1.457-5.914-10.488-4.172-9.035,1.742c1.797,7.305-0.438,15.453-6.484,19.945c-1,0.375-1.82,0.711-1.941,0.742
		c-12.316,4.016-21.766,13.453-24.781,24.898c-2.727,10.352-1.719,27.133,18.613,48.258c12.246,12.734,17.953,27.086,15.672,39.391
		c-0.766,4.172-2.457,7.82-4.789,10.805c-7.414-8.984-23.723-10.227-42.711-10.227c-18.977,0-35.293,1.242-42.703,10.242
		c-2.328-3-4.023-6.648-4.797-10.82c-2.273-12.305,3.434-26.656,15.672-39.391c20.34-21.125,21.355-37.906,18.617-48.258
		c-3.008-11.445-12.465-20.883-24.777-24.898c-0.117-0.031-0.934-0.367-1.934-0.742c-6.063-4.492-8.289-12.641-6.496-19.945
		c1.457-5.914-7.57-7.656-9.023-1.742c-1.684,6.828-0.973,14.063,2.008,20.172c-5.207-1.773-9.859-4.93-12.73-9.703
		c-3.133-5.211-11.285-0.469-8.148,4.758c2.234,3.727,5.262,6.758,8.715,9.203c-5.547,1.633-10.77,4.133-15.066,7.867
		c-4.597,4,0.676,11.273,6.672,6.664c4.195-3.227,9.418-5.227,14.875-6.375c-7.223,6.453-12.059,15.164-11.117,25.398
		c0.559,6,9.141,5.18,9.391-0.898c0.508-12.484,10.07-21,19.602-24.563c7.125,2.32,15.316,8.031,17.816,17.492
		c2.918,11.094-2.613,24.32-16.012,38.25c-20.035,20.813-20.156,39.406-18.453,48.641c1.5,8.086,5.434,14.953,11.066,19.836
		c-0.07,0.789-0.152,1.547-0.152,2.367c0,18.5,15.875,39.633,37.047,44.875v7.141c0,2.789,2.262,5.047,5.039,5.047h9.785
		c2.789,0,5.039-2.258,5.039-5.047v-7.141c21.18-5.242,37.051-26.375,37.051-44.875c0-0.82-0.086-1.578-0.152-2.367
		c5.621-4.883,9.563-11.75,11.063-19.836c1.707-9.234,1.578-27.828-18.445-48.641c-13.402-13.93-18.945-27.156-16.02-38.25
		c2.5-9.461,10.703-15.172,17.809-17.492c9.551,3.563,19.105,12.078,19.613,24.563c0.242,6.078,8.82,6.898,9.383,0.898
		c0.953-10.234-3.883-18.945-11.109-25.398c5.453,1.148,10.684,3.148,14.875,6.375C207.988,79.563,213.266,72.29,208.664,68.29z
		 M127.996,229.485c-15.332,0-28.207-12.367-31.77-25.172l63.551-0.016C156.215,217.118,143.332,229.485,127.996,229.485z"/>
	<g>
		<path fill="#374150" d="M65.324,121.649c-5.32,0-10.801-1-15.945-3c-9.827-3.836-31.675-17.977-22.429-66.289
			c4.879-25.492,16.398-37.211,25.202-42.547c10.406-6.336,23.219-7.672,36.082-3.836c10.602,3.188,22.984,12.188,22.984,27.055
			c0,9.234-5.641,16.086-12.391,19.898c-2.25,1.289-7.148,1.383-8.336-2.789c-1.191-4.148,2.188-6.07,4.242-7.484
			c2.887-1.969,5.633-5.109,5.633-9.625c0-8.898-7.883-14.445-15.25-16.656c-9.879-2.953-19.598-2-27.34,2.711
			c-9.938,6.023-16.905,18.234-20.175,35.32c-7.711,40.328,8.413,51.289,15.71,54.133c7.926,3.094,17.461,2.945,23.734-0.344
			c4.207-2.219,6.906-5.719,8.027-10.445c0.863-3.641,0.637-6.531-0.152-8.711c-0.836-2.289-4.305-5.688-1.227-9.656
			c3.066-3.977,6.613-1.82,8.426,0.484c3.555,4.5,5.652,11.32,3.5,20.383c-1.848,7.805-6.523,13.867-13.535,17.555
			C77.207,120.36,71.371,121.649,65.324,121.649z"/>
	</g>
	<g>
		<path fill="#374150" d="M190.68,121.649c5.313,0,10.793-1,15.945-3c9.82-3.836,31.668-17.977,22.426-66.289
			c-4.875-25.492-16.395-37.211-25.199-42.547c-10.41-6.336-23.227-7.672-36.086-3.836c-10.609,3.188-22.984,12.188-22.984,27.055
			c0,9.234,5.645,16.086,12.391,19.898c2.25,1.289,7.145,1.383,8.336-2.789c1.18-4.148-2.184-6.07-4.246-7.484
			c-2.895-1.969-5.629-5.109-5.629-9.625c0-8.898,7.875-14.445,15.254-16.656c9.867-2.953,19.582-2,27.344,2.711
			c9.926,6.023,16.898,18.234,20.164,35.32c7.715,40.328-8.418,51.289-15.711,54.133c-7.926,3.094-17.457,2.945-23.734-0.344
			c-4.203-2.219-6.902-5.719-8.016-10.445c-0.863-3.641-0.652-6.531,0.145-8.711c0.824-2.289,4.305-5.688,1.234-9.656
			c-3.078-3.977-6.625-1.82-8.434,0.484c-3.555,4.5-5.648,11.32-3.512,20.383c1.852,7.805,6.535,13.867,13.535,17.555
			C178.785,120.36,184.617,121.649,190.68,121.649z"/>
	</g>
</g>
</svg>
