<?xml version="1.0" encoding="utf-8"?>
<!-- Generator: Adobe Illustrator 16.0.0, SVG Export Plug-In . SVG Version: 6.00 Build 0)  -->
<!DOCTYPE svg PUBLIC "-//W3C//DTD SVG 1.1//EN" "http://www.w3.org/Graphics/SVG/1.1/DTD/svg11.dtd">
<svg version="1.1" id="Layer_1" xmlns="http://www.w3.org/2000/svg" xmlns:xlink="http://www.w3.org/1999/xlink" x="0px" y="0px"
	 width="256px" height="256px" viewBox="0 0 256 256" enable-background="new 0 0 256 256" xml:space="preserve">
<g>
	<path fill="#374150" d="M123.188,32.059c0,15.582-12.641,28.223-28.223,28.223c-15.586,0-28.227-12.641-28.227-28.223
		c0-15.578,12.641-28.219,28.227-28.219C110.547,3.84,123.188,16.48,123.188,32.059z"/>
	<path fill="#2878C8" d="M142.906,133.699c0,7.789-6.32,14.109-14.113,14.109c-7.789,0-14.109-6.32-14.109-14.109
		c0-7.809,6.32-14.113,14.109-14.113C136.586,119.586,142.906,125.891,142.906,133.699z"/>
	<path fill="#2878C8" d="M49.844,116.922c0,7.789-6.32,14.109-14.109,14.109s-14.109-6.32-14.109-14.109
		c0-7.809,6.32-14.113,14.109-14.113S49.844,109.113,49.844,116.922z"/>
	<g>
		<path fill="#374150" d="M35.734,136.289c-7.441,0-13.832-4.242-17.078-10.41l-9.578,22.898c-2.625,6.32,0.379,13.598,6.711,16.219
			c6.328,2.621,13.594-0.379,16.227-6.699l9.629-23.023C39.77,135.879,37.813,136.289,35.734,136.289z"/>
		<path fill="#374150" d="M196.703,115.055c-5.012-3.863-29.563-23.645-53.352-42.77c-2.305-1.848-15.066-9.215-29.227-3.699
			c-4.707,1.82-12.227,3.973-19.168,3.973c-9.121,0-14.965-1.773-21.469-3.684c-21.426-6.289-32.098,3.578-39.641,20.035
			l-3.961,9.641c1.859-0.59,3.793-1,5.848-1c7.465,0,13.875,4.273,17.109,10.457l3.98-9.684l3.086,46.332
			c0,1.895,0.41,18.777,0.41,20.734v15.262c2.402-1.063,5.047-1.684,7.848-1.684c10.703,0,19.371,8.684,19.371,19.387
			c0,10.699-8.668,19.367-19.371,19.367c-2.801,0-5.445-0.621-7.848-1.68v21.324c0,8.168,6.621,14.793,14.789,14.793
			c8.172,0,14.793-6.625,14.793-14.793v-63.93h5.063h5.063v63.93c0,8.168,6.625,14.793,14.793,14.793
			c8.16,0,14.777-6.625,14.777-14.793v-71.977c0-1.121,0.137-7.125,0.258-12.414c-0.363,0.016-0.699,0.105-1.063,0.105
			c-10.699,0-19.367-8.684-19.367-19.383c0-10.703,8.668-19.371,19.367-19.371c1.063,0,2.078,0.137,3.086,0.305l1.219-19.676
			c0,0,43.688,35.09,49.691,39.785c6.016,4.684,14.117,2.641,17.73-2.531C204.945,125.879,202.598,119.586,196.703,115.055z"/>
	</g>
	<path fill="#2878C8" d="M82.281,198.355c0,7.789-6.32,14.109-14.113,14.109c-7.797,0-14.109-6.32-14.109-14.109
		c0-7.805,6.313-14.113,14.109-14.113C75.961,184.242,82.281,190.551,82.281,198.355z"/>
	<path fill="#2878C8" d="M197.43,151.277c-27.844,0-50.441,22.555-50.441,50.441c0,27.859,22.598,50.441,50.441,50.441
		s50.441-22.582,50.441-50.441C247.871,173.832,225.273,151.277,197.43,151.277z M200.293,228.227
		c-1.672,2.746-4.41,4.441-7.484,4.594c-0.168,0.016-0.32,0.016-0.488,0.016c-2.91,0-5.598-1.379-7.457-3.82l-20.816-27.281
		l11.465-8.762l16.324,21.387l26.652-43.77l12.324,7.5L200.293,228.227z"/>
</g>
</svg>
