<?xml version="1.0" encoding="utf-8"?>
<!-- Generator: Adobe Illustrator 16.0.0, SVG Export Plug-In . SVG Version: 6.00 Build 0)  -->
<!DOCTYPE svg PUBLIC "-//W3C//DTD SVG 1.1//EN" "http://www.w3.org/Graphics/SVG/1.1/DTD/svg11.dtd">
<svg version="1.1" id="Layer_1" xmlns="http://www.w3.org/2000/svg" xmlns:xlink="http://www.w3.org/1999/xlink" x="0px" y="0px"
	 width="256px" height="256px" viewBox="0 0 256 256" enable-background="new 0 0 256 256" xml:space="preserve">
<g>
	<path fill="#374150" d="M176.914,252.158c-0.82,0-1.668-0.078-2.516-0.242c-11.672-2.152-11.961-16.234-12.656-50.246l-0.078-3.422
		c-1.227-58.914-25.629-58.914-33.645-58.914c-8.063,0-32.449,0-33.68,58.914l-0.074,3.422
		c-0.695,34.012-0.984,48.094-12.656,50.246c-11.473,2.137-18.73-10.02-25.414-23.586c-13.098-26.539-27.949-56.637-16.492-97.406
		c4.5-15.992-1.09-31.664-6.5-46.836c-4.926-13.777-9.582-26.793-6.914-39.828c5.199-25.297,27.766-40.422,46.59-40.422
		c3.73,0,7.352,0.559,10.746,1.668c27.359,8.895,38.422,9.91,44.379,9.91c5.941,0,17.02-1.016,44.379-9.91
		c3.395-1.109,7-1.668,10.746-1.668c18.809,0,41.375,15.125,46.574,40.422c2.684,13.035-1.973,26.051-6.898,39.844
		c-5.41,15.156-11.016,30.828-6.516,46.82c11.473,40.77-3.379,70.867-16.477,97.422
		C193.629,240.881,187.219,252.158,176.914,252.158z M127.973,126.104c30.148,0,45.926,24.172,46.91,71.871l0.074,3.426
		c0.336,15.988,0.668,32.477,2.621,37.281c1.273-0.773,4.32-3.91,10.367-16.184c12.641-25.633,25.723-52.109,15.629-87.984
		c-5.656-20.051,0.953-38.543,6.773-54.863c4.289-11.992,8.336-23.328,6.41-32.723c-4.469-21.719-26.523-33.316-40.301-28.844
		c-28.813,9.367-41.027,10.563-48.453,10.563s-19.645-1.195-48.469-10.563c-13.734-4.426-35.832,7.125-40.285,28.844
		c-1.941,9.395,2.121,20.719,6.395,32.723c5.836,16.305,12.445,34.813,6.789,54.863c-10.094,35.875,2.988,62.352,15.613,87.969
		c6.063,12.289,9.109,15.426,10.379,16.199c1.957-4.805,2.289-21.293,2.625-37.281l0.059-3.426
		C82.109,150.275,97.875,126.104,127.973,126.104z"/>
	<path fill="#2878C8" d="M190.25,123.768c-6.926-20.504,2.273-34.66,3.637-47.285c1.352-12.625-14.367-25.207-32.086-20.492
		c-19.02,5.078-28.402,4.789-33.797,4.789s-14.777,0.289-33.813-4.789c-17.703-4.715-33.422,7.867-32.07,20.492
		c1.363,12.625,10.547,26.781,3.637,47.285c-15.398,45.727,3.121,84.148,6.305,84.18c5.668,0.059-17.293-100.336,55.941-100.336
		s50.273,100.395,55.941,100.336C187.113,207.916,205.648,169.494,190.25,123.768z"/>
</g>
</svg>
