<?xml version="1.0" encoding="utf-8"?>
<!-- Generator: Adobe Illustrator 16.0.0, SVG Export Plug-In . SVG Version: 6.00 Build 0)  -->
<!DOCTYPE svg PUBLIC "-//W3C//DTD SVG 1.1//EN" "http://www.w3.org/Graphics/SVG/1.1/DTD/svg11.dtd">
<svg version="1.1" id="Layer_1" xmlns="http://www.w3.org/2000/svg" xmlns:xlink="http://www.w3.org/1999/xlink" x="0px" y="0px"
	 width="256px" height="256px" viewBox="0 0 256 256" enable-background="new 0 0 256 256" xml:space="preserve">
<g>
	<path fill="#2878C8" d="M185.879,134.961c3.879-8.242,6.111-17.398,6.111-27.094c0-35.289-28.707-63.992-63.99-63.992
		s-63.99,28.703-63.99,63.992c0,9.695,2.232,18.852,6.113,27.094l13.262-25.641c-0.016-0.5-0.072-0.969-0.072-1.453
		c0-24.648,20.047-44.695,44.688-44.695s44.688,20.047,44.688,44.695c0,0.484-0.057,0.953-0.07,1.453L185.879,134.961z"/>
	<path fill="#374150" d="M198.719,22.75C164.729,7.391,145.998,3,128,3.031C110.006,3.063,91.273,7.391,57.281,22.75
		C23.289,38.102,24.047,53.453,24.047,75.039c0,13.984,0,97.289,0,97.289h16.969c2.133,0,4.535-1.625,5.338-3.594l9.295-22.922
		c0.803-1.969,0.887-5.242,0.182-7.258c0,0-6.146-17.641-6.146-29.508c0-43.273,35.064-78.344,78.316-78.344
		s78.316,35.07,78.316,78.344c0,11.867-6.146,29.508-6.146,29.508c-0.705,2.016-0.621,5.289,0.182,7.258l9.295,22.922
		c0.805,1.969,3.205,3.594,5.34,3.594h16.967c0,0,0-83.305,0-97.289C231.953,53.453,232.711,38.102,198.719,22.75z M46.699,64.758
		c-2.236,12.641-12.785,26.539-11.338,2.398c1.447-24.133,27.986-28.203,28.631-26.539C64.635,42.281,48.711,53.422,46.699,64.758z
		 M209.303,64.758c-2.012-11.336-17.938-22.477-17.293-24.141c0.643-1.664,27.182,2.406,28.629,26.539
		C222.086,91.297,211.537,77.398,209.303,64.758z"/>
	<path fill="#374150" d="M212.068,215.156l-34.936-86.07c-1.068-2.625-3.629-4.352-6.471-4.352h-12.115v-4.93
		c0-7.711-6.244-13.969-13.965-13.969H111.42c-7.723,0-13.971,6.258-13.971,13.969v4.93H85.332c-2.842,0-5.404,1.727-6.473,4.352
		l-34.936,86.07c-0.375,0.922-0.504,2.891-0.504,2.891s0,10.445,0,17.781c0,7.352,1.084,17.141,19.041,17.141
		c17.953,0,65.539,0,65.539,0s47.592,0,65.539,0c17.957,0,19.041-9.789,19.041-17.141c0-7.336-0.039-17.781-0.043-17.781
		C212.576,217.078,212.447,216.078,212.068,215.156z M128,218.781c-21.643,0-52.861-4.273-67.82-6.523l29.854-73.547h75.926
		l29.854,73.547C180.857,214.508,149.646,218.781,128,218.781z"/>
</g>
</svg>
