<?xml version="1.0" encoding="utf-8"?>
<!-- Generator: Adobe Illustrator 16.0.0, SVG Export Plug-In . SVG Version: 6.00 Build 0)  -->
<!DOCTYPE svg PUBLIC "-//W3C//DTD SVG 1.1//EN" "http://www.w3.org/Graphics/SVG/1.1/DTD/svg11.dtd">
<svg version="1.1" id="Layer_1" xmlns="http://www.w3.org/2000/svg" xmlns:xlink="http://www.w3.org/1999/xlink" x="0px" y="0px"
	 width="256px" height="256px" viewBox="0 0 256 256" enable-background="new 0 0 256 256" xml:space="preserve">
<g>
	<path fill="#2878C8" d="M248.911,139.028c-5.926-13.156-19.078-21.656-33.508-21.656c-5.23,0-10.309,1.09-15.082,3.242
		c-0.105,0.055-0.195,0.105-0.301,0.16v-0.016l-43.363,19.535c2.348,10.23,1.941,18.484-2.836,26.594l24.902-11.219
		c0.184,4.555,1.199,9.148,3.184,13.551c5.926,13.156,19.082,21.66,33.527,21.66l0,0c5.211,0,10.289-1.102,15.078-3.254
		C248.989,179.306,257.247,157.505,248.911,139.028z M221.024,166.575c-1.789,0.805-3.668,1.211-5.59,1.211
		c-5.383,0-10.277-3.156-12.477-8.047c-3.09-6.871-0.027-14.973,6.836-18.074c1.789-0.801,3.668-1.211,5.609-1.211
		c5.363,0,10.262,3.168,12.473,8.055C230.969,155.384,227.891,163.485,221.024,166.575z"/>
	<path fill="#2878C8" d="M13.383,188.364c1.668,0,10.809,0,18.203,0c10.867-5.191,23.355-11.285,31.434-15.832
		c5.762-3.23,11.156-7.328,15.262-10.77c-11.699,0-47.59,0-47.59,0c-16.703,0-22.141,10.406-23.371,21.113
		C7.047,185.325,7.458,188.364,13.383,188.364z"/>
	<path fill="#374150" d="M187.727,69.743c-0.59-9.793-4.957-18.781-12.309-25.289c-7.348-6.504-16.793-9.77-26.582-9.168
		c-9.809,0.59-18.781,4.961-25.297,12.313c-6.5,7.344-9.762,16.785-9.168,26.586c0.59,9.797,4.953,18.777,12.305,25.285
		c3.563,3.152,7.625,5.535,11.973,7.094l-47.254,53.141c0,0-10.672,10.781-22.844,17.617c-15.836,8.898-48.559,23.742-52.91,26.129
		c-6.199,3.426-12.699,7.457-11.699,12.656c0.984,5.031,6.109,5.379,14.156,3.941c6.168-1.094,50.727-9.035,74.629-13.285
		c10.883-1.934,17.613-5.109,24.918-12.527c7.531-7.637,17.672-17.656,23.082-23.082c9.426-9.43,10.426-17.871,6.957-30.125
		c-0.637-2.242-1.348-4.805-2.094-7.484l32.832-37.059v-0.008c0.027-0.047,0.09-0.09,0.133-0.145
		C185.059,88.981,188.317,79.548,187.727,69.743z M106.473,187.31c-6.773,0-12.246-5.48-12.246-12.246
		c0-6.762,5.473-12.246,12.246-12.246c6.762,0,12.23,5.484,12.23,12.246C118.704,181.829,113.235,187.31,106.473,187.31z
		 M161.278,81.024c-2.426,2.73-5.758,4.359-9.41,4.57c-3.637,0.227-7.141-0.984-9.883-3.41c-2.727-2.418-4.352-5.75-4.578-9.395
		c-0.211-3.641,1-7.156,3.41-9.883c2.426-2.73,5.762-4.359,9.414-4.578c3.637-0.219,7.137,0.984,9.883,3.41
		c2.727,2.418,4.348,5.762,4.574,9.398C164.903,74.782,163.688,78.29,161.278,81.024z"/>
</g>
</svg>
