<?xml version="1.0" encoding="utf-8"?>
<!-- Generator: Adobe Illustrator 16.0.0, SVG Export Plug-In . SVG Version: 6.00 Build 0)  -->
<!DOCTYPE svg PUBLIC "-//W3C//DTD SVG 1.1//EN" "http://www.w3.org/Graphics/SVG/1.1/DTD/svg11.dtd">
<svg version="1.1" id="Layer_1" xmlns="http://www.w3.org/2000/svg" xmlns:xlink="http://www.w3.org/1999/xlink" x="0px" y="0px"
	 width="256px" height="256px" viewBox="0 0 256 256" enable-background="new 0 0 256 256" xml:space="preserve">
<g>
	<path fill="#374150" d="M247.92,48.864c-8.359-10.914-28.813-16.523-51.713-6.188c-17.537,7.93-26.152,6.625-31.859,5.742
		l-1.984-0.289c-3.213-0.406-6.412-0.891-9.588-1.359c-8.184-1.227-16.648-2.5-24.771-2.5c-8.125,0-16.582,1.273-24.766,2.5
		c-3.168,0.469-6.381,0.953-9.609,1.359l-1.986,0.289c-5.697,0.883-14.307,2.188-31.857-5.742
		C36.885,32.34,16.438,37.95,8.08,48.864c-5.533,7.195-5.623,16.289-0.436,24.273c-0.879,4.234-1.455,11.734,3.311,17.992
		c4.695,6.156,13.092,8.867,24.762,8.289c3.107,1.703,6.865,2.719,10.936,2.719c10.041,0,18.18-6.078,19.035-13.797
		c3.365-1.469,6.449-3.32,9.102-5.211c3.357,24.281,9.533,40.469,14.043,52.18c1.039,2.688,1.979,5.125,2.75,7.367
		c2.986,8.547,2.842,16.297-0.469,25.922c-3.963,11.5-2.387,30.398,1.713,44.469c0.787,2.727,2.471,7.086,7.926,5.305
		c5.465-1.773,3.986-6.625,3.289-9.07c-3.395-11.922-4.805-27.977-1.75-36.844c2.607-7.563,5.486-19.273,0.463-33.672
		c-0.818-2.352-1.797-4.898-2.881-7.719c-5.441-14.156-13.406-35.234-15.201-70.172c3.576-0.031,6.457-0.422,8.752-0.773
		l1.721-0.258c3.305-0.422,6.594-0.922,9.852-1.391c8.109-1.234,15.762-2.383,23.008-2.383c7.244,0,14.898,1.148,23.021,2.383
		c3.244,0.469,6.533,0.969,9.822,1.391l1.727,0.258c2.35,0.352,5.305,0.773,9.018,0.789c-1.803,34.922-9.76,56-15.201,70.156
		c-1.092,2.82-2.076,5.367-2.887,7.719c-5.025,14.398-2.145,26.109,0.463,33.672c3.061,8.867,1.65,24.922-1.752,36.844
		c-0.697,2.445-2.174,7.297,3.289,9.07c5.465,1.781,7.139-2.578,7.936-5.305c4.092-14.07,5.668-32.969,1.711-44.469
		c-3.318-9.625-3.463-17.375-0.484-25.922c0.789-2.242,1.729-4.68,2.758-7.367c4.502-11.68,10.656-27.828,14.014-52.031
		c2.605,1.852,5.6,3.641,8.873,5.063c0.857,7.719,9.004,13.797,19.037,13.797c4.023,0,7.752-0.984,10.836-2.656
		c1.045,0.063,2.107,0.125,3.1,0.125c10.154,0,17.467-2.836,21.756-8.477c4.775-6.258,4.199-13.758,3.32-17.992
		C253.543,65.153,253.451,56.059,247.92,48.864z M19.34,75.114c2.145-1.883,6.389-4.766,10.459-4.289
		c2.129,0.258,4.189,1.555,6.168,3.68c-5.123,2.711-8.494,7.305-8.494,12.531c0,0.094,0.029,0.203,0.029,0.289
		c-3.305-0.563-5.813-1.648-7.115-3.336C18.279,81.262,18.879,77.098,19.34,75.114z M62.922,79.098
		c-3.016-3.805-8.107-6.43-14.049-6.977c-4.85-7.805-10.799-12.258-17.787-13.047c-6.076-0.68-11.359,1.516-15.178,3.914
		c-0.516-2.172-0.273-4.547,1.561-6.945c5.465-7.109,20.977-10.031,37.451-2.578c7.002,3.156,12.838,4.992,17.846,6.078
		c0.189,4.289,0.439,8.445,0.797,12.352C70.85,74.262,67.037,77.129,62.922,79.098z M183.498,59.481
		c4.955-1.102,10.693-2.906,17.574-6.016c16.496-7.453,31.994-4.531,37.465,2.578c1.834,2.414,2.078,4.789,1.547,6.977
		c-3.834-2.398-9.131-4.625-15.172-3.945c-6.986,0.789-12.943,5.242-17.785,13.047c-5.934,0.547-11.02,3.156-14.035,6.961
		c-4.145-1.984-7.873-4.773-10.404-7C183.051,68.09,183.309,63.864,183.498,59.481z M235.643,83.965
		c-1.303,1.695-3.818,2.797-7.152,3.359c0.006-0.086,0.037-0.195,0.037-0.289c0-5.227-3.373-9.82-8.496-12.531
		c1.986-2.125,4.033-3.422,6.17-3.68c4.061-0.477,8.305,2.406,10.449,4.289C237.158,77.215,237.658,81.309,235.643,83.965z"/>
	<path fill="#2878C8" d="M141.916,168.536c-3.145-2.031-1.689-20.891,0.273-25.461l0.342-0.609
		c2.568-4.547,10.404-18.398,9.676-49.391c-0.182-7.57,4.594-11.313,8.791-14.633c2.752-2.148,8.488-6.664,4.275-12.125
		c-3.244-4.211-10.201-3.727-23.221-2.484c-4.834,0.469-9.828,0.953-13.928,0.953c-4.092,0-9.078-0.484-13.914-0.953
		c-13.033-1.242-19.977-1.727-23.234,2.484c-4.197,5.461,1.531,9.977,4.289,12.125c4.199,3.32,8.965,7.063,8.791,14.633
		c-0.734,30.992,7.094,44.844,9.67,49.391l0.348,0.609c1.955,4.57,3.41,23.43,0.258,25.461c-1.682,0.289-3.137,1.32-4.107,2.891
		c-3.531,5.766-1.697,24.906,0.971,37.359c0.523,2.414,2.229,6.047,6.305,4.883c4.07-1.164,3.455-5.047,3.031-7
		c-2.471-11.234-3.137-24.906-2.311-29.344c1.826-0.82,3.803-2.383,5.266-5.383c4.639-9.484,1.213-29.367-0.879-33.281l-0.516-0.922
		c-2.25-3.992-9.102-16.102-8.434-44.438c0.25-10.672-5.646-16.813-10.33-20.688c3.154,0.133,6.973,0.5,9.951,0.797
		c5.055,0.484,10.283,1,14.846,1s9.799-0.516,14.854-1c2.984-0.297,6.805-0.664,9.949-0.797
		c-4.684,3.875-10.578,10.016-10.328,20.688c0.666,28.336-6.184,40.445-8.428,44.438l-0.516,0.922
		c-2.1,3.914-5.531,23.797-0.895,33.281c1.471,3,3.441,4.563,5.275,5.383c0.818,4.438,0.158,18.109-2.305,29.344
		c-0.432,1.953-1.045,5.836,3.031,7c4.063,1.164,5.775-2.469,6.299-4.883c2.674-12.453,4.5-31.594,0.977-37.359
		C145.068,169.856,143.607,168.825,141.916,168.536z"/>
</g>
</svg>
