<?xml version="1.0" encoding="utf-8"?>
<!-- Generator: Adobe Illustrator 16.0.0, SVG Export Plug-In . SVG Version: 6.00 Build 0)  -->
<!DOCTYPE svg PUBLIC "-//W3C//DTD SVG 1.1//EN" "http://www.w3.org/Graphics/SVG/1.1/DTD/svg11.dtd">
<svg version="1.1" id="Layer_1" xmlns="http://www.w3.org/2000/svg" xmlns:xlink="http://www.w3.org/1999/xlink" x="0px" y="0px"
	 width="256px" height="256px" viewBox="0 0 256 256" enable-background="new 0 0 256 256" xml:space="preserve">
<g>
	<path fill="#2878C8" d="M193.75,158.393c-17.895,0-32.391,14.512-32.391,32.402c0,17.895,14.496,32.391,32.391,32.391
		c17.891,0,32.387-14.496,32.387-32.391C226.137,172.904,211.641,158.393,193.75,158.393z M193.75,206.986
		c-8.953,0-16.195-7.25-16.195-16.195s7.242-16.203,16.195-16.203c8.949,0,16.191,7.258,16.191,16.203
		S202.699,206.986,193.75,206.986z"/>
	<path fill="#2878C8" d="M62.254,158.393c-17.895,0-32.391,14.512-32.391,32.402c0,17.895,14.496,32.391,32.391,32.391
		c17.883,0,32.387-14.496,32.387-32.391C94.641,172.904,80.137,158.393,62.254,158.393z M62.254,206.986
		c-8.945,0-16.195-7.25-16.195-16.195s7.25-16.203,16.195-16.203c8.941,0,16.191,7.258,16.191,16.203S71.195,206.986,62.254,206.986
		z"/>
	<path fill="#2878C8" d="M146.188,52.498l-1.684-14.684c0-2.758-2.234-5-5-5h-19.422c-2.758,0-5.004,2.242-5.004,5l-2.051,14.684
		H146.188z"/>
	<path fill="#374150" d="M237.316,57.783H86.586c-16.52,0-22.355,7.75-24.129,18.633l-7.32,39.559l-30.844,5.207
		c-11.262,1.957-18.633,5.707-20.148,16.906h12.48c3.273,0,5.934,2.656,5.934,5.938v6c0,3.281-2.66,5.938-5.934,5.938H3.84v29.711
		c0,8.199,6.648,14.848,14.848,14.848h4.758c-0.773-3.117-1.234-6.367-1.234-9.723c0-22.121,17.93-40.063,40.043-40.063
		c22.105,0,40.035,17.941,40.035,40.063c0,3.355-0.457,6.605-1.238,9.723h53.891c-0.773-3.117-1.227-6.367-1.227-9.723
		c0-22.121,17.93-40.063,40.035-40.063c22.109,0,40.039,17.941,40.039,40.063c0,3.355-0.461,6.605-1.234,9.723h4.762
		c8.199,0,14.844-6.648,14.844-14.848v-46.098v-2.602V72.631C252.16,64.428,245.516,57.783,237.316,57.783z M129.871,112.807H75.145
		l6.199-37.613h48.527V112.807z M219.02,115.564h-16.305v16.121h-19.652v-16.121h-16.316V96.674h16.316V80.65h19.652v16.023h16.305
		V115.564z"/>
</g>
</svg>
