<?xml version="1.0" encoding="utf-8"?>
<!-- Generator: Adobe Illustrator 16.0.0, SVG Export Plug-In . SVG Version: 6.00 Build 0)  -->
<!DOCTYPE svg PUBLIC "-//W3C//DTD SVG 1.1//EN" "http://www.w3.org/Graphics/SVG/1.1/DTD/svg11.dtd">
<svg version="1.1" id="Layer_1" xmlns="http://www.w3.org/2000/svg" xmlns:xlink="http://www.w3.org/1999/xlink" x="0px" y="0px"
	 width="256px" height="256px" viewBox="0 0 256 256" enable-background="new 0 0 256 256" xml:space="preserve">
<g>
	<path fill="#374150" d="M163.414,7.324l1.092,21.039l27.943-1.453l-24.92,24.93c-10.355-7.453-23.008-11.898-36.705-11.898
		c-14.262,0-27.387,4.82-37.963,12.844c-15.213,11.516-25.098,29.719-25.098,50.227c0,0.742,0.082,1.453,0.109,2.18
		c0.742,21.625,12.395,40.484,29.639,51.258c4.717-1.422,9.086-3.875,12.67-7.453c2.113-2.125,3.713-4.516,5.074-7.023
		c-15.461-6.195-26.426-21.305-26.426-38.961c0-2.047,0.266-4.031,0.549-6.008c2.631-18.141,16.809-32.57,34.887-35.414
		c2.145-0.352,4.322-0.563,6.559-0.563c23.154,0,41.99,18.82,41.99,41.984c0,10.063-3.559,19.289-9.477,26.539
		c-0.307,10.836-2.926,21.609-7.904,31.523c22.58-9.609,38.451-32.008,38.451-58.063c0-13.477-4.289-25.953-11.518-36.211
		l24.977-24.992l-1.447,27.945l21.045,1.094l3.471-67.008L163.414,7.324z"/>
	<path fill="#2878C8" d="M121.916,73.926c-4.713,1.438-9.078,3.875-12.67,7.469c-2.115,2.109-3.717,4.516-5.082,7.016
		c5.232,2.094,10.045,5.219,14.148,9.328c9.703,9.695,13.508,22.992,11.713,35.633c-1.236,8.695-5.043,17.078-11.713,23.75
		c-6.336,6.328-14.35,10.352-23.029,11.727c-2.189,0.352-4.406,0.578-6.666,0.578c-11.215,0-21.76-4.383-29.693-12.305
		c-15.285-15.297-16.107-39.422-2.842-55.898c0.25-10.961,2.875-21.859,7.893-31.859c-7.359,3.125-14.127,7.656-19.947,13.477
		c-24.586,24.578-24.586,64.594,0,89.18c9.459,9.453,21.408,15.469,34.359,17.578v20.641H53.141v21.07h25.246v0.406v20.445h21.068
		v-20.445v-0.406h25.242v-21.07H99.455v-20.703c9.924-1.727,19.225-5.805,27.262-11.93c2.258-1.727,4.453-3.547,6.494-5.586
		c12.861-12.859,18.928-29.938,18.336-46.82c-0.543-15.398-6.607-30.633-18.336-42.359C129.76,79.379,125.955,76.441,121.916,73.926
		z"/>
</g>
</svg>
