<?xml version="1.0" encoding="utf-8"?>
<!-- Generator: Adobe Illustrator 16.0.0, SVG Export Plug-In . SVG Version: 6.00 Build 0)  -->
<!DOCTYPE svg PUBLIC "-//W3C//DTD SVG 1.1//EN" "http://www.w3.org/Graphics/SVG/1.1/DTD/svg11.dtd">
<svg version="1.1" id="Layer_1" xmlns="http://www.w3.org/2000/svg" xmlns:xlink="http://www.w3.org/1999/xlink" x="0px" y="0px"
	 width="256px" height="256px" viewBox="0 0 256 256" enable-background="new 0 0 256 256" xml:space="preserve">
<g>
	<path fill="#374150" d="M180.516,3.84H43.109C35.336,3.84,29,10.16,29,17.949v220.082c0,7.793,6.336,14.129,14.109,14.129h169.781
		c7.773,0,14.109-6.336,14.109-14.129V50.324L180.516,3.84z M215.18,238.031c0,1.273-1.031,2.305-2.289,2.305H43.109
		c-1.258,0-2.289-1.031-2.289-2.305V17.949c0-1.273,1.031-2.289,2.289-2.289h129.039v27.598c0,8.504,6.93,15.414,15.43,15.414
		h27.602V238.031z"/>
	<g>
		<path fill="#2878C8" d="M197.613,192.32c0,0.863-0.715,1.578-1.594,1.578H59.977c-0.879,0-1.59-0.715-1.59-1.578v-6.363
			c0-0.879,0.711-1.578,1.59-1.578H196.02c0.879,0,1.594,0.699,1.594,1.578V192.32z"/>
	</g>
	<g>
		<path fill="#2878C8" d="M197.613,218.422c0,0.879-0.715,1.574-1.594,1.574H59.977c-0.879,0-1.59-0.695-1.59-1.574v-6.367
			c0-0.863,0.711-1.59,1.59-1.59H196.02c0.879,0,1.594,0.727,1.594,1.59V218.422z"/>
	</g>
	<g>
		<path fill="#2878C8" d="M197.613,166.223c0,0.863-0.715,1.574-1.594,1.574H59.977c-0.879,0-1.59-0.711-1.59-1.574v-6.367
			c0-0.879,0.711-1.574,1.59-1.574H196.02c0.879,0,1.594,0.695,1.594,1.574V166.223z"/>
	</g>
	<g>
		<path fill="#2878C8" d="M197.613,140.125c0,0.863-0.715,1.574-1.594,1.574H59.977c-0.879,0-1.59-0.711-1.59-1.574v-6.367
			c0-0.879,0.711-1.578,1.59-1.578H196.02c0.879,0,1.594,0.699,1.594,1.578V140.125z"/>
	</g>
	<g>
		<path fill="#2878C8" d="M197.613,114.023c0,0.863-0.715,1.578-1.594,1.578h-54.637c-0.879,0-1.59-0.715-1.59-1.578v-6.363
			c0-0.879,0.711-1.578,1.59-1.578h54.637c0.879,0,1.594,0.699,1.594,1.578V114.023z"/>
	</g>
	<g>
		<path fill="#2878C8" d="M197.613,87.926c0,0.863-0.715,1.574-1.594,1.574h-54.637c-0.879,0-1.59-0.711-1.59-1.574v-6.367
			c0-0.879,0.711-1.574,1.59-1.574h54.637c0.879,0,1.594,0.695,1.594,1.574V87.926z"/>
	</g>
	<path fill="#374150" d="M111.055,92.652l14.52-21.824h-16.688l-6.531,10.699l-0.742-1.242l-8.836-14.746
		c5.426-2.621,7.684-7.152,7.684-13.672V51.73c0-4.605-1.41-7.926-4.094-10.621C93.246,37.984,88.184,36,80.258,36H58.387v44.758
		h14.961V67.965H77l1.895,2.863l0,0l14.504,22.008l-15.141,22.766h16.688l7.152-11.641l7.109,11.641h17.004L111.055,92.652z
		 M73.348,57.293v-8.758h6.531c3.441,0,5.684,1.41,5.684,4.289v0.121c0,2.742-2.168,4.348-5.746,4.348H73.348z"/>
</g>
</svg>
