<?xml version="1.0" encoding="utf-8"?>
<!-- Generator: Adobe Illustrator 16.0.0, SVG Export Plug-In . SVG Version: 6.00 Build 0)  -->
<!DOCTYPE svg PUBLIC "-//W3C//DTD SVG 1.1//EN" "http://www.w3.org/Graphics/SVG/1.1/DTD/svg11.dtd">
<svg version="1.1" id="Layer_1" xmlns="http://www.w3.org/2000/svg" xmlns:xlink="http://www.w3.org/1999/xlink" x="0px" y="0px"
	 width="256px" height="256px" viewBox="0 0 256 256" enable-background="new 0 0 256 256" xml:space="preserve">
<g>
	<path fill="#2878C8" d="M244.705,82.357c9.941-9.941,9.941-26.055,0-35.996l-35.047-35.059c-9.953-9.941-26.07-9.941-36.02-0.012
		L11.307,173.65c-9.949,9.926-9.941,26.055,0,35.996l35.051,35.055c9.941,9.945,26.059,9.945,36.004,0L244.705,82.357z
		 M226.615,55.502c3.648,3.637,3.641,9.547,0,13.184c-3.645,3.652-9.555,3.652-13.191,0.016c-3.652-3.652-3.652-9.547,0-13.199
		C217.061,51.861,222.971,51.861,226.615,55.502z M202.814,92.498c-3.645,3.637-9.563,3.637-13.203,0
		c-3.637-3.641-3.637-9.551,0-13.188c3.652-3.652,9.566-3.652,13.203-0.016C206.451,82.947,206.459,88.857,202.814,92.498z
		 M200.502,29.4c3.645,3.637,3.645,9.551-0.008,13.188c-3.637,3.652-9.547,3.652-13.184,0.016c-3.652-3.652-3.652-9.566,0-13.203
		C190.955,25.748,196.857,25.748,200.502,29.4z M176.701,53.197c3.645,3.652,3.652,9.531,0,13.184
		c-3.641,3.641-9.551,3.652-13.188,0c-3.652-3.637-3.652-9.531-0.016-13.184C167.15,49.561,173.061,49.545,176.701,53.197z
		 M29.404,200.494c-3.652-3.641-3.652-9.551,0-13.188c3.645-3.652,9.555-3.652,13.199-0.016c3.645,3.652,3.641,9.563-0.008,13.203
		C38.959,204.131,33.041,204.146,29.404,200.494z M53.197,176.697c-3.645-3.637-3.637-9.547,0.008-13.203
		c3.648-3.637,9.543-3.637,13.188,0c3.645,3.656,3.637,9.551,0,13.203C62.74,180.35,56.854,180.334,53.197,176.697z M55.51,226.607
		c-3.637-3.652-3.637-9.551,0-13.203c3.652-3.637,9.551-3.637,13.195,0c3.645,3.652,3.645,9.551-0.008,13.203
		C65.061,230.244,59.146,230.26,55.51,226.607z M79.307,202.811c-3.645-3.637-3.645-9.547,0.016-13.199
		c3.637-3.641,9.547-3.652,13.184,0c3.637,3.637,3.637,9.547,0,13.199C88.861,206.447,82.959,206.447,79.307,202.811z
		 M66.318,142.748l9.363-9.359l46.941,46.93l-9.367,9.367L66.318,142.748z M180.322,122.627l-46.938-46.938l9.352-9.367
		l46.945,46.953L180.322,122.627z"/>
	<path fill="#374150" d="M205.889,134.826l-71.051,71.063l38.809,38.813c9.934,9.945,26.055,9.945,35.996,0l35.055-35.039
		c9.945-9.957,9.945-26.07,0.008-36.027L205.889,134.826z M176.709,202.811c-3.656,3.637-9.566,3.652-13.203,0
		c-3.645-3.637-3.645-9.563-0.008-13.199c3.645-3.641,9.555-3.641,13.195,0C180.346,193.264,180.346,199.174,176.709,202.811z
		 M200.494,226.623c-3.637,3.637-9.547,3.637-13.184,0c-3.652-3.652-3.652-9.566-0.008-13.203c3.645-3.652,9.539-3.652,13.191,0
		C204.139,217.057,204.139,222.971,200.494,226.623z M202.807,176.697c-3.652,3.652-9.543,3.652-13.188,0
		c-3.645-3.637-3.652-9.547-0.008-13.188c3.648-3.652,9.543-3.652,13.195-0.016C206.443,167.15,206.451,173.061,202.807,176.697z
		 M226.604,200.506c-3.641,3.641-9.559,3.641-13.188-0.012c-3.652-3.641-3.652-9.551-0.016-13.188c3.645-3.652,9.563-3.652,13.203,0
		C230.256,190.959,230.256,196.854,226.604,200.506z"/>
	<path fill="#374150" d="M50.107,121.174l71.059-71.07L82.354,11.303c-9.938-9.957-26.063-9.941-36.004,0L11.291,46.346
		c-9.934,9.941-9.934,26.07,0,36.012L50.107,121.174z M79.307,53.197c3.637-3.637,9.547-3.637,13.199,0
		c3.637,3.652,3.637,9.547-0.008,13.184c-3.645,3.652-9.547,3.652-13.191,0C75.654,62.729,75.662,56.85,79.307,53.197z M55.502,29.4
		c3.645-3.652,9.551-3.652,13.195,0c3.652,3.637,3.652,9.551,0.008,13.203c-3.645,3.637-9.559,3.637-13.195-0.016
		C51.865,38.951,51.857,33.037,55.502,29.4z M53.189,79.295c3.641-3.637,9.551-3.637,13.203,0.016c3.637,3.637,3.645,9.547,0,13.188
		c-3.645,3.652-9.555,3.652-13.203,0C49.545,88.857,49.553,82.947,53.189,79.295z M29.389,55.502
		c3.652-3.641,9.555-3.641,13.199,0.012c3.648,3.641,3.648,9.551,0,13.188c-3.645,3.637-9.547,3.637-13.199,0
		C25.752,65.064,25.744,59.154,29.389,55.502z"/>
</g>
</svg>
