<?xml version="1.0" encoding="utf-8"?>
<!-- Generator: Adobe Illustrator 16.0.0, SVG Export Plug-In . SVG Version: 6.00 Build 0)  -->
<!DOCTYPE svg PUBLIC "-//W3C//DTD SVG 1.1//EN" "http://www.w3.org/Graphics/SVG/1.1/DTD/svg11.dtd">
<svg version="1.1" id="Layer_1" xmlns="http://www.w3.org/2000/svg" xmlns:xlink="http://www.w3.org/1999/xlink" x="0px" y="0px"
	 width="256px" height="256px" viewBox="0 0 256 256" enable-background="new 0 0 256 256" xml:space="preserve">
<g>
	<path fill="#374150" d="M98.02,80.813c13.727,0,24.848-11.125,24.848-24.84s-11.121-24.84-24.848-24.84
		c-13.723,0-24.848,11.125-24.848,24.84S84.297,80.813,98.02,80.813z"/>
	<path fill="#374150" d="M194.117,235.954c-6.848-23.355-32.586-110.688-44.48-151.152c0-23.281,0-46.547,0-69.809
		c0-14.871-23.055-14.871-23.055,0c0,21.23,0,42.465,0,63.699l-28.098,8.414c-8.883,3.469-13.43,7.926-19.191,17.172
		c-6.203,9.168-12.215,18.609-16.48,28.598c-6.844,16.004,10.949,28.328,21.809,37.527c10.238,8.684,25.137-6.063,14.816-14.809
		c-4.137-3.531-8.152-7.199-12.063-10.973c-1.246-1.211-2.441-2.441-3.625-3.711c-0.531-0.547-0.879-0.973-1.168-1.352
		c0.82-1.621,1.883-3.227,2.684-4.668c2.379-4.242,4.91-8.41,7.512-12.547l16.816,43.68c-5.457,6.031-13.203,16.262-17.281,23.172
		c-9.199,15.551,3.547,38.301,7.973,53.73c4.652,16.203,29.934,9.305,25.266-6.973c-2.438-8.473-4.977-16.93-7.508-25.371
		c-0.852-2.836-1.676-5.684-2.488-8.52c0.223,0.516,0.215-1.121,1.875-3.637c4.621-6.988,10.82-13.215,16.707-19.156l14.754-4.41
		c6.656,22.688,13.309,45.375,19.969,68.066C173.605,259.099,198.887,252.2,194.117,235.954z"/>
</g>
</svg>
