<?xml version="1.0" encoding="utf-8"?>
<!-- Generator: Adobe Illustrator 16.0.0, SVG Export Plug-In . SVG Version: 6.00 Build 0)  -->
<!DOCTYPE svg PUBLIC "-//W3C//DTD SVG 1.1//EN" "http://www.w3.org/Graphics/SVG/1.1/DTD/svg11.dtd">
<svg version="1.1" id="Layer_1" xmlns="http://www.w3.org/2000/svg" xmlns:xlink="http://www.w3.org/1999/xlink" x="0px" y="0px"
	 width="256px" height="256px" viewBox="0 0 256 256" enable-background="new 0 0 256 256" xml:space="preserve">
<g>
	<path fill="#374150" d="M51.766,35.514c5.342-1.32,10.965,2.883,12.564,9.367c1.607,6.484-1.41,12.805-6.76,14.141
		c-5.334,1.32-10.957-2.883-12.549-9.367C43.415,43.17,46.438,36.834,51.766,35.514z"/>
	<path fill="#374150" d="M32.35,49.819c4.715-1.164,9.67,2.531,11.088,8.25c1.432,5.742-1.25,11.32-5.949,12.484
		c-4.713,1.172-9.686-2.531-11.094-8.258C24.969,56.553,27.653,50.975,32.35,49.819z"/>
	<path fill="#374150" d="M13.663,103.959c-4.031,1-8.289-2.164-9.494-7.078c-1.221-4.906,1.061-9.711,5.1-10.711
		c4.039-0.992,8.299,2.195,9.518,7.102C19.983,98.186,17.702,102.959,13.663,103.959z"/>
	<path fill="#374150" d="M12.875,78.147c-1.318-5.336,1.158-10.516,5.516-11.594c4.381-1.086,8.988,2.352,10.307,7.688
		c1.318,5.305-1.166,10.484-5.547,11.578C18.786,86.897,14.178,83.467,12.875,78.147z"/>
	<path fill="#374150" d="M212.559,58.069c1.41-5.719,6.381-9.414,11.094-8.25c4.699,1.156,7.367,6.734,5.949,12.477
		c-1.41,5.727-6.373,9.43-11.086,8.258C213.817,69.389,211.133,63.811,212.559,58.069z"/>
	<path fill="#374150" d="M191.659,44.881c1.605-6.484,7.229-10.688,12.572-9.367c5.326,1.32,8.35,7.656,6.752,14.141
		c-1.607,6.484-7.223,10.688-12.564,9.367C193.083,57.686,190.067,51.366,191.659,44.881z"/>
	<path fill="#374150" d="M175.577,24.053c7.057,0.219,12.564,7.336,12.309,15.914c-0.258,8.57-6.186,15.375-13.248,15.156
		c-7.047-0.211-12.549-7.344-12.283-15.922C162.612,30.616,168.522,23.842,175.577,24.053z"/>
	<path fill="#374150" d="M232.838,85.819c-4.365-1.094-6.852-6.273-5.533-11.578c1.305-5.336,5.926-8.773,10.291-7.688
		c4.365,1.078,6.852,6.258,5.533,11.594C241.819,83.467,237.217,86.897,232.838,85.819z"/>
	<path fill="#374150" d="M251.829,96.881c-1.197,4.914-5.457,8.078-9.496,7.078s-6.32-5.773-5.115-10.688
		c1.213-4.906,5.473-8.094,9.52-7.102C250.768,87.17,253.057,91.975,251.829,96.881z"/>
	<path fill="#374150" d="M92.536,41.241c0.342,0,0.668,0.078,1.002,0.109c0.053-0.711,0.129-1.406,0.105-2.148
		c-0.258-8.586-6.168-15.359-13.225-15.148c-7.055,0.219-12.557,7.336-12.299,15.914c0.221,7.461,4.744,13.57,10.564,14.891
		C78.834,47.319,84.965,41.241,92.536,41.241z"/>
	<path fill="#2878C8" d="M84.375,55.124c0-4.5,3.66-8.148,8.16-8.148c4.51,0,8.17,3.648,8.17,8.148c0,4.508-3.66,8.156-8.17,8.156
		C88.036,63.28,84.375,59.631,84.375,55.124z"/>
	<path fill="#2878C8" d="M184.581,104.139c0-4.516,3.652-8.164,8.162-8.164c4.508,0,8.16,3.648,8.16,8.164
		c0,4.508-3.652,8.156-8.16,8.156C188.233,112.295,184.581,108.647,184.581,104.139z"/>
	<path fill="#2878C8" d="M163.377,191.803c0-4.5,3.652-8.148,8.16-8.148c4.51,0,8.162,3.648,8.162,8.148
		c0,4.508-3.652,8.156-8.162,8.156C167.03,199.959,163.377,196.311,163.377,191.803z"/>
	<path fill="#374150" d="M220.834,83.452c-11.609-11.867-37.043-26.313-52.449-12.336c-21.34,19.344-12.359,45.453-10.283,68.844
		c2.092,23.398-10.002,31.055-17.141,50.289c-3.594,9.664-1.107,18.203,4.379,24.461c2.547-2.914,6.244-4.789,10.412-4.789
		c7.67,0,13.885,6.211,13.885,13.883c0,0.633-0.107,1.242-0.189,1.844c10.441,0.172,20.527-4.969,24.529-17.578
		c10.686-33.719,13.74-39.695,17.688-46.102C215.62,155.522,247.842,111.069,220.834,83.452z M171.538,205.686
		c-7.66,0-13.875-6.211-13.875-13.883c0-7.664,6.215-13.883,13.875-13.883c7.662,0,13.877,6.219,13.877,13.883
		C185.415,199.475,179.2,205.686,171.538,205.686z M192.743,118.014c-7.662,0-13.877-6.203-13.877-13.875
		c0-7.664,6.215-13.883,13.877-13.883c7.66,0,13.875,6.219,13.875,13.883C206.618,111.811,200.403,118.014,192.743,118.014z"/>
	<path fill="#2878C8" d="M147.592,223.803c0-4.516,3.652-8.172,8.16-8.172c4.51,0,8.17,3.656,8.17,8.172
		c0,4.5-3.66,8.148-8.17,8.148C151.245,231.952,147.592,228.303,147.592,223.803z"/>
	<path fill="#374150" d="M115.036,190.249c-7.146-19.234-19.225-26.891-17.135-50.289c2.078-23.391,11.049-49.5-10.291-68.844
		c-15.398-13.977-40.83,0.469-52.455,12.336c-27,27.617,5.229,72.07,9.178,78.516c3.947,6.406,6.994,12.383,17.688,46.102
		C72.704,241.78,126.911,222.178,115.036,190.249z M74.532,173.272c-7.67,0-13.877-6.219-13.877-13.867
		c0-7.672,6.207-13.883,13.877-13.883c7.668,0,13.883,6.211,13.883,13.883C88.415,167.053,82.2,173.272,74.532,173.272z"/>
	<path fill="#2878C8" d="M66.37,159.405c0-4.516,3.66-8.172,8.162-8.172c4.508,0,8.168,3.656,8.168,8.172
		c0,4.5-3.66,8.148-8.168,8.148C70.03,167.553,66.37,163.905,66.37,159.405z"/>
</g>
</svg>
