<?xml version="1.0" encoding="utf-8"?>
<!-- Generator: Adobe Illustrator 16.0.0, SVG Export Plug-In . SVG Version: 6.00 Build 0)  -->
<!DOCTYPE svg PUBLIC "-//W3C//DTD SVG 1.1//EN" "http://www.w3.org/Graphics/SVG/1.1/DTD/svg11.dtd">
<svg version="1.1" id="Layer_1" xmlns="http://www.w3.org/2000/svg" xmlns:xlink="http://www.w3.org/1999/xlink" x="0px" y="0px"
	 width="256px" height="256px" viewBox="0 0 256 256" enable-background="new 0 0 256 256" xml:space="preserve">
<g>
	<g>
		<path fill="#374150" d="M232.628,85.918C226.214,27.492,174.956-0.973,120.022,4.5C93.581,7.137,70.12,17.168,54.366,39.129
			C43.128,54.801,38.718,75.777,39.413,94.785c0.273,7.789,5.98,17.898,4.594,24.977c-2.539,12.93-16.414,23.613-20.93,36.238
			c-3.367,9.398,5.484,13.188,12.563,15.535c1.973,0.652,3.926,1.32,5.852,2.031c-0.363,0.258-0.434,1.242-0.934,3.336
			c-0.848,3.574,0.902,6.363,3.383,8.531c-1.555,5.973,1.824,10.32,8.242,13.414c-0.281,13.82,2.813,26.813,18.574,29.98
			c16.656,3.348,37.77-2.988,44.289,18.293c2.664,8.73,16.367,5,13.684-3.762c-3.305-10.773-11.707-20.898-22.316-24.992
			c-9.383-3.605-18.816-2.621-28.652-2.969c-13.098-0.469-11.914-10.535-11.211-21.234c0.223-3.199-2.332-5.941-5.203-6.836
			c-0.82-0.258-1.621-0.531-2.426-0.816c-0.016-0.016-0.031-0.016-0.055-0.031c2.258-3.957,1.008-8.246-3.281-10.309
			c1.742-5.242,2.996-8.852-3.492-13.457c-3.492-2.484-8.676-3.563-12.68-4.867c-0.824-0.254-1.422-0.242-1.91-0.133
			c0.152-0.258,0.305-0.488,0.488-0.867c1.395-2.922,3.324-5.652,5.082-8.363c5.254-8.094,15.5-18.75,15.301-29.055
			c-0.145-7.914-4.031-15.098-4.684-22.965c-1.371-16.594,2.836-33.645,11.398-47.848c14.332-23.766,42.977-30.16,68.809-30.781
			c23.84-0.59,47.629,6.715,64.641,23.824c21.539,21.676,22.465,54.898,19.75,83.348c-1.895,19.703-10.297,36.555-16.301,55.031
			c-7.117,21.914-2.191,45.484,3.57,67.082c2.363,8.836,16.051,5.09,13.688-3.762c-7.172-26.84-8.535-48.363,1.871-74.008
			C231.823,142.922,235.733,114.32,232.628,85.918z"/>
	</g>
	<path fill="#2878C8" d="M192.886,95.543c-4.477-1.395-8.637,0.469-8.637,0.469c-2.016,0.895-3.078,1.5-5.199,0.578
		c2.289-5.367,5.465-12.52,5.879-13.371c4.336-15.047-19.641-22.082-19.641-22.082c0.559,2.078,1.121,5.578-0.047,9.309
		c-3,9.531-10.281,13.32-19.824,10.336c-9.531-3.004-13.352-10.293-10.344-19.824c1.176-3.73,3.637-6.262,5.289-7.656
		c0,0-23.695-7.957-28.75,6.867c-0.129,0.938-1.629,8.625-2.813,14.32c-2.258-0.438-2.805-1.559-3.941-3.438
		c0,0-2.348-3.91-6.82-5.305c-7.32-2.305-15.109,1.758-17.414,9.063c-2.289,7.32,1.773,15.125,9.078,17.43
		c4.488,1.41,8.641-0.453,8.641-0.453c2.016-0.91,3.09-1.504,5.199-0.563c-2.289,5.336-5.449,12.504-5.883,13.336
		c-4.34,15.051,19.645,22.098,19.645,22.098c-0.563-2.074-1.129-5.59,0.043-9.305c2.996-9.547,10.293-13.336,19.824-10.32
		c9.52,2.969,13.34,10.262,10.344,19.809c-1.172,3.727-3.645,6.273-5.297,7.652c0,0,23.699,7.957,28.77-6.879
		c0.121-0.941,1.621-8.625,2.801-14.309c2.273,0.441,2.805,1.531,3.941,3.441c0,0,2.352,3.895,6.828,5.305
		c7.313,2.289,15.105-1.773,17.398-9.078C204.261,105.637,200.19,97.848,192.886,95.543z"/>
</g>
</svg>
