<?xml version="1.0" encoding="utf-8"?>
<!-- Generator: Adobe Illustrator 16.0.0, SVG Export Plug-In . SVG Version: 6.00 Build 0)  -->
<!DOCTYPE svg PUBLIC "-//W3C//DTD SVG 1.1//EN" "http://www.w3.org/Graphics/SVG/1.1/DTD/svg11.dtd">
<svg version="1.1" id="Layer_1" xmlns="http://www.w3.org/2000/svg" xmlns:xlink="http://www.w3.org/1999/xlink" x="0px" y="0px"
	 width="256px" height="256px" viewBox="0 0 256 256" enable-background="new 0 0 256 256" xml:space="preserve">
<g>
	<path fill="#374150" d="M126.951,99.551c22.113,0,37.527-24.719,37.527-46.898c0-5.449-0.09-13.285-2.711-20.977
		c-3.879-11.391-12.688-15.605-17.371-15.887c-2.984-6.637-8.5-11.949-17.445-11.949c-9.715,0-21.824,10.738-28.992,21.266
		c-3.273,4.805-8.531,14.82-8.531,27.547C89.428,74.832,104.842,99.551,126.951,99.551z M100.596,52.137
		c5.004,0.332,34.18-1.379,44.031-13.285c1.621,4.957,8.379,9.48,8.379,9.48c0.168,1.41,0.348,2.82,0.348,4.32
		c0,18.391-12.836,35.781-26.402,35.781c-13.578,0-26.402-17.391-26.402-35.781C100.549,52.469,100.596,52.309,100.596,52.137z"/>
	<path fill="#374150" d="M215.709,152.871c-8.836-48.938-46.273-57.184-58.703-58.578c-5.59,8.262-16.398,13.945-29.008,13.945
		c-12.594,0-23.414-5.684-28.992-13.945c-12.43,1.395-49.863,9.641-58.715,58.578l7.59,1.121
		c-1.453,10.875-2.484,24.516-1.785,39.477l0.043,1.234c0.199,5.441,0.773,21.984,15.25,21.984c4.258,0,7.957-1.457,10.668-4.199
		c4.91-4.977,5.457-12.656,5.379-18.793l-0.043-1.715c-0.289-14.145,0.363-24.984,1.516-33.379l6.426,0.953
		c0,0-5.836,30.988-3.578,92.605h46.242h46.258c2.242-61.617-3.578-92.605-3.578-92.605l6.426-0.953
		c1.152,8.395,1.805,19.234,1.5,33.379l-0.027,1.707c-0.078,6.145,0.469,13.824,5.379,18.801c2.715,2.742,6.41,4.199,10.672,4.199
		c14.473,0,15.047-16.543,15.23-21.984l0.063-1.234c0.695-14.961-0.336-28.602-1.789-39.477L215.709,152.871z M66.283,192.219
		l0.031,1.613c0.074,5.668-0.668,9.313-2.168,10.844c-0.41,0.418-1.109,0.895-2.758,0.895c-2.305,0-3.805-1.879-4.141-11.254
		l-0.043-1.371c-0.668-14.043,0.332-26.98,1.711-37.316l8.973,1.336C66.557,166.785,65.994,178.457,66.283,192.219z
		 M198.811,192.945l-0.063,1.371c-0.316,9.375-1.82,11.254-4.121,11.254c-1.668,0-2.352-0.477-2.762-0.895
		c-1.516-1.531-2.242-5.176-2.164-10.852l0.027-1.605c0.289-13.77-0.27-25.434-1.621-35.254l9.004-1.336
		C198.475,165.953,199.459,178.879,198.811,192.945z"/>
</g>
</svg>
