<?xml version="1.0" encoding="utf-8"?>
<!-- Generator: Adobe Illustrator 16.0.0, SVG Export Plug-In . SVG Version: 6.00 Build 0)  -->
<!DOCTYPE svg PUBLIC "-//W3C//DTD SVG 1.1//EN" "http://www.w3.org/Graphics/SVG/1.1/DTD/svg11.dtd">
<svg version="1.1" id="Layer_1" xmlns="http://www.w3.org/2000/svg" xmlns:xlink="http://www.w3.org/1999/xlink" x="0px" y="0px"
	 width="256px" height="256px" viewBox="0 0 256 256" enable-background="new 0 0 256 256" xml:space="preserve">
<g>
	<path fill="#374150" d="M126.947,99.551c22.113,0,37.523-24.719,37.523-46.898c0-15.711-7.895-28.246-20.086-34.391
		c0-0.098,0.035-0.203,0.035-0.305c0-7.781-7.813-14.117-17.473-14.117c-9.656,0-17.461,6.336-17.461,14.117
		c0,0.102,0.039,0.191,0.039,0.297c-12.195,6.145-20.098,18.68-20.098,34.398C89.428,74.832,104.834,99.551,126.947,99.551z
		 M126.947,88.434c-12.188,0-23.691-14.027-25.934-30.207c19.43-2.266,31.207-11.758,38.254-18.293
		c2.91,5.789,7.762,10.086,14.027,13.469C152.947,71.512,140.33,88.434,126.947,88.434z"/>
	<path fill="#374150" d="M215.709,152.871c-8.844-48.938-46.281-57.184-58.707-58.578c-5.586,8.262-16.402,13.945-29.004,13.945
		s-23.414-5.684-29-13.945c-12.422,1.395-49.871,9.641-58.707,58.578L47.869,154c-1.441,10.867-2.48,24.516-1.773,39.469
		l0.043,1.234c0.184,5.441,0.758,21.984,15.234,21.984c4.273,0,7.957-1.457,10.668-4.199c4.918-4.977,5.457-12.656,5.383-18.793
		l-0.031-1.715c-0.297-14.145,0.363-24.984,1.5-33.379l6.441,0.953c0,0-5.836,30.988-3.578,92.605h46.242h46.25
		c2.25-61.617-3.578-92.605-3.578-92.605l6.43-0.953c1.148,8.395,1.801,19.234,1.508,33.379l-0.039,1.707
		c-0.078,6.145,0.469,13.824,5.379,18.801c2.715,2.742,6.414,4.199,10.672,4.199c14.473,0,15.051-16.543,15.238-21.984l0.055-1.234
		c0.695-14.953-0.336-28.602-1.789-39.469L215.709,152.871z M66.283,192.219l0.023,1.613c0.066,5.668-0.66,9.313-2.176,10.844
		c-0.41,0.418-1.09,0.895-2.758,0.895c-2.305,0-3.797-1.879-4.125-11.254l-0.051-1.371c-0.66-14.043,0.34-26.973,1.711-37.309
		l8.98,1.336C66.541,166.785,65.986,178.449,66.283,192.219z M198.803,192.945l-0.055,1.371c-0.324,9.375-1.824,11.254-4.129,11.254
		c-1.66,0-2.352-0.477-2.758-0.895c-1.508-1.531-2.246-5.176-2.168-10.852l0.031-1.605c0.285-13.77-0.273-25.434-1.625-35.246
		l9.004-1.344C198.467,165.953,199.467,178.871,198.803,192.945z"/>
</g>
</svg>
