<?xml version="1.0" encoding="utf-8"?>
<!-- Generator: Adobe Illustrator 16.0.0, SVG Export Plug-In . SVG Version: 6.00 Build 0)  -->
<!DOCTYPE svg PUBLIC "-//W3C//DTD SVG 1.1//EN" "http://www.w3.org/Graphics/SVG/1.1/DTD/svg11.dtd">
<svg version="1.1" id="Layer_1" xmlns="http://www.w3.org/2000/svg" xmlns:xlink="http://www.w3.org/1999/xlink" x="0px" y="0px"
	 width="256px" height="256px" viewBox="0 0 256 256" enable-background="new 0 0 256 256" xml:space="preserve">
<g>
	<path fill="#374150" d="M128.178,207.152l33.723,33.723c15.043,15.051,39.438,15.051,54.473,0
		c15.035-15.035,15.039-39.422,0-54.473l-33.73-33.723L128.178,207.152z"/>
	<path fill="#374150" d="M59.064,152.664l-33.73,33.738c-15.043,15.051-15.043,39.422,0.008,54.473
		c15.035,15.051,39.43,15.051,54.473,0l33.723-33.723L59.064,152.664z"/>
	<path fill="#2878C8" d="M233.967,4.332c-34.176,28.266-58.488,29.598-82.965,46.5c-43.754,30.176-29.645,74.688-22.371,91.086
		c0,0-8.121,15.387-33.129,34.496c0,0,2.652,2.621,10.289,2.621c7.336,0,11.656-2.785,11.656-2.785
		c12.883-10.551,22.535-27.813,22.535-27.813C260.447,147.332,246.412-5.945,233.967,4.332z M201.783,88.129
		c-9.426,12.898-28.539,32.191-55.008,39.211c0,0,55.348-50.063,74.445-91.105C221.221,36.234,218.631,65.094,201.783,88.129z"/>
	<path fill="#2878C8" d="M87.877,74.336c-19.574-11.699-38.238-11.5-65.809-31.418c-9.941-7.199-13.059,108.73,76.75,105.641
		c0.781-0.016,7.172-0.137,7.957-0.184c2.32-3.668,3.602-7.836,4.031-9.246C115.432,124.156,119.857,93.434,87.877,74.336z
		 M50.889,105.406C36.846,88.645,33.42,66.684,33.42,66.684c16.664,30.449,61.512,65.977,61.512,65.977
		C74.326,128.613,58.748,114.82,50.889,105.406z"/>
</g>
</svg>
